<svg width="51" height="43" viewBox="0 0 51 43" fill="none" xmlns="http://www.w3.org/2000/svg">
<path fill-rule="evenodd" clip-rule="evenodd" d="M7.82368 1.64435C4.33847 1.64435 1.64435 4.05174 1.64435 7.13932V34.2767C1.64435 36.1015 2.0085 37.3792 2.50738 38.2772C3.00404 39.1712 3.65806 39.7321 4.31058 40.0903C4.9705 40.4525 5.63878 40.6121 6.14875 40.6794C6.402 40.7128 6.61084 40.7227 6.75242 40.7246C6.82304 40.7255 6.8764 40.7243 6.90957 40.7232C6.92615 40.7226 6.93763 40.722 6.94366 40.7217L6.94492 40.7216L6.94585 40.7216L6.94664 40.7215L6.94781 40.7214C6.9676 40.72 6.98787 40.7192 7.00771 40.7192H44.4832V36.0923C44.4832 35.6382 44.8513 35.2701 45.3054 35.2701C45.7595 35.2701 46.1276 35.6382 46.1276 36.0923V41.5414C46.1276 41.9955 45.7595 42.3636 45.3054 42.3636H7.03301C7.01602 42.3645 6.99388 42.3656 6.96692 42.3665C6.90949 42.3685 6.82995 42.37 6.73143 42.3688C6.53474 42.3663 6.26034 42.3527 5.9337 42.3096C5.28387 42.2239 4.40577 42.0183 3.51931 41.5317C2.62545 41.0411 1.73308 40.2694 1.06995 39.0758C0.40904 37.8861 0 36.3212 0 34.2767V7.13932C0 2.96218 3.62302 0 7.82368 0H45.3313C45.3313 0 45.3317 0 45.3317 0.822176L45.3313 0C45.7854 0 46.1539 0.368101 46.1539 0.822176V18.0462C46.1539 18.5002 45.7858 18.8683 45.3317 18.8683C44.8776 18.8683 44.5095 18.5002 44.5095 18.0462V1.64435H7.82368Z" fill="#A7A9AC"/>
<path fill-rule="evenodd" clip-rule="evenodd" d="M6.24405 15.3457C6.69813 15.3457 7.06623 15.7138 7.06623 16.1679V37.4882C7.06623 37.9423 6.69813 38.3104 6.24405 38.3104C5.78998 38.3104 5.42188 37.9423 5.42188 37.4882V16.1679C5.42188 15.7138 5.78998 15.3457 6.24405 15.3457Z" fill="#A7A9AC"/>
<path fill-rule="evenodd" clip-rule="evenodd" d="M1.85143 5.69423L1.85081 5.70124C1.85016 5.70892 1.84908 5.72253 1.84783 5.74168C1.84531 5.78002 1.84211 5.84033 1.84024 5.91946C1.83649 6.07805 1.83816 6.31013 1.86099 6.59072C1.90703 7.15654 2.03705 7.89389 2.36246 8.61893C2.68484 9.33721 3.1954 10.0372 4.01058 10.5628C4.82607 11.0885 6.00331 11.4762 7.71894 11.4762H45.3319C45.3321 11.4762 45.3323 11.4762 45.3323 12.2984C45.3323 13.1206 45.3321 13.1206 45.3319 13.1206H7.71894C5.74957 13.1206 4.24862 12.6726 3.11961 11.9448C1.99029 11.2168 1.29006 10.2454 0.862281 9.29224C0.437534 8.34588 0.278016 7.41182 0.222058 6.72407C0.19389 6.37789 0.191452 6.08765 0.196342 5.88062C0.198792 5.77694 0.203092 5.69362 0.207003 5.63402C0.208959 5.6042 0.210821 5.58027 0.212312 5.56265C0.213057 5.55384 0.21371 5.5466 0.214236 5.54098L0.214925 5.53378L0.21519 5.5311L0.215302 5.52999C0.215351 5.52951 0.215398 5.52905 1.03155 5.61259L0.215398 5.52905C0.261637 5.07733 0.665308 4.74863 1.11702 4.79486C1.56798 4.84103 1.89634 5.24343 1.85143 5.69423ZM46.1544 12.2984C46.1544 12.7525 45.7863 13.1206 45.3323 13.1206V12.2984V11.4762C45.7863 11.4762 46.1544 11.8443 46.1544 12.2984Z" fill="#A7A9AC"/>
<path fill-rule="evenodd" clip-rule="evenodd" d="M0.18457 6.42887C0.18457 5.97479 0.552671 5.60669 1.00675 5.60669H45.3057C45.7598 5.60669 46.1279 5.97479 46.1279 6.42887C46.1279 6.88294 45.7598 7.25104 45.3057 7.25104H1.00675C0.552671 7.25104 0.18457 6.88294 0.18457 6.42887Z" fill="#A7A9AC"/>
<path fill-rule="evenodd" clip-rule="evenodd" d="M18.6667 20.8853C15.0359 20.8853 12.0926 23.8287 12.0926 27.4595C12.0926 31.0903 15.0359 34.0336 18.6667 34.0336C22.2975 34.0336 25.2409 31.0903 25.2409 27.4595C25.2409 23.8287 22.2975 20.8853 18.6667 20.8853ZM10.4482 27.4595C10.4482 22.9205 14.1278 19.241 18.6667 19.241C23.2057 19.241 26.8852 22.9205 26.8852 27.4595C26.8852 31.9984 23.2057 35.678 18.6667 35.678C14.1278 35.678 10.4482 31.9984 10.4482 27.4595Z" fill="#A7A9AC"/>
<path d="M17.1673 27.4857C16.4303 27.7226 16.0618 27.2752 15.667 26.7487C16.1671 26.7487 16.6672 26.7487 17.1673 26.7487C17.1673 26.1433 17.1936 25.5643 17.1673 24.9852C17.141 24.722 16.7988 24.5114 16.483 24.5641C16.404 24.5641 16.325 24.5904 16.2461 24.6167C16.1934 24.5377 16.1671 24.4588 16.1145 24.3798C15.8776 23.8797 15.9302 23.7218 16.4566 23.5375C17.1936 23.2743 17.8253 23.6691 17.957 24.5114C18.0359 24.9852 18.0096 25.459 18.0096 25.9591C18.0096 26.196 18.0096 26.4592 18.0096 26.7224C18.6413 26.5908 18.8256 27.1699 19.1677 27.4857C18.7992 27.4857 18.4044 27.4857 18.0096 27.4857C18.0096 27.7226 18.0096 27.9595 18.0096 28.1701C18.0096 28.6702 18.0096 29.144 18.0096 29.6441C18.0096 30.1968 18.2465 30.4601 18.7992 30.4864C18.9572 30.4864 19.1151 30.4864 19.2467 30.4337C20.01 30.0916 20.5365 29.5388 20.7733 28.7228C20.7997 28.6702 20.7997 28.5912 20.7997 28.5123C20.6154 28.4859 20.4048 28.486 20.2206 28.4333C19.7731 28.328 19.5362 27.9595 19.5362 27.3541C19.5362 26.8803 19.7995 26.5118 20.2469 26.4066C21.0629 26.2223 21.7999 26.7224 22.0105 27.591C22.1684 28.1964 22.0894 28.8018 21.7999 29.3809C21.2208 30.4601 20.4048 31.2234 19.1151 31.3813C18.2991 31.4866 17.4832 30.8022 17.2463 30.2758C17.1936 30.1705 17.1936 30.0652 17.1936 29.9336C17.1936 29.2229 17.1936 28.5123 17.1936 27.8016C17.1673 27.749 17.1673 27.67 17.1673 27.4857Z" fill="#A7A9AC"/>
<path d="M49.754 21.4556C49.754 22.0969 49.8275 22.7383 49.7393 23.3585C49.5334 24.8668 48.6586 25.9662 47.2838 26.7203C47.1147 26.812 46.9162 26.9952 46.8942 27.1573C46.8795 27.2771 47.1074 27.4745 47.2691 27.559C48.9086 28.4612 49.7614 29.8003 49.8055 31.6116C49.8128 31.9428 49.8128 32.267 49.8128 32.5983C49.8128 32.6194 49.8275 32.6406 49.8349 32.6688C50.7318 32.9014 50.9817 33.2115 50.9891 34.1136C50.9891 34.3955 50.9964 34.6774 50.9891 34.9593C50.9744 35.6007 50.4892 36.08 49.8275 36.087C46.681 36.0941 43.5345 36.0941 40.3806 36.087C39.741 36.087 39.2558 35.6007 39.2337 34.9875C39.2264 34.6704 39.2337 34.3532 39.2337 34.0361C39.2337 33.2256 39.5499 32.852 40.3806 32.6899C40.41 32.112 40.388 31.52 40.4688 30.942C40.6894 29.4338 41.5422 28.3343 42.9169 27.5802C43.086 27.4886 43.3139 27.2983 43.3139 27.1503C43.3139 27.0023 43.0934 26.819 42.9169 26.7203C41.3143 25.8253 40.4615 24.5073 40.41 22.7312C40.3953 22.3084 40.41 21.8855 40.41 21.4697C39.4837 21.2371 39.2337 20.9199 39.2337 20.0248C39.2337 19.757 39.2337 19.4822 39.2337 19.2143C39.2411 18.5307 39.7263 18.0514 40.4321 18.0514C43.5565 18.0444 46.681 18.0444 49.8055 18.0514C50.4892 18.0514 50.9817 18.5307 50.9964 19.1861C51.0038 19.4892 50.9964 19.7993 50.9964 20.1024C50.9891 20.8988 50.673 21.2723 49.754 21.4556ZM41.5789 21.4344C41.5789 21.8221 41.5789 22.1885 41.5789 22.548C41.5716 23.9787 42.2259 25.05 43.5418 25.7266C44.1373 26.0367 44.5196 26.4737 44.5196 27.1432C44.5196 27.8057 44.13 28.2427 43.5345 28.5528C41.7701 29.462 41.4025 31.0055 41.6377 32.6688C43.9682 32.6688 46.2987 32.6688 48.6439 32.6688C48.6439 32.408 48.6365 32.1684 48.6439 31.9358C48.7027 30.3571 48.0043 29.2224 46.556 28.4682C45.4092 27.8762 45.4165 26.4455 46.5413 25.8041C46.8942 25.5997 47.2618 25.3883 47.5632 25.1205C48.7027 24.1126 48.7321 22.7947 48.6218 21.4274C46.2767 21.4344 43.9535 21.4344 41.5789 21.4344ZM40.4174 20.2645C43.5639 20.2645 46.6736 20.2645 49.7908 20.2645C49.7908 19.8909 49.7908 19.5456 49.7908 19.1791C46.6589 19.1791 43.5492 19.1791 40.4174 19.1791C40.4174 19.5526 40.4174 19.898 40.4174 20.2645ZM49.7981 33.8458C46.6516 33.8458 43.5345 33.8458 40.4247 33.8458C40.4247 34.2193 40.4247 34.5647 40.4247 34.9312C43.5565 34.9312 46.6736 34.9312 49.7981 34.9312C49.7981 34.5647 49.7981 34.2193 49.7981 33.8458Z" fill="#A7A9AC"/>
</svg>
