<svg width="54" height="44" viewBox="0 0 54 44" fill="none" xmlns="http://www.w3.org/2000/svg">
<path fill-rule="evenodd" clip-rule="evenodd" d="M8.12481 1.70764C4.50546 1.70764 1.70764 4.20769 1.70764 7.41411V35.596C1.70764 37.491 2.08581 38.818 2.60389 39.7505C3.11967 40.6789 3.79886 41.2613 4.47649 41.6333C5.16181 42.0095 5.85582 42.1753 6.38541 42.2451C6.64841 42.2798 6.86529 42.2901 7.01232 42.292C7.08566 42.293 7.14107 42.2918 7.17552 42.2906C7.19273 42.29 7.20465 42.2894 7.21091 42.289L7.21223 42.289C7.21255 42.289 7.21287 42.2889 7.21319 42.2889C7.21346 42.2889 7.21374 42.2889 7.21401 42.2889C7.21442 42.2888 7.21482 42.2888 7.21523 42.2888C7.21538 42.2888 7.21552 42.2888 7.21567 42.2887C7.23623 42.2873 7.25683 42.2865 7.27743 42.2865H46.1953V32.6165C46.1953 32.145 46.5776 31.7627 47.0492 31.7627C47.5207 31.7627 47.903 32.145 47.903 32.6165V43.1403C47.903 43.6119 47.5207 43.9941 47.0492 43.9941H7.3037C7.28606 43.9951 7.26307 43.9962 7.23507 43.9972C7.17543 43.9993 7.09283 44.0008 6.99052 43.9995C6.78626 43.9969 6.5013 43.9829 6.16208 43.9381C5.48724 43.8491 4.57535 43.6356 3.65477 43.1303C2.7265 42.6207 1.79978 41.8193 1.11114 40.5798C0.424784 39.3444 0 37.7192 0 35.596V7.41411C0 3.07619 3.76247 0 8.12481 0H47.0761C47.0764 0 47.0765 0 47.0765 0.853821V0C47.5481 0 47.9303 0.382269 47.9303 0.853821V24.0062C47.9303 24.4777 47.5481 24.86 47.0765 24.86C46.605 24.86 46.2227 24.4777 46.2227 24.0062V1.70764H8.12481Z" fill="#A7A9AC"/>
<path fill-rule="evenodd" clip-rule="evenodd" d="M6.48468 15.9365C6.95623 15.9365 7.3385 16.3188 7.3385 16.7903V38.9313C7.3385 39.4029 6.95623 39.7851 6.48468 39.7851C6.01313 39.7851 5.63086 39.4029 5.63086 38.9313V16.7903C5.63086 16.3188 6.01313 15.9365 6.48468 15.9365Z" fill="#A7A9AC"/>
<path fill-rule="evenodd" clip-rule="evenodd" d="M1.92302 5.91309L1.92238 5.92037C1.92171 5.92835 1.92059 5.94249 1.91928 5.96237C1.91667 6.00218 1.91334 6.06482 1.9114 6.14699C1.90751 6.31169 1.90925 6.5527 1.93296 6.84409C1.98076 7.43168 2.11579 8.19742 2.45373 8.95037C2.78851 9.69629 3.31872 10.4233 4.16527 10.969C5.01215 11.515 6.23471 11.9176 8.01637 11.9176H47.077C47.0773 11.9176 47.0774 11.9176 47.0774 12.7715C47.0774 13.6253 47.0773 13.6253 47.077 13.6253H8.01637C5.97121 13.6253 4.41248 13.1601 3.24001 12.4042C2.06723 11.6482 1.34005 10.6394 0.895802 9.64959C0.454707 8.6668 0.28905 7.69679 0.230938 6.98258C0.201686 6.62306 0.199154 6.32166 0.204232 6.10666C0.206776 5.99899 0.211241 5.91246 0.215303 5.85056C0.217334 5.8196 0.219268 5.79475 0.220816 5.77645C0.22159 5.7673 0.222268 5.75978 0.222814 5.75395L0.22353 5.74647L0.223805 5.74369L0.223921 5.74254C0.223973 5.74203 0.224021 5.74155 1.07159 5.82831L0.224022 5.74155C0.27204 5.27245 0.691248 4.9311 1.16035 4.97911C1.62866 5.02705 1.96966 5.44495 1.92302 5.91309ZM47.9312 12.7715C47.9312 13.243 47.549 13.6253 47.0774 13.6253V12.7715V11.9176C47.549 11.9176 47.9312 12.2999 47.9312 12.7715Z" fill="#A7A9AC"/>
<path fill-rule="evenodd" clip-rule="evenodd" d="M0.192383 6.67609C0.192383 6.20453 0.574652 5.82227 1.0462 5.82227H47.0502C47.5218 5.82227 47.904 6.20453 47.904 6.67609C47.904 7.14764 47.5218 7.52991 47.0502 7.52991H1.0462C0.574652 7.52991 0.192383 7.14764 0.192383 6.67609Z" fill="#A7A9AC"/>
<path fill-rule="evenodd" clip-rule="evenodd" d="M19.3854 21.6891C15.6149 21.6891 12.5582 24.7457 12.5582 28.5163C12.5582 32.2868 15.6149 35.3434 19.3854 35.3434C23.156 35.3434 26.2126 32.2868 26.2126 28.5163C26.2126 24.7457 23.156 21.6891 19.3854 21.6891ZM10.8506 28.5163C10.8506 23.8026 14.6718 19.9814 19.3854 19.9814C24.0991 19.9814 27.9202 23.8026 27.9202 28.5163C27.9202 33.2299 24.0991 37.0511 19.3854 37.0511C14.6718 37.0511 10.8506 33.2299 10.8506 28.5163Z" fill="#A7A9AC"/>
<path d="M17.8286 28.5434C17.0632 28.7894 16.6805 28.3247 16.2705 27.778C16.7899 27.778 17.3092 27.778 17.8286 27.778C17.8286 27.1493 17.8559 26.548 17.8286 25.9466C17.8012 25.6733 17.4459 25.4546 17.1179 25.5093C17.0359 25.5093 16.9539 25.5366 16.8719 25.5639C16.8172 25.4819 16.7899 25.3999 16.7352 25.3179C16.4892 24.7986 16.5439 24.6346 17.0905 24.4432C17.8559 24.1699 18.5119 24.5799 18.6486 25.4546C18.7306 25.9466 18.7033 26.4386 18.7033 26.958C18.7033 27.204 18.7033 27.4773 18.7033 27.7507C19.3593 27.614 19.5506 28.2154 19.906 28.5434C19.5233 28.5434 19.1133 28.5434 18.7033 28.5434C18.7033 28.7894 18.7033 29.0354 18.7033 29.2541C18.7033 29.7734 18.7033 30.2655 18.7033 30.7848C18.7033 31.3589 18.9493 31.6322 19.5233 31.6595C19.6873 31.6595 19.8513 31.6595 19.988 31.6049C20.7807 31.2495 21.3274 30.6755 21.5734 29.8281C21.6007 29.7734 21.6007 29.6914 21.6007 29.6094C21.4094 29.5821 21.1907 29.5821 20.9994 29.5274C20.5347 29.4181 20.2887 29.0354 20.2887 28.4067C20.2887 27.9147 20.562 27.532 21.0267 27.4227C21.8741 27.2313 22.6395 27.7507 22.8581 28.6527C23.0221 29.2814 22.9401 29.9101 22.6394 30.5115C22.0381 31.6322 21.1907 32.4249 19.8513 32.5889C19.004 32.6982 18.1566 31.9875 17.9106 31.4409C17.8559 31.3315 17.8559 31.2222 17.8559 31.0855C17.8559 30.3475 17.8559 29.6094 17.8559 28.8714C17.8286 28.8167 17.8286 28.7347 17.8286 28.5434Z" fill="#A7A9AC"/>
<path fill-rule="evenodd" clip-rule="evenodd" d="M41.4777 18.6742C41.8034 18.8031 42.0173 19.1178 42.0173 19.4681V23.5072H52.8354C53.3069 23.5072 53.6892 23.8894 53.6892 24.361V32.2333C53.6892 32.7049 53.3069 33.0872 52.8354 33.0872H42.3727V37.5362C42.3727 37.8863 42.159 38.2009 41.8335 38.33C41.5081 38.459 41.1368 38.3762 40.8969 38.1212L32.2319 28.9095C31.923 28.5811 31.9227 28.0691 32.2312 27.7403L40.5409 18.8839C40.7805 18.6284 41.1519 18.5453 41.4777 18.6742ZM34.0253 28.3238L40.665 35.3824V32.2333C40.665 31.7618 41.0473 31.3795 41.5189 31.3795H51.9815V25.2148H41.1635C40.692 25.2148 40.3097 24.8325 40.3097 24.361V21.6259L34.0253 28.3238Z" fill="#A7A9AC"/>
</svg>
