<svg width="49" height="44" viewBox="0 0 49 44" fill="none" xmlns="http://www.w3.org/2000/svg">
<path fill-rule="evenodd" clip-rule="evenodd" d="M8.63472 1.90451C5.07677 1.90451 2.34983 4.35838 2.34983 7.48202V35.5328C2.34983 37.4053 2.72344 38.7082 3.22901 39.6182C3.73203 40.5236 4.39321 41.0903 5.05266 41.4523C5.72069 41.819 6.3984 41.9811 6.91681 42.0495C7.17402 42.0834 7.3858 42.0934 7.52872 42.0953C7.59998 42.0962 7.6535 42.095 7.68628 42.0939C7.70266 42.0933 7.71379 42.0927 7.71931 42.0924M0.445312 7.48202C0.445312 3.09643 4.24813 0 8.63472 0H47.4048C47.4051 0 47.4052 0 47.4052 0.952257V0C47.9311 0 48.3574 0.42634 48.3574 0.952257V23.9969C48.3574 24.0751 48.348 24.1511 48.3302 24.2238V43.042C48.3302 43.5679 47.9039 43.9943 47.378 43.9943H7.82021C7.8024 43.9952 7.7798 43.9963 7.7527 43.9972C7.69182 43.9994 7.60798 44.0009 7.50441 43.9996C7.29767 43.997 7.00995 43.9828 6.66774 43.9376C5.98733 43.8479 5.06661 43.6325 4.1362 43.1218C3.19722 42.6063 2.25998 41.7956 1.56417 40.5431C0.870916 39.2953 0.445312 37.6598 0.445312 35.5328V7.48202ZM7.72293 42.0922C7.74568 42.0906 7.76848 42.0898 7.79129 42.0898H46.4257V21.9835C46.4257 21.9053 46.4351 21.8293 46.4529 21.7566V1.90451H8.63472" fill="#A7A9AC"/>
<path fill-rule="evenodd" clip-rule="evenodd" d="M7.00255 15.835C7.52847 15.835 7.95481 16.2613 7.95481 16.7872V38.8252C7.95481 39.3511 7.52847 39.7774 7.00255 39.7774C6.47663 39.7774 6.05029 39.3511 6.05029 38.8252V16.7872C6.05029 16.2613 6.47663 15.835 7.00255 15.835Z" fill="#A7A9AC"/>
<path fill-rule="evenodd" clip-rule="evenodd" d="M1.71184 4.92983C2.234 4.98328 2.61425 5.4491 2.56249 5.97104L2.56195 5.97722C2.56133 5.98453 2.56026 5.99796 2.559 6.0171C2.55649 6.05539 2.55324 6.11631 2.55135 6.19657C2.54755 6.35748 2.54923 6.59375 2.5725 6.8797C2.61947 7.45696 2.75202 8.20688 3.0822 8.94255C3.40887 9.67038 3.9248 10.3771 4.74785 10.9077C5.57126 11.4385 6.76797 11.8355 8.52554 11.8355H47.4045C47.4047 11.8355 47.4048 11.8355 47.4048 12.7878C47.4048 13.7401 47.4047 13.7401 47.4045 13.7401H8.52554C6.47408 13.7401 4.90245 13.2733 3.71591 12.5084C2.52902 11.7432 1.79342 10.7222 1.34467 9.72239C0.899439 8.73038 0.732716 7.75264 0.674256 7.03415C0.644808 6.67223 0.64224 6.3686 0.647366 6.15159C0.649934 6.04288 0.654447 5.95533 0.658576 5.8924C0.660642 5.86091 0.662616 5.83554 0.664209 5.8167C0.665005 5.80728 0.665707 5.79949 0.666279 5.79339L0.667034 5.7855L0.66733 5.78251L0.667456 5.78126C0.667513 5.7807 0.667567 5.78017 1.61487 5.87714L0.667567 5.78017C0.721122 5.25698 1.18866 4.87627 1.71184 4.92983ZM47.4048 12.7878V13.7401C47.9307 13.7401 48.3571 13.3137 48.3571 12.7878C48.3571 12.2619 47.9307 11.8355 47.4048 11.8355V12.7878Z" fill="#A7A9AC"/>
<path fill-rule="evenodd" clip-rule="evenodd" d="M0.636475 6.71983C0.636475 6.19392 1.06281 5.76758 1.58873 5.76758H47.3787C47.9046 5.76758 48.3309 6.19392 48.3309 6.71983C48.3309 7.24575 47.9046 7.67209 47.3787 7.67209H1.58873C1.06281 7.67209 0.636475 7.24575 0.636475 6.71983Z" fill="#A7A9AC"/>
<path fill-rule="evenodd" clip-rule="evenodd" d="M26.4286 21.1125C22.7321 21.1125 19.7356 24.1091 19.7356 27.8055C19.7356 31.502 22.7321 34.4985 26.4286 34.4985C30.125 34.4985 33.1216 31.502 33.1216 27.8055C33.1216 24.1091 30.125 21.1125 26.4286 21.1125ZM17.8311 27.8055C17.8311 23.0572 21.6803 19.208 26.4286 19.208C31.1769 19.208 35.0261 23.0572 35.0261 27.8055C35.0261 32.5538 31.1769 36.403 26.4286 36.403C21.6803 36.403 17.8311 32.5538 17.8311 27.8055Z" fill="#A7A9AC"/>
<path d="M24.8785 27.8335C24.1167 28.0784 23.7357 27.6158 23.3276 27.0717C23.8446 27.0717 24.3615 27.0717 24.8785 27.0717C24.8785 26.4459 24.9057 25.8474 24.8785 25.2488C24.8512 24.9767 24.4976 24.7591 24.1711 24.8135C24.0894 24.8135 24.0078 24.8407 23.9262 24.8679C23.8718 24.7863 23.8446 24.7047 23.7902 24.623C23.5453 24.1061 23.5997 23.9428 24.1439 23.7524C24.9057 23.4803 25.5586 23.8884 25.6947 24.7591C25.7763 25.2488 25.7491 25.7385 25.7491 26.2555C25.7491 26.5003 25.7491 26.7724 25.7491 27.0445C26.4021 26.9084 26.5925 27.507 26.9462 27.8335C26.5653 27.8335 26.1572 27.8335 25.7491 27.8335C25.7491 28.0784 25.7491 28.3232 25.7491 28.5409C25.7491 29.0578 25.7491 29.5476 25.7491 30.0645C25.7491 30.6359 25.994 30.9079 26.5653 30.9351C26.7286 30.9351 26.8918 30.9351 27.0278 30.8807C27.8168 30.527 28.361 29.9557 28.6059 29.1122C28.6331 29.0578 28.6331 28.9762 28.6331 28.8946C28.4426 28.8674 28.225 28.8674 28.0345 28.813C27.572 28.7041 27.3271 28.3232 27.3271 27.6975C27.3271 27.2077 27.5992 26.8268 28.0617 26.718C28.9051 26.5275 29.6669 27.0445 29.8846 27.9423C30.0478 28.5681 29.9662 29.1939 29.6669 29.7924C29.0684 30.9079 28.225 31.6969 26.8918 31.8602C26.0484 31.969 25.2049 31.2616 24.9601 30.7175C24.9057 30.6086 24.9057 30.4998 24.9057 30.3638C24.9057 29.6292 24.9057 28.8946 24.9057 28.16C24.8785 28.1056 24.8785 28.024 24.8785 27.8335Z" fill="#A7A9AC"/>
</svg>
