<svg width="60" height="43" viewBox="0 0 60 43" fill="none" xmlns="http://www.w3.org/2000/svg">
<path fill-rule="evenodd" clip-rule="evenodd" d="M8.55346 1.66781C5.01853 1.66781 2.28598 4.10955 2.28598 7.24117V34.7657C2.28598 36.6165 2.65532 37.9125 3.16131 38.8233C3.66506 39.7301 4.32841 40.2989 4.99024 40.6622C5.65958 41.0297 6.3374 41.1916 6.85463 41.2598C7.1115 41.2937 7.32332 41.3037 7.46692 41.3056C7.53855 41.3065 7.59266 41.3053 7.62632 41.3042C7.64312 41.3036 7.65477 41.303 7.66088 41.3026L7.66217 41.3026C7.66248 41.3026 7.66279 41.3026 7.66311 41.3025C7.66337 41.3025 7.66364 41.3025 7.66391 41.3025C7.6643 41.3025 7.6647 41.3024 7.6651 41.3024C7.66524 41.3024 7.66539 41.3024 7.66553 41.3024C7.68561 41.3009 7.70573 41.3002 7.72585 41.3002H45.736V31.8558C45.736 31.3952 46.1094 31.0219 46.5699 31.0219C47.0305 31.0219 47.4038 31.3952 47.4038 31.8558V42.1341C47.4038 42.5946 47.0305 42.968 46.5699 42.968H7.75151C7.73428 42.9689 7.71183 42.97 7.68448 42.971C7.62623 42.973 7.54555 42.9745 7.44563 42.9732C7.24614 42.9707 6.96782 42.957 6.63652 42.9133C5.97742 42.8263 5.08679 42.6178 4.18768 42.1243C3.28107 41.6266 2.37597 40.8439 1.70338 39.6333C1.03304 38.4267 0.618164 36.8394 0.618164 34.7657V7.24117C0.618164 3.00444 4.29288 0 8.55346 0H46.5962C46.5965 0 46.5966 0 46.5966 0.833906V0C47.0572 0 47.4305 0.373352 47.4305 0.833906V23.4462C47.4305 23.9068 47.0572 24.2801 46.5966 24.2801C46.1361 24.2801 45.7627 23.9068 45.7627 23.4462V1.66781H8.55346Z" fill="#A7A9AC"/>
<path fill-rule="evenodd" clip-rule="evenodd" d="M6.95134 15.5645C7.41189 15.5645 7.78524 15.9378 7.78524 16.3984V38.0229C7.78524 38.4834 7.41189 38.8568 6.95134 38.8568C6.49078 38.8568 6.11743 38.4834 6.11743 38.0229V16.3984C6.11743 15.9378 6.49078 15.5645 6.95134 15.5645Z" fill="#A7A9AC"/>
<path fill-rule="evenodd" clip-rule="evenodd" d="M2.49641 5.77499L2.49578 5.7821C2.49513 5.78989 2.49403 5.8037 2.49275 5.82312C2.4902 5.862 2.48695 5.92318 2.48506 6.00343C2.48126 6.16429 2.48295 6.39968 2.50611 6.68428C2.5528 7.25816 2.68468 8.00603 3.01473 8.74142C3.34171 9.46995 3.85955 10.18 4.68636 10.713C5.51348 11.2462 6.70753 11.6395 8.44763 11.6395H46.5972C46.5975 11.6395 46.5976 11.6395 46.5976 12.4734C46.5976 13.3073 46.5975 13.3073 46.5972 13.3073H8.44763C6.45017 13.3073 4.9278 12.853 3.78268 12.1147C2.63725 11.3763 1.92704 10.3911 1.49315 9.42434C1.06234 8.46447 0.900548 7.51709 0.843791 6.81953C0.815222 6.4684 0.812749 6.17403 0.817709 5.96405C0.820193 5.85888 0.824554 5.77437 0.828521 5.71392C0.830505 5.68368 0.832394 5.65941 0.833906 5.64154C0.834662 5.6326 0.835324 5.62526 0.835857 5.61956L0.836557 5.61225L0.836826 5.60954L0.836939 5.60842C0.836989 5.60792 0.837037 5.60745 1.66483 5.69219L0.837037 5.60745C0.883935 5.14929 1.29337 4.8159 1.75152 4.8628C2.20892 4.90962 2.54196 5.31777 2.49641 5.77499ZM47.4315 12.4734C47.4315 12.9339 47.0581 13.3073 46.5976 13.3073V12.4734V11.6395C47.0581 11.6395 47.4315 12.0128 47.4315 12.4734Z" fill="#A7A9AC"/>
<path fill-rule="evenodd" clip-rule="evenodd" d="M0.80542 6.52043C0.80542 6.05988 1.17877 5.68652 1.63933 5.68652H46.5703C47.0308 5.68652 47.4042 6.05988 47.4042 6.52043C47.4042 6.98098 47.0308 7.35434 46.5703 7.35434H1.63933C1.17877 7.35434 0.80542 6.98098 0.80542 6.52043Z" fill="#A7A9AC"/>
<path fill-rule="evenodd" clip-rule="evenodd" d="M19.5513 21.1834C15.8687 21.1834 12.8834 24.1688 12.8834 27.8514C12.8834 31.534 15.8687 34.5193 19.5513 34.5193C23.2339 34.5193 26.2193 31.534 26.2193 27.8514C26.2193 24.1688 23.2339 21.1834 19.5513 21.1834ZM11.2156 27.8514C11.2156 23.2477 14.9476 19.5156 19.5513 19.5156C24.155 19.5156 27.8871 23.2477 27.8871 27.8514C27.8871 32.4551 24.155 36.1871 19.5513 36.1871C14.9476 36.1871 11.2156 32.4551 11.2156 27.8514Z" fill="#A7A9AC"/>
<path d="M18.0305 27.8784C17.283 28.1187 16.9092 27.6648 16.5088 27.1309C17.016 27.1309 17.5233 27.1309 18.0305 27.1309C18.0305 26.5169 18.0572 25.9295 18.0305 25.3422C18.0038 25.0752 17.6568 24.8617 17.3364 24.9151C17.2563 24.9151 17.1762 24.9418 17.0961 24.9685C17.0427 24.8884 17.016 24.8083 16.9626 24.7282C16.7224 24.2209 16.7758 24.0608 17.3097 23.8739C18.0572 23.6069 18.6979 24.0074 18.8314 24.8617C18.9115 25.3422 18.8848 25.8228 18.8848 26.33C18.8848 26.5703 18.8848 26.8372 18.8848 27.1042C19.5255 26.9707 19.7124 27.5581 20.0595 27.8784C19.6857 27.8784 19.2853 27.8784 18.8848 27.8784C18.8848 28.1187 18.8848 28.359 18.8848 28.5725C18.8848 29.0798 18.8848 29.5603 18.8848 30.0676C18.8848 30.6282 19.1251 30.8952 19.6857 30.9219C19.8459 30.9219 20.0061 30.9219 20.1396 30.8685C20.9138 30.5214 21.4477 29.9608 21.688 29.1332C21.7147 29.0798 21.7147 28.9997 21.7147 28.9196C21.5278 28.8929 21.3142 28.8929 21.1274 28.8395C20.6735 28.7327 20.4332 28.359 20.4332 27.7449C20.4332 27.2644 20.7002 26.8906 21.1541 26.7838C21.9817 26.597 22.7292 27.1042 22.9428 27.9852C23.1029 28.5992 23.0228 29.2133 22.7292 29.8006C22.1418 30.8952 21.3142 31.6694 20.0061 31.8296C19.1785 31.9364 18.3509 31.2422 18.1106 30.7083C18.0572 30.6015 18.0572 30.4947 18.0572 30.3612C18.0572 29.6404 18.0572 28.9196 18.0572 28.1988C18.0305 28.1454 18.0305 28.0653 18.0305 27.8784Z" fill="#A7A9AC"/>
<path fill-rule="evenodd" clip-rule="evenodd" d="M50.7434 18.2392C50.4253 18.3651 50.2163 18.6725 50.2163 19.0146V22.9594H39.6506C39.1901 22.9594 38.8167 23.3328 38.8167 23.7934V31.4821C38.8167 31.9426 39.1901 32.316 39.6506 32.316H49.8693V36.6613C49.8693 37.0032 50.078 37.3105 50.3959 37.4365C50.7137 37.5625 51.0763 37.4817 51.3106 37.2326L59.7735 28.2358C60.0752 27.915 60.0755 27.415 59.7742 27.0938L51.6584 18.444C51.4243 18.1945 51.0615 18.1133 50.7434 18.2392ZM58.0219 27.6637L51.5371 34.5577V31.4821C51.5371 31.0215 51.1637 30.6482 50.7032 30.6482H40.4845V24.6273H51.0502C51.5108 24.6273 51.8841 24.2539 51.8841 23.7934V21.1221L58.0219 27.6637Z" fill="#A7A9AC"/>
</svg>
