<svg width="40" height="45" viewBox="0 0 40 45" fill="none" xmlns="http://www.w3.org/2000/svg">
<path d="M27.5187 40.2743C27.5187 41.3662 27.5187 42.449 27.5187 43.5318C27.5187 43.7153 27.5187 43.8989 27.5003 44.0824C27.4174 44.688 27.0582 45 26.4504 45C17.9958 45 9.53208 45 1.07754 45C0.377599 45 0 44.633 0 43.9264C0 29.6391 0 15.3609 0 1.07361C0 0.357871 0.368389 0 1.08675 0C9.53208 0 17.9682 0 26.4135 0C27.0766 0 27.4358 0.330343 27.5095 0.972675C27.5279 1.11949 27.5187 1.27549 27.5187 1.43148C27.5187 6.87296 27.5187 12.3236 27.5187 17.7651C27.5187 17.9303 27.5187 18.0954 27.5187 18.3248C28.1726 17.866 28.8357 17.655 29.5817 17.7009C30.3 17.7467 30.9447 17.967 31.4512 18.4625C33.505 20.4812 35.5864 22.4816 37.5481 24.5738C40.7439 27.758 39.1598 32.0524 38.948 32.7773C38.5796 34.0069 34.0208 41.2102 29.5909 40.5312C28.9186 40.4761 28.237 40.366 27.5187 40.2743ZM16.7525 36.824C16.7525 36.824 16.863 37.7508 16.7801 38.2372C16.5223 39.7329 15.1224 40.8982 13.5751 40.8524C12.0003 40.8065 10.6372 39.5585 10.4991 38.0353C10.3517 36.4111 11.3924 34.9429 12.9305 34.6126C13.1975 34.5575 13.5751 34.6034 13.7041 34.4474C13.833 34.2914 13.9896 33.2453 13.2896 33.2453C10.5451 33.2637 7.79144 33.2545 5.04693 33.2545C4.31937 33.2545 3.97861 32.9333 3.92335 32.2176C3.91414 32.0983 3.91414 14.1405 3.91414 5.28548C3.91414 4.20269 4.22727 3.88153 5.30481 3.88153C10.9412 3.88153 16.5683 3.88153 22.2047 3.88153C23.2546 3.88153 23.5769 4.20269 23.5769 5.24878C23.5769 10.0479 23.5769 19.9674 23.5769 20.206C24.065 19.793 24.5255 19.5177 25.0781 19.4719C25.4465 19.4352 25.5386 19.2975 25.5386 18.9305C25.5294 13.4248 25.5202 7.91905 25.5386 2.41334C25.5386 1.98206 25.4004 1.93617 25.0321 1.93617C17.5077 1.94535 9.99256 1.94535 2.46821 1.93617C2.06298 1.93617 1.94325 2.01876 1.94325 2.45004C1.95246 15.8106 1.95246 29.1803 1.94325 42.5408C1.94325 42.9537 2.03535 43.0638 2.459 43.0638C9.98335 43.0455 25.1702 43.0455 25.2531 43.0546C25.4741 43.0822 25.5386 42.9904 25.5386 42.7702C25.5294 41.8526 25.5294 40.935 25.5386 40.0173C25.5386 39.7696 25.4557 39.687 25.2255 39.6136C23.6874 39.1456 22.1863 38.5767 20.6759 38.0353C19.3865 37.5856 16.7525 36.824 16.7525 36.824ZM19.1931 22.7936C19.6444 21.9494 20.3075 21.408 21.2192 21.2429C21.5784 21.1786 21.606 21.0318 21.606 20.7382C21.5968 15.9207 21.5968 11.1032 21.606 6.28569C21.606 5.92781 21.5047 5.86358 21.1732 5.86358C16.2091 5.87276 11.2543 5.87276 6.29946 5.86358C5.99554 5.86358 5.88502 5.91864 5.88502 6.24898C5.89423 14.48 5.89423 22.7019 5.88502 30.9329C5.88502 31.2357 5.9587 31.3091 6.26262 31.3091C9.02554 31.3 11.7885 31.3 14.5514 31.3C14.7448 31.3 14.9014 31.2633 15.0671 31.1531C15.6658 30.7677 16.3289 30.6393 17.038 30.6852C17.5998 30.7219 18.1708 30.7861 18.8063 30.7127C18.6221 30.5383 18.5024 30.4282 18.3826 30.3089C15.896 27.8314 13.4094 25.363 10.932 22.8762C9.62417 21.564 9.71627 19.5361 11.1069 18.4349C12.2858 17.499 13.9804 17.6366 15.1592 18.802C16.3933 20.0133 17.6182 21.2429 18.8431 22.4633C18.9444 22.5734 19.0641 22.6743 19.1931 22.7936ZM16.8999 32.6397C16.2276 32.6213 15.7763 32.9333 15.675 33.5481C15.5737 34.1538 15.8684 34.5392 16.5775 34.7043C17.1577 34.8328 17.7379 34.9704 18.309 35.1448C20.7587 35.9156 23.1256 36.925 25.5846 37.6774C27.0029 38.1087 28.4397 38.5033 29.9316 38.5858C33.855 38.072 37.2073 31.8138 37.2718 31.5202C37.8152 29.0977 37.3639 26.9596 35.4943 25.1886C34.2418 23.9957 30.6408 20.3619 30.0329 19.8022C29.7751 19.5636 29.4435 19.4627 29.1028 19.6462C28.7344 19.8481 28.0897 20.5546 28.8173 21.3254C29.2225 21.8301 29.2133 22.3807 28.7988 22.7569C28.3844 23.1332 27.8226 23.0873 27.3621 22.6468C26.9937 22.2981 26.6622 21.9219 26.2846 21.5824C25.732 21.0869 25.0229 21.252 24.7466 21.9311C24.5808 22.344 24.7097 22.7019 24.986 23.0322C25.4189 23.5644 25.4097 24.115 24.9768 24.5004C24.5532 24.8766 23.9914 24.8124 23.5032 24.3352C23.1533 23.9957 22.8217 23.6287 22.4441 23.3167C22.0021 22.9405 21.6337 22.968 21.2192 23.3534C20.86 23.6837 20.8969 24.2618 21.3574 24.9959C21.7626 25.6291 21.3758 26.4366 20.6298 26.51C20.2246 26.5467 19.9391 26.3265 19.672 26.0512C17.7748 24.1517 15.8776 22.2614 13.9712 20.3711C13.8238 20.2243 13.6672 20.0683 13.4923 19.949C13.0686 19.6646 12.6081 19.7104 12.2674 20.0408C11.9266 20.3711 11.8713 20.8116 12.1476 21.252C12.2582 21.4264 12.4147 21.5916 12.5621 21.7384C15.6658 24.8307 18.7694 27.9231 21.8731 31.0155C22.2231 31.355 22.3981 31.7404 22.177 32.2084C21.9652 32.6764 21.5692 32.8049 21.0811 32.7957C20.3904 32.7681 17.5998 32.658 16.8999 32.6397ZM13.6672 36.4937C13.0134 36.4845 12.4608 37.0167 12.4516 37.6682C12.4424 38.3106 12.9673 38.8611 13.6304 38.8795C14.3211 38.8978 14.8553 38.3748 14.8553 37.6866C14.8553 37.0167 14.3396 36.5029 13.6672 36.4937Z" fill="#B4B4B4"/>
</svg>
