<svg width="53" height="45" viewBox="0 0 53 45" fill="none" xmlns="http://www.w3.org/2000/svg">
<path d="M52.3513 23.2926C52.3513 20.5273 52.3639 17.7619 52.3639 15.0092C52.3639 14.4938 52.1246 14.167 51.6461 13.9533C49.3037 12.91 46.9613 11.8416 44.6189 10.7732C43.7751 10.3835 42.9314 9.99386 42.075 9.62934C41.5839 9.41565 41.0801 9.61677 40.8282 10.0693C40.6016 10.4841 40.7275 10.9743 41.1431 11.276C41.269 11.364 41.4075 11.4268 41.5461 11.4897C43.8507 12.5329 46.1553 13.5762 48.4473 14.6321C48.5985 14.7075 48.7496 14.7829 48.9637 14.896C48.7874 14.984 48.6992 15.0469 48.5984 15.0846C42.5158 17.8499 36.4331 20.6153 30.3504 23.368C30.1615 23.456 29.8845 23.456 29.6956 23.368C23.6507 20.6278 17.6058 17.8876 11.5609 15.1349C11.4223 15.072 11.2838 14.9966 11.0697 14.8835C11.3594 14.7452 11.5609 14.6446 11.7624 14.5567C14.067 13.5134 16.3716 12.4701 18.6636 11.4142C19.2681 11.1377 19.4948 10.5972 19.2555 10.0944C19.0036 9.56649 18.4747 9.39051 17.8702 9.65448C14.6967 11.0874 11.5105 12.5204 8.33692 13.9533C7.88355 14.1544 7.69465 14.5064 7.69465 14.9715C7.69465 17.5985 7.70724 20.2256 7.70724 22.8527C3.27432 24.0845 0 28.1445 0 32.9461C0 38.7031 4.69739 43.379 10.4652 43.379C13.6136 43.379 16.4346 41.9838 18.3614 39.7841C21.4594 41.1919 24.5574 42.5997 27.6554 44.0075C28.348 44.3217 29.0281 44.6737 29.7081 45.0005C29.9348 45.0005 30.1489 45.0005 30.3756 45.0005C30.5267 44.9125 30.6778 44.8119 30.8416 44.7365C32.1387 44.1457 33.4484 43.555 34.7456 42.9516C40.3875 40.3874 46.0294 37.8232 51.6713 35.2715C52.175 35.0453 52.3513 34.6933 52.3513 34.1528C52.3513 30.5453 52.3513 26.9127 52.3513 23.2926ZM29.0533 39.0047C29.0533 40.0606 29.0533 41.1164 29.0533 42.1723C29.0533 42.2477 29.0407 42.3357 29.0281 42.474C28.474 42.2226 27.9451 41.9963 27.4161 41.7575C24.7841 40.5634 22.152 39.3567 19.52 38.1626C20.4141 36.6291 20.9305 34.8442 20.9305 32.9461C20.9305 27.1892 16.2331 22.5133 10.4652 22.5133C10.2008 22.5133 9.9363 22.5259 9.67183 22.551C9.67183 20.7032 9.65924 18.8555 9.65924 17.0078C9.65924 16.8443 9.65924 16.6809 9.65924 16.4295C10.6667 16.8821 11.5986 17.3094 12.5306 17.7242C17.505 19.9868 22.4669 22.2493 27.4413 24.5119C27.8443 24.7004 28.2347 24.9141 28.6503 25.0649C28.9651 25.1781 29.0533 25.354 29.0533 25.6808C29.0533 30.118 29.0533 34.5676 29.0533 39.0047ZM50.0467 33.8889C43.8507 36.6793 37.6673 39.495 31.4838 42.298C31.3579 42.3483 31.232 42.3986 31.0431 42.474C31.0305 42.2854 31.0179 42.1472 31.0179 41.9963C31.0179 36.5536 31.0179 31.111 31.0179 25.6683C31.0179 25.3415 31.1312 25.1906 31.4335 25.0524C36.9998 22.5259 42.5661 19.9993 48.1325 17.4603C48.8755 17.1209 49.6185 16.7941 50.4245 16.4295C50.4245 18.4784 50.4245 20.4519 50.4245 22.4253C50.4245 26.0454 50.4245 29.678 50.4245 33.2981C50.4245 33.6123 50.3364 33.7632 50.0467 33.8889Z" fill="#B4B4B4"/>
<path d="M21.9632 8.22059C24.3937 10.6591 26.8369 13.0976 29.2674 15.5362C29.7586 16.0264 30.3127 16.0389 30.8038 15.5362C32.6173 13.7135 34.4308 11.8909 36.2442 10.0683C36.9747 9.32672 37.7177 8.59768 38.4481 7.85606C38.763 7.54182 38.8637 7.16473 38.6748 6.74993C38.3726 6.08374 37.6044 5.97061 37.0502 6.51111C35.1612 8.39656 33.2722 10.282 31.3831 12.1675C31.2824 12.268 31.1816 12.356 31.0053 12.5069C31.0053 12.268 31.0053 12.1549 31.0053 12.0292C31.0053 9.76666 31.0053 7.50411 31.0053 5.24157C31.0053 3.49438 31.0179 1.74719 31.0305 0C30.3631 0 29.6956 0 29.0282 0C29.0407 0.0502788 29.0533 0.113127 29.0533 0.163406C29.0533 4.16057 29.0533 8.15774 29.0533 12.1675C29.0533 12.2555 29.0407 12.3434 29.0282 12.4943C28.9022 12.3812 28.8267 12.3183 28.7511 12.2429C27.9703 11.4636 27.1895 10.6968 26.4213 9.9175C25.2753 8.77365 24.1293 7.61724 22.9707 6.4734C22.5803 6.08374 22.0136 6.08374 21.6483 6.42312C21.2328 6.81278 21.195 7.36585 21.5728 7.80579C21.6861 7.94405 21.8247 8.08232 21.9632 8.22059Z" fill="#B4B4B4"/>
<path d="M7.83593 30.5891C7.83593 30.5891 8.87816 30.2475 8.87816 31.1014C8.87816 31.9552 8.87816 32.6383 8.87816 32.6383H7.14111L7.83593 33.4921H8.70446C8.70446 33.4921 8.70446 35.7121 8.70446 36.0536C8.70446 36.3952 9.22558 37.4198 10.4415 37.4198C11.6574 37.4198 13.5682 36.0536 13.5682 34.346C13.5682 32.9798 12.8734 32.2967 12.0049 32.2967C11.1363 32.2967 10.9626 32.9798 10.9626 33.4921C10.9626 34.0044 11.31 34.5167 12.1786 34.5167C12.1786 34.5167 12.0049 36.0536 10.4415 36.5659C9.74669 36.7367 9.39928 36.2244 9.39928 35.8829C9.39928 35.5413 9.39928 33.6629 9.39928 33.6629H10.6152L9.9204 32.809H9.57299C9.57299 32.809 9.57299 31.6137 9.57299 31.1014C9.57299 30.5891 9.22558 29.5645 8.53075 29.5645C7.83593 29.5645 7.14111 29.7352 7.83593 30.5891Z" fill="white"/>
</svg>
