<svg width="35" height="45" viewBox="0 0 35 45" fill="none" xmlns="http://www.w3.org/2000/svg">
<path d="M34.6085 28.1422C34.6085 26.0014 34.6085 23.8607 34.6308 21.6977C34.6308 21.2963 34.4524 21.051 34.0733 20.8726C32.2448 20.0475 30.4385 19.2224 28.6323 18.3974C28.61 18.3751 28.5877 18.3751 28.5654 18.3528C28.4985 18.2636 28.4093 18.1967 28.2978 18.1521L16.836 13.5584C16.6576 13.4915 16.4346 13.4915 16.2562 13.5807L7.91625 17.55H7.89395C5.44103 18.665 2.96581 19.7799 0.512884 20.8949C0.156095 21.0733 0 21.3409 0 21.6977C0 23.8384 0.0222993 25.9791 0.0222993 28.1422C0.0222993 30.9519 0.0222993 33.7393 0.0222993 36.549C0.0222993 36.995 0.156095 37.2626 0.579782 37.4633C5.55252 39.7155 10.503 41.9677 15.4757 44.22C16.0109 44.4652 16.5461 44.7328 17.059 45.0004C17.2374 45.0004 17.3934 45.0004 17.5718 45.0004C17.6833 44.9335 17.8171 44.8666 17.9286 44.7997C18.9321 44.3314 19.9579 43.8855 20.9613 43.4172C25.332 41.4325 29.7027 39.4256 34.0733 37.441C34.4747 37.2626 34.6085 36.995 34.6085 36.5713C34.6085 33.7616 34.6085 30.9519 34.6085 28.1422ZM16.5461 40.3399C16.5461 41.1649 16.5461 41.99 16.5461 42.7928C16.5461 42.8597 16.5238 42.9266 16.5238 43.0381C16.1001 42.8374 15.6764 42.659 15.275 42.4806C10.9935 40.5406 6.71209 38.5559 2.40832 36.6605C1.69475 36.3483 1.49405 35.9915 1.49405 35.2333C1.53865 31.2418 1.51635 27.2502 1.51635 23.2586C1.51635 23.1248 1.51635 22.991 1.51635 22.8126C2.29683 23.1694 3.0104 23.4816 3.74628 23.8161C7.60406 25.5777 11.4618 27.3171 15.2973 29.0787C15.6095 29.2125 15.9217 29.3909 16.2339 29.5024C16.4792 29.5916 16.5461 29.7254 16.5461 29.993C16.5461 33.4494 16.5461 36.8835 16.5461 40.3399ZM17.5718 28.2091C17.438 28.276 17.2151 28.276 17.059 28.2091C12.3761 26.0906 7.69325 23.9499 2.9881 21.8092C2.87661 21.7646 2.76511 21.6977 2.60902 21.6085C2.83201 21.497 2.9881 21.4301 3.1442 21.3632C4.41526 20.7834 5.68632 20.2036 6.93508 19.6238C7.02428 19.6238 7.09117 19.6015 7.15807 19.5569L16.5684 15.0525L26.2017 18.9549C27.9856 19.7576 29.7696 20.5827 31.5535 21.3855C31.665 21.4301 31.7988 21.497 31.9549 21.5862C31.8211 21.6531 31.7542 21.6977 31.6873 21.7423C27.0044 23.9276 22.277 26.0683 17.5718 28.2091ZM32.8246 36.3706C28.0302 38.5336 23.2359 40.719 18.4415 42.9043C18.3523 42.9489 18.2408 42.9935 18.107 43.0381C18.107 42.9043 18.0847 42.7928 18.0847 42.6813C18.0847 38.4444 18.0847 34.2299 18.0847 29.993C18.0847 29.7254 18.1739 29.6139 18.3969 29.5247C22.723 27.5624 27.0267 25.6 31.3305 23.6377C31.9103 23.3701 32.4901 23.1248 33.1144 22.8349C33.1144 24.4405 33.1144 25.9568 33.1144 27.4955C33.1144 30.3052 33.1144 33.1149 33.1144 35.9469C33.1144 36.1476 33.0475 36.2591 32.8246 36.3706Z" fill="#B4B4B4"/>
<path d="M17.3043 21.6749C23.2896 21.6749 28.1417 16.8228 28.1417 10.8375C28.1417 4.85209 23.2896 0 17.3043 0C11.3189 0 6.4668 4.85209 6.4668 10.8375C6.4668 16.8228 11.3189 21.6749 17.3043 21.6749Z" fill="#B4B4B4"/>
<path d="M13.9461 6.54312C13.9461 6.54312 15.2626 6.10427 15.2626 7.2014C15.2626 8.29853 15.2626 9.17623 15.2626 9.17623H13.0684L13.9461 10.2734H15.0432C15.0432 10.2734 15.0432 13.1259 15.0432 13.5648C15.0432 14.0036 15.7015 15.3202 17.2375 15.3202C18.7734 15.3202 21.1871 13.5648 21.1871 11.3705C21.1871 9.61509 20.3094 8.73738 19.2123 8.73738C18.1152 8.73738 17.8957 9.61509 17.8957 10.2734C17.8957 10.9316 18.3346 11.5899 19.4317 11.5899C19.4317 11.5899 19.2123 13.5648 17.2375 14.223C16.3598 14.4425 15.9209 13.7842 15.9209 13.3453C15.9209 12.9065 15.9209 10.4928 15.9209 10.4928H17.4569L16.5792 9.39566H16.1403C16.1403 9.39566 16.1403 7.85968 16.1403 7.2014C16.1403 6.54312 15.7015 5.22656 14.8238 5.22656C13.9461 5.22656 13.0684 5.44599 13.9461 6.54312Z" fill="white"/>
</svg>
