<svg width="164" height="40" viewBox="0 0 164 40" fill="none" xmlns="http://www.w3.org/2000/svg">
<path d="M56.1779 14.3309C58.025 14.3309 58.9804 15.5411 58.9804 17.8978V19.108C58.9804 21.4647 58.025 22.6749 56.1779 22.6749H49.6811V27.3883H48.7256V14.3309H56.1779ZM49.6811 21.401H56.1779C57.3881 21.401 58.025 20.6367 58.025 19.0443V17.8341C58.025 16.2418 57.3881 15.4774 56.1779 15.4774H49.6811V21.401Z" fill="white"/>
<path d="M50.382 28.0891H47.9616V13.5668H56.1782C57.5157 13.5668 59.745 14.14 59.745 17.8343V19.0445C59.745 22.8024 57.5157 23.312 56.1782 23.312H50.382V28.0891ZM50.382 20.7005H56.1782C56.624 20.7005 57.3247 20.7005 57.3247 19.1082V17.898C57.3247 16.3056 56.624 16.3056 56.1782 16.3056H50.382V20.7005Z" fill="white"/>
<path d="M66.9424 22.6112V27.3246H65.987V14.331H73.4393C75.2864 14.331 76.2418 15.5412 76.2418 17.8979V19.1081C76.2418 21.4648 75.2864 22.6749 73.4393 22.6749H71.2737L76.2418 27.3883H74.7131L69.6813 22.6749H66.9424V22.6112ZM66.9424 15.4775V21.4011H73.4393C74.6495 21.4011 75.2864 20.6367 75.2864 19.0444V17.8342C75.2864 16.2418 74.6495 15.4775 73.4393 15.4775H66.9424Z" fill="white"/>
<path d="M78.0889 28.0891H74.4583L69.4264 23.3758H67.643V28.0891H65.2226V13.5668H73.4392C74.7768 13.5668 77.0061 14.1401 77.0061 17.8344V19.0445C77.0061 22.8025 74.7768 23.3121 73.4392 23.3121H73.1207L78.0889 28.0891ZM67.643 20.7006H73.4392C73.885 20.7006 74.5857 20.7006 74.5857 19.1082V17.898C74.5857 16.3057 73.885 16.3057 73.4392 16.3057H67.643V20.7006Z" fill="white"/>
<path d="M93.5029 14.331V15.5412H84.2035V20.2546H91.6557V21.4648H84.2035V26.1144H93.5029V27.3246H83.2481V14.331H93.5029Z" fill="white"/>
<path d="M94.2674 28.0891H82.5476V13.5668H94.2674V16.242H84.9043V19.4904H92.3566V22.1656H84.9043V25.414H94.2674V28.0891Z" fill="white"/>
<path d="M110.764 14.331V15.5412H101.464V20.2546H108.917V21.4648H101.464V27.3883H100.509V14.331H110.764Z" fill="white"/>
<path d="M102.229 28.0891H99.8087V13.5668H111.528V16.242H102.229V19.4904H109.618V22.1656H102.229V28.0891Z" fill="white"/>
<path d="M128.025 14.331V15.5412H118.726V20.2546H126.178V21.4648H118.726V26.1144H128.025V27.3246H117.77V14.331H128.025Z" fill="white"/>
<path d="M128.79 28.0891H117.07V13.5668H128.79V16.242H119.49V19.4904H126.943V22.1656H119.49V25.414H128.79V28.0891Z" fill="white"/>
<path d="M145.286 14.331V15.5412H135.987V20.2546H143.439V21.4648H135.987V26.1144H145.286V27.3246H135.031V14.331H145.286Z" fill="white"/>
<path d="M146.051 28.0891H134.331V13.5668H146.051V16.242H136.751V19.4904H144.204V22.1656H136.751V25.414H146.051V28.0891Z" fill="white"/>
<path d="M156.815 20.8278L152.357 15.159V14.331H152.994L157.452 19.9998L161.911 14.331H162.548V15.159L158.089 20.8278L162.548 26.4966V27.3246H161.911L157.452 21.6558L152.994 27.3246H152.357V26.4966L156.815 20.8278Z" fill="white"/>
<path d="M163.312 28.0891H161.529L157.452 22.8662L153.376 28.0891H151.592V26.242L155.86 20.828L151.592 15.414V13.5668H153.376L157.452 18.7898L161.529 13.5668H163.312V15.414L159.045 20.828L163.312 26.242V28.0891Z" fill="white"/>
<path d="M20 40C31.0457 40 40 31.0457 40 20C40 8.9543 31.0457 0 20 0C8.9543 0 0 8.9543 0 20C0 31.0457 8.9543 40 20 40Z" fill="white"/>
<path d="M20 36.9428C29.3572 36.9428 36.9427 29.3573 36.9427 20.0001C36.9427 10.643 29.3572 3.05746 20 3.05746C10.6429 3.05746 3.05737 10.643 3.05737 20.0001C3.05737 29.3573 10.6429 36.9428 20 36.9428Z" stroke="#F16553" stroke-width="0.8613" stroke-miterlimit="10"/>
<path d="M23.8851 12.8026C23.8214 13.8217 24.6495 14.7134 25.6686 14.7134C26.6877 14.7771 27.5794 13.9491 27.5794 12.93C27.6431 11.9109 26.8151 11.0191 25.796 11.0191C24.7768 10.9554 23.8851 11.7835 23.8851 12.8026Z" fill="#F16553"/>
<path d="M10.9551 12.1017C10.9551 13.3119 11.9105 14.3947 13.1207 14.3947C14.3309 14.3947 15.4137 13.4392 15.4137 12.1654C15.4774 10.9552 14.522 9.93606 13.2481 9.87237C11.9742 9.80867 11.0188 10.8278 10.9551 12.1017Z" fill="#F16553"/>
<path d="M24.8404 17.3248C23.6302 16.4967 22.3563 15.6687 21.1461 14.8407C20.6366 14.5222 20.2544 14.6496 19.936 15.0955C18.9805 16.6241 17.9614 18.1528 16.9423 19.6178C16.7512 19.8725 16.6239 20.191 16.3691 20.4458C16.4965 20.7006 16.6239 20.9553 16.7512 21.1464C17.8977 19.363 19.1079 17.5795 20.2544 15.7961C21.592 16.6878 22.9296 17.5795 24.2672 18.4076C24.2672 18.4713 24.2035 18.4713 24.2035 18.535C23.3118 19.8725 22.4837 21.1464 21.592 22.5477C21.4646 22.7388 21.4009 23.0573 21.2735 23.312C21.4646 23.4394 21.592 23.5031 21.8468 23.5668C21.9105 23.5031 21.9105 23.4394 21.9742 23.3757C22.9933 21.7834 24.0124 20.191 25.0952 18.5987C25.35 18.1528 25.2863 17.5796 24.8404 17.3248Z" fill="#F16553"/>
<path d="M26.1779 24.2037C25.4136 23.3757 24.1397 23.312 23.3117 24.0763C22.4837 24.8407 22.42 26.1145 23.1843 26.9426L25.541 29.4903C26.3053 30.3184 27.5792 30.3821 28.4072 29.6177C29.2353 28.8534 29.2989 27.5795 28.5346 26.7515L26.1779 24.2037Z" fill="#F16553"/>
<path d="M15.2227 15.8599C15.2227 16.4968 15.6049 16.9427 16.2419 16.9427C16.8788 16.9427 17.3247 16.4331 17.3247 15.9236C17.3247 15.2866 16.9425 14.8408 16.3056 14.8408C15.7323 14.8408 15.2227 15.2229 15.2227 15.8599Z" fill="#F16553"/>
<path d="M19.2991 18.5989C18.4074 19.9365 17.5794 21.2741 16.6877 22.6116C16.6877 22.6753 16.624 22.739 16.624 22.739C16.624 22.4206 16.624 22.0384 16.624 21.7199C16.624 21.5288 16.624 21.4014 16.5603 21.1467C16.4966 20.8919 16.3055 20.8282 15.987 20.7645C15.796 20.7645 15.6049 20.8282 15.4775 21.0193C15.4138 21.1467 15.3501 21.3378 15.3501 21.5925C15.2864 22.6753 15.2227 23.8218 15.0953 24.9046L11.0826 30.0002H16.3055L17.7068 27.5161C17.8979 27.6435 18.089 27.6435 18.4074 27.6435C18.917 27.5798 19.2991 27.325 19.6176 26.9428C20.3182 26.1148 20.9552 25.3505 21.5921 24.5225C21.7832 24.2677 21.7195 23.8218 21.4647 23.6307C21.2737 23.5034 20.9552 23.4397 20.7004 23.5034C20.7641 23.376 20.8915 23.2486 20.9552 23.1212C21.1463 22.8027 21.0189 22.4842 20.7641 22.2932C20.573 22.1658 20.2546 22.1658 20.0635 22.2932C20.1909 21.9747 20.3182 21.6562 20.0635 21.4014C19.8087 21.1467 19.4902 21.1467 19.1718 21.2741C19.2354 21.1467 19.2991 21.1467 19.2991 21.083C19.6813 20.446 20.0635 19.9365 20.4456 19.2995C20.573 19.0448 20.573 18.7263 20.4456 18.5352C20.3182 18.3441 20.1272 18.2804 19.9361 18.2804C19.745 18.2804 19.4265 18.3441 19.2991 18.5989Z" fill="#F16553"/>
</svg>
