<svg width="34" height="31" viewBox="0 0 34 31" fill="none" xmlns="http://www.w3.org/2000/svg">
<path fill-rule="evenodd" clip-rule="evenodd" d="M30.7 14.372V14.872C30.7 18.972 28 22.172 24.3 22.172H15.4V23.072C15.4 25.172 16.8 26.772 18.4 26.772H26L29.4 30.672C29.6 30.872 29.6 30.872 29.9 30.872H30C30.2 30.672 30.5 30.372 30.5 30.172V26.772C32.1 26.572 33.3 24.972 33.3 23.072V17.772C33.2 15.972 32.1 14.672 30.7 14.372Z" fill="white"/>
<path fill-rule="evenodd" clip-rule="evenodd" d="M28.9001 14.672V6.472C28.9001 3.272 26.8 0.772003 24.1 0.772003H5.10005C2.40005 0.772003 0.300049 3.272 0.300049 6.472V14.672C0.300049 17.672 2.40005 20.172 4.90005 20.372V25.872C4.90005 26.372 5.10005 26.772 5.30005 26.972C5.50005 26.972 5.80005 26.972 5.80005 26.972C6.00005 26.972 6.30005 26.972 6.50005 26.772L12 20.372H24.1C26.8 20.372 28.9001 17.872 28.9001 14.672Z" fill="white"/>
</svg>
