<svg width="960" height="366" viewBox="0 0 960 366" fill="none" xmlns="http://www.w3.org/2000/svg">
<path opacity="0.21" d="M931.323 193.403V134.11H891.638V192.227H882.755V51.296H841.332V26.1088H815.649V95.6921H801.648V44.7297H752.501V104.121H626.785V54.3342H600.521V134.11H572.906V70.1129H495.468V237.407H483.013V364.519H960V193.403H931.323Z" fill="#78A0C9"/>
<path opacity="0.21" d="M563.324 364.338H0V39.4117H12.2631V83.9343H36.984V120.594H51.0963V154.306H60.6342V81.4772H75.3305V195.781H95.0877V28.0108H173.143V133.273H200.979V53.2697H227.451V103.198H354.17V43.6379H403.709V94.7455H417.821V66.0467H443.71V91.3056H485.366V232.638H494.417V174.356H534.418V233.817H563.324V364.338Z" fill="#78A0C9"/>
<path opacity="0.56" d="M528.287 181.825H520.695V189.983H528.287V181.825Z" fill="#F2F2F2"/>
<path opacity="0.56" d="M515.342 181.825H507.751V189.983H515.342V181.825Z" fill="#F2F2F2"/>
<path opacity="0.56" d="M476.509 101.822H468.918V109.98H476.509V101.822Z" fill="#F2F2F2"/>
<path opacity="0.56" d="M453.15 101.822H445.559V109.98H453.15V101.822Z" fill="#F2F2F2"/>
<path opacity="0.56" d="M433.394 74.2045H425.803V82.362H433.394V74.2045Z" fill="#F2F2F2"/>
<path opacity="0.56" d="M440.79 147.426H433.198V155.583H440.79V147.426Z" fill="#F2F2F2"/>
<path opacity="0.56" d="M391.738 55.8252H384.147V63.9828H391.738V55.8252Z" fill="#F2F2F2"/>
<path opacity="0.56" d="M378.21 71.4523H370.619V79.6098H378.21V71.4523Z" fill="#F2F2F2"/>
<path opacity="0.56" d="M137.717 40.1978H130.125V48.3554H137.717V40.1978Z" fill="#F2F2F2"/>
<path opacity="0.56" d="M112.897 40.1978H105.306V48.3554H112.897V40.1978Z" fill="#F2F2F2"/>
<path opacity="0.56" d="M112.897 61.231H105.306V69.3886H112.897V61.231Z" fill="#F2F2F2"/>
<path opacity="0.56" d="M112.897 82.2632H105.306V90.4207H112.897V82.2632Z" fill="#F2F2F2"/>
<path opacity="0.56" d="M112.897 126.786H105.306V134.944H112.897V126.786Z" fill="#F2F2F2"/>
<path opacity="0.56" d="M41.3628 173.668H33.7714V181.825H41.3628V173.668Z" fill="#F2F2F2"/>
<path opacity="0.56" d="M22.1901 126.786H14.5987V134.944H22.1901V126.786Z" fill="#F2F2F2"/>
<path opacity="0.56" d="M71.2427 120.791H63.6512V128.948H71.2427V120.791Z" fill="#F2F2F2"/>
<path opacity="0.56" d="M19.9513 200.696H12.3599V208.853H19.9513V200.696Z" fill="#F2F2F2"/>
<path opacity="0.56" d="M464.441 154.797H456.849V162.955H464.441V154.797Z" fill="#F2F2F2"/>
<path opacity="0.56" d="M451.982 202.858H444.39V211.016H451.982V202.858Z" fill="#F2F2F2"/>
<path opacity="0.56" d="M515.342 207.87H507.751V216.028H515.342V207.87Z" fill="#F2F2F2"/>
<rect y="337.406" width="960" height="28.1172" fill="#B8423E"/>
<path d="M280.21 321.917C268.218 322.958 185.269 340.568 145.294 349.243V351.846C347.476 352.28 848.703 343.72 844.091 339.556C839.478 335.392 722.628 331.46 713.787 325.821C712.634 324.52 708.252 321.917 699.949 321.917C689.571 321.917 295.201 320.616 280.21 321.917Z" fill="#B8423E"/>
<g opacity="0.21">
<path opacity="0.56" d="M927.227 140.744H919.636V148.902H927.227V140.744Z" fill="#C7D9E7"/>
<path opacity="0.56" d="M914.185 140.744H906.593V148.902H914.185V140.744Z" fill="#D3E1ED"/>
<path opacity="0.56" d="M875.353 60.7402H867.761V68.8978H875.353V60.7402Z" fill="#B1CBDC"/>
<path opacity="0.56" d="M851.994 60.7402H844.403V68.8978H851.994V60.7402Z" fill="#2C7EAB"/>
<path opacity="0.56" d="M832.237 33.1227H824.645V41.2802H832.237V33.1227Z" fill="#2C7EAB"/>
<path opacity="0.56" d="M839.634 106.344H832.043V114.502H839.634V106.344Z" fill="#2C7EAB"/>
<path opacity="0.56" d="M790.582 55.8264H782.99V63.984H790.582V55.8264Z" fill="#2C7EAB"/>
<path opacity="0.56" d="M777.051 71.4543H769.46V79.6118H777.051V71.4543Z" fill="#2C7EAB"/>
<path opacity="0.56" d="M536.561 81.2821H528.97V89.4397H536.561V81.2821Z" fill="#D1DDE6"/>
<path opacity="0.56" d="M511.741 81.2821H504.15V89.4397H511.741V81.2821Z" fill="#C3D2DB"/>
<path opacity="0.56" d="M511.741 102.314H504.15V110.472H511.741V102.314Z" fill="#B1CBDC"/>
<path opacity="0.56" d="M511.741 123.348H504.15V131.505H511.741V123.348Z" fill="#B1CBDC"/>
<path opacity="0.56" d="M511.741 167.87H504.15V176.028H511.741V167.87Z" fill="#2C7EAB"/>
<path opacity="0.56" d="M863.282 113.716H855.691V121.873H863.282V113.716Z" fill="#2C7EAB"/>
<path opacity="0.56" d="M850.826 161.776H843.235V169.934H850.826V161.776Z" fill="#2C7EAB"/>
<path opacity="0.56" d="M914.185 166.789H906.593V174.947H914.185V166.789Z" fill="#C7D9E7"/>
</g>
<path d="M297.234 183.398H210.711V335.246H297.234V183.398Z" fill="#EACDC4"/>
<path d="M297.235 183.398H269.984V335.246H297.235V183.398Z" fill="#E8C7BD"/>
<path opacity="0.56" d="M225.7 326.401C223.851 326.401 222.391 325.32 222.391 323.944V194.602C222.391 193.226 223.851 192.145 225.7 192.145C227.549 192.145 229.009 193.226 229.009 194.602V323.944C229.009 325.32 227.452 326.401 225.7 326.401Z" fill="#D59486"/>
<path opacity="0.56" d="M240.3 326.401C238.451 326.401 236.991 325.32 236.991 323.944V194.602C236.991 193.226 238.451 192.145 240.3 192.145C242.149 192.145 243.609 193.226 243.609 194.602V323.944C243.609 325.32 242.149 326.401 240.3 326.401Z" fill="#D59486"/>
<path opacity="0.56" d="M254.897 326.401C253.048 326.401 251.588 325.32 251.588 323.944V194.602C251.588 193.226 253.048 192.145 254.897 192.145C256.747 192.145 258.207 193.226 258.207 194.602V323.944C258.207 325.32 256.747 326.401 254.897 326.401Z" fill="#D59486"/>
<path opacity="0.56" d="M269.594 326.401C267.745 326.401 266.285 325.32 266.285 323.944V194.602C266.285 193.226 267.745 192.145 269.594 192.145C271.443 192.145 272.903 193.226 272.903 194.602V323.944C272.806 325.32 271.346 326.401 269.594 326.401Z" fill="#D59486"/>
<path opacity="0.56" d="M284.194 326.401C282.345 326.401 280.885 325.32 280.885 323.944V194.602C280.885 193.226 282.345 192.145 284.194 192.145C286.043 192.145 287.503 193.226 287.503 194.602V323.944C287.406 325.32 285.946 326.401 284.194 326.401Z" fill="#D59486"/>
<path d="M177.037 0H33.675V351.857H177.037V0Z" fill="#EACDC4"/>
<path d="M176.941 0H134.896V351.857H176.941V0Z" fill="#E8C7BD"/>
<path opacity="0.56" d="M166.039 10.3196H44.5756V21.9171H166.039V10.3196Z" fill="#D89D8F"/>
<path opacity="0.56" d="M166.039 32.4335H44.5756V44.031H166.039V32.4335Z" fill="#D89D8F"/>
<path opacity="0.56" d="M166.039 54.5473H44.5756V66.1448H166.039V54.5473Z" fill="#D89D8F"/>
<path opacity="0.56" d="M166.039 76.6615H44.5756V88.259H166.039V76.6615Z" fill="#D89D8F"/>
<path opacity="0.56" d="M166.039 98.7753H44.5756V110.373H166.039V98.7753Z" fill="#D89D8F"/>
<path opacity="0.56" d="M166.039 120.889H44.5756V132.487H166.039V120.889Z" fill="#D89D8F"/>
<path opacity="0.56" d="M166.039 143.101H44.5756V154.699H166.039V143.101Z" fill="#D89D8F"/>
<path opacity="0.56" d="M166.039 165.215H44.5756V176.813H166.039V165.215Z" fill="#D89D8F"/>
<path opacity="0.56" d="M166.039 187.329H44.5756V198.926H166.039V187.329Z" fill="#D89D8F"/>
<path opacity="0.56" d="M166.039 209.443H44.5756V221.041H166.039V209.443Z" fill="#D89D8F"/>
<path opacity="0.56" d="M166.039 231.557H44.5756V243.154H166.039V231.557Z" fill="#D89D8F"/>
<path opacity="0.56" d="M166.039 253.671H44.5756V265.268H166.039V253.671Z" fill="#D89D8F"/>
<path opacity="0.56" d="M166.039 275.883H44.5756V287.48H166.039V275.883Z" fill="#D89D8F"/>
<path opacity="0.56" d="M166.039 297.997H44.5756V309.594H166.039V297.997Z" fill="#D89D8F"/>
<path opacity="0.56" d="M166.039 320.111H44.5756V331.709H166.039V320.111Z" fill="#D89D8F"/>
<path d="M863.186 0H682.549V351.857H863.186V0Z" fill="#EACDC4"/>
<path d="M863.286 0H810.243V351.857H863.286V0Z" fill="#E8C7BD"/>
<path opacity="0.56" d="M849.465 10.3196H696.371V21.9171H849.465V10.3196Z" fill="#D89D8F"/>
<path opacity="0.56" d="M849.465 32.4335H696.371V44.031H849.465V32.4335Z" fill="#D89D8F"/>
<path opacity="0.56" d="M849.465 54.5473H696.371V66.1448H849.465V54.5473Z" fill="#D89D8F"/>
<path opacity="0.56" d="M849.465 76.6615H696.371V88.259H849.465V76.6615Z" fill="#D89D8F"/>
<path opacity="0.56" d="M849.465 98.7753H696.371V110.373H849.465V98.7753Z" fill="#D89D8F"/>
<path opacity="0.56" d="M849.465 120.889H696.371V132.487H849.465V120.889Z" fill="#D89D8F"/>
<path opacity="0.56" d="M849.465 143.101H696.371V154.699H849.465V143.101Z" fill="#D89D8F"/>
<path opacity="0.56" d="M849.465 165.215H696.371V176.813H849.465V165.215Z" fill="#D89D8F"/>
<path opacity="0.56" d="M849.465 187.329H696.371V198.926H849.465V187.329Z" fill="#D89D8F"/>
<path opacity="0.56" d="M849.465 209.443H696.371V221.041H849.465V209.443Z" fill="#D89D8F"/>
<path opacity="0.56" d="M849.465 231.557H696.371V243.154H849.465V231.557Z" fill="#D89D8F"/>
<path opacity="0.56" d="M849.465 253.671H696.371V265.268H849.465V253.671Z" fill="#D89D8F"/>
<path opacity="0.56" d="M849.465 275.883H696.371V287.48H849.465V275.883Z" fill="#D89D8F"/>
<path opacity="0.56" d="M849.465 297.997H696.371V309.594H849.465V297.997Z" fill="#D89D8F"/>
<path opacity="0.56" d="M849.465 320.111H696.371V331.709H849.465V320.111Z" fill="#D89D8F"/>
<path d="M290.423 92.8779V108.996L295.97 121.97C307.455 121.97 309.109 137.597 309.109 137.597H271.639C271.639 137.597 273.293 121.97 284.778 121.97L290.325 108.996V92.8779" fill="#F3CBB9"/>
<path d="M289.254 157.057H308.038L315.24 148.801H289.254H291.493H265.507L272.806 157.057H291.493H289.254Z" fill="#DBA092"/>
<path d="M308.524 137.499H272.221V148.802H308.524V137.499Z" fill="#DBA092"/>
<path d="M308.524 185.855H272.221V204.431H308.524V185.855Z" fill="#DBA092"/>
<path d="M296.747 184.97V167.574H293.73C293.73 167.574 294.606 158.433 291.394 158.433H289.545C286.333 158.433 287.209 167.574 287.209 167.574H284.192V184.97" fill="#E5795D"/>
<path d="M284.096 184.97V167.574H281.078C281.078 167.574 281.954 158.433 278.743 158.433H276.893C273.682 158.433 274.558 167.574 274.558 167.574H271.54V184.97" fill="#E5795D"/>
<path d="M309.4 184.97V167.574H306.383C306.383 167.574 307.259 158.433 304.047 158.433H302.198C298.986 158.433 299.862 167.574 299.862 167.574H296.845V184.97" fill="#E5795D"/>
<path d="M684.595 92.8778V108.996L690.142 121.97C701.627 121.97 703.281 137.597 703.281 137.597H665.811C665.811 137.597 667.465 121.97 678.95 121.97L684.497 108.996V92.8778" fill="#F3CBB9"/>
<path d="M683.426 157.057H702.21L709.413 148.801H683.426H685.665H659.679L666.978 157.057H685.665H683.426Z" fill="#DBA092"/>
<path d="M702.696 137.499H666.394V148.801H702.696V137.499Z" fill="#DBA092"/>
<path d="M702.696 185.855H666.394V204.43H702.696V185.855Z" fill="#DBA092"/>
<path d="M690.92 184.97V167.574H687.903C687.903 167.574 688.779 158.433 685.567 158.433H683.718C680.506 158.433 681.382 167.574 681.382 167.574H678.365V184.97" fill="#E5795D"/>
<path d="M678.268 184.97V167.574H675.251C675.251 167.574 676.127 158.433 672.915 158.433H671.066C667.854 158.433 668.73 167.574 668.73 167.574H665.713V184.97" fill="#E5795D"/>
<path d="M703.574 184.97V167.574H700.557C700.557 167.574 701.433 158.433 698.221 158.433H696.372C693.16 158.433 694.036 167.574 694.036 167.574H691.019V184.97" fill="#E5795D"/>
<path d="M513.105 163.937C513.105 163.937 514.37 128.752 487.508 123.739V103.001V123.739C460.646 128.85 461.911 163.937 461.911 163.937H513.105Z" fill="#DBA092"/>
<path d="M519.042 162.659H455.683V174.06H519.042V162.659Z" fill="#DBA092"/>
<path d="M519.042 174.06H455.683V188.508H519.042V174.06Z" fill="#DBA092"/>
<path d="M596.222 188.509H379.379V323.158H596.222V188.509Z" fill="#DBA092"/>
<path d="M522.546 321.094C522.546 321.094 522.546 275.391 522.546 267.725C522.546 260.059 517.095 227.527 487.508 227.527H487.897C458.31 227.527 452.86 260.157 452.86 267.725C452.86 275.391 452.86 321.094 452.86 321.094H522.546Z" fill="#F4E9D4"/>
<path d="M510.185 265.465H465.415V322.175H510.185V265.465Z" fill="#F2EBCE"/>
<path d="M474.466 321.094V282.173C474.466 282.173 475.148 276.178 487.8 276.178C500.452 276.178 501.134 283.647 501.134 283.647V321.094H474.466Z" fill="#E5795D"/>
<path d="M653.741 322.764C653.741 322.764 653.741 290.036 653.741 284.63C653.741 279.224 649.848 255.833 628.728 255.833H629.02C607.9 255.833 604.007 279.126 604.007 284.63C604.007 290.036 604.007 322.764 604.007 322.764H653.741Z" fill="#F4E9D4"/>
<path d="M644.788 282.96H612.865V323.551H644.788V282.96Z" fill="#F2EBCE"/>
<path d="M619.385 322.765V294.95C619.385 294.95 619.872 290.626 628.923 290.626C637.974 290.626 638.461 295.933 638.461 295.933V322.666H619.385V322.765Z" fill="#E5795D"/>
<path d="M379.378 204.332H272.221V324.435H379.378V204.332Z" fill="#DBA092"/>
<path d="M371.883 322.764C371.883 322.764 371.883 290.036 371.883 284.63C371.883 279.224 367.99 255.833 346.871 255.833H347.163C326.043 255.833 322.15 279.126 322.15 284.63C322.15 290.036 322.15 322.764 322.15 322.764H371.883Z" fill="#F4E9D4"/>
<path d="M362.929 282.959H331.006V323.55H362.929V282.959Z" fill="#F2EBCE"/>
<path d="M364.292 324.828H329.741V281.779H364.195V324.828H364.292ZM332.272 322.272H361.762V284.236H332.272V322.272Z" fill="#E5795D"/>
<path d="M337.529 322.765V294.95C337.529 294.95 338.016 290.626 347.067 290.626C356.119 290.626 356.605 295.933 356.605 295.933V322.666H337.529V322.765Z" fill="#E5795D"/>
<path d="M705.033 204.332H597.877V324.435H705.033V204.332Z" fill="#DBA092"/>
<path d="M605.37 322.764C605.37 322.764 605.37 290.036 605.37 284.63C605.37 279.224 609.263 255.833 630.383 255.833H630.091C651.211 255.833 655.104 279.126 655.104 284.63C655.104 290.036 655.104 322.764 655.104 322.764H605.37Z" fill="#F4E9D4"/>
<path d="M646.151 282.959H614.228V323.55H646.151V282.959Z" fill="#F2EBCE"/>
<path d="M647.514 324.828H613.06V281.779H647.514V324.828ZM615.493 322.272H644.983V284.236H615.493V322.272Z" fill="#E5795D"/>
<path d="M639.727 322.765V294.95C639.727 294.95 639.24 290.626 630.189 290.626C621.137 290.626 620.651 295.933 620.651 295.933V322.666H639.727V322.765Z" fill="#E5795D"/>
<path d="M411.204 322.174H406.824H402.445V242.663V163.053L406.824 151.75L411.204 163.053V242.663V322.174Z" fill="#F3CBB9"/>
<path d="M574.42 322.174H569.943H565.563V242.663V163.053L569.943 151.75L574.42 163.053V242.663V322.174Z" fill="#F3CBB9"/>
<path d="M310.212 148.574H272.742C271.769 148.574 271.087 147.787 271.087 146.903V139.237C271.087 138.254 271.866 137.566 272.742 137.566H310.212C311.186 137.566 311.867 138.352 311.867 139.237V146.903C311.867 147.787 311.088 148.574 310.212 148.574ZM274.396 145.134H308.461V140.907H274.396V145.134Z" fill="#F16553"/>
<path d="M310.796 139.04H270.503L270.698 137.664C271.282 132.062 274.883 121.546 284.226 120.956L289.385 108.965V93.1414H291.915V108.965L297.073 120.956C306.417 121.546 310.018 132.062 310.602 137.664L310.796 139.04ZM273.423 136.485H307.974C307.293 132.848 304.665 123.413 296.295 123.413H295.516L290.747 112.405L285.978 123.413H285.2C276.829 123.511 274.202 132.848 273.423 136.485Z" fill="#F16553"/>
<path d="M308.85 158.598H272.45L262.912 147.885H318.29L308.85 158.598ZM289.579 156.043H307.779L312.84 150.441H268.751L273.812 156.043H289.579Z" fill="#F16553"/>
<path d="M310.115 150.343H271.282V136.485H310.115V150.343ZM273.812 147.788H307.682V139.04H273.812V147.788Z" fill="#F16553"/>
<path d="M310.115 205.874H271.282V184.743H310.115V205.874ZM273.812 203.417H307.682V187.396H273.812V203.417Z" fill="#F16553"/>
<path d="M296.976 186.511C296.295 186.511 295.711 185.921 295.711 185.233V169.115H292.596L292.694 167.739C292.888 165.282 292.791 161.252 291.818 160.171C291.72 160.073 291.623 159.974 291.526 159.974H289.677C289.579 159.974 289.482 159.974 289.385 160.171C288.411 161.252 288.314 165.282 288.509 167.739L288.606 169.115H285.491V185.233C285.491 185.921 284.908 186.511 284.226 186.511C283.545 186.511 282.961 185.921 282.961 185.233V166.559H285.881C285.783 164.299 285.881 160.269 287.438 158.402C288.022 157.714 288.801 157.419 289.579 157.419H291.428C292.304 157.419 292.986 157.714 293.57 158.402C295.224 160.171 295.224 164.299 295.127 166.559H298.047V185.233C298.241 185.921 297.755 186.511 296.976 186.511Z" fill="#F16553"/>
<path d="M284.324 186.511C283.642 186.511 283.058 185.921 283.058 185.233V169.115H279.944L280.041 167.739C280.236 165.282 280.139 161.252 279.165 160.171C279.068 160.073 278.971 159.974 278.873 159.974H277.024C276.927 159.974 276.83 159.974 276.732 160.171C275.759 161.252 275.662 165.282 275.856 167.739L275.954 169.115H272.839V185.233C272.839 185.921 272.255 186.511 271.574 186.511C270.893 186.511 270.309 185.921 270.309 185.233V166.559H273.228C273.131 164.299 273.228 160.269 274.786 158.402C275.37 157.714 276.148 157.419 276.927 157.419H278.776C279.652 157.419 280.333 157.714 280.917 158.402C282.474 160.171 282.572 164.299 282.474 166.559H285.394V185.233C285.589 185.921 285.102 186.511 284.324 186.511Z" fill="#F16553"/>
<path d="M309.629 186.511C308.947 186.511 308.363 185.921 308.363 185.233V169.115H305.249L305.346 167.739C305.541 165.282 305.444 161.252 304.47 160.171C304.373 160.073 304.276 159.974 304.178 159.974H302.329C302.232 159.974 302.135 159.974 302.037 160.171C301.064 161.252 300.967 165.282 301.161 167.739L301.259 169.115H298.144V185.233C298.144 185.921 297.56 186.511 296.879 186.511C296.198 186.511 295.614 185.921 295.614 185.233V166.559H298.534C298.436 164.299 298.534 160.269 300.091 158.402C300.675 157.714 301.453 157.419 302.232 157.419H304.081C304.957 157.419 305.638 157.714 306.222 158.402C307.78 160.171 307.877 164.299 307.78 166.559H310.699V185.233C310.894 185.921 310.407 186.511 309.629 186.511Z" fill="#F16553"/>
<path d="M281.793 191.032H276.927V194.079H281.793V191.032Z" fill="#F16553"/>
<path d="M293.765 191.032H288.898V194.079H293.765V191.032Z" fill="#F16553"/>
<path d="M305.638 191.032H300.772V194.079H305.638V191.032Z" fill="#F16553"/>
<path d="M704.968 139.04H664.675L664.87 137.664C665.454 132.062 669.055 121.546 678.398 120.956L683.557 108.965V93.1414H686.087V108.965L691.246 120.956C700.589 121.546 704.19 132.062 704.774 137.664L704.968 139.04ZM667.595 136.485H702.146C701.465 132.848 698.837 123.413 690.467 123.413H689.688L684.919 112.405L680.15 123.413H679.372C671.002 123.511 668.374 132.848 667.595 136.485Z" fill="#F16553"/>
<path d="M703.022 158.598H666.622L657.084 147.885H712.462L703.022 158.598ZM683.751 156.043H701.951L707.012 150.441H662.923L667.984 156.043H683.751Z" fill="#F16553"/>
<path d="M704.287 150.343H665.454V136.485H704.287V150.343ZM667.984 147.788H701.854V139.04H667.984V147.788Z" fill="#F16553"/>
<path d="M704.287 205.874H665.454V184.743H704.287V205.874ZM667.984 203.417H701.854V187.396H667.984V203.417Z" fill="#F16553"/>
<path d="M691.148 186.511C690.466 186.511 689.882 185.921 689.882 185.233V169.115H686.768L686.865 167.739C687.06 165.282 686.963 161.252 685.989 160.171C685.892 160.073 685.795 159.974 685.697 159.974H683.848C683.751 159.974 683.654 159.974 683.556 160.171C682.583 161.252 682.486 165.282 682.68 167.739L682.778 169.115H679.663V185.233C679.663 185.921 679.079 186.511 678.398 186.511C677.717 186.511 677.133 185.921 677.133 185.233V166.559H680.052C679.955 164.299 680.052 160.269 681.61 158.402C682.194 157.714 682.972 157.419 683.751 157.419H685.6C686.476 157.419 687.157 157.714 687.741 158.402C689.396 160.171 689.396 164.299 689.298 166.559H692.218V185.233C692.413 185.921 691.926 186.511 691.148 186.511Z" fill="#F16553"/>
<path d="M678.494 186.511C677.813 186.511 677.229 185.921 677.229 185.233V169.115H674.115L674.212 167.739C674.407 165.282 674.309 161.252 673.336 160.171C673.239 160.073 673.141 159.974 673.044 159.974H671.195C671.098 159.974 671 159.974 670.903 160.171C669.93 161.252 669.832 165.282 670.027 167.739L670.124 169.115H667.01V185.233C667.01 185.921 666.426 186.511 665.745 186.511C665.063 186.511 664.479 185.921 664.479 185.233V166.559H667.399C667.302 164.299 667.399 160.269 668.956 158.402C669.54 157.714 670.319 157.419 671.098 157.419H672.947C673.823 157.419 674.504 157.714 675.088 158.402C676.645 160.171 676.743 164.299 676.645 166.559H679.565V185.233C679.76 185.921 679.273 186.511 678.494 186.511Z" fill="#F16553"/>
<path d="M703.799 186.511C703.118 186.511 702.534 185.921 702.534 185.233V169.115H699.419L699.517 167.739C699.711 165.282 699.614 161.252 698.641 160.171C698.543 160.073 698.446 159.974 698.349 159.974H696.5C696.402 159.974 696.305 159.974 696.207 160.171C695.234 161.252 695.137 165.282 695.332 167.739L695.429 169.115H692.314V185.233C692.314 185.921 691.731 186.511 691.049 186.511C690.368 186.511 689.784 185.921 689.784 185.233V166.559H692.704C692.606 164.299 692.704 160.269 694.261 158.402C694.845 157.714 695.624 157.419 696.402 157.419H698.251C699.127 157.419 699.809 157.714 700.393 158.402C701.95 160.171 702.047 164.299 701.95 166.559H704.87V185.233C705.064 185.921 704.578 186.511 703.799 186.511Z" fill="#F16553"/>
<path d="M675.965 191.032H671.099V194.079H675.965V191.032Z" fill="#F16553"/>
<path d="M687.839 191.032H682.972V194.079H687.839V191.032Z" fill="#F16553"/>
<path d="M699.809 191.032H694.942V194.079H699.809V191.032Z" fill="#F16553"/>
<path d="M515.377 166.363H460.193L460.096 164.299C460.096 163.906 459.122 128.72 485.692 122.233V103.166H489.877V122.233C516.448 128.72 515.474 163.906 515.474 164.299L515.377 166.363ZM464.281 162.038H511.192C510.997 154.667 508.759 130.391 487.736 126.066C467.006 130.391 464.573 154.765 464.281 162.038Z" fill="#F16553"/>
<path d="M521.41 176.486H453.865V160.859H521.41V176.486ZM458.05 172.26H517.225V165.085H458.05V172.26V172.26Z" fill="#F16553"/>
<path d="M521.41 190.836H453.865V172.162H521.41V190.836ZM458.05 186.61H517.225V176.486H458.05V186.61V186.61Z" fill="#F16553"/>
<path d="M525.207 172.26H450.947V176.486H525.207V172.26Z" fill="#F16553"/>
<path d="M533.382 299.342H529.976V221.402H446.08V299.342H442.771V217.963H533.382V299.342Z" fill="#F16553"/>
<path d="M543.697 299.341H539.707V209.018H436.346V299.341H432.356V204.989H543.697V299.341Z" fill="#F16553"/>
<path d="M524.525 323.028H451.531V267.989C451.531 259.144 457.662 226.317 487.833 226.022H488.223C518.296 226.317 524.525 259.144 524.525 267.989V323.028ZM454.937 319.588H521.216V267.989C521.216 259.832 515.571 229.56 488.125 229.462C460.582 229.658 455.034 259.832 455.034 267.989V319.588H454.937Z" fill="#F16553"/>
<path d="M512.068 324.109H463.989V264.057H512.068V324.109ZM467.395 320.767H508.759V267.399H467.395V320.767Z" fill="#F16553"/>
<path d="M503.017 322.929H473.138V282.24C473.138 281.945 474.111 274.77 488.029 274.77C502.044 274.77 502.92 283.419 502.92 283.714V283.812V322.929H503.017ZM476.35 319.686H499.708V284.009C499.611 283.419 498.443 278.013 488.029 278.013C477.907 278.013 476.447 282.043 476.35 282.534V319.686V319.686Z" fill="#F16553"/>
<path d="M655.234 324.305H602.97V284.894C602.97 278.603 607.35 255.114 628.956 254.917H629.248C650.855 255.114 655.234 278.603 655.234 284.894V324.305ZM605.501 321.75H652.704V284.894C652.704 279.095 648.714 257.571 629.054 257.374C609.491 257.472 605.403 279.095 605.403 284.894V321.75H605.501Z" fill="#F16553"/>
<path d="M646.377 325.092H611.923V282.044H646.377V325.092ZM614.454 322.536H643.944V284.501H614.454V322.536Z" fill="#F16553"/>
<path d="M639.953 324.305H618.444V295.115C618.444 294.919 619.126 289.709 629.247 289.709C639.369 289.709 639.953 295.901 640.051 296.196V296.295V324.305H639.953ZM620.877 321.75H637.423V296.393C637.326 296 636.547 292.265 629.15 292.265C622.045 292.265 620.975 295.017 620.877 295.41V321.75Z" fill="#F16553"/>
<path d="M381.358 326.369H270.796V202.925H381.261V326.369H381.358ZM274.202 323.027H377.952V206.364H274.202V323.027Z" fill="#F16553"/>
<path d="M373.475 324.305H321.211V284.894C321.211 278.603 325.59 255.114 347.197 254.917H347.489C369.095 255.114 373.475 278.603 373.475 284.894V324.305ZM323.741 321.75H370.944V284.894C370.944 279.095 366.954 257.571 347.294 257.374C327.732 257.472 323.644 279.095 323.644 284.894V321.75H323.741Z" fill="#F16553"/>
<path d="M358.097 324.305H336.588V295.115C336.588 294.919 337.27 289.709 347.391 289.709C357.513 289.709 358.097 295.901 358.195 296.196V296.295V324.305H358.097ZM339.021 321.75H355.567V296.393C355.47 296 354.691 292.265 347.294 292.265C340.189 292.265 339.119 295.017 339.021 295.41V321.75Z" fill="#F16553"/>
<path d="M286.173 242.73H276.927V246.072H286.173V242.73Z" fill="#F16553"/>
<path d="M286.173 270.544H276.927V273.886H286.173V270.544Z" fill="#F16553"/>
<path d="M310.797 242.042H292.597V246.76H310.797V242.042Z" fill="#F16553"/>
<path d="M310.797 269.856H292.597V274.573H310.797V269.856Z" fill="#F16553"/>
<path d="M286.173 298.751H276.927V302.093H286.173V298.751Z" fill="#F16553"/>
<path d="M310.797 298.063H292.597V302.781H310.797V298.063Z" fill="#F16553"/>
<path d="M325.785 226.218H322.476V241.452H325.785V226.218Z" fill="#F16553"/>
<path d="M350.116 226.218H346.807V241.452H350.116V226.218Z" fill="#F16553"/>
<path d="M707.011 326.369H596.545V202.925H707.011V326.369ZM599.854 323.027H703.604V206.364H599.854V323.027Z" fill="#F16553"/>
<path d="M656.693 324.305H604.429V284.894C604.429 278.603 608.809 255.114 630.415 254.917H630.707C652.313 255.114 656.693 278.603 656.693 284.894V324.305ZM606.959 321.75H654.163V284.894C654.163 279.095 650.172 257.472 630.512 257.374C610.95 257.472 606.862 279.095 606.862 284.894V321.75H606.959Z" fill="#F16553"/>
<path d="M641.317 324.305H619.807V296.196C619.807 295.901 620.489 289.709 630.611 289.709C640.635 289.709 641.316 294.919 641.414 295.115V295.213V324.305H641.317ZM622.241 321.75H638.786V295.312C638.689 295.017 637.715 292.167 630.513 292.167C623.214 292.167 622.338 295.803 622.241 296.295V321.75Z" fill="#F16553"/>
<path d="M700.977 242.73H691.731V246.072H700.977V242.73Z" fill="#F16553"/>
<path d="M700.977 270.544H691.731V273.886H700.977V270.544Z" fill="#F16553"/>
<path d="M685.308 242.042H667.108V246.76H685.308V242.042Z" fill="#F16553"/>
<path d="M685.308 269.856H667.108V274.573H685.308V269.856Z" fill="#F16553"/>
<path d="M700.977 298.751H691.731V302.093H700.977V298.751Z" fill="#F16553"/>
<path d="M685.308 298.063H667.108V302.781H685.308V298.063Z" fill="#F16553"/>
<path d="M655.331 226.218H652.022V241.452H655.331V226.218Z" fill="#F16553"/>
<path d="M631 226.218H627.691V241.452H631V226.218Z" fill="#F16553"/>
<path d="M374.448 226.218H371.139V241.452H374.448V226.218Z" fill="#F16553"/>
<path d="M412.796 323.716H401.506V163.12L407.151 148.574L412.796 163.12V323.716ZM403.939 321.161H410.265V163.611L407.151 155.552L404.036 163.611V321.161H403.939Z" fill="#F16553"/>
<path d="M411.527 219.633H402.768C401.795 219.633 401.113 218.847 401.113 217.962C401.113 216.98 401.892 216.292 402.768 216.292H411.527C412.501 216.292 413.182 217.078 413.182 217.962C413.182 218.945 412.403 219.633 411.527 219.633Z" fill="#F16553"/>
<path d="M397.027 216.292H384.861V219.633H397.027V216.292Z" fill="#F16553"/>
<path d="M429.144 216.292H416.978V219.633H429.144V216.292Z" fill="#F16553"/>
<path d="M411.527 246.759H402.768C401.795 246.759 401.113 245.973 401.113 245.088C401.113 244.106 401.892 243.418 402.768 243.418H411.527C412.501 243.418 413.182 244.204 413.182 245.088C413.182 246.071 412.403 246.759 411.527 246.759Z" fill="#F16553"/>
<path d="M397.027 243.418H384.861V246.759H397.027V243.418Z" fill="#F16553"/>
<path d="M429.144 243.418H416.978V246.759H429.144V243.418Z" fill="#F16553"/>
<path d="M411.527 273.886H402.768C401.795 273.886 401.113 273.1 401.113 272.215C401.113 271.232 401.892 270.544 402.768 270.544H411.527C412.501 270.544 413.182 271.331 413.182 272.215C413.182 273.1 412.403 273.886 411.527 273.886Z" fill="#F16553"/>
<path d="M397.027 270.544H384.861V273.886H397.027V270.544Z" fill="#F16553"/>
<path d="M429.144 270.544H416.978V273.886H429.144V270.544Z" fill="#F16553"/>
<path d="M411.527 301.012H402.768C401.795 301.012 401.113 300.226 401.113 299.341C401.113 298.358 401.892 297.67 402.768 297.67H411.527C412.501 297.67 413.182 298.457 413.182 299.341C413.182 300.226 412.403 301.012 411.527 301.012Z" fill="#F16553"/>
<path d="M397.027 297.572H384.861V300.914H397.027V297.572Z" fill="#F16553"/>
<path d="M429.144 297.572H416.978V300.914H429.144V297.572Z" fill="#F16553"/>
<path d="M575.913 323.716H564.623V163.12L570.268 148.574L575.913 163.12V323.716V323.716ZM567.153 321.161H573.48V163.611L570.365 155.552L567.251 163.611V321.161H567.153Z" fill="#F16553"/>
<path d="M574.649 219.633H565.89C564.916 219.633 564.235 218.847 564.235 217.962C564.235 216.98 565.014 216.292 565.89 216.292H574.649C575.622 216.292 576.304 217.078 576.304 217.962C576.304 218.945 575.622 219.633 574.649 219.633Z" fill="#F16553"/>
<path d="M560.147 216.292H547.981V219.633H560.147V216.292Z" fill="#F16553"/>
<path d="M592.265 216.292H580.1V219.633H592.265V216.292Z" fill="#F16553"/>
<path d="M574.649 246.759H565.89C564.916 246.759 564.235 245.973 564.235 245.088C564.235 244.106 565.014 243.418 565.89 243.418H574.649C575.622 243.418 576.304 244.204 576.304 245.088C576.304 246.071 575.622 246.759 574.649 246.759Z" fill="#F16553"/>
<path d="M560.147 243.418H547.981V246.759H560.147V243.418Z" fill="#F16553"/>
<path d="M592.265 243.418H580.1V246.759H592.265V243.418Z" fill="#F16553"/>
<path d="M574.649 273.886H565.89C564.916 273.886 564.235 273.1 564.235 272.215C564.235 271.232 565.014 270.544 565.89 270.544H574.649C575.622 270.544 576.304 271.331 576.304 272.215C576.304 273.1 575.622 273.886 574.649 273.886Z" fill="#F16553"/>
<path d="M560.147 270.544H547.981V273.886H560.147V270.544Z" fill="#F16553"/>
<path d="M592.265 270.544H580.1V273.886H592.265V270.544Z" fill="#F16553"/>
<path d="M574.649 301.012H565.89C564.916 301.012 564.235 300.226 564.235 299.341C564.235 298.358 565.014 297.67 565.89 297.67H574.649C575.622 297.67 576.304 298.457 576.304 299.341C576.304 300.226 575.622 301.012 574.649 301.012Z" fill="#F16553"/>
<path d="M560.147 297.572H547.981V300.914H560.147V297.572Z" fill="#F16553"/>
<path d="M592.265 297.572H580.1V300.914H592.265V297.572Z" fill="#F16553"/>
<path d="M598.59 325.583H377.562V186.609H598.59V325.583ZM381.747 321.356H594.405V190.835H381.747V321.356Z" fill="#F16553"/>
<path d="M703.02 216.586H583.309V201.352H392.744V216.586H274.979V212.556H388.657V197.322H587.299V212.556H703.02V216.586Z" fill="#F16553"/>
<rect y="335.31" width="960" height="27.9425" fill="#F16553"/>
<path d="M279.043 319.589C267.1 320.63 184.497 338.24 144.689 346.915V349.517C346.029 349.951 845.167 341.392 840.574 337.228C835.981 333.064 719.617 329.131 710.813 323.493C709.665 322.191 705.301 319.589 697.033 319.589C686.698 319.589 293.971 318.288 279.043 319.589Z" fill="#F16553"/>
</svg>
