<?xml version="1.0" encoding="utf-8"?>
<!-- Generator: Adobe Illustrator 19.0.0, SVG Export Plug-In . SVG Version: 6.00 Build 0)  -->
<svg version="1.1" id="Layer_1" xmlns="http://www.w3.org/2000/svg" xmlns:xlink="http://www.w3.org/1999/xlink" x="0px" y="0px"
	 viewBox="94 -53.5 1200 700.2" style="enable-background:new 94 -53.5 1200 700.2;" xml:space="preserve">
<style type="text/css">
	.st0{fill:#D7D7D6;}
	.st1{fill:#B1CBDC;}
	.st2{font-family:'Roboto-Regular';}
	.st3{font-size:18.8614px;}
	.st4{font-size:20.3411px;}
	.st5{fill:none;stroke:#D7D7D6;stroke-width:2;stroke-miterlimit:10;}
</style>
<path id="Cash" class="st0" d="M971.9,113.1l-4.8,4.4v75.1l4.8,4.4h29.2v-41.9V155v-41.9H971.9z M971.9,155v41.7l-0.5-0.5v-5H971
	v1.2h-0.6v-10.5h0.6v0.9h0.5v-6l-4.2-1.8v-0.2l4.2,1.6v-7H971v1.2h-0.6v-10.5h0.6v0.9h0.5v-5.8l-4.2-0.1V155l4.2-0.1v-6H971v0.9
	h-0.6v-10.5h0.6v1.2h0.5v-6.9l-4.2,1.5V135l4.2-1.8v-6.1H971v1.1h-0.6v-10.5h0.6v1.2h0.5v-5.1l0.5-0.5L971.9,155L971.9,155z"/>
<path id="table16" class="st0" d="M1162,339.7v7.4h-10.6v-7.4H1162z M1176.8,298.8h-11.7V289h-16.7v9.7h-11.7v40.9h11.7V350h16.7
	v-10.4h11.7V298.8z M1171.9,303.1v31.8h-30.3v-30.8h0.5v30.3h29.4v-30.9h-29.7V303h30.1V303.1z M1162,292v6.8h-10.6V292H1162z"/>
<path id="table15" class="st0" d="M1077.9,298v-7.4h10.6v7.4H1077.9z M1063.3,338.8h11.7v9.8h16.7v-9.7h11.7V298h-11.7v-10.4H1075
	V298h-11.7V338.8L1063.3,338.8z M1068.1,334.6v-31.8h30.3v30.8h-0.5v-30.3h-29.4v30.9h29.7v0.5h-30.1V334.6z M1078,345.6v-6.8h10.6
	v6.8H1078z"/>
<path id="table14" class="st0" d="M876.9,184.5V173h-12.6v-9.8h-16.5v9.9h-12.5v11.5h-10.6V201h10.6v11.5h12.5v9.5h16.5v-9.5h12.5
	V201h9.9v-16.5H876.9z M835.3,198h-7.6v-10.4h7.6V198z M850.9,166.1h10.4v6.8h-10.4V166.1z M861.3,219.1h-10.4v-6.5h10.4V219.1z
	 M872.6,207.7h-32.3v-30h31.3v0.5h-30.8v29.1h31.4v-29.4h0.5v29.8H872.6z M883.8,198h-6.9v-10.4h6.9V198z"/>
<path id="table13" class="st0" d="M678.9,184.5V173h-12.6v-9.8h-16.5v9.9h-12.5v11.5h-10.6V201h10.6v11.5h12.5v9.5h16.5v-9.5h12.5
	V201h9.9v-16.5H678.9z M637.3,198h-7.6v-10.4h7.6V198z M652.9,166.1h10.4v6.8h-10.4V166.1z M663.3,219.1h-10.4v-6.5h10.4V219.1z
	 M674.6,207.7h-32.3v-30h31.3v0.5h-30.8v29.1h31.4v-29.4h0.5v29.8H674.6z M685.8,198h-6.9v-10.4h6.9V198z"/>
<path id="table12" class="st0" d="M782.9,125.5V114h-12.6v-9.8h-16.5v9.9h-12.5v11.5h-10.6V142h10.6v11.5h12.5v9.6h16.5v-9.6h12.5
	V142h9.9v-16.5H782.9z M741.3,139h-7.6v-10.4h7.6V139z M756.9,107.1h10.4v6.8h-10.4V107.1z M767.3,160.1h-10.4v-6.5h10.4V160.1z
	 M778.6,148.7h-32.3v-30h31.3v0.5h-30.8v29.1h31.4v-29.4h0.5v29.8L778.6,148.7L778.6,148.7z M789.8,139h-6.9v-10.4h6.9V139z"/>
<path id="table11" class="st0" d="M864.8,74.5V63h-12.6v-9.8h-16.5v9.9h-12.5v11.5h-10.6V91h10.6v11.5h12.5v9.6h16.5v-9.6h12.5V91
	h9.9V74.5H864.8z M823.2,88h-7.6V77.6h7.6V88z M838.8,56.1h10.4v6.8h-10.4V56.1z M849.2,109.1h-10.4v-6.5h10.4V109.1z M860.5,97.7
	h-32.3v-30h31.3v0.5h-30.8v29.1h31.4V67.9h0.5v29.8H860.5L860.5,97.7z M871.7,88h-6.9V77.6h6.9V88z"/>
<path id="table10" class="st0" d="M683.3,62V51.8h-10.9l0.1-8.6l-14.3-0.1l-0.1,8.7h-10.9v10.1H638v14.5h9.2v10.2h10.9V95h14.3v-8.4
	h10.9V76.5h8.6V62H683.3z M647.3,73.8h-6.5v-9.2h6.5V73.8z M660.7,45.8l9,0.1l-0.1,6h-9L660.7,45.8z M669.8,92.3h-9v-5.8h9V92.3z
	 M679.5,82.4h-28V56h27.1v0.4h-26.8V82H679V56.3h0.4L679.5,82.4L679.5,82.4z M689.3,73.8h-6v-9.2h6V73.8z"/>
<path id="table9" class="st0" d="M784.2-24.6h-7.4v-10.6h7.4V-24.6z M825-9.9v-11.7h9.8v-16.7h-9.7v-11.6h-40.9v11.7h-10.4v16.7
	h10.4v11.7L825-9.9L825-9.9z M820.8-14.8H789v-30.3h30.8v0.5h-30.3v29.4h30.9v-29.7h0.5v30.1H820.8z M831.8-24.6H825v-10.6h6.8
	V-24.6z"/>
<path id="table8" class="st0" d="M611.5-50v-7.4H622v7.4H611.5z M596.8-9.2h11.7v9.8h16.7v-9.7h11.7V-50h-11.7v-10.4h-16.7V-50
	h-11.7V-9.2z M601.6-13.4v-31.8H632v30.8h-0.5v-30.4h-29.4v30.9h29.7v0.5H601.6z M611.5-2.3v-6.8H622v6.8H611.5z"/>
<path id="table7" class="st0" d="M502.1,421.5v-10.1h-10.9l0.1-8.6l-14.3-0.1l-0.1,8.7H466v10.1h-9.2V436h9.2v10.1h11v8.4h14.3v-8.4
	h10.9V436h8.6v-14.5H502.1z M466.1,433.4h-6.5v-9.2h6.5V433.4z M479.5,405.3l9,0.1l-0.1,6h-9L479.5,405.3z M488.6,451.9h-9v-5.8h9
	V451.9z M498.3,441.9h-28v-26.4h27.1v0.4h-26.8v25.6h27.2v-25.8h0.4L498.3,441.9L498.3,441.9z M508.1,433.4h-6v-9.2h6V433.4z"/>
<path id="table6" class="st0" d="M309.9,390.5v-10.1H299l0.1-6v-2.7l-14.3-0.1l-0.1,8.7h-10.9v10.2h-9.2V405h9.2v10.1h10.9v8.4H299
	v-8.4h10.9V405h8.6v-14.5H309.9z M273.8,402.3h-6.5v-9.2h6.5V402.3z M287.3,374.3l9,0.1l-0.1,6h-9L287.3,374.3z M296.4,420.8h-9V415
	h9V420.8z M306.1,410.9h-28v-26.4h27.1v0.4h-26.8v25.6h27.2v-25.8h0.4L306.1,410.9L306.1,410.9z M315.8,402.3h-6v-9.2h6V402.3z"/>
<path id="table5" class="st0" d="M451,319.3v-10.1h-10.9l0.1-8.6l-14.3-0.1l-0.1,8.7h-10.9v10.1h-9.2v14.5h9.2v10.1h10.9v8.4h14.3
	v-8.4H451v-10.1h8.6v-14.5H451z M414.9,331.1h-6.5v-9.2h6.5V331.1z M428.4,303.1l9,0.1l-0.1,6h-9L428.4,303.1z M437.5,349.6h-9v-5.8
	h9V349.6z M447.2,339.7h-28v-26.4h27.1v0.4h-26.8v25.6h27.2v-25.8h0.4L447.2,339.7L447.2,339.7z M456.9,331.1h-6v-9.2h6V331.1z"/>
<path id="table4_1_" class="st0" d="M331.2,274.5v-10.1h-10.9l0.1-8.6l-14.3-0.1l-0.1,8.7h-10.9v10.1H286V289h9.2v10.1H306v8.4h14.3
	v-8.4h10.9V289h8.6v-14.5H331.2z M295.1,286.3h-6.5v-9.2h6.5V286.3z M308.6,258.3l9,0.1l-0.1,6h-9L308.6,258.3z M317.7,304.8h-9V299
	h9V304.8z M327.4,294.9h-28v-26.4h27.1v0.4h-26.8v25.6h27.2v-25.8h0.4L327.4,294.9L327.4,294.9z M337.1,286.3h-6v-9.2h6V286.3z"/>
<path id="table3" class="st0" d="M399.7,83.4V73.3h-10.9l0.1-8.6l-14.3-0.1l-0.1,8.7h-10.9v10.1h-9.2v14.5h9.2V108h10.9v8.4h14.3
	V108h10.9V97.9h8.6V83.4H399.7L399.7,83.4z M363.7,95.3h-6.5v-9.2h6.5V95.3z M377.1,67.2l9,0.1l-0.1,6h-9L377.1,67.2z M386.2,113.8
	h-9V108h9V113.8z M395.9,103.9h-28V77.5H395v0.4h-26.8v25.6h27.2V77.7h0.4L395.9,103.9L395.9,103.9z M405.7,95.3h-6v-9.2h6V95.3z"/>
<path id="table2_1_" class="st0" d="M472.2,4.6V-5.5h-10.9l0.1-8.6l-14.3-0.1L447-5.5h-10.9V4.6h-9.2v14.5h9.2v10.1H447v8.4h14.3
	v-8.4h10.9V19.1h8.6V4.6H472.2z M436.2,16.4h-6.5V7.2h6.5V16.4z M449.7-11.6l9,0.1l-0.1,6h-9L449.7-11.6z M458.7,34.9h-9v-5.8h9
	V34.9z M468.5,25h-28V-1.4h27.1V-1h-26.8v25.6H468V-1.2h0.4L468.5,25L468.5,25z M478.2,16.4h-6V7.2h6V16.4z"/>
<path id="table1_1_" class="st0" d="M331.8,8.7v-10h-10.9v-8.5h-14.3v8.6h-10.8v10h-9.2V23h9.2v10h10.8v8.3h14.3V33h10.8V23h8.6V8.7
	H331.8z M295.7,20.4h-6.6v-9h6.6V20.4z M309.2-7.3h9v5.9h-9V-7.3z M318.2,38.7h-9v-5.6h9V38.7z M328,28.8h-28v-26h27.1v0.4h-26.7
	v25.3h27.2V3h0.4V28.8L328,28.8L328,28.8z M337.7,20.4h-6v-9h6V20.4z"/>
<path id="car1" class="st1" d="M609.9,539.9c-0.2-0.4-1.1-1.1-1.5-1.3l0.3-1.9c0.2-1.2,0.3-2.4,0.3-3.6v-2.6c0-4.7-3.8-8.4-8.4-8.4
	h-7.2c-4.6,0-8.4,3.8-8.4,8.4v2.6c0,1.2,0.1,2.4,0.3,3.6l0.3,1.9c-0.4,0.3-1.3,0.9-1.5,1.3c-0.2,0.5,0,0.9,0.2,0.8
	c0.1-0.1,1-0.4,1.5-0.6v0.2c0.2,1.3,0.3,2.6,0.3,4l-0.2,14.7c0,0.9-0.2,1.7-0.4,2.5c-0.3,0.9-0.4,1.8-0.4,2.7v6.5
	c0,3.6,2.9,6.5,6.5,6.5h11c3.6,0,6.5-2.9,6.5-6.5V564c0-0.9-0.2-1.8-0.4-2.7c-0.3-0.8-0.4-1.7-0.4-2.5l-0.2-14.7
	c0-1.3,0.1-2.6,0.3-4v-0.2c0.5,0.2,1.4,0.6,1.5,0.6C609.9,540.7,610.1,540.3,609.9,539.9z M607.4,540.2v11.3
	c-0.7,0.3-1.5,0.6-2.3,0.9c0.1-2.9,0.1-5.5,0.1-6.5C605.2,542.9,607.4,540.2,607.4,540.2z M605.2,559.5c-0.1-1.9-0.1-4.4-0.1-6.7
	c0.8-0.2,1.5-0.5,2.3-0.7v8.5C606.6,560.2,605.9,559.9,605.2,559.5z M607.4,561.2v3c0,0-2-0.8-2.2-4.2
	C605.9,560.4,606.6,560.8,607.4,561.2z M604.3,543c-0.2,0.3-0.5,0.4-0.9,0.4c-1.1-0.1-3.8-0.3-6.5-0.3c-2.8,0-5.5,0.2-6.5,0.3
	c-0.3,0.1-0.7-0.1-0.9-0.4c-1.4-1.9-1.9-3.8-2-4.7c-0.1-0.4,0.2-0.8,0.5-1c1-0.5,3.4-1.4,8.9-1.4s7.9,0.9,8.9,1.4
	c0.4,0.2,0.6,0.6,0.5,1C606.1,539.2,605.7,541.1,604.3,543z M602.6,523.1c1.5,0.6,2.8,1.7,3.7,3.1c-0.6-0.5-1.2-0.9-1.9-1.1
	c-0.7-0.3-1.5-0.6-1.8-1.2C602.6,523.6,602.5,523.4,602.6,523.1z M593.9,522.6h5.9c0.7,0,1.4,0.1,2.1,0.3c-0.7,0.5-1.6,0.8-2.5,0.8
	h-4.9c-0.9,0-1.8-0.3-2.5-0.8C592.5,522.7,593.3,522.6,593.9,522.6z M591.2,523.1c0.1,0.2,0,0.5-0.1,0.7c-0.3,0.7-1.1,1-1.8,1.2
	c-0.7,0.3-1.3,0.7-1.9,1.2C588.4,524.8,589.7,523.8,591.2,523.1z M586.4,540.2c0,0,2.2,2.7,2.2,5.7c0,1,0.1,3.6,0.1,6.5
	c-0.8-0.3-1.5-0.5-2.3-0.9V540.2L586.4,540.2z M586.4,552c0.8,0.3,1.5,0.5,2.3,0.7c0.1,2.4,0,4.9-0.1,6.7c-0.7,0.4-1.4,0.8-2.2,1.1
	L586.4,552L586.4,552z M586.4,561.2c0.8-0.4,1.5-0.8,2.2-1.3c0,0.1,0,0.2,0,0.3c-0.4,3.9-2.2,4-2.2,4V561.2z M589.5,576
	c-1.3-0.2-2.5-0.9-3.3-2c0.1-0.1,0.3,0,0.4,0.1c0.2,0.1,0.3,0.3,0.5,0.4c0.6,0.5,1.2,0.9,2,1.1C589.3,575.6,589.5,575.7,589.5,576
	C589.5,576,589.5,575.9,589.5,576z M596.9,570.3c-3.4,0-6.2-1.1-7.5-1.7c-0.5-0.3-0.8-0.8-0.8-1.3c0.1-1.2,0.3-3.5,0.9-5.2
	c0,0,3,1.5,7.3,1.5s7.3-1.5,7.3-1.5c0.6,1.7,0.8,4,0.9,5.2c0.1,0.6-0.3,1.1-0.8,1.3C603,569.1,600.3,570.3,596.9,570.3z M604.3,576
	C604.3,576,604.3,575.9,604.3,576c0-0.3,0.3-0.4,0.5-0.4c0.7-0.2,1.4-0.6,2-1.1c0.2-0.2,0.3-0.3,0.5-0.4c0.1-0.1,0.3-0.1,0.4-0.1
	C606.8,575,605.6,575.8,604.3,576z"/>
<path id="car2" class="st1" d="M643.8,538.5v-7.6c0-4.8-3.9-8.6-8.6-8.6h-5.9c-4.8,0-8.6,3.9-8.6,8.6v7.6c-2.6,0.6-2.6,2.2-2.6,2.2
	s1.7-0.4,2.6-0.7v32.1c0,2.7,2.2,4.9,4.9,4.9h13.5c2.7,0,4.9-2.2,4.9-4.9V540c0.9,0.3,2.6,0.7,2.6,0.7S646.3,539,643.8,538.5z
	 M638.8,524.4c0.8-0.8,3.5,1.4,2.9,2.5C641.1,527.9,638,525.1,638.8,524.4z M629.7,523h4.9c0.9,0,1.8,0.3,2.5,0.8
	c-0.7,0.2-1.3,0.3-2.1,0.3h-5.9c-0.7,0-1.4-0.1-2.1-0.3C627.9,523.2,628.8,523,629.7,523z M625.6,524.4c0.8,0.8-2.4,3.4-2.9,2.5
	C622,525.8,624.7,523.7,625.6,524.4z M622.5,535.2c0.4-1.5,4.8-2.7,9.7-2.7s9.3,1.1,9.7,2.7c0.4,1.5-1.6,9.8-1.6,9.8s-2.7-0.5-8-0.5
	s-8,0.5-8,0.5S622.1,536.8,622.5,535.2z M621.4,537.6c0,0,1.7,8.3,2,9.9c0.1,0.6,0.1,3.7,0.2,7.5c-0.7,0.2-1.4,0.5-2.1,0.8
	C621.4,555.5,621.4,537.6,621.4,537.6z M623.5,555.9c0,2.8,0.1,5,0.1,7.8c-0.5,1.2-1,3.3-1.6,4.4c-0.2-2.9-0.5-6.7-0.5-11
	C622.1,556.7,622.8,556.3,623.5,555.9z M622,574.7c-1.1-1.2,0-2.5,0-2.5c0.1,0.4,2.1,2.4,2.2,2.8C624.3,575.5,623.1,575.9,622,574.7
	z M632.1,575.4c0,0-5.3,0.3-8.8-2l1.7-8.7c0,0,1.2,1.3,7.1,1.3s7.1-1.3,7.1-1.3l1.7,8.7C637.5,575.6,632.1,575.4,632.1,575.4z
	 M642.3,574.7c-1.1,1.2-2.3,0.7-2.2,0.3s2.1-2.4,2.2-2.8C642.3,572.3,643.5,573.6,642.3,574.7z M642.4,568.1
	c-0.6-1.1-1.2-3.2-1.6-4.4c0-2.8,0.1-4.9,0.1-7.8c0.7,0.4,1.4,0.8,2.1,1.2C642.8,561.4,642.6,565.2,642.4,568.1z M642.9,555.8
	c-0.7-0.3-1.4-0.5-2.1-0.8c0.1-3.8,0.1-6.9,0.2-7.5c0.2-1.6,2-9.9,2-9.9S642.9,555.5,642.9,555.8z"/>
<path id="car3" class="st1" d="M687.2,537.3v-7.6c0-4.8-3.9-8.6-8.6-8.6h-5.9c-4.8,0-8.7,3.9-8.7,8.6v7.6c-2.6,0.6-2.6,2.2-2.6,2.2
	s1.7-0.4,2.6-0.7v34.4c0,2.7,2.2,4.9,4.9,4.9h13.5c2.7,0,4.9-2.2,4.9-4.9v-34.4c0.9,0.3,2.6,0.7,2.6,0.7S689.8,537.9,687.2,537.3z
	 M681.9,522.9c1.4,0.6,2.6,1.6,3.4,2.9c-1,0.3-2.1,0.2-3-0.3c-0.6-0.3-1.1-0.9-1.1-1.5C681.3,523.5,681.5,523.1,681.9,522.9z
	 M669.4,522.9c0.4,0.3,0.6,0.6,0.6,1c0.1,0.7-0.5,1.2-1.1,1.5c-0.9,0.5-2,0.6-3,0.3C666.8,524.5,667.9,523.4,669.4,522.9z
	 M665.9,535.1c0.4-1.6,4.8-2.9,9.7-2.9s9.3,1.2,9.7,2.9c0.4,1.6-1.6,10.5-1.6,10.5s-2.7-0.5-8-0.5s-8,0.5-8,0.5
	S665.6,536.7,665.9,535.1z M664.9,535.9c0,0,1.7,8.8,2,10.5c0.2,1.7,0.4,22.8,0,23.6s-0.9,0.6-0.9,0.6s-1.1-4.4-1.1-14.8
	S664.9,535.9,664.9,535.9z M668.3,576.8c-1.3-0.2-2.5-0.9-3.3-2c0.1-0.1,0.3,0,0.4,0.1c0.2,0.1,1,0.9,2.4,1.5
	C668,576.5,668.3,576.6,668.3,576.8L668.3,576.8z M675.6,575c-3.4,0-6.2-1.1-7.5-1.7c-0.5-0.3-0.8-0.8-0.8-1.3
	c0.1-1.2,0.3-3.5,0.9-5.2c0,0,3,1.5,7.3,1.5s7.3-1.5,7.3-1.5c0.6,1.7,0.8,4,0.9,5.2c0.1,0.6-0.3,1.1-0.8,1.3
	C681.8,573.9,679.1,575,675.6,575z M683,576.8L683,576.8c0-0.3,0.3-0.4,0.5-0.4c1.3-0.5,2.2-1.4,2.4-1.5c0.1-0.1,0.3-0.1,0.4-0.1
	C685.5,575.9,684.3,576.6,683,576.8z M686.4,555.9c0,10.4-1.1,14.8-1.1,14.8s-0.5,0.2-0.9-0.6s-0.2-21.9,0-23.6
	c0.2-1.7,2-10.5,2-10.5S686.4,545.5,686.4,555.9z"/>
<g id="XMLID_32025_">
	<text transform="matrix(1 0 0 1 668.3138 -22.4438)" class="st1 st2 st3">Balcony 2</text>
</g>
<g id="XMLID_32022_">
	<text transform="matrix(1 0 0 1 933.8417 331.127)" class="st1 st2 st3">Balcony 1</text>
</g>
<g id="XMLID_32017_">
	<text transform="matrix(0 -1 1 0 647.2069 456.6364)" class="st1 st2 st4">Washroom (M)</text>
</g>
<g id="XMLID_32013_">
	<text transform="matrix(0 -1 1 0 768.3676 456.6364)" class="st1 st2 st4">Washroom (F)</text>
</g>
<g id="XMLID_32007_">
	<text transform="matrix(1 0 0 1 725.8173 208.7493)" class="st1 st2 st3">Room 1</text>
</g>
<g id="XMLID_32001_">
	<text transform="matrix(1 0 0 1 1060.8666 219.0525)" class="st1 st2 st3">kitchen</text>
</g>
<g id="XMLID_1_">
	<text transform="matrix(6.123234e-017 -1 1 6.123234e-017 994.6246 177.7292)" class="st1 st2 st3">Cash</text>
</g>
<g id="XMLID_31998_">
	<text transform="matrix(1 0 0 1 381.4188 166.1473)" class="st1 st2 st3">Open space</text>
</g>
<g id="XMLID_31994_">
	<text transform="matrix(1 0 0 1 1077.0718 448.5787)" class="st1 st2 st3">Kids Zone</text>
</g>
<g id="XMLID_31991_">
	<g>
		<text transform="matrix(1 0 0 1 729.1019 553.3835)" class="st1 st2 st4">Parking</text>
	</g>
</g>
<polygon id="tv" class="st1" points="830.2,249.9 776.4,249.9 776.1,249.9 769.9,254.1 836.3,254.1 836,253.9 "/>
<path id="tv_desk" class="st0" d="M761.2,242.6V259h84v-16.4H761.2z M838.4,256.1h-30.3c-1.3,0.7-3.1,1.2-4.8,1.2s-3.5-0.5-4.8-1.2
	H768c-0.3,0-0.3-0.3-0.3-0.3l-0.1-1l7.3-5c0.2-0.2,0.8-0.3,1.1-0.3h19.7c1.1-2.3,4.1-4,7.7-4c3.5,0,6.6,1.7,7.7,4h19.4
	c0.4,0,0.9,0.2,1.1,0.3l1.3,0.9c0,0,6,4,6,4.1v0.8C838.7,255.7,838.8,256.1,838.4,256.1z"/>
<polyline class="st5" points="833.3,24.3 571.6,24.3 571.6,-85.8 940.3,-85.8 940.3,-16.9 980.1,-16.9 980.1,23.7 "/>
<line class="st5" x1="571.6" y1="24.3" x2="571.6" y2="61.9"/>
<polyline class="st5" points="948.1,24.3 1191.3,24.3 1191.3,477.7 1056.7,477.7 1056.7,424.6 "/>
<line class="st5" x1="1192.1" y1="379" x2="962.1" y2="379"/>
<line class="st5" x1="1191.3" y1="259.9" x2="962.1" y2="259.9"/>
<line class="st5" x1="1002.2" y1="98.9" x2="1002.2" y2="259"/>
<line class="st5" x1="1043" y1="123.5" x2="1043" y2="47.7"/>
<line class="st5" x1="1002.2" y1="24.3" x2="1002.2" y2="52.9"/>
<polyline class="st5" points="571.6,182.9 571.6,502.6 827.4,502.6 827.4,260.7 "/>
<line class="st5" x1="652.9" y1="260.7" x2="572.8" y2="260.7"/>
<line class="st5" x1="845.1" y1="260.7" x2="761.2" y2="260.7"/>
<line class="st5" x1="827.4" y1="381.9" x2="859.9" y2="381.9"/>
<line class="st5" x1="704.2" y1="292.5" x2="704.2" y2="502.6"/>
<line class="st5" x1="639.8" y1="292.5" x2="765.8" y2="292.5"/>
<polyline class="st5" points="571.6,-85.8 211.1,-85.8 211.1,502.6 571.6,502.6 "/>
<path class="st0" d="M257-48.9c-1.3-1.1-2.9-1.9-4.5-2.6c3.2-1.4,5.8-4,7.4-7.1c-3.2,0.1-6.4,0.8-9.4,2.1c2.1-3.3,2.9-7.5,1.9-11.4
	c-2.6,1.9-4.9,4.3-6.7,7.1c-0.2-3.2-1.4-6.3-3.5-8.7c-1.4,3.5-2,7.3-1.8,11c-1.7-4-4.1-7.7-7-10.9c-0.8-0.9-1.7-1.7-2.8-2.1
	c-1.7-0.7-3.9,0-5,1.5s-1.1,3.7-0.1,5.2c0.9,1.3,2.5,2,3.9,2.8c2,1.1,3.8,2.5,5.5,4.1c-2.1-1.1-4.2-2.2-6.4-3.2
	c0.7,3.1,2.3,5.9,4.6,8.1c-3.5,0.5-7.1,0.7-10.7,0.6c0.8,2.2,2.7,3.8,4.9,4.5s4.6,0.6,6.8,0.2c-2.6,1.9-5.6,3.5-8.7,4.5
	c2,1.4,4.5,1.9,6.9,1.4c-0.6,2.9-1,5.8-1.3,8.7c2.4-0.8,4.5-2.4,6-4.4c0,0,0,0.3,0.1,0.4c0,0.2,0,0.3,0.1,0.5
	c0.1,0.3,0.1,0.6,0.2,0.9c0.1,0.6,0.3,1.2,0.4,1.8c0.3,1.2,0.7,2.4,1.2,3.5c0.1,0.3,0.5,1.5,0.8,1.4c0.2,0,0.5-0.4,0.6-0.5
	c0.2-0.2,0.4-0.4,0.6-0.6c0.7-0.8,1.3-1.7,1.7-2.7c0.3-0.7,0.6-1.5,0.7-2.3c0.5-2.4,0.5-4.8,0.4-7.2c1.9,4,3.6,8.2,4.8,12.5
	c2.2-2.2,3.5-5.3,3.5-8.4c0-3.1-1.2-6.2-3.3-8.5c3.7,0.5,7.5,1,10.9,2.5C259.4-46.2,258.3-47.7,257-48.9z M255.9-57.2
	c0.8-0.4,1.6-0.8,2.3-1.1c-0.8,0.4-1.7,1.5-2.4,2.1c-0.9,0.7-1.8,1.3-2.8,1.9c-1.6,0.9-3.7,2.2-5.5,2.5c0-0.4-0.1-0.9-0.2-1.3l0,0
	C250.3-54.5,253.1-55.8,255.9-57.2z M248.4-59.7c1.2-2,2-4.3,2.7-6.6c-0.1,3.7-1.4,7.5-3.9,10.3c-0.3,0.3-0.5,0.6-0.8,0.8
	c-0.3-0.3-0.6-0.6-1-0.9C246.6-57,247.6-58.3,248.4-59.7z M243.6-56.9c-0.4-0.1-0.8-0.1-1.3-0.1c0-0.7-0.1-1.5-0.1-2.2
	c-0.2-2.9-0.3-5.7-0.5-8.6C243.1-64.4,243.7-60.6,243.6-56.9z M229-60.1c2.6,2.4,5.2,4.8,8.1,6.7l0.1,0.1c-0.1,0.4-0.2,0.8-0.2,1.3
	c-1-0.5-1.9-1.1-2.8-1.8c-0.4-0.3-0.8-0.7-1.2-1C231.4-56.4,230-58.2,229-60.1z M230.4-48.5c-2.5-0.3-4.9-1.4-6.8-3.3
	c4.2,2.1,9.1,2.6,13.7,1.4c0.1,0.3,0.2,0.7,0.3,1C235.2-48.6,232.7-48.2,230.4-48.5z M239.2-44.7c-0.5,1.3-1.1,2.6-1.8,3.8
	s-1.5,2.4-2.3,3.5c-0.6,0.7-1.9,2.8-2.7,2.9c0-0.8,1.1-2,1.5-2.7c0.6-1,1.2-2,1.7-3c1.1-2,2.1-4.1,3.1-6.2c-2.4,2.1-5.5,3.4-8.7,3.4
	c-1.1,0-2.2-0.1-3.2-0.6c4.3,0,8.6-1.7,11.9-4.5c0.4,0.4,0.9,0.7,1.5,1C239.7-46,239.3-44.9,239.2-44.7z M241.7-35
	c-0.2,1-0.5,3.4-1.4,4c-0.1-0.5,0.1-1.3,0.2-1.8c0.1-0.7,0.2-1.4,0.2-2.2c0.1-1.4,0.2-2.8,0.2-4.2c0-2.6-0.2-5.1-0.1-7.7
	c0.3,0.1,0.6,0.1,0.9,0.2c0.3,2,0.5,4.1,0.5,6.1c0,0.4,0,0.8,0,1.1C242.1-37.8,242-36.4,241.7-35z M249.2-40.5
	c0.8,2.5,1.3,6.4-0.5,8.6c0.6-2.7,0.7-5.1-0.3-7.8c-0.9-2.5-2.5-4.8-4-7c0,0,0-0.1-0.1-0.1c0.4-0.2,0.8-0.4,1.1-0.7
	c0.1,0.2,0.2,0.3,0.3,0.5C247.2-45,248.5-42.9,249.2-40.5z M255.7-47.2c-1-0.5-2-1-3.1-1.4c-1.8-0.6-3.6-1-5.4-1.1
	c0.2-0.4,0.3-0.9,0.4-1.4c0.1,0,0.2,0,0.3,0c0.9,0,1.9,0.1,2.8,0.3c1.9,0.4,3.8,1.2,5.4,2.3c0.6,0.4,2.7,2,2.4,2.9
	C257.4-46,256.6-46.7,255.7-47.2z"/>
<path class="st0" d="M253.5,470.3c2.6-1.3,5-3,7.1-5.1c-1.9-1.4-4.4-1.8-6.7-1.6s-4.6,1-6.8,1.7c3.1-3,6.5-5.7,10-8.3
	c-2.7-1.4-5.9-1.6-8.8-0.7c-2.9,0.9-5.4,2.9-6.9,5.5c-0.9-3.5-1.3-7.2-1.1-10.8c-1.5,0.7-2.6,2.2-3.3,3.7s-0.9,3.3-1.2,4.9
	c-2.3-2.5-5.5-4.1-8.8-4.6c1,3,2.6,5.8,4.6,8.1c-3.7-0.9-7.8-0.3-11,1.8c2.5,1.9,5.4,3.3,8.4,4.2c-2.9,1.2-5.3,3.3-6.9,5.9
	c3.6,0.3,7.3-0.2,10.7-1.5c-3,3-6.1,6-8,9.8c-0.7,1.4-1.3,3-1,4.6c0.7,4,5.9,4,7.9,1c1-1.5,1.2-3.4,1.5-5.2s0.7-3.7,1.9-5.1
	c-0.5,2.2-0.8,4.4-1,6.7c2.6-1.5,4.8-3.8,6.1-6.6c1.6,3.1,2.8,6.3,3.8,9.7c1.8-1.3,2.7-3.6,2.7-5.9c0-2.2-0.8-4.4-1.8-6.4
	c2.5,1.8,4.8,4.1,6.7,6.6c0.7-2.2,0.4-4.7-0.7-6.7c2.8-0.4,5.6-0.9,8.4-1.6C257.8,472.7,255.8,471.2,253.5,470.3z M249.4,466.3
	c3.2-1.1,6.4-1.7,9.7-1.3c-1.2-0.2-3.3,0.8-4.5,1.1c-1.6,0.4-3.1,0.8-4.7,1.3c-1.5,0.5-3.1,1-4.6,1.5c-0.3,0.1-0.8,0.4-1.3,0.6
	c0-0.1,0-0.3,0-0.4c0-0.2,0-0.4-0.1-0.6C245.8,467.7,247.6,466.9,249.4,466.3z M247.3,459.5c2.3-1.6,5.3-2.6,8-2
	c-4.4,0-8.3,2.9-10.9,6.4c-0.5,0.7-1,1.4-1.6,1.9c-0.3-0.3-0.6-0.6-0.9-0.8l0,0C243.6,462.9,245.3,461,247.3,459.5z M237.2,457.8
	c0.3-2,1.1-4,2.5-5.5c-1.4,3.7-1.4,7.7-0.6,11.6c-0.1,0-0.2,0-0.3,0c-0.4,0-0.8,0.1-1.2,0.2V464c-0.2-0.8-0.3-1.6-0.4-2.3
	C237,460.2,237,459,237.2,457.8z M230.1,459.1c-0.2-0.2-0.4-0.5-0.7-0.8c-0.5-0.7-1.1-1.4-1.7-1.8c3.5,1.9,6.6,4.5,8.9,7.7
	c-0.4,0.2-0.7,0.4-1.1,0.6c-1.2-0.7-2.3-2.4-3.1-3.2C231.7,460.8,230.9,460,230.1,459.1z M222.4,465.7c3.6-1.1,7.6-0.9,11,0.6
	c0.2,0.1,0.5,0.2,0.7,0.4c-0.2,0.4-0.4,0.8-0.5,1.3c-1.3-0.8-2.8-1.4-4.3-1.7C227,465.7,224.7,465.7,222.4,465.7z M231.6,472
	c-0.5,0.2-0.9,0.4-1.4,0.6c-0.6,0.3-5.9,2.4-6,2c-0.1-0.9,4.4-2.8,5.1-3.1c1.4-0.6,2.8-1.1,4.3-1.6c0.1,0.4,0.1,0.8,0.3,1.1
	c-0.2,0.1-0.4,0.2-0.5,0.2C232.8,471.4,232.2,471.7,231.6,472z M239,477.8c-0.1,0.4-0.3,0.8-0.4,1.2c-0.6,1.4-1.9,4.7-3.4,5.2
	c-0.4-0.6,0.9-2.5,1.2-3.2c0.5-1.2,1-2.4,1.4-3.6c0.3-1,0.7-2.1,1.1-3c0.2,0,0.5,0,0.7-0.1c0,0.6,0,1.2-0.1,1.5
	C239.4,476.5,239.3,477.1,239,477.8z M245.3,479.7L245.3,479.7c0.4,2.4,0.3,5.4-1.1,7.4c0-2.6,0.2-5-0.5-7.6c-0.5-2.1-1.4-4-2.6-5.8
	c0.3-0.2,0.6-0.3,0.8-0.5C243.7,475.1,244.9,477.3,245.3,479.7z M244.9,471.4c2.3,1.4,4.2,3.5,5.4,6c0.7,1.4,1.1,2.9,0.9,4.4
	c-1.3-4.1-4.2-7.7-7.9-9.9c0.3-0.5,0.6-1.2,0.7-1.8c2-0.3,4.9,0.4,6,0.6c1.5,0.3,2.9,0.8,4.4,1.3c1.3,0.5,2.6,1.5,3.9,1.8l0,0
	C253.9,472.8,249.4,472,244.9,471.4z"/>
<path class="st0" d="M603.4,53c3.1-0.1,6.2,0.2,9.2,1c-0.4-1.4-1.4-2.5-2.6-3.3s-2.6-1.3-3.9-1.7c2.5-1.5,4.4-3.9,5.3-6.6
	c-2.6,0.3-5.2,1.2-7.5,2.6c1.4-2.9,1.6-6.4,0.4-9.5c-2,1.8-3.6,4-4.8,6.4c-0.5-2.6-1.8-5-3.7-6.8c-0.8,3-1,6.2-0.5,9.2
	c-1.7-3-4-5.8-6.6-8.1c-1-0.8-2-1.6-3.3-1.8s-2.7,0.5-3.4,1.6c-0.7,1.1-0.7,2.7,0,3.8c0.5,0.7,1.2,1.2,1.9,1.7
	c2.3,1.3,5,1.9,6.9,3.7c-1.8-0.8-3.6-1.4-5.5-2c0.8,2.5,2.4,4.7,4.5,6.2c-2.9,0.8-5.8,1.3-8.7,1.5c0.8,1.7,2.6,2.8,4.5,3.2
	c1.9,0.4,3.8,0.1,5.6-0.5c-2,1.8-4.2,3.4-6.6,4.5c1.7,0.9,3.9,1.1,5.8,0.5c-0.3,0.1-0.3,3.2-0.3,3.6c0,0.6-0.3,3.2,0.2,3.5
	s2-1.2,2.4-1.6c0.8-0.7,1.5-1.6,2-2.5c0.6,2.4,1.6,4.7,3,6.8c1.5-1.3,2.2-3.3,2.5-5.3c0.2-2-0.1-4-0.3-6c2,3.1,3.7,6.4,5.2,9.7
	c1.6-2,2.3-4.7,2.1-7.2C606.6,57.1,605.3,54.7,603.4,53z M607.8,50.5c1.5,0.6,2.9,1.5,3.8,2.9c-0.2-0.3-0.9-0.5-1.3-0.7
	c-0.5-0.2-1-0.5-1.5-0.7c-1-0.4-2.1-0.7-3.2-0.9c-1.1-0.2-2.2-0.3-3.3-0.2c-0.1,0-0.5,0.1-0.8,0.1c0.1-0.4,0.2-0.8,0.2-1.2
	c0.4-0.1,0.8-0.2,1.3-0.2s0.9,0,1.4,0.1C605.6,49.9,606.7,50.1,607.8,50.5z M608.3,43.9c0.6-0.4,1.2-0.7,1.8-1.1
	c-2,2.5-4.6,4.6-7.4,6c-0.2,0.1-0.6,0.2-0.9,0.2c-0.1-0.3-0.1-0.5-0.2-0.7c0.1-0.2,0.3-0.3,0.5-0.4
	C604.1,46.5,606.2,45.2,608.3,43.9z M601.8,42.5c0.8-1.8,1.2-3.7,1.6-5.6c0.3,2.7-0.3,5.4-1.6,7.8c-0.4,0.7-0.9,1.4-1.5,1.9
	c-0.3-0.2-0.6-0.4-0.9-0.6C600.4,45.1,601.2,43.9,601.8,42.5z M598.1,45.7c-0.1,0-0.3,0-0.4,0c-0.2,0-0.3,0-0.5,0.1
	c-0.1-0.8-0.3-1.5-0.4-2.2c-0.4-2.3-0.8-4.7-1.2-7C597.2,39.3,597.8,42.5,598.1,45.7z M586.9,45.6c-0.9-1-1.2-1.5-1.2-1.5
	s0.6,0.3,1.6,1.1c1.1,0.8,2.4,1.8,3.9,2.6c0.4,0.2,0.7,0.4,1.1,0.6s0.7,0.4,1.1,0.5c0.1,0,0.1,0,0.2,0.1c-0.1,0.3-0.1,0.6-0.1,0.9
	c0,0,0,0,0,0.1c-0.9-0.3-1.9-0.7-2.8-1.2C589.1,47.7,587.8,46.5,586.9,45.6z M588.1,53.4c-0.1,0-0.1,0-0.2,0c-1.1,0-2.1-0.2-3.2-0.4
	c-0.9-0.3-2.2-0.6-2.6-1.6c3.7,1.3,7.9,1.2,11.5-0.3c0.1,0.3,0.2,0.5,0.3,0.7C592.2,52.8,590.2,53.4,588.1,53.4z M592.1,63.5
	c-0.2,0.2-0.6,1.1-0.9,1.1c-0.1,0-0.1,0-0.1,0c-0.2-0.1,0.2-0.9,0.3-1c0.5-1,0.9-2,1.3-3c0.4-1,0.8-2,1.2-3.1c0.2-0.5,0.4-1,0.5-1.5
	c0.1-0.4,0.2-1.3,0.5-1.5c-1.3,1.3-2.7,2.3-4.3,3s-3.5,0.9-5.2,0.5c3.6-0.5,7.1-2.3,9.5-5c0.3,0.3,0.7,0.5,1.1,0.7
	C595.5,57.2,594.1,60.6,592.1,63.5z M598.5,65.4c0,0.3-0.2,1.5-0.6,1.3c-0.3-0.1-0.1-1.5-0.1-1.8c0-1.4-0.1-2.8-0.2-4.1
	c-0.2-2.3-0.7-4.5-0.9-6.8c0.2,0.1,0.5,0.1,0.7,0.1c0.4,1.7,0.8,3.4,1,5.1C598.8,61.1,598.8,63.3,598.5,65.4z M604.8,65.3
	c-0.1-0.3,0.1-1,0.1-1.4c0-0.6,0-1.1-0.1-1.7c-0.2-1.1-0.5-2.1-1-3.1c-1-2-2.4-3.6-3.9-5.2c-0.1-0.1-0.2-0.2-0.2-0.3
	c0.3-0.2,0.6-0.4,0.8-0.6c0.1,0.1,0.2,0.3,0.3,0.4c1.2,1.5,2.4,3,3.3,4.8c0.6,1.1,1,2.4,1.2,3.7C605.5,62.7,605.5,64.3,604.8,65.3z"
	/>
<path class="st0" d="M991.2,55.2c-2.2-1.5-4.6-2.7-7.2-3.4c2.4-1,4.5-2.8,5.8-5.1c-3.1-0.2-6.2,0.3-9.1,1.5c2.6-2.3,4.8-5,6.5-8.1
	c0.6-1.1,1.2-2.3,1.1-3.6c-0.1-1.4-1.1-2.6-2.4-3.1c-1.3-0.5-2.8-0.1-3.8,0.9c-0.6,0.6-0.9,1.4-1.2,2.3c-0.7,2.4-0.8,5.2-2.1,7.3
	c0.4-1.9,0.6-3.8,0.8-5.8c-2.2,1.3-4,3.3-5.1,5.7c-1.3-2.6-2.5-5.4-3.3-8.2c-1.5,1.2-2.2,3.1-2.2,5s0.7,3.7,1.6,5.4
	c-2.2-1.5-4.2-3.4-5.8-5.5c-0.5,1.9-0.3,4,0.7,5.7c-2.4,0.4-4.8,0.8-7.1,1.4c1.3,1.6,3,2.8,5,3.5c-2.2,1.1-4.2,2.6-6,4.3
	c1.6,1.2,3.7,1.5,5.7,1.3s3.9-0.9,5.7-1.6c-2.3,2.3-4.7,4.4-7.3,6.3c-0.5,0.4-1.2,0.7-0.5,1.2c0.6,0.4,1.7,0.5,2.3,0.6
	c1.5,0.2,3.1,0.1,4.6-0.4c2.4-0.8,4.5-2.6,5.8-4.8c0.7,3,1.1,6.1,1,9.2c1.3-0.7,2.2-1.9,2.7-3.2s0.7-2.8,0.9-4.2
	c2,2.1,4.7,3.4,7.5,3.8c-0.9-2.5-2.3-4.8-4.1-6.8C985,57.6,988.4,57,991.2,55.2z M989.6,54.6c-1,0-2.1,0.5-3.1,0.6
	c-1.1,0.1-2.3,0-3.4-0.2c-1.1-0.2-2.1-0.6-3.1-1.1c-0.1-0.1-0.2-0.1-0.4-0.2c0.2-0.3,0.3-0.7,0.3-1.1c1.2,0.8,2.5,1.3,3.8,1.6
	C985.6,54.7,987.6,54.7,989.6,54.6z M981.7,49.6c2.2-0.9,4.4-1.8,6.6-2.7c-2.5,2.1-5.4,3.6-8.5,4.5c-0.1-0.3-0.1-0.6-0.2-0.9
	C980.3,50.1,981,49.9,981.7,49.6z M975.4,44.7c0.7-2.2,1.9-4.2,3.5-5.8c-1.1,2.2-1.9,4.4-2.6,6.7c-0.1,0.3-0.3,1.2-0.7,2l0,0
	c-0.3,0-0.6,0-0.9,0.1c0.1-0.9,0.5-2.3,0.5-2.5C975.3,45.1,975.3,44.9,975.4,44.7z M970.2,43.1c-0.4-2-0.2-4.2,0.7-6.2
	c-0.5,3.9,0.5,8,2.7,11.3c-0.2,0.1-0.5,0.3-0.7,0.4C971.6,47,970.6,45.1,970.2,43.1z M961.8,49.5c-0.3-0.1-1.9-0.7-1.8-1
	c0-0.1,0.1-0.1,0.3-0.1c0.4-0.1,1.3,0.3,1.7,0.4c0.6,0.1,1.2,0.3,1.8,0.4c2.3,0.4,4.6,0.8,6.9,1c-1.5-1-2.8-2.1-3.8-3.6
	s-1.6-3.2-1.6-5c1.2,3.4,3.7,6.3,6.8,8.2c-0.3,0.4-0.5,0.9-0.6,1.4C968.1,51.1,964.8,50.6,961.8,49.5z M966.9,54.5
	c-1.8,0.6-3.7,1.1-5.6,1.3c-0.7,0.1-1.7,0.2-2.3-0.2c0.9-0.5,2.3-0.6,3.3-0.9c1.2-0.3,2.3-0.7,3.5-1c1.8-0.6,3.7-1.2,5.5-2
	c0,0.1,0,0.1,0,0.2c0,0.2,0,0.4,0.1,0.6C969.9,53.3,968.4,54,966.9,54.5z M970,59.2c-1.5,1.4-3.3,2.5-5.3,3
	c-0.3,0.1-1.5,0.4-1.8,0.1c-0.4-0.4,0.3-0.4,0.6-0.5c1-0.2,2-0.6,3-1.1c1.9-1,3.5-2.4,4.7-4.2c0.4-0.5,0.7-1.1,1.2-1.5
	c0.2,0.3,0.5,0.5,0.8,0.7l0,0C972.2,56.9,971.2,58.1,970,59.2z M976.7,63.8c-0.3,0.7-0.7,1.9-1.4,2.2c0-0.8,0.5-1.7,0.6-2.6
	c0.2-0.9,0.2-1.9,0.2-2.8c0-1.4-0.2-2.8-0.5-4.2l0,0c0.4,0,0.8-0.1,1.1-0.2l0,0c0.2,0.7,0.4,1.5,0.5,2.2
	C977.4,60.2,977.3,62.1,976.7,63.8z M983.8,60.9c0.5,0.5,1,1,1.5,1.5c-0.5-0.6-1.7-0.9-2.3-1.3c-0.8-0.5-1.5-1.1-2.3-1.7
	c-1.2-1-2.4-2.1-3.2-3.5c0.3-0.1,0.6-0.3,0.8-0.5c0.3,0.2,0.5,0.4,0.7,0.6C980.6,57.7,982.2,59.3,983.8,60.9z"/>
<path class="st0" d="M988.1,245.5c-1.9-1.8-4.4-3-5.7-5.2c1.6,1.2,3.2,2.2,4.9,3.2c-0.2-2.6-1.2-5.1-2.9-7.1
	c2.9-0.1,5.9,0.1,8.8,0.6c-0.4-1.9-1.8-3.4-3.6-4.2c-1.7-0.8-3.7-1-5.6-0.9c2.3-1.3,4.9-2.3,7.5-2.8c-1.5-1.3-3.5-2-5.4-1.9
	c0.7-2.3,1.3-4.6,1.9-7c-2,0.4-3.9,1.5-5.3,3c-0.1-2.5-0.5-4.9-1.3-7.2c-1.8,0.9-3,2.7-3.6,4.6c-0.7,1.9-0.9,3.9-1.1,5.9
	c-1.2-3.5-2.1-7-2.7-10.7c-2,1.6-3.4,4-3.7,6.5c-0.4,2.5,0.3,5.2,1.8,7.3c-3-0.6-6-1.7-8.7-3.1c0,1.4,0.7,2.8,1.7,3.9
	s2.2,1.9,3.4,2.6c-0.5-0.3-2.8,1.3-3.3,1.6c-1,0.7-2.1,1.6-2.9,2.7c-1,1.4,1.9,1,2.7,0.9c1.6-0.1,3.1-0.4,4.6-0.8
	c-2.1,2.5-3,5.9-2.7,9.1c2.3-1.3,4.4-3,6.2-5c-0.2,2.6,0.6,5.3,2,7.5c1.5-2.7,2.4-5.7,2.7-8.8c0.9,3.4,2.5,6.5,4.5,9.4
	c0.7,1,1.6,2.1,2.8,2.5c1.3,0.5,2.8,0.1,3.7-0.8c1-0.9,1.3-2.4,0.9-3.7C989.3,246.7,988.7,246.1,988.1,245.5z M987,233
	c1.8,0.5,3.4,1.4,4.7,2.7c-1.1-0.9-2.6-1.4-4.1-1.6c-1.7-0.2-3.5,0-5.2,0.1c-0.3,0-0.8,0-1.2,0c0-0.1,0-0.2,0-0.4
	c0-0.3,0-0.6-0.1-0.9l0,0C983,232.4,985.1,232.4,987,233z M982,225.8c1.3-1.7,2.8-3.3,4.5-4.6c0.2-0.1,0.4-0.2,0.5-0.4
	c-2.4,2.9-4.6,6.1-6.6,9.3c1.5-0.9,3.2-1.6,4.9-1.9s3.6,0,5.2,0.8c-2.2-0.2-4.4,0-6.5,0.7c-1.1,0.3-2.1,0.8-3,1.3
	c-0.1,0.1-0.3,0.2-0.4,0.3c-0.3-0.5-0.7-0.9-1.2-1.3c0.3-0.6,0.7-1.2,0.9-1.6C980.8,227.6,981.4,226.7,982,225.8z M978.1,225
	c0-0.3,0.1-0.7,0.1-1c0.4-2.4,1.1-4.8,2.4-6.8c-0.9,4.1-1.6,8.3-2,12.5c-0.2-0.1-0.5-0.2-0.8-0.3c0-0.4,0-0.7,0-1.1
	C977.9,227.2,978,226.1,978.1,225z M973.6,217.3c-1,1.9-1.1,4.2-0.7,6.2c0.4,2.1,1.4,4.1,2.4,5.9c-0.3,0.1-0.7,0.3-1,0.4
	c-1.1-2.1-2.2-4.5-2.2-6.8C971.9,221,972.3,218.9,973.6,217.3z M967.6,231.5c-1.6-1-2.9-2.3-3.6-4.1c2.3,2.3,5.2,3.9,8.4,4.6
	c-0.2,0.4-0.2,0.7-0.3,1.1l0,0c-0.7-0.1-1.4-0.3-2-0.5C969.2,232.3,968.4,231.9,967.6,231.5z M967.2,236.7c-0.7,0.3-1.5,0.5-2.2,0.8
	c-0.1,0-0.2,0.1-0.3,0.1c-0.7,0.3-1.7,0.4-0.6-0.4c1.3-0.9,2.8-1.6,4.3-2.2c0.7-0.3,1.5-0.5,2.2-0.7c0.3-0.1,0.9-0.1,1.5-0.2
	c0,0.3,0.1,0.6,0.1,0.9C970.6,235.5,968.9,236.1,967.2,236.7z M971,240.1c-1.2,1.5-1.7,3.5-2.9,4.9c-0.1-1.4,0.8-3.2,1.4-4.4
	c0.7-1.3,1.7-2.6,2.9-3.6c0.2-0.2,0.4-0.4,0.7-0.5c0.2,0.3,0.5,0.6,0.8,0.8C972.8,238.1,971.8,239.1,971,240.1z M975.6,247.6
	c-0.8-3.1-0.9-6.4-0.3-9.5c0.3,0.1,0.6,0.2,1,0.2c-0.1,0.7-0.1,1.5-0.2,2.2C975.9,242.9,975.8,245.2,975.6,247.6z M981.4,236.7
	c-0.3-0.2-0.5-0.5-0.8-0.8c0.1-0.3,0.3-0.5,0.4-0.8c0.8,0.5,1.6,1.2,2.2,1.8l0,0c1.6,1.6,2.9,3.5,3.6,5.7
	C985.2,240.5,983.3,238.5,981.4,236.7z"/>
<path class="st0" d="M607.4,231.8c2.2-1.1,4.2-2.5,6-4.2c-1.6-1.2-3.7-1.6-5.6-1.4c-2,0.2-3.9,0.8-5.7,1.4c2.6-2.5,5.5-4.8,8.4-6.9
	c-2.3-1.1-5-1.4-7.4-0.7c-2.4,0.7-4.6,2.4-5.8,4.6c-0.7-3-1-6-0.9-9.1c-2.5,1.3-3.3,4.5-3.7,7.3c-1.9-2.1-4.6-3.5-7.4-3.9
	c0.8,2.5,2.1,4.8,3.9,6.8c-3.1-0.8-6.5-0.3-9.3,1.4c2.1,1.6,4.5,2.8,7,3.5c-2.4,1-4.5,2.7-5.8,4.9c3,0.3,6.1-0.2,9-1.2
	c-2.8,2.4-5.1,5.3-6.8,8.5c-0.4,0.8-0.8,1.6-0.9,2.5c-0.2,2.2,2.3,4.3,4.5,3.7c2-0.5,3-2.7,3.4-4.6c0.4-2,0.5-4.2,1.8-5.7
	c-0.4,1.8-0.7,3.7-0.9,5.6c2.2-1.3,4-3.2,5.2-5.5c1.3,2.6,2.3,5.3,3.1,8.1c1.5-1.1,2.3-3,2.3-4.9s-0.7-3.7-1.5-5.4
	c2.1,1.5,4,3.4,5.6,5.5c0.6-1.8,0.4-3.9-0.5-5.6c2.4-0.3,4.7-0.7,7-1.3C611,233.7,609.3,232.5,607.4,231.8z M604,228.4
	c0.4-0.1,0.8-0.3,1.2-0.4c2.2-0.6,4.6-1,6.9-0.6c-4.1,0.9-8.1,2-12,3.4c-0.2,0.1-0.5,0.2-0.8,0.3c0-0.2,0.1-0.4,0.1-0.6
	c0-0.1,0-0.2,0-0.3C600.9,229.6,602.4,228.9,604,228.4z M598,226.8c0.8-1,1.6-1.9,2.6-2.8c1.2-1.1,2.4-2,3.9-2.6s3.1-0.8,4.6-0.4
	c-2.1-0.1-4.2,0.7-5.9,1.9c-1.7,1.2-3.1,2.9-4.4,4.6c-0.1,0.2-0.2,0.3-0.4,0.4c-0.2-0.3-0.5-0.5-0.8-0.8c0,0,0-0.1,0.1-0.1
	C597.9,227,598,226.9,598,226.8z M593.7,222.3c0.1-1,0.3-2.1,0.7-3s1.2-1.8,1.5-2.7c-1,3.1-1.4,6.6-0.6,9.8c-0.1,0-0.1,0-0.2,0
	c-0.3,0-0.6,0-0.9,0.1c-0.1-0.3-0.2-0.5-0.3-0.9s-0.2-0.8-0.2-1.2C593.6,223.6,593.6,222.9,593.7,222.3z M587.2,221.7
	c-0.5-0.5-1-1-1.4-1.6c3,1.6,5.6,3.9,7.6,6.6c-0.3,0.1-0.6,0.3-0.9,0.5C590.7,225.4,588.9,223.5,587.2,221.7z M581.3,227.8
	c3.1-0.9,6.5-0.8,9.4,0.7c0.2,0.1,0.4,0.2,0.6,0.3c-0.2,0.3-0.3,0.7-0.3,1.1c-1.1-0.8-2.4-1.3-3.7-1.6
	C585.3,227.8,583.3,227.8,581.3,227.8z M589.1,233c-0.8,0.3-1.7,0.7-2.5,1c-0.8,0.3-1.7,0.6-2.5,1c-0.9,0.3-1.6,0.3-0.5-0.4
	c2.3-1.5,4.8-2.6,7.4-3.3c0.1,0.3,0.1,0.6,0.3,0.9C590.5,232.5,589.8,232.8,589.1,233z M592.8,242.6c-0.9,1.1-0.5-0.4-0.3-0.9
	c0.4-0.9,0.8-1.8,1.1-2.7c0.4-0.9,0.7-1.7,1.1-2.6c0.2-0.4,0.6-1,0.9-1.6c0.1,0,0.2,0,0.3,0c-0.1,1.1-0.3,2.2-0.6,3.3
	C594.7,239.7,593.9,241.2,592.8,242.6z M600.5,239.6v0.1c0.2,1,0.2,2,0.1,3c-0.1,0.7-0.3,2.5-1,2.9c-0.3-0.7,0.1-2.2,0-3
	c-0.1-1.1-0.2-2.2-0.5-3.3c-0.5-1.8-1.2-3.5-2.2-5c0.2-0.1,0.5-0.3,0.7-0.4C599.1,235.5,600.1,237.5,600.5,239.6z M602.2,234.2
	c0.7,0.6,1.2,1.3,1.8,2.1c0.7,1.1,2,3.4,1.5,4.7c-0.5-0.2-1-1.9-1.3-2.4c-0.5-0.9-1.1-1.7-1.7-2.4c-1.1-1.3-2.4-2.4-3.8-3.3
	c0.2-0.3,0.4-0.7,0.5-1.2c4.3,0,8.6,0.8,12.2,3c-3.7-0.9-7.4-1.6-11.2-2.1C600.8,232.7,601.8,233.8,602.2,234.2z"/>
<rect x="1136.7" y="44.1" class="st0" width="35.2" height="152.6"/>
</svg>
