<svg width="295" height="73" viewBox="0 0 295 73" fill="none" xmlns="http://www.w3.org/2000/svg">
<path d="M101.478 26.1546C104.815 26.1546 106.54 28.3632 106.54 32.6641V34.8727C106.54 39.1737 104.815 41.3823 101.478 41.3823H89.7424V49.9842H88.0166V26.1546H101.478ZM89.7424 39.0574H101.478C103.664 39.0574 104.815 37.6625 104.815 34.7565V32.5479C104.815 29.6418 103.664 28.2469 101.478 28.2469H89.7424V39.0574Z" fill="#F16553"/>
<path d="M91.0081 51.2627H86.636V24.7595H101.478C103.894 24.7595 107.921 25.8057 107.921 32.5477V34.7563C107.921 41.6146 103.894 42.5446 101.478 42.5446H91.0081V51.2627V51.2627ZM91.0081 37.7786H101.478C102.283 37.7786 103.549 37.7786 103.549 34.8726V32.664C103.549 29.7579 102.283 29.7579 101.478 29.7579H91.0081V37.7786Z" fill="#F16553"/>
<path d="M120.922 41.266V49.8679H119.196V26.1546H132.658C135.994 26.1546 137.72 28.3632 137.72 32.6641V34.8727C137.72 39.1737 135.994 41.3823 132.658 41.3823H128.746L137.72 49.9842H134.959L125.869 41.3823H120.922V41.266ZM120.922 28.2469V39.0574H132.658C134.844 39.0574 135.994 37.6625 135.994 34.7565V32.5479C135.994 29.6418 134.844 28.2469 132.658 28.2469H120.922V28.2469Z" fill="#F16553"/>
<path d="M141.057 51.2627H134.499L125.409 42.6608H122.188V51.2627H117.816V24.7595H132.658C135.074 24.7595 139.101 25.8057 139.101 32.5477V34.7563C139.101 41.6146 135.074 42.5446 132.658 42.5446H132.083L141.057 51.2627ZM122.188 37.7786H132.658C133.463 37.7786 134.729 37.7786 134.729 34.8726V32.664C134.729 29.7579 133.463 29.7579 132.658 29.7579H122.188V37.7786Z" fill="#F16553"/>
<path d="M168.9 26.1546V28.3632H152.102V36.9651H165.563V39.1737H152.102V47.6593H168.9V49.8679H150.376V26.1546H168.9Z" fill="#F16553"/>
<path d="M170.281 51.2627H149.111V24.7595H170.281V29.6417H153.368V35.57H166.829V40.4522H153.368V46.3805H170.281V51.2627Z" fill="#F16553"/>
<path d="M200.08 26.1546V28.3632H183.282V36.9651H196.743V39.1737H183.282V49.9842H181.556V26.1546H200.08Z" fill="#F16553"/>
<path d="M184.662 51.2627H180.29V24.7595H201.46V29.6417H184.662V35.57H198.009V40.4522H184.662V51.2627Z" fill="#F16553"/>
<path d="M231.26 26.1546V28.3632H214.462V36.9651H227.923V39.1737H214.462V47.6593H231.26V49.8679H212.736V26.1546H231.26Z" fill="#F16553"/>
<path d="M232.64 51.2627H211.47V24.7595H232.64V29.6417H215.842V35.57H229.304V40.4522H215.842V46.3805H232.64V51.2627Z" fill="#F16553"/>
<path d="M262.439 26.1546V28.3632H245.641V36.9651H259.102V39.1737H245.641V47.6593H262.439V49.8679H243.915V26.1546H262.439Z" fill="#F16553"/>
<path d="M263.82 51.2627H242.65V24.7595H263.82V29.6417H247.022V35.57H260.484V40.4522H247.022V46.3805H263.82V51.2627Z" fill="#F16553"/>
<path d="M283.264 38.0113L275.21 27.6657V26.1546H276.361L284.414 36.5001L292.468 26.1546H293.619V27.6657L285.565 38.0113L293.619 48.3568V49.8679H292.468L284.414 39.5224L276.361 49.8679H275.21V48.3568L283.264 38.0113Z" fill="#F16553"/>
<path d="M295 51.2627H291.778L284.415 41.7309L277.051 51.2627H273.83V47.8917L281.539 38.0111L273.83 28.1305V24.7595H277.051L284.415 34.2914L291.778 24.7595H295V28.1305L287.291 38.0111L295 47.8917V51.2627Z" fill="#F16553"/>
<path d="M36.1271 73C56.0795 73 72.2542 56.6584 72.2542 36.5C72.2542 16.3416 56.0795 0 36.1271 0C16.1746 0 -6.10352e-05 16.3416 -6.10352e-05 36.5C-6.10352e-05 56.6584 16.1746 73 36.1271 73Z" fill="#F16553"/>
<path fill-rule="evenodd" clip-rule="evenodd" d="M36.1269 6.35545C19.6485 6.35545 6.29014 19.8517 6.29014 36.5002C6.29014 53.1487 19.6485 66.6449 36.1269 66.6449C52.6053 66.6449 65.9637 53.1487 65.9637 36.5002C65.9637 19.8517 52.6053 6.35545 36.1269 6.35545ZM4.7547 36.5002C4.7547 18.995 18.8005 4.80417 36.1269 4.80417C53.4533 4.80417 67.4992 18.995 67.4992 36.5002C67.4992 54.0054 53.4533 68.1962 36.1269 68.1962C18.8005 68.1962 4.7547 54.0054 4.7547 36.5002Z" fill="white"/>
<path d="M43.1451 23.3646C43.03 25.2245 44.5257 26.8519 46.3666 26.8519C48.2075 26.9681 49.8182 25.457 49.8182 23.5971C49.9333 21.7373 48.4376 20.1099 46.5967 20.1099C44.7558 19.9936 43.1451 21.5048 43.1451 23.3646Z" fill="white"/>
<path d="M19.7891 22.0859C19.7891 24.2945 21.5149 26.2706 23.701 26.2706C25.887 26.2706 27.8429 24.527 27.8429 22.2021C27.958 19.9935 26.2322 18.1336 23.9311 18.0174C21.63 17.9012 19.9042 19.761 19.7891 22.0859Z" fill="white"/>
<path d="M44.8712 31.6177C42.6851 30.1066 40.384 28.5954 38.198 27.0843C37.2776 26.5031 36.5872 26.7355 36.012 27.5492C34.2861 30.339 32.4453 33.1289 30.6044 35.8024C30.2592 36.2674 30.0291 36.8486 29.5689 37.3136C29.799 37.7785 30.0291 38.2435 30.2592 38.5922C32.3302 35.3375 34.5163 32.0827 36.5872 28.8279C39.0034 30.4553 41.4195 32.0827 43.8357 33.5938C43.8357 33.7101 43.7206 33.7101 43.7206 33.8263C42.1099 36.2674 40.6141 38.5922 39.0034 41.1496C38.7733 41.4983 38.6582 42.0795 38.4281 42.5445C38.7733 42.7769 39.0034 42.8932 39.4636 43.0094C39.5787 42.8932 39.5787 42.7769 39.6937 42.6607C41.5346 39.7547 43.3755 36.8486 45.3314 33.9426C45.7916 33.1289 45.6765 32.0827 44.8712 31.6177Z" fill="white"/>
<path d="M47.287 44.1719C45.9064 42.6608 43.6053 42.5445 42.1096 43.9394C40.6138 45.3343 40.4988 47.6592 41.8795 49.1703L46.1365 53.82C47.5171 55.3311 49.8182 55.4474 51.3139 54.0525C52.8096 52.6576 52.9247 50.3327 51.544 48.8216L47.287 44.1719Z" fill="white"/>
<path d="M27.4978 28.944C27.4978 30.1064 28.1882 30.9201 29.3387 30.9201C30.4893 30.9201 31.2946 29.9902 31.2946 29.0602C31.2946 27.8978 30.6043 27.0841 29.4538 27.0841C28.4183 27.0841 27.4978 27.7816 27.4978 28.944Z" fill="white"/>
<path d="M34.8611 33.9425C33.2504 36.3836 31.7547 38.8247 30.1439 41.2658C30.1439 41.382 30.0289 41.4983 30.0289 41.4983C30.0289 40.9171 30.0289 40.2196 30.0289 39.6384C30.0289 39.2897 30.0289 39.0572 29.9138 38.5922C29.7987 38.1273 29.4536 38.011 28.8783 37.8948C28.5331 37.8948 28.188 38.011 27.9579 38.3597C27.8428 38.5922 27.7278 38.9409 27.7278 39.4059C27.6127 41.382 27.4977 43.4744 27.2675 45.4505L20.0191 54.7499H29.4536L31.9848 50.2164C32.3299 50.4489 32.6751 50.4489 33.2504 50.4489C34.1708 50.3327 34.8611 49.8677 35.4364 49.1702C36.702 47.6591 37.8526 46.2642 39.0031 44.753C39.3483 44.2881 39.2332 43.4744 38.773 43.1257C38.4278 42.8932 37.8526 42.7769 37.3923 42.8932C37.5074 42.6607 37.7375 42.4282 37.8526 42.1957C38.1977 41.6145 37.9676 41.0333 37.5074 40.6846C37.1622 40.4521 36.587 40.4521 36.2418 40.6846C36.4719 40.1034 36.702 39.5222 36.2418 39.0572C35.7816 38.5922 35.2063 38.5922 34.631 38.8247C34.7461 38.5922 34.8611 38.5922 34.8611 38.476C35.5515 37.3136 36.2418 36.3836 36.9321 35.2212C37.1622 34.7562 37.1622 34.175 36.9321 33.8263C36.702 33.4776 36.3569 33.3613 36.0117 33.3613C35.6665 33.3613 35.0913 33.4776 34.8611 33.9425Z" fill="white"/>
</svg>
