<svg width="282" height="92" viewBox="0 0 282 92" fill="none" xmlns="http://www.w3.org/2000/svg">
<path opacity="0.34" d="M4.40385 62.8001V75.9236H0V42.4543H12.4188C16.1181 42.4543 18.9365 43.4232 21.0504 45.2728C23.1642 47.1224 24.1331 49.5886 24.1331 52.7593C24.1331 56.0182 23.0762 58.4843 21.0504 60.2459C19.0246 62.0074 16.1181 62.8882 12.3308 62.8882H4.40385V62.8001ZM4.40385 59.189H12.3308C14.7088 59.189 16.4704 58.6605 17.7915 57.5155C19.0246 56.3705 19.6412 54.7851 19.6412 52.6713C19.6412 50.6455 19.0246 49.0601 17.7915 47.827C16.5585 46.594 14.7969 45.9774 12.595 45.9774H4.40385V59.189Z" fill="#5D5D5D"/>
<path opacity="0.34" d="M46.1522 62.4476H38.2253V76.0114H33.7334V42.4541H44.9192C48.7065 42.4541 51.613 43.3349 53.6388 45.0083C55.6646 46.7699 56.7215 49.236 56.7215 52.4949C56.7215 54.6087 56.193 56.3703 55.048 57.9556C53.903 59.541 52.3176 60.686 50.2919 61.4787L58.2188 75.7472V76.0114H53.4626L46.1522 62.4476ZM38.2253 58.7483H45.0072C47.2092 58.7483 48.9707 58.2199 50.2919 57.0749C51.613 55.9299 52.2296 54.4326 52.2296 52.4949C52.2296 50.381 51.613 48.7956 50.3799 47.7387C49.1469 46.5937 47.3853 46.0653 45.0072 46.0653H38.2253V58.7483Z" fill="#5D5D5D"/>
<path opacity="0.34" d="M85.875 60.5099H71.3423V72.4003H88.2531V76.0114H66.9385V42.4541H88.0769V46.0653H71.3423V56.8987H85.875V60.5099Z" fill="#5D5D5D"/>
<path opacity="0.34" d="M116.262 61.1264H102.169V75.9233H97.7656V42.4541H118.552V46.0653H102.169V57.6033H116.262V61.1264Z" fill="#5D5D5D"/>
<path opacity="0.34" d="M146.825 60.5099H132.292V72.4003H149.203V76.0114H127.888V42.4541H149.027V46.0653H132.38V56.8987H146.913V60.5099H146.825Z" fill="#5D5D5D"/>
<path opacity="0.34" d="M177.739 60.5099H163.207V72.4003H180.117V76.0114H158.803V42.4541H179.941V46.0653H163.295V56.8987H177.827V60.5099H177.739Z" fill="#5D5D5D"/>
<path opacity="0.34" d="M241.683 11.8034C241.683 16.7357 245.735 20.7872 250.667 20.7872C255.687 20.7872 259.651 16.7357 259.651 11.7153C259.651 6.69491 255.687 2.73145 250.667 2.73145C245.647 2.81952 241.595 6.78298 241.683 11.8034Z" fill="#5D5D5D"/>
<path opacity="0.34" d="M198.966 29.2428C198.966 33.2943 202.313 36.5531 206.276 36.5531C210.328 36.5531 213.587 33.2943 213.587 29.2428C213.587 25.1912 210.328 21.9324 206.276 21.9324C202.225 21.9324 198.966 25.1912 198.966 29.2428Z" fill="#5D5D5D"/>
<path opacity="0.34" d="M174.744 11.363C174.744 17.7046 179.941 22.813 186.194 22.813C192.536 22.813 197.556 17.7046 197.556 11.363C197.556 5.02151 192.448 0.00112205 186.106 0.00112205C179.853 -0.0869549 174.744 5.02151 174.744 11.363Z" fill="#5D5D5D"/>
<path opacity="0.34" d="M250.755 31.3564C244.854 27.9214 238.952 24.3102 233.139 20.7872C230.849 19.466 228.824 19.9064 227.502 22.1964C223.275 29.2425 219.047 36.2887 214.819 43.2468C214.027 44.5679 213.234 45.8891 212.529 47.0341C213.322 48.1791 213.939 49.236 214.643 50.2048C219.664 41.8375 224.772 33.4702 229.88 24.9268C236.222 28.7141 242.475 32.5014 248.729 36.2887C248.641 36.5529 248.465 36.7291 248.377 36.9933C244.677 43.1587 240.89 49.4122 237.191 55.6656C236.574 56.7225 236.222 57.9556 235.782 59.1006C236.75 59.541 237.543 59.8933 238.336 60.3337C238.512 60.0695 238.688 59.8052 238.864 59.541C243.356 52.1425 247.76 44.656 252.34 37.2575C253.573 35.0556 252.869 32.5895 250.755 31.3564Z" fill="#5D5D5D"/>
<path opacity="0.34" d="M264.142 60.2459C259.738 56.1943 252.78 56.4585 248.641 60.8624C244.589 65.2662 244.853 72.2243 249.257 76.3639L262.909 88.9589C267.313 93.0105 274.271 92.7462 278.411 88.3424C282.462 83.9385 282.198 76.8924 277.794 72.8409L264.142 60.2459Z" fill="#5D5D5D"/>
<path opacity="0.34" d="M225.654 38.1386C221.866 44.392 218.079 50.6455 214.292 56.8989C214.115 57.1632 214.027 57.4274 213.851 57.6035C213.763 57.6035 213.763 57.6036 213.675 57.5155C213.675 55.9301 213.675 54.3447 213.675 52.7593C213.675 51.9666 213.499 51.1739 213.235 50.3812C212.794 49.1482 211.825 48.7078 210.68 48.6197C209.624 48.6197 208.831 49.1482 208.39 50.117C208.038 50.9097 207.862 51.7024 207.774 52.4951C207.598 57.6035 207.51 62.712 207.245 67.8205L195.531 90.1039H213.499L219.752 79.6228C220.721 80.2393 221.778 80.2393 222.835 80.0632C225.125 79.6228 226.975 78.3897 228.384 76.6282C231.29 72.8409 234.197 69.0536 237.015 65.1782C237.984 63.857 237.632 62.0955 236.135 61.2147C235.078 60.5101 233.933 60.422 232.7 60.8624C233.052 60.0697 233.492 59.4532 233.845 58.7486C234.549 57.2512 234.109 55.842 232.7 55.0493C231.643 54.4328 230.586 54.4328 229.353 55.1374C229.881 53.6401 230.586 52.2309 229.265 50.9097C228.12 49.6766 226.71 49.6766 225.125 50.4693C225.389 49.9409 225.565 49.6766 225.742 49.4124C227.415 46.5939 229.089 43.8636 230.762 41.0451C231.467 39.812 231.467 38.5789 230.586 37.6101C229.881 36.8174 229.089 36.4651 228.208 36.4651C227.239 36.5532 226.27 37.0816 225.654 38.1386Z" fill="#5D5D5D"/>
</svg>
