<svg width="24" height="24" viewBox="0 0 24 24" fill="none" xmlns="http://www.w3.org/2000/svg">
<path d="M20.6166 15.291C20.6166 17.3143 20.6166 19.2496 20.6166 21.2729C20.6166 21.8887 20.4407 22.5045 20.0888 23.0323C19.649 23.6481 18.9452 23.912 18.2414 24C18.1535 24 18.0655 24 17.8896 24C14.1069 24 10.4121 24 6.62941 24C5.57377 24 4.69407 23.5602 4.16625 22.5925C3.99031 22.3286 3.99031 21.9767 3.90234 21.6248C3.90234 21.5369 3.90234 21.4489 3.90234 21.3609C3.90234 17.3143 3.90234 13.2677 3.90234 9.22107C3.90234 8.95716 3.99031 8.69325 4.16625 8.42934C4.43016 8.16543 4.78204 8.16543 5.04595 8.34137C5.30986 8.51731 5.4858 8.69325 5.4858 9.04513C5.4858 11.5083 5.4858 13.9714 5.4858 16.4346C5.4858 18.106 5.4858 19.6895 5.4858 21.3609C5.4858 21.9767 5.92565 22.4166 6.54144 22.4166C10.3241 22.4166 14.1069 22.4166 17.8896 22.4166C18.5054 22.4166 18.9452 21.9767 18.9452 21.3609C18.9452 17.3143 18.9452 13.2677 18.9452 9.1331C18.9452 8.86919 19.0332 8.60528 19.2091 8.42934C19.473 8.2534 19.7369 8.16543 20.0888 8.34137C20.3527 8.42934 20.5287 8.69325 20.6166 9.04513C20.6166 9.22107 20.6166 9.39701 20.6166 9.48498C20.6166 11.3323 20.6166 13.3557 20.6166 15.291Z" fill="#B8423E"/>
<path d="M12.2595 6.40602C8.65277 6.40602 5.046 6.40602 1.52721 6.40602C1.08736 6.40602 0.735478 6.14211 0.647509 5.79023C0.471569 5.43835 0.735478 4.82256 1.43924 4.82256C1.96706 4.82256 2.58285 4.82256 3.11067 4.82256C3.81443 4.82256 4.60616 4.82256 5.30991 4.82256C5.57382 4.82256 5.57382 4.82256 5.57382 4.55865C5.57382 4.1188 5.57382 3.67895 5.57382 3.2391C5.57382 2.27143 6.01367 1.47971 6.89337 0.951886C7.24525 0.775946 7.6851 0.600006 8.03698 0.600006C10.852 0.600006 13.6671 0.600006 16.4821 0.600006C17.8016 0.600006 18.8573 1.65565 18.9453 3.06316C18.9453 3.59098 18.9453 4.03083 18.9453 4.55865C18.9453 4.73459 19.0332 4.82256 19.2092 4.82256C20.4407 4.82256 21.7603 4.82256 22.9919 4.82256C23.4317 4.82256 23.6956 4.9985 23.8716 5.43835C24.0475 5.8782 23.6956 6.49399 23.2558 6.49399C23.1678 6.49399 23.0798 6.49399 22.9039 6.49399C19.2971 6.40602 15.7783 6.40602 12.2595 6.40602ZM12.2595 4.82256C13.843 4.82256 15.3385 4.82256 16.9219 4.82256C17.2738 4.82256 17.2738 4.82256 17.2738 4.38271C17.2738 3.94286 17.2738 3.59098 17.2738 3.15113C17.2738 2.62331 16.834 2.18346 16.3062 2.18346C13.5791 2.18346 10.852 2.18346 8.12495 2.18346C7.59713 2.27143 7.24525 2.62331 7.24525 3.2391C7.24525 3.59098 7.24525 4.03083 7.24525 4.38271C7.24525 4.73459 7.24525 4.82256 7.59713 4.82256C9.18059 4.82256 10.6761 4.82256 12.2595 4.82256Z" fill="#B8423E"/>
<path d="M10.5005 13.5316C10.5005 15.0271 10.5005 16.5226 10.5005 18.0181C10.5005 18.4579 10.3245 18.7218 9.88466 18.8978C9.44481 18.9857 9.00496 18.7218 8.91699 18.282C8.91699 18.106 8.91699 18.0181 8.91699 17.8421C8.91699 14.9391 8.91699 12.0361 8.91699 9.13309C8.91699 8.86918 9.00496 8.60527 9.09293 8.42933C9.26887 8.07745 9.62075 7.98948 10.0606 8.16542C10.4125 8.25339 10.5884 8.5173 10.5884 8.95715C10.5884 10.4526 10.5005 12.0361 10.5005 13.5316Z" fill="#B8423E"/>
<path d="M13.9307 13.5316C13.9307 12.0361 13.9307 10.5406 13.9307 8.95717C13.9307 8.34138 14.5465 7.9895 15.0743 8.16544C15.3382 8.25341 15.5141 8.42935 15.5141 8.69326C15.5141 8.78123 15.5141 8.8692 15.5141 9.04514C15.5141 12.0361 15.5141 15.1151 15.5141 18.106C15.5141 18.5459 15.2502 18.8978 14.8983 18.9857C14.4585 19.0737 13.9307 18.7218 13.9307 18.282C13.9307 17.8421 13.9307 17.4902 13.9307 17.0504C13.9307 15.9068 13.9307 14.6752 13.9307 13.5316Z" fill="#B8423E"/>
</svg>
