<svg width="26" height="26" viewBox="0 0 26 26" fill="none" xmlns="http://www.w3.org/2000/svg">
<path fill-rule="evenodd" clip-rule="evenodd" d="M3.05762 0.619141H22.8576C24.3576 0.619141 25.5576 2.01914 25.5576 3.81914C25.5576 5.61914 24.3576 7.01914 22.8576 7.01914H3.05762C1.75762 7.01914 0.557617 5.61914 0.557617 3.81914C0.557617 2.01914 1.75762 0.619141 3.05762 0.619141ZM3.05762 19.2191H22.8576C24.3576 19.2191 25.5576 20.6191 25.5576 22.4191C25.5576 24.2191 24.3576 25.6191 22.8576 25.6191H3.05762C1.75762 25.6191 0.557617 24.2191 0.557617 22.4191C0.557617 20.6191 1.75762 19.2191 3.05762 19.2191ZM3.05762 9.91914H22.8576C24.3576 9.91914 25.5576 11.3191 25.5576 13.1191C25.5576 14.9191 24.3576 16.3191 22.8576 16.3191H3.05762C1.75762 16.3191 0.557617 14.9191 0.557617 13.1191C0.557617 11.3191 1.75762 9.91914 3.05762 9.91914Z" fill="#B8423E"/>
</svg>
