<?xml version="1.0" encoding="utf-8"?>
<!-- Generator: Adobe Illustrator 22.0.0, SVG Export Plug-In . SVG Version: 6.00 Build 0)  -->
<svg version="1.1" id="Layer_1" xmlns="http://www.w3.org/2000/svg" xmlns:xlink="http://www.w3.org/1999/xlink" x="0px" y="0px"
	 viewBox="0 0 28 40" style="enable-background:new 0 0 28 40;" xml:space="preserve">
<style type="text/css">
	.st0{fill:#B8423E;}
</style>
<path class="st0" d="M23.7,20.4c0.2,0.9,0.7,1.7,1.1,2.5c0.7,1.3,1.3,2.6,2,3.8c0.5,0.9,0.7,2,0.8,3c0.1,0.9-0.5,2-1.4,2.3
	c-4.1,1.4-8.3,2.6-12.7,2.5c-3,0-5.9-0.6-8.8-1.4c-1-0.3-2-0.6-3-0.9c-1.2-0.4-1.8-1.4-1.6-2.7c0.1-1.1,0.5-2.1,1-3
	c0.7-1.2,1.3-2.5,2-3.7c0-0.1,0.1-0.1,0.1-0.2c0.7-1.2,1-2.6,1.1-4c0.1-1.6,0.2-3.2,0.3-4.8C4.9,9.2,8,5.2,11.8,4.1
	c1.9-0.6,3.6-0.4,5.4,0.5c0.6,0.3,1.2,0.7,1.8,1.1c0.1,0.1,0.2,0.1,0.2,0.2c0,0,3.7,2.6,4.3,12.9C23.5,19.1,23.6,20.2,23.7,20.4z"/>
<path class="st0" d="M17,36.7c0,1.3-0.8,2.6-2,3.1c-1.2,0.5-2.6,0.2-3.4-0.7c-0.9-0.9-1.1-2.4-0.6-3.6c0.1-0.2,0.2-0.3,0.4-0.3
	c1.7,0.2,3.4,0.2,4.9,0c0.2,0,0.3,0,0.3,0.2C16.8,35.7,16.9,36.1,17,36.7z"/>
<path class="st0" d="M15.6,3.3c-1.2-0.3-2.4-0.3-3.5,0c-0.5-0.6-0.4-1.9,0.3-2.6c0.8-0.8,2-0.9,2.9-0.2C16,1.1,16.2,2.3,15.6,3.3z"
	/>
</svg>
