<svg width="16" height="19" viewBox="0 0 16 19" fill="none" xmlns="http://www.w3.org/2000/svg">
<path fill-rule="evenodd" clip-rule="evenodd" d="M14.0778 2.23301C13.7885 2.23301 13.4027 2.23301 13.1134 2.23301C12.7276 2.23301 12.5347 2.13301 12.5347 1.63301C12.5347 1.23301 12.3418 1.03301 12.0524 0.833008C11.8595 0.833008 11.7631 0.833008 11.5702 0.833008C11.3773 0.933008 11.1844 1.13301 11.0879 1.33301C10.895 2.23301 10.7986 2.23301 10.027 2.23301C9.73763 2.23301 9.44829 2.23301 9.15894 2.23301C8.77314 2.23301 8.58024 2.13301 8.58024 1.63301C8.58024 1.23301 8.38734 0.933008 8.098 0.833008C8.098 0.833008 8.00155 0.833008 7.80865 0.833008C7.61575 0.933008 7.42285 1.13301 7.3264 1.33301C7.13351 2.23301 7.13351 2.23301 6.36191 2.23301C6.07257 2.23301 5.78322 2.23301 5.49387 2.23301C5.10807 2.23301 4.91518 2.13301 4.91518 1.63301C4.91518 1.23301 4.72228 0.933008 4.43293 0.833008C4.33648 0.833008 4.14358 0.833008 4.04713 0.833008C3.85424 0.933008 3.56489 1.13301 3.56489 1.43301C3.56489 2.23301 3.17909 2.23301 2.69685 2.23301C2.4075 2.23301 2.2146 2.23301 1.92525 2.23301C0.960761 2.23301 0.671414 2.63301 0.478516 3.63301C0.478516 8.33301 0.478516 13.033 0.478516 17.733C0.671414 18.233 0.960761 18.633 1.44301 18.833C5.87967 18.833 10.3163 18.833 14.6565 18.833C15.0423 18.633 15.4281 18.233 15.621 17.733C15.621 13.033 15.621 8.33301 15.621 3.63301C15.4281 2.53301 15.0423 2.23301 14.0778 2.23301ZM14.6565 5.23301C14.6565 9.13301 14.6565 12.933 14.6565 16.833C14.6565 17.733 14.6565 17.733 13.8849 17.733C11.956 17.733 9.93053 17.733 8.00155 17.733C6.07257 17.733 4.14358 17.733 2.11815 17.733C1.53946 17.733 1.34656 17.533 1.34656 16.833C1.34656 12.733 1.34656 8.53301 1.34656 4.43301C1.44301 3.83301 1.63591 3.63301 2.11815 3.63301C2.50395 3.63301 2.98619 3.63301 3.37199 3.63301C3.66134 3.63301 3.75779 3.73301 3.75779 4.13301C3.75779 4.33301 3.75779 4.53301 3.75779 4.73301C3.75779 5.13301 3.95068 5.33301 4.24003 5.33301C4.52938 5.33301 4.72228 5.13301 4.72228 4.73301C4.72228 4.43301 4.62583 3.93301 4.81873 3.73301C5.01163 3.53301 5.39742 3.63301 5.68677 3.63301C5.87967 3.63301 6.16901 3.63301 6.36191 3.63301C6.65126 3.63301 7.03706 3.53301 7.3264 3.63301C7.61575 3.83301 7.42285 4.33301 7.42285 4.73301C7.42285 5.03301 7.61575 5.23301 7.9051 5.33301C8.19445 5.33301 8.38734 5.13301 8.38734 4.73301C8.38734 4.33301 8.19445 3.83301 8.48379 3.63301C8.77314 3.43301 9.15894 3.53301 9.54473 3.53301C9.73763 3.53301 10.027 3.53301 10.2199 3.53301C10.5092 3.53301 10.895 3.43301 11.0879 3.63301C11.2808 3.83301 11.1844 4.33301 11.1844 4.63301C11.1844 5.03301 11.3773 5.23301 11.6666 5.23301C11.956 5.23301 12.1489 5.03301 12.1489 4.63301C12.1489 4.33301 12.0524 3.83301 12.2453 3.63301C12.4382 3.33301 12.9205 3.53301 13.2098 3.53301C14.8494 3.63301 14.6565 3.43301 14.6565 5.23301Z" fill="#B8423E"/>
<path fill-rule="evenodd" clip-rule="evenodd" d="M0.478516 17.7329C0.478516 18.8329 0.478516 18.8329 1.44301 18.8329C0.864312 18.8329 0.574965 18.4329 0.478516 17.7329Z" fill="#B8423E"/>
<path fill-rule="evenodd" clip-rule="evenodd" d="M14.6562 18.8329C15.6207 18.8329 15.6207 18.8329 15.6207 17.7329C15.5243 18.4329 15.2349 18.8329 14.6562 18.8329Z" fill="#B8423E"/>
<path fill-rule="evenodd" clip-rule="evenodd" d="M4.72246 9.33306C5.68696 9.33306 5.68696 9.33306 5.68696 8.23306C5.68696 7.73306 5.59051 7.63306 5.20471 7.63306C4.81891 7.63306 4.43312 7.63306 4.04732 7.63306C3.85442 7.63306 3.75797 7.63306 3.75797 7.93306C3.66152 9.13306 3.75797 9.33306 4.72246 9.33306Z" fill="#B8423E"/>
<path fill-rule="evenodd" clip-rule="evenodd" d="M8.09813 9.33306C8.19458 9.33306 8.29103 9.33306 8.48393 9.33306C8.96618 9.43306 9.06262 9.23306 9.06262 8.63306C9.06262 7.63306 9.06262 7.63306 8.19458 7.63306C7.90524 7.63306 7.71234 7.63306 7.42299 7.63306C7.23009 7.63306 7.13364 7.63306 7.13364 7.93306C6.94074 9.13306 7.03719 9.33306 8.09813 9.33306Z" fill="#B8423E"/>
<path fill-rule="evenodd" clip-rule="evenodd" d="M11.4736 7.63306C11.1843 7.63306 10.8949 7.63306 10.6056 7.63306C10.4127 7.63306 10.4127 7.63306 10.3162 7.93306C10.1233 9.13306 10.3162 9.33306 11.2807 9.33306C11.6665 9.23306 12.3417 9.73306 12.2452 8.53306C12.2452 7.63306 12.3417 7.63306 11.4736 7.63306Z" fill="#B8423E"/>
<path fill-rule="evenodd" clip-rule="evenodd" d="M4.7223 10.4331C3.75781 10.4331 3.75781 10.4331 3.75781 11.5331C3.75781 11.9331 3.85426 12.1331 4.24006 12.1331C4.62585 12.1331 5.01165 12.1331 5.39745 12.1331C5.59035 12.1331 5.6868 12.1331 5.6868 11.8331C5.87969 10.6331 5.6868 10.4331 4.7223 10.4331Z" fill="#B8423E"/>
<path fill-rule="evenodd" clip-rule="evenodd" d="M8.00176 12.1331C8.96625 12.1331 8.96625 12.1331 8.96625 11.0331C8.96625 10.5331 8.8698 10.4331 8.48401 10.4331C8.09821 10.4331 7.71241 10.4331 7.32662 10.4331C7.13372 10.4331 7.03727 10.4331 7.03727 10.7331C6.94082 11.9331 7.03727 12.1331 8.00176 12.1331Z" fill="#B8423E"/>
<path fill-rule="evenodd" clip-rule="evenodd" d="M11.474 10.4331C11.1847 10.4331 10.9918 10.4331 10.7024 10.4331C10.606 10.4331 10.4131 10.4331 10.4131 10.6331C10.2202 11.7331 10.4131 12.1331 11.2811 12.1331C11.3776 12.1331 11.5705 12.1331 11.6669 12.1331C12.0527 12.2331 12.2456 12.0331 12.2456 11.4331C12.2456 10.4331 12.3421 10.4331 11.474 10.4331Z" fill="#B8423E"/>
<path fill-rule="evenodd" clip-rule="evenodd" d="M4.91504 13.2329C4.62569 13.2329 4.33634 13.2329 4.047 13.2329C3.8541 13.2329 3.8541 13.2329 3.75765 13.5329C3.56475 14.7329 3.75765 14.9329 4.72214 14.9329C5.10794 14.8329 5.78308 15.3329 5.68663 14.1329C5.59018 13.2329 5.68663 13.2329 4.91504 13.2329Z" fill="#B8423E"/>
<path fill-rule="evenodd" clip-rule="evenodd" d="M8.19434 13.2329C7.90499 13.2329 7.61564 13.2329 7.32629 13.2329C7.13339 13.2329 7.13339 13.2329 7.03695 13.5329C6.84405 14.7329 7.03695 14.9329 8.00144 14.9329C8.38723 14.8329 9.06238 15.3329 8.96593 14.2329C8.96593 13.2329 8.96593 13.2329 8.19434 13.2329Z" fill="#B8423E"/>
<path fill-rule="evenodd" clip-rule="evenodd" d="M11.8597 13.2329C11.4739 13.2329 11.0881 13.2329 10.7023 13.2329C10.5094 13.2329 10.4129 13.2329 10.4129 13.5329C10.22 14.7329 10.4129 14.9329 11.3774 14.9329C12.3419 14.9329 12.3419 14.9329 12.3419 13.7329C12.3419 13.3329 12.2455 13.2329 11.8597 13.2329Z" fill="#B8423E"/>
</svg>
