<?xml version="1.0" encoding="utf-8"?>
<!-- Generator: Adobe Illustrator 22.0.0, SVG Export Plug-In . SVG Version: 6.00 Build 0)  -->
<svg version="1.1" id="Layer_1" xmlns="http://www.w3.org/2000/svg" xmlns:xlink="http://www.w3.org/1999/xlink" x="0px" y="0px"
	 viewBox="0 0 16 13" style="enable-background:new 0 0 16 13;" xml:space="preserve">
<style type="text/css">
	.st0{opacity:0.77;fill:#FFFFFF;enable-background:new    ;}
	.st1{opacity:0.77;fill:#B8423E;fill-opacity:0.7;enable-background:new    ;}
</style>
<g>
	<path class="st0" d="M4.8,2.7c-0.1,0-0.1,0-0.2,0c-0.6,0-1.1,0-1.7,0c-1,0-2,0.8-2.2,1.9c0,0.3,0,0.6,0,1c0,1.5,0,3,0,4.6
		c0,1.2,1.1,2.2,2.2,2.2c3.3,0,6.6,0,9.8,0c0.2,0,0.4,0,0.6,0c1.1-0.1,2-1.1,2-2.2c0-1.7,0-3.5,0-5.2c0-1.2-1-2.2-2.2-2.2
		c-0.6,0-1.2,0-1.7,0c-0.1,0-0.1,0-0.2,0c0-0.3-0.1-0.6-0.1-0.9C11,1.1,10.5,0.7,9.7,0.7c-1.1,0-2.2,0-3.3,0C5.7,0.7,5.1,1.1,5,1.8
		C4.9,2.1,4.9,2.4,4.8,2.7z"/>
	<g>
		<path class="st1" d="M13.1,2.7c-0.5,0-1.1,0-1.7,0c-0.1,0-0.1,0-0.2,0c0-0.3-0.1-0.6-0.1-0.9C11,1.1,10.4,0.6,9.7,0.6
			c-1.1,0-2.2,0-3.3,0c-0.7,0-1.3,0.5-1.5,1.2c0,0.3-0.1,0.6-0.1,0.9c0,0-0.1,0-0.2,0c-0.6,0-1.1,0-1.7,0c-1.1,0-2,0.8-2.2,1.9
			c0,0.4,0,0.7,0,1c0,1.5,0,3-0.1,4.5c0,1.2,1,2.2,2.2,2.2c3.3,0,6.6,0,9.9,0c0.2,0,0.4,0,0.6,0c1.1-0.1,2-1.1,2-2.2
			c0-1.7,0-3.5,0-5.2C15.3,3.7,14.3,2.7,13.1,2.7z M14.3,5.9c0,1.4,0,2.8,0,4.2c0,0.4-0.1,0.7-0.5,1c-0.2,0.1-0.4,0.2-0.6,0.2
			c-1.1,0-2.1,0-3.1,0c-0.6,0-1.3,0-2,0c-1.7,0-3.4,0-5.1,0.1c-0.6,0-1.1-0.4-1.2-0.9c0-0.1,0-0.3,0-0.4c0-1.6,0-3.3,0-4.9
			c0-0.8,0.5-1.3,1.3-1.3c0.6,0,1.1,0,1.7,0c0.7,0,1.1-0.4,1.2-1c0-0.3,0.1-0.5,0.1-0.8c0-0.1,0.1-0.2,0.3-0.2c1.1,0,2.2,0,3.3,0
			c0.2,0,0.3,0,0.3,0.2c0.1,0.3,0.1,0.6,0.1,0.9c0.2,0.6,0.6,1,1.2,1c0.6,0,1.2,0,1.8,0c0.7,0,1.2,0.5,1.2,1.2
			C14.3,5.4,14.3,5.6,14.3,5.9z"/>
		<path class="st1" d="M8.1,3.9c-1.9,0-3.4,1.5-3.4,3.3c-0.1,2,1.5,3.5,3.4,3.5c1.8,0,3.4-1.5,3.4-3.5C11.4,5.4,10,3.9,8.1,3.9z
			 M8.1,9.6c-1.3,0-2.3-1-2.2-2.3C5.9,6,6.9,5,8.1,5c1.2,0,2.2,1.1,2.2,2.3C10.3,8.5,9.3,9.6,8.1,9.6z"/>
		<circle class="st1" cx="12.9" cy="4.9" r="0.5"/>
	</g>
</g>
</svg>
