<svg width="34" height="31" viewBox="0 0 34 31" fill="none" xmlns="http://www.w3.org/2000/svg">
<path fill-rule="evenodd" clip-rule="evenodd" d="M30.7 13.6V14.1C30.7 18.2 28 21.4 24.3 21.4H15.4V22.3C15.4 24.4 16.8 26 18.4 26H26L29.4 29.9C29.6 30.1 29.6 30.1 29.9 30.1H30C30.2 29.9 30.5 29.6 30.5 29.4V26C32.1 25.8 33.3 24.2 33.3 22.3V17C33.2 15.2 32.1 13.9 30.7 13.6Z" fill="#B8423E"/>
<path fill-rule="evenodd" clip-rule="evenodd" d="M28.9001 13.9V5.7C28.9001 2.5 26.8 0 24.1 0H5.10005C2.40005 0 0.300049 2.5 0.300049 5.7V13.9C0.300049 16.9 2.40005 19.4 4.90005 19.6V25.1C4.90005 25.6 5.10005 26 5.30005 26.2C5.50005 26.2 5.80005 26.2 5.80005 26.2C6.00005 26.2 6.30005 26.2 6.50005 26L12 19.6H24.1C26.8 19.6 28.9001 17.1 28.9001 13.9Z" fill="#B8423E"/>
</svg>
