<svg width="27" height="28" viewBox="0 0 27 28" fill="none" xmlns="http://www.w3.org/2000/svg">
<path d="M13.179 11.9999C11.9809 13.8665 10.7828 15.7332 9.58471 17.4665C9.58471 17.5998 9.45159 17.5998 9.45159 17.7332C9.45159 17.1998 9.45159 16.7998 9.45159 16.2665C9.45159 15.9998 9.45159 15.7332 9.31847 15.5998C9.18535 15.1998 8.9191 15.0665 8.51974 15.0665C8.2535 15.0665 7.98726 15.1998 7.85414 15.4665C7.72102 15.7332 7.72103 15.9998 7.58791 16.1332C7.45479 17.5998 7.32166 19.1998 7.18854 20.6665L3.46118 27.1998L8.78599 27.4664L10.7828 24.3998C11.049 24.5331 11.3153 24.6665 11.7146 24.5331C12.3802 24.3998 12.9127 24.1331 13.4452 23.5998C14.377 22.5331 15.3089 21.3331 16.1076 20.2665C16.3738 19.8665 16.3738 19.3332 15.8414 19.0665C15.5751 18.7998 15.1758 18.7998 14.7764 18.9332C14.9095 18.6665 15.0426 18.5332 15.1758 18.2665C15.442 17.8665 15.3089 17.4665 14.9095 17.1998C14.6433 17.0665 14.2439 16.9332 13.9777 17.1998C14.1108 16.7998 14.377 16.3998 13.9777 15.8665C13.5783 15.4665 13.179 15.4665 12.7796 15.7332C12.9127 15.5998 12.9127 15.4665 13.0458 15.4665C13.5783 14.6665 14.1108 13.8665 14.6433 13.0665C14.9095 12.6665 14.9095 12.2665 14.6433 11.9999C14.5102 11.7332 14.2439 11.5999 13.9777 11.5999C13.5783 11.5999 13.3121 11.7332 13.179 11.9999Z" fill="#B8423E"/>
<path d="M17.8381 4.26673C17.8381 6.00006 19.0362 7.46672 20.7668 7.46672C22.4974 7.46672 23.8286 6.26672 23.9617 4.5334C24.0948 2.80007 22.7636 1.46675 21.033 1.33341C19.3025 1.20008 17.9713 2.53341 17.8381 4.26673Z" fill="#B8423E"/>
<path d="M0 3.06665C0 4.79998 1.3312 6.13331 2.92864 6.26664C4.6592 6.26664 5.9904 4.93331 6.12352 3.19999C6.12352 1.46666 4.79232 0.133333 3.19487 0C1.46431 0.133333 0 1.46666 0 3.06665Z" fill="#B8423E"/>
<path d="M20.6337 10.2668C18.9031 9.20015 17.1726 8.00016 15.442 6.9335C14.7764 6.5335 14.1108 6.66683 13.7115 7.33349C12.3803 9.33349 11.049 11.4668 9.71785 13.4668C9.45161 13.8668 9.18537 14.2668 9.05225 14.5335C9.31849 14.9335 9.45161 15.2001 9.58473 15.4668C11.1822 13.0668 12.7796 10.5335 14.3771 8.00016C16.2407 9.20015 17.9713 10.4001 19.835 11.6001C19.835 11.7335 19.7019 11.7335 19.7019 11.7335C18.5038 13.6001 17.3057 15.3335 16.1076 17.2001C15.9745 17.4668 15.8414 17.8668 15.7083 18.2668C15.9745 18.4001 16.2407 18.5334 16.507 18.6668C16.507 18.5334 16.6401 18.5334 16.6401 18.4001C18.1044 16.2668 19.4356 14.0001 20.8999 11.8668C21.4324 11.4668 21.2993 10.6668 20.6337 10.2668Z" fill="#B8423E"/>
<path d="M21.9649 19.8666C20.9 18.8 19.0363 18.8 17.9713 19.8666C16.9064 20.9333 16.9064 22.6666 17.9713 23.8666L21.2993 27.1999C22.3643 28.2666 24.228 28.2666 25.2929 27.1999C26.3579 26.1333 26.3579 24.4 25.2929 23.2L21.9649 19.8666Z" fill="#B8423E"/>
<path d="M7.05542 8.53356C7.05542 9.33355 7.72102 10.0002 8.51974 10.0002C9.31846 10.0002 9.98407 9.33355 9.98407 8.53356C9.98407 7.73356 9.31846 7.06689 8.51974 7.06689C7.72102 7.06689 7.05542 7.73356 7.05542 8.53356Z" fill="#B8423E"/>
</svg>
