<svg width="40" height="34" viewBox="0 0 40 34" fill="none" xmlns="http://www.w3.org/2000/svg">
<g clip-path="url(#clip0)">
<path d="M25.1206 29.6384C25.1206 30.0349 25.2172 30.4314 25.2172 30.8279C25.3139 32.6122 24.1544 33.9008 22.3187 34C19.71 34.0991 17.1013 34.0991 14.396 34C12.2704 33.9008 11.3042 32.5131 11.594 29.8367C10.0482 28.8454 8.40564 27.9533 6.95637 26.7638C2.80178 23.3935 0.676173 18.9329 -0.000155685 13.6793C-0.096774 12.688 0.289699 12.3906 1.15926 12.3906C12.6568 12.3906 24.1544 12.3906 35.652 12.3906C36.0385 12.3906 36.3283 12.4898 36.6182 12.4898C37.681 18.239 32.8501 25.2769 25.1206 29.6384ZM1.83559 14.5714C2.70516 16.7521 3.18825 18.7346 4.25105 20.4198C7.1496 25.2769 11.111 28.5481 17.1013 28.1516C18.6472 28.0524 20.2897 28.1516 21.8356 28.1516C22.5119 28.1516 23.2849 28.0524 23.8646 27.8542C28.5023 26.1691 31.7873 22.8979 33.7197 18.1399C34.1061 17.0495 34.396 15.86 34.6858 14.6705C23.768 14.5714 13.1399 14.5714 1.83559 14.5714ZM18.4539 32.0174C19.6134 32.0174 20.8694 32.1166 22.0288 31.9183C22.5119 31.8192 22.8984 31.3236 23.2849 30.9271C22.8984 30.6297 22.5119 30.0349 22.0288 30.0349C19.6134 29.9358 17.1979 29.9358 14.7825 30.0349C14.2994 30.0349 13.9129 30.6297 13.5264 31.0262C14.0095 31.3236 14.396 31.9183 14.8791 31.9183C16.0385 32.0174 17.2945 32.0174 18.4539 32.0174Z" fill="#B8423E"/>
<path d="M21.5459 11.4985C22.3188 10.7055 22.9952 9.91246 23.7681 9.02033C26.3768 6.1457 28.9855 3.37019 31.5942 0.495553C32.657 -0.693952 33.0435 0.396427 33.6232 0.892054C34.2995 1.48681 34.3961 1.88331 33.7198 2.57719C30.7246 5.3527 27.9227 8.32646 24.9275 11.0028C24.1546 11.6967 22.8986 11.6967 21.9324 11.9941C21.7391 11.895 21.6425 11.6967 21.5459 11.4985Z" fill="#B8423E"/>
<path d="M40.0004 5.55103C36.3289 7.53354 32.8507 9.61517 29.1792 11.3994C28.1164 11.8951 26.6671 11.5977 25.4111 11.6968C25.4111 11.5977 25.3145 11.3994 25.3145 11.3003C25.7009 11.0029 25.9908 10.7056 26.3773 10.5073C29.9521 8.22742 33.4304 6.04666 37.0053 3.8659C38.5512 2.87465 38.5512 2.87465 39.5174 4.55978C39.7106 4.75803 39.8072 5.05541 40.0004 5.55103Z" fill="#B8423E"/>
<path d="M18.4539 32.0173C17.2945 32.0173 16.0384 32.1164 14.879 32.0173C14.3959 31.9182 14.0095 31.4225 13.5264 31.1252C13.9128 30.8278 14.3959 30.1339 14.7824 30.1339C17.1979 30.0348 19.6133 30.0348 22.0288 30.1339C22.4153 30.1339 22.8017 30.7287 23.2848 31.026C22.8983 31.3234 22.4153 31.9182 22.0288 32.0173C20.7727 32.0173 19.6133 32.0173 18.4539 32.0173Z" fill="#B8423E"/>
</g>
<defs>
<clipPath id="clip0">
<rect width="40" height="34" fill="white"/>
</clipPath>
</defs>
</svg>
