<svg width="32" height="41" viewBox="0 0 32 41" fill="none" xmlns="http://www.w3.org/2000/svg">
<path d="M8.10238 20.1269C4.48039 21.334 2.66939 19.0539 0.858398 16.5057C3.31618 16.5057 5.6446 16.5057 8.10238 16.5057C8.10238 13.4209 8.23173 10.6044 8.10238 7.65382C7.97302 6.31262 6.16203 5.37379 4.7391 5.50791C4.35103 5.50791 3.96296 5.64203 3.57489 5.77615C3.31618 5.37379 3.18682 4.97143 2.92811 4.56908C1.7639 2.15493 2.15197 1.35022 4.60974 0.411382C8.23173 -0.92981 11.2069 1.08198 11.8537 5.37379C12.2418 7.78794 12.1124 10.2021 12.1124 12.6162C12.1124 13.8233 12.1124 15.0304 12.1124 16.5057C15.217 15.8351 15.9931 18.6516 17.8041 20.3951C15.9931 20.3951 14.1821 20.3951 12.1124 20.3951C12.1124 21.6022 12.1124 22.6752 12.1124 23.7481C12.1124 26.1623 12.1124 28.7105 12.1124 31.1247C12.1124 33.9412 13.2766 35.2824 15.9931 35.4165C16.6399 35.4165 17.4161 35.4165 18.0628 35.1482C21.8142 33.4047 24.4013 30.5882 25.4362 26.5646C25.5655 26.2964 25.5655 25.894 25.5655 25.4917C24.66 25.3575 23.6252 25.3575 22.849 25.0893C20.65 24.5528 19.4858 22.6752 19.4858 19.7245C19.4858 17.3104 20.7793 15.4327 22.849 14.8963C26.7298 13.9574 30.3517 16.3716 31.3866 20.9316C32.0334 24.0164 31.7747 27.1011 30.3517 29.9176C27.5059 35.4165 23.6252 39.1718 17.2867 39.9765C13.406 40.513 9.39594 37.0259 8.23173 34.3435C7.97302 33.8071 7.97302 33.2706 7.97302 32.7341C7.97302 29.1129 7.97302 25.6258 7.97302 22.0046C8.10238 21.4681 8.10238 21.0657 8.10238 20.1269Z" fill="#B8423E"/>
</svg>
