<svg width="29" height="31" viewBox="0 0 29 31" fill="none" xmlns="http://www.w3.org/2000/svg">
<path d="M14.5415 30.8001C10.2013 30.8001 5.86111 30.8001 1.5209 30.8001C0.652859 30.8001 0.459961 30.6001 0.459961 29.7001C0.459961 21.1001 0.459961 12.6001 0.459961 4.0001C0.459961 3.6001 0.55641 3.3001 0.845757 3.0001C1.7138 2.2001 2.48539 1.3001 3.25699 0.500098C3.54633 0.200098 3.83568 0.100098 4.22148 0.100098C11.1658 0.100098 18.1102 0.100098 24.958 0.100098C25.2474 0.100098 25.5367 0.300098 25.7296 0.500098C26.5977 1.4001 27.4657 2.3001 28.3338 3.2001C28.5267 3.4001 28.6231 3.7001 28.6231 4.0001C28.6231 12.7001 28.6231 21.3001 28.6231 30.0001C28.6231 30.7001 28.4302 30.9001 27.6586 30.9001C23.3184 30.8001 18.9782 30.8001 14.5415 30.8001ZM10.4907 4.5001C7.5972 4.5001 4.80017 4.5001 1.9067 4.5001C1.9067 4.7001 1.9067 4.9001 1.9067 5.1001C1.9067 11.6001 1.9067 18.0001 1.9067 24.5001C1.9067 26.0001 1.9067 27.5001 1.9067 29.0001C1.9067 29.3001 2.00315 29.5001 2.29249 29.4001C2.38894 29.4001 2.48539 29.4001 2.58184 29.4001C10.6836 29.4001 18.6888 29.4001 26.7906 29.4001C26.9835 29.4001 27.0799 29.4001 27.2728 29.4001C27.2728 21.1001 27.2728 12.8001 27.2728 4.6001C27.1764 4.6001 26.9835 4.6001 26.887 4.6001C24.2829 4.6001 21.7752 4.6001 19.1711 4.6001C18.8817 4.6001 18.6888 4.7001 18.5924 5.0001C17.7244 8.2001 14.0593 9.3001 11.841 7.1001C11.0694 6.3001 10.6836 5.5001 10.4907 4.5001ZM2.96764 2.9001C2.96764 3.0001 2.96764 3.0001 2.96764 2.9001C3.16054 3.0001 3.25699 3.0001 3.44988 3.0001C5.95756 3.0001 8.36879 3.0001 10.8765 3.0001C11.5516 3.0001 11.7445 3.2001 11.7445 3.9001C11.841 4.9001 12.2268 5.6001 12.9983 6.2001C14.638 7.3001 17.2421 6.5001 17.435 3.9001C17.435 3.2001 17.7244 3.0001 18.3031 3.0001C20.7143 3.0001 23.222 3.0001 25.6332 3.0001C25.8261 3.0001 25.9225 3.0001 26.1154 3.0001C25.8261 2.5001 25.4403 2.1001 25.0545 1.8001C24.8616 1.7001 24.6687 1.5001 24.4758 1.5001C17.8208 1.5001 11.2623 1.5001 4.60727 1.5001C4.51082 1.5001 4.31793 1.5001 4.22148 1.6001C3.83568 2.1001 3.35344 2.5001 2.96764 2.9001Z" fill="#B8423E"/>
<path d="M8.07921 30.9C5.86088 30.9 3.739 30.9 1.52067 30.9C0.55618 30.9 0.363281 30.7 0.363281 29.7V25.8C0.363281 18.6 0.363281 11.3 0.363281 4.1C0.363281 3.6 0.45973 3.3 0.845527 3C1.61712 2.1 2.38871 1.3 3.25676 0.4C3.5461 0.1 3.83545 0 4.22125 0C6.63247 0 9.0437 0 11.4549 0C15.988 0 20.4247 0 24.9578 0C25.2472 0 25.633 0.2 25.8259 0.4C26.6939 1.2 27.4655 2.1 28.43 3.1C28.6229 3.3 28.8158 3.7 28.8158 3.9C28.8158 11.8 28.8158 19.8 28.8158 27.5V29.9C28.8158 30.7 28.5264 30.9 27.7548 30.9C23.4146 30.9 18.978 30.9 14.6378 30.9H14.5413H11.262C10.2011 30.9 9.14015 30.9 8.07921 30.9ZM4.22125 0.2C3.9319 0.2 3.64255 0.3 3.3532 0.6C2.58161 1.4 1.81002 2.3 0.941976 3.1C0.652629 3.4 0.55618 3.7 0.55618 4.1C0.55618 11.3 0.55618 18.6 0.55618 25.8V29.7C0.55618 30.6 0.652629 30.7 1.52067 30.7C4.79994 30.7 8.07921 30.7 11.262 30.7H14.5413C18.978 30.7 23.3182 30.7 27.7548 30.7C28.43 30.7 28.6229 30.5 28.6229 29.9V27.5C28.6229 19.8 28.6229 11.8 28.6229 3.9C28.6229 3.7 28.5264 3.4 28.3335 3.2C27.4655 2.2 26.5974 1.3 25.7294 0.5C25.5365 0.3 25.2472 0.2 24.9578 0.2C20.4247 0.2 15.988 0.2 11.4549 0.2C9.0437 0.2 6.63247 0.2 4.22125 0.2ZM2.19581 29.5C2.09937 29.5 2.00292 29.5 1.90647 29.4C1.81002 29.3 1.81002 29.1 1.81002 29C1.81002 28 1.81002 26.9 1.81002 25.9C1.81002 25.4 1.81002 25 1.81002 24.5V4.5H10.5869V4.6C10.7798 5.6 11.262 6.4 11.8407 7C12.9017 8 14.3484 8.4 15.6987 8C17.049 7.6 18.1099 6.5 18.4957 5C18.5922 4.6 18.7851 4.5 19.1709 4.5C21.0034 4.5 22.8359 4.5 24.6685 4.5H26.8868C26.9832 4.5 27.0797 4.5 27.0797 4.5H27.1761H27.2726V29.5H2.48516H2.38871C2.29226 29.5 2.29226 29.5 2.19581 29.5ZM2.00292 4.6V24.4C2.00292 24.9 2.00292 25.3 2.00292 25.8C2.00292 26.8 2.00292 27.9 2.00292 28.9C2.00292 29.1 2.00292 29.1 2.09937 29.2C2.09937 29.2 2.19581 29.2 2.29226 29.2C2.38871 29.2 2.38871 29.2 2.48516 29.2H2.58161H27.1761V4.6C27.0797 4.6 26.9832 4.6 26.9832 4.6H24.7649C22.9324 4.6 21.0998 4.6 19.2673 4.6C18.7851 4.6 18.6886 4.6 18.6886 5C18.3028 6.5 17.2419 7.7 15.7951 8.1C14.3484 8.5 12.9017 8.1 11.7443 7.1C11.0691 6.5 10.6833 5.6 10.394 4.6H2.00292ZM14.5413 6.8C13.9626 6.8 13.3839 6.6 12.9017 6.3C12.1301 5.8 11.6478 5 11.6478 3.9C11.6478 3.3 11.4549 3.1 10.8762 3.1C9.0437 3.1 7.11472 3.1 5.28219 3.1H2.96741L2.87096 2.9L3.25676 2.5C3.5461 2.2 3.9319 1.8 4.22125 1.5C4.3177 1.4 4.51059 1.4 4.60704 1.4C10.6833 1.4 17.6277 1.4 24.4756 1.4C24.6685 1.4 24.9578 1.5 25.1507 1.7C25.5365 2.1 25.9223 2.4 26.2116 2.9L26.3081 3.1H25.633C23.2217 3.1 20.7141 3.1 18.3028 3.1C17.7241 3.1 17.5312 3.2 17.5312 3.9C17.4348 5.1 16.8561 6 15.988 6.5C15.5058 6.7 15.0236 6.8 14.5413 6.8ZM7.11472 2.9C8.36856 2.9 9.6224 2.9 10.7798 2.9C11.4549 2.9 11.7443 3.2 11.7443 3.9C11.8407 4.9 12.2265 5.6 12.9017 6.1C13.6733 6.7 14.8307 6.7 15.6987 6.3C16.5667 5.9 17.049 5 17.1454 3.9C17.2419 3.2 17.4348 2.9 18.1099 2.9C20.5212 2.9 23.0288 2.9 25.4401 2.9H25.7294C25.4401 2.5 25.1507 2.2 24.7649 1.9C24.572 1.8 24.3791 1.7 24.1862 1.7C17.3383 1.7 10.394 1.7 4.3177 1.7C4.22125 1.7 4.1248 1.7 4.02835 1.7C3.739 2 3.3532 2.3 3.06386 2.7V2.9H5.28219C5.86088 2.9 6.53603 2.9 7.11472 2.9Z" fill="#B8423E"/>
<path d="M14.5418 25.6999C10.5873 25.6999 7.50098 22.3999 7.50098 18.1999C7.50098 14.2999 10.7802 10.9999 14.6382 11.0999C18.3997 11.0999 21.5826 14.4999 21.5826 18.3999C21.5826 22.3999 18.3997 25.6999 14.5418 25.6999ZM14.5418 24.1999C17.7246 24.1999 20.2323 21.5999 20.2323 18.1999C20.2323 15.1999 17.6281 12.4999 14.7347 12.4999C11.4554 12.4999 8.94771 15.0999 9.04416 18.3999C8.94771 21.5999 11.4554 24.1999 14.5418 24.1999Z" fill="#B8423E"/>
<path d="M14.5415 25.7999C10.4907 25.7999 7.4043 22.3999 7.4043 18.1999C7.4043 16.2999 8.17589 14.4999 9.52618 13.0999C10.8765 11.6999 12.709 10.8999 14.638 10.8999C14.638 10.8999 14.638 10.8999 14.7344 10.8999C18.5924 10.8999 21.7752 14.2999 21.7752 18.2999C21.7752 20.2999 21.0036 22.1999 19.6533 23.5999C18.2066 24.9999 16.4705 25.7999 14.5415 25.7999ZM14.638 11.1999C12.8054 11.1999 10.9729 11.9999 9.71908 13.2999C8.36879 14.5999 7.69364 16.3999 7.69364 18.1999C7.69364 22.2999 10.6836 25.4999 14.638 25.5999C14.638 25.5999 14.638 25.5999 14.7344 25.5999C16.567 25.5999 18.303 24.8999 19.5569 23.4999C20.9072 22.0999 21.6788 20.2999 21.6788 18.2999C21.5823 14.4999 18.3995 11.1999 14.638 11.1999ZM14.5415 24.2999C11.4552 24.2999 8.85103 21.6999 8.85103 18.3999C8.85103 16.7999 9.42973 15.1999 10.4907 14.0999C11.5516 12.9999 13.0948 12.3999 14.638 12.3999C16.0847 12.3999 17.5315 12.9999 18.5924 14.0999C19.6533 15.1999 20.3285 16.6999 20.3285 18.1999C20.3285 21.6999 17.8208 24.2999 14.5415 24.2999ZM14.638 12.5999C13.0948 12.5999 11.6481 13.1999 10.5871 14.2999C9.62263 15.3999 9.04393 16.8999 9.04393 18.4999C9.04393 21.5999 11.5516 24.1999 14.5415 24.1999C17.7244 24.1999 20.1356 21.6999 20.1356 18.2999C20.1356 16.8999 19.5569 15.4999 18.4959 14.3999C17.435 13.2999 16.0847 12.5999 14.638 12.5999Z" fill="#B8423E"/>
<path d="M13.8658 14C14.3481 14 14.8303 14 15.3126 14C15.3126 15.1 15.2161 16.2 15.3126 17.3C15.409 18.4 15.0232 19.1 14.1552 19.6C13.48 20 12.8049 20.6 12.1298 21.1C11.8404 20.7 11.5511 20.3 11.2617 19.9C11.8404 19.4 12.4191 18.9 12.9978 18.6C13.6729 18.2 13.8658 17.7 13.8658 16.9C13.7694 16 13.8658 15 13.8658 14Z" fill="#B8423E"/>
<path d="M12.1295 21.2999L11.165 19.9999L11.2615 19.8999C11.4544 19.7999 11.6473 19.5999 11.7437 19.4999C12.1295 19.1999 12.5153 18.8999 12.9976 18.5999C13.5763 18.1999 13.8656 17.7999 13.7692 16.9999C13.6727 16.2999 13.7692 15.5999 13.7692 14.8999C13.7692 14.5999 13.7692 14.2999 13.7692 13.9999V13.8999H15.4088V13.9999C15.4088 14.2999 15.4088 14.6999 15.4088 14.9999C15.4088 15.7999 15.4088 16.4999 15.4088 17.2999C15.5053 18.3999 15.1195 19.0999 14.2514 19.6999C13.7692 19.9999 13.3834 20.2999 12.9011 20.6999C12.6118 20.8999 12.4189 21.0999 12.1295 21.2999ZM11.4544 19.9999L12.1295 20.9999C12.3224 20.8999 12.5153 20.6999 12.7082 20.5999C13.1905 20.1999 13.5763 19.8999 14.0585 19.5999C14.9266 19.0999 15.2159 18.3999 15.1195 17.3999C15.023 16.5999 15.023 15.8999 15.1195 15.0999C15.1195 14.7999 15.1195 14.4999 15.1195 14.1999H13.8656C13.8656 14.4999 13.8656 14.6999 13.8656 14.9999C13.8656 15.6999 13.8656 16.3999 13.8656 16.9999C13.9621 17.7999 13.6727 18.3999 12.9976 18.7999C12.6118 19.0999 12.226 19.3999 11.8402 19.6999C11.7437 19.7999 11.6473 19.8999 11.4544 19.9999Z" fill="#B8423E"/>
</svg>
