<svg width="15" height="18" viewBox="0 0 15 18" fill="none" xmlns="http://www.w3.org/2000/svg">
<path d="M0.395477 17.2027C4.36502 17.2027 8.33457 17.2027 12.3041 17.2027C12.3041 15.1746 12.3041 13.2658 12.3041 11.2377C11.7818 11.2377 11.2595 11.2377 10.7372 11.2377C10.7372 12.6693 10.7372 13.9816 10.7372 15.4132C7.81226 15.4132 4.88733 15.4132 1.85794 15.4132C1.85794 12.0728 1.85794 8.61314 1.85794 5.27276C3.11148 5.27276 4.26056 5.27276 5.5141 5.27276C5.5141 4.67626 5.5141 4.07977 5.5141 3.48327C3.73825 3.48327 2.06686 3.48327 0.291016 3.48327C0.395477 8.01664 0.395477 12.55 0.395477 17.2027ZM7.81226 10.8798C9.79703 8.61314 11.7818 6.34645 13.7666 4.07977C13.1398 3.36397 12.513 2.64818 11.8863 1.93238C9.90149 4.19907 7.91672 6.46575 5.93195 8.73244C6.55872 9.44824 7.18549 10.164 7.81226 10.8798ZM5.30518 9.68683C4.99179 10.6412 4.67841 11.7149 4.36502 12.6693C5.30518 12.3114 6.14087 11.9535 6.97656 11.5956C6.34979 10.9991 5.82749 10.2833 5.30518 9.68683ZM14.6023 3.12538C14.9157 2.64818 15.1246 2.17098 14.9157 1.57449C14.7067 0.977991 14.3933 0.620091 13.871 0.500792C13.4532 0.381493 13.0353 0.500791 12.6175 0.858689C13.2443 1.69378 13.9755 2.40958 14.6023 3.12538Z" fill="#5D5D5D"/>
<path d="M0.395508 17.2028C0.395508 12.6694 0.395508 8.13607 0.395508 3.4834C2.17136 3.4834 3.84274 3.4834 5.61859 3.4834C5.61859 4.07989 5.61859 4.67639 5.61859 5.27289C4.36505 5.27289 3.21597 5.27289 1.96243 5.27289C1.96243 8.61326 1.96243 12.0729 1.96243 15.4133C4.88736 15.4133 7.81229 15.4133 10.8417 15.4133C10.8417 14.101 10.8417 12.6694 10.8417 11.2378C11.364 11.2378 11.8863 11.2378 12.4086 11.2378C12.4086 13.2659 12.4086 15.1747 12.4086 17.2028C8.3346 17.2028 4.36505 17.2028 0.395508 17.2028Z" fill="#5D5D5D"/>
<path d="M7.81293 10.8798C7.18616 10.164 6.55939 9.44822 5.93262 8.73243C7.91739 6.46574 9.90216 4.19906 11.8869 1.93237C12.5137 2.64817 13.1405 3.36396 13.7672 4.07976C11.7825 6.34644 9.7977 8.61313 7.81293 10.8798Z" fill="#5D5D5D"/>
<path d="M5.30539 9.68677C5.8277 10.2833 6.45447 10.9991 6.97678 11.5956C6.14108 11.9535 5.20093 12.3113 4.36523 12.6692C4.57416 11.7149 4.88754 10.6412 5.30539 9.68677Z" fill="#5D5D5D"/>
<path d="M14.602 3.12538C13.9752 2.40958 13.3484 1.69378 12.6172 0.858689C12.9306 0.500791 13.3484 0.381493 13.8707 0.500792C14.393 0.620091 14.7064 0.977991 14.9153 1.57449C15.0198 2.17098 14.9153 2.64818 14.602 3.12538Z" fill="#5D5D5D"/>
</svg>
