<svg width="24" height="24" viewBox="0 0 24 24" fill="none" xmlns="http://www.w3.org/2000/svg">
<path d="M2.87467 3.52859C3.37944 3.72062 3.80255 3.87572 4.22566 4.0456C4.81208 4.27456 5.39107 4.51829 5.97749 4.73248C6.08141 4.76941 6.2373 4.7251 6.34122 4.66601C6.87568 4.36319 7.41014 4.06037 7.92232 3.72801C8.04852 3.64676 8.18213 3.48427 8.21182 3.34394C8.33059 2.75307 8.40482 2.15482 8.50132 1.56395C8.5607 1.18728 8.60524 0.810597 8.67205 0.433919C8.72401 0.123713 8.97639 0.0129252 9.24362 0.00553939C10.8099 -0.00184646 12.3836 -0.00184646 13.9498 0.00553939C14.3284 0.00553939 14.5437 0.227115 14.5956 0.633336C14.7218 1.53441 14.8332 2.43548 14.9816 3.32917C15.0113 3.49166 15.1672 3.66153 15.3157 3.75755C15.8204 4.08253 16.34 4.37796 16.8671 4.6734C16.9784 4.73248 17.1491 4.75464 17.2679 4.71771C18.1438 4.38535 19.0123 4.03821 19.8734 3.69108C20.2965 3.5212 20.5637 3.5729 20.7864 3.95697C21.5733 5.28642 22.3453 6.63064 23.1098 7.96748C23.288 8.27769 23.1989 8.52881 22.8574 8.7947C22.1448 9.34864 21.4396 9.89519 20.7196 10.4344C20.4895 10.6042 20.4078 10.7889 20.4375 11.0843C20.4821 11.6161 20.4672 12.1626 20.4301 12.7018C20.4153 12.9529 20.4672 13.1154 20.6677 13.2631C21.3728 13.8023 22.0706 14.3489 22.7609 14.9028C23.2138 15.2573 23.2583 15.4715 22.9688 15.9737C22.2488 17.2146 21.5287 18.4628 20.8087 19.7036C20.5415 20.1615 20.2891 20.228 19.7992 20.0286C18.9455 19.6814 18.0844 19.3417 17.2234 19.0241C17.112 18.9798 16.9413 19.0167 16.83 19.0758C16.3029 19.3638 15.7833 19.6593 15.2785 19.9843C15.1375 20.0803 14.989 20.2575 14.9594 20.42C14.8183 21.2399 14.707 22.0745 14.5956 22.9017C14.4991 23.5886 14.3358 23.7363 13.6381 23.7363C12.2499 23.7363 10.8693 23.7363 9.48116 23.7363C8.86505 23.7363 8.73886 23.6476 8.63493 23.0642C8.51617 22.3403 8.40482 21.6091 8.31574 20.8779C8.25636 20.4053 8.13759 20.0212 7.6254 19.8218C7.23941 19.6741 6.87568 19.4451 6.54164 19.194C6.24472 18.9724 5.99976 18.9576 5.67315 19.098C4.88631 19.4377 4.08462 19.7479 3.28294 20.0729C2.88952 20.228 2.60002 20.132 2.38475 19.7553C1.64245 18.4849 0.900146 17.2072 0.165266 15.9368C-0.0796934 15.5084 -0.0203092 15.2204 0.380534 14.9176C1.06345 14.3932 1.74637 13.8614 2.43671 13.3518C2.6594 13.1819 2.77075 13.0046 2.7559 12.7092C2.71879 12.1848 2.71879 11.653 2.74848 11.1212C2.77075 10.7889 2.67425 10.5747 2.40702 10.3827C1.71668 9.88042 1.04861 9.35602 0.380534 8.83901C-0.0500013 8.50665 -0.101962 8.28507 0.157843 7.83454C0.900146 6.5494 1.64245 5.26426 2.3996 3.98651C2.50352 3.78709 2.71136 3.67631 2.87467 3.52859ZM7.32848 11.8007C7.40271 14.2676 9.22878 16.0476 11.5522 16.0402C13.9498 16.0328 15.761 14.1864 15.761 11.9189C15.761 9.43727 13.883 7.67944 11.5522 7.68682C9.1397 7.68682 7.41756 9.55544 7.32848 11.8007Z" fill="white"/>
</svg>
