<?xml version="1.0" encoding="utf-8"?>
<!-- Generator: Adobe Illustrator 22.0.0, SVG Export Plug-In . SVG Version: 6.00 Build 0)  -->
<svg version="1.1" id="Layer_1" xmlns="http://www.w3.org/2000/svg" xmlns:xlink="http://www.w3.org/1999/xlink" x="0px" y="0px"
	 viewBox="0 0 15 15" style="enable-background:new 0 0 15 15;" xml:space="preserve">
<style type="text/css">
	.st0{fill:#B9433F;}
	.st1{fill:#FFFFFF;}
</style>
<g>
	<path class="st0" d="M0.4,7.3c0-3.9,3.2-7.1,7.1-7.1c3.9,0,7.1,3.2,7.1,7.1c0,4-3.2,7.1-7.2,7.1C3.5,14.6,0.4,11.3,0.4,7.3z"/>
	<path class="st1" d="M8.3,12.1H6.7V5.7h1.7V12.1z M6.6,4.1c0-0.3,0.1-0.5,0.3-0.6C7,3.3,7.2,3.2,7.5,3.2c0.3,0,0.5,0.1,0.7,0.2
		c0.2,0.2,0.3,0.4,0.3,0.6c0,0.3-0.1,0.5-0.3,0.6C8,4.9,7.8,5,7.5,5C7.2,5,7,4.9,6.8,4.7C6.6,4.6,6.6,4.4,6.6,4.1z"/>
</g>
</svg>
