<svg width="38" height="38" viewBox="0 0 38 38" fill="none" xmlns="http://www.w3.org/2000/svg">
<path d="M19 0C8.48428 0 0 8.48428 0 19C0 29.5157 8.48428 38 19 38C29.5157 38 38 29.5157 38 19C37.8805 8.48428 29.3962 0 19 0ZM31.4277 29.9937C29.8742 29.3962 24.4969 27.3648 24.1384 27.2453C23.6604 27.0063 23.7799 27.2453 23.7799 27.6038C23.7799 27.8428 24.2579 30.5912 21.0314 34.0566C20.5535 32.9811 19.956 31.9057 19.956 31.6667C19.8365 31.3082 19.8365 31.1887 20.195 30.8302C20.434 30.5912 21.1509 30.2327 21.3899 29.9937C21.5094 29.8742 21.5094 29.7547 21.5094 29.6352C21.5094 29.0377 20.3145 28.5597 18.8805 28.5597C17.4465 28.5597 16.2516 29.0377 16.2516 29.6352C16.2516 29.7547 16.3711 29.9937 16.4906 30.1132C16.4906 30.1132 17.327 30.7107 17.6855 30.9497C18.044 31.1887 18.044 31.3082 17.6855 32.1447C17.566 32.5031 17.0881 33.3396 16.7296 34.0566C13.5031 30.7107 13.9811 27.9623 14.1006 27.7233C14.1006 27.4843 14.2201 27.2453 13.7421 27.3648C13.2642 27.4843 8.24528 29.5157 6.45283 30.1132C3.8239 27.1258 2.27044 23.3019 2.27044 19.1195C2.27044 9.91824 9.79874 2.38994 19 2.38994C28.2013 2.38994 35.7296 9.91824 35.7296 19.1195C35.7296 23.1824 34.0566 27.1258 31.4277 29.9937Z" fill="#B8423E"/>
<path d="M27.2454 14.5784C28.5599 4.77967 21.9876 3.3457 18.7612 3.3457C9.20142 3.3457 10.1574 12.308 10.2769 13.7419C10.2769 14.1004 10.3964 14.3394 10.3964 14.5784C9.67941 15.0564 8.96243 15.8929 9.20142 17.3268C9.44041 18.4023 9.67941 18.7608 10.0379 19.1193C10.2769 19.3583 10.5159 19.5973 10.8744 20.4338C11.7109 22.2262 13.9813 27.1256 18.6417 27.2451C18.7612 27.2451 18.7612 27.2451 18.8807 27.2451C23.6605 27.2451 26.0505 21.6287 26.2895 20.9117C26.409 20.5533 26.648 20.3143 27.0065 19.9558C27.4844 19.3583 28.2014 18.5218 28.3209 17.0878C28.4404 16.0124 28.2014 15.2954 27.7234 14.8174C27.6039 14.8174 27.4844 14.6979 27.2454 14.5784ZM27.1259 17.2073C27.0065 18.2828 26.648 18.7608 26.0505 19.3583C25.692 19.7168 25.3335 20.0753 25.214 20.6727C24.975 21.2702 22.8241 26.4086 18.7612 26.2891C14.6983 26.1696 12.7863 21.7482 11.9498 20.1948C11.4719 19.2388 11.1134 18.8803 10.8744 18.5218C10.6354 18.2828 10.5159 18.1633 10.3964 17.2073C10.1574 16.1319 10.8744 15.6539 11.2329 15.5344C11.4719 15.7734 11.5914 16.0124 11.7109 16.1319C11.9498 16.4904 12.1888 16.3709 12.1888 16.3709C12.1888 16.3709 12.0693 16.1319 11.9498 15.0564C11.3524 12.1885 12.3083 10.635 13.1448 10.0375C13.9813 9.44004 14.8178 8.72306 15.6543 9.55954C19.5976 13.1444 24.8555 13.1444 25.453 13.1444C26.0505 13.1444 26.0505 13.3834 25.931 13.9809C25.8115 14.5784 25.5725 16.4904 25.5725 16.4904C25.692 16.4904 25.8115 16.4904 26.17 16.1319C26.2895 16.0124 26.409 15.8929 26.5285 15.7734C26.7675 15.7734 26.887 15.8929 26.887 15.8929C27.1259 16.0124 27.2454 16.4904 27.1259 17.2073Z" fill="#B8423E"/>
</svg>
