<svg width="69" height="60" viewBox="0 0 69 60" fill="none" xmlns="http://www.w3.org/2000/svg">
<path d="M1 51.75V1H59.6591" stroke="#B8423E" stroke-miterlimit="10"/>
<path d="M59.0007 6.27271H6.27344V49.7727H59.0007V6.27271Z" stroke="#B8423E" stroke-miterlimit="10"/>
<path d="M57.6822 59.0001C63.5063 59.0001 68.2276 54.4262 68.2276 48.7841C68.2276 43.1421 63.5063 38.5682 57.6822 38.5682C51.8581 38.5682 47.1367 43.1421 47.1367 48.7841C47.1367 54.4262 51.8581 59.0001 57.6822 59.0001Z" fill="white" stroke="#B8423E" stroke-miterlimit="10"/>
<path d="M56.1557 47.6057C56.1557 46.5254 56.1557 45.5481 56.1557 44.5192C56.1557 44.3649 56.1557 44.1591 56.1557 44.0048C56.2069 43.4904 56.5651 43.1818 57.0255 43.1818C57.486 43.1818 57.8442 43.4904 57.8953 44.0048C57.8953 45.0336 57.8953 46.0625 57.8953 47.1427C57.8953 47.2971 57.8953 47.4514 57.8953 47.6057C58.2535 47.6057 58.6116 47.6057 58.9698 47.6057C59.7884 47.6057 60.5559 47.6057 61.3745 47.6057C61.9373 47.6057 62.2955 47.9658 62.2955 48.4802C62.2955 48.9946 61.9885 49.3547 61.3745 49.3547C60.3512 49.3547 59.3279 49.3547 58.3558 49.3547C58.2023 49.3547 58.0488 49.3547 57.8953 49.3547C57.8953 50.3321 57.8953 51.258 57.8953 52.1325C57.8953 52.3897 57.8953 52.647 57.8953 52.9042C57.8442 53.4186 57.5372 53.7272 57.0255 53.7272C56.5139 53.7272 56.1557 53.4186 56.1557 52.9042C56.1557 51.8753 56.1557 50.8465 56.1557 49.8177C56.1557 49.6634 56.1557 49.5605 56.1557 49.3547C56.0022 49.3547 55.8488 49.3547 55.6953 49.3547C54.7231 49.3547 53.6999 49.3547 52.7277 49.3547C51.9603 49.3547 51.6021 48.8403 51.8068 48.1716C51.9091 47.76 52.2161 47.5543 52.7277 47.5543C53.6999 47.5543 54.7231 47.5543 55.6953 47.5543C55.8488 47.6057 56.0022 47.6057 56.1557 47.6057Z" fill="#B8423E"/>
<path d="M42.146 16.5652C39.909 16.5652 37.7043 16.5652 35.4431 16.5652C35.4996 17.2658 35.5561 17.9424 35.6207 18.627C35.6934 19.447 35.7742 20.2669 35.8469 21.0869C35.863 21.278 35.8792 21.4133 36.1295 21.4133C38.4311 21.4053 40.7328 21.4053 43.0344 21.4053C43.0828 21.4053 43.1313 21.3815 43.2201 21.3655C43.1797 21.1745 43.1151 20.9914 43.1232 20.8162C43.1313 20.657 43.1878 20.4023 43.2847 20.3704C43.5512 20.2669 43.6078 20.5217 43.6562 20.7128C43.9066 21.7954 44.1488 22.886 44.3911 23.9687C45.2391 27.758 46.0951 31.5473 46.9431 35.3446C47.0723 35.9177 47.0158 35.9894 46.4101 35.9894C39.166 35.9894 31.9301 35.9894 24.686 35.9894C24.6214 35.9894 24.5406 36.0133 24.4841 35.9894C24.3387 35.9177 24.0965 35.8302 24.0803 35.7267C24.048 35.456 24.2903 35.4401 24.5003 35.4401C25.2513 35.4401 26.0024 35.4401 26.8261 35.4401C26.923 33.1156 27.0199 30.807 27.1168 28.4585C24.3387 28.4585 21.601 28.4585 18.8068 28.4585C18.403 30.7592 17.9992 33.0758 17.5873 35.4401C18.4191 35.4401 19.2106 35.4401 20.002 35.4401C20.1877 35.4401 20.3896 35.4083 20.5673 35.4481C20.6965 35.4799 20.7934 35.6152 20.9065 35.7028C20.8015 35.7983 20.6965 35.9735 20.5915 35.9735C19.5013 35.9973 18.411 35.9894 17.3208 35.9814C16.9574 35.9814 16.9816 35.7108 17.022 35.464C17.1916 34.5007 17.3612 33.5295 17.5308 32.5663C17.7569 31.2607 17.9911 29.9552 18.2172 28.6496C18.9279 24.5737 19.6386 20.4978 20.3412 16.4299C20.3896 16.1274 20.5188 16 20.8419 16C27.9486 16.008 35.0554 16.008 42.1622 16C42.4771 16 42.6225 16.1035 42.6871 16.406C42.8971 17.3772 43.1232 18.3484 43.3413 19.3196C43.3493 19.3674 43.3816 19.4311 43.3655 19.4788C43.309 19.6142 43.2282 19.7495 43.1555 19.8848C43.0505 19.7893 42.8809 19.7097 42.8486 19.5903C42.6952 19.041 42.5902 18.4837 42.461 17.9265C42.356 17.4648 42.251 17.019 42.146 16.5652ZM46.3778 35.4162C46.3536 35.2729 46.3455 35.1854 46.3213 35.0978C45.8529 33.0041 45.3683 30.9104 44.9161 28.8088C44.8514 28.4904 44.7142 28.4187 44.4073 28.4187C41.928 28.4347 39.4568 28.4267 36.9775 28.4267C36.8402 28.4267 36.6948 28.4426 36.5252 28.4506C36.7433 30.807 36.9532 33.1076 37.1713 35.4162C40.2563 35.4162 43.2928 35.4162 46.3778 35.4162ZM27.666 28.4267C27.5691 30.791 27.4802 33.0996 27.3833 35.4083C30.4845 35.4083 33.5372 35.4083 36.5979 35.4083C36.5737 35.0898 36.5495 34.7953 36.5252 34.5087C36.3556 32.622 36.1699 30.7353 36.0164 28.8486C35.9922 28.5222 35.8953 28.4267 35.5642 28.4267C33.0607 28.4426 30.5572 28.4347 28.0536 28.4347C27.9486 28.4267 27.8437 28.4267 27.666 28.4267ZM27.3833 21.9865C24.8556 21.9865 22.4005 21.9865 19.9374 21.9865C19.5982 23.9528 19.259 25.8952 18.9198 27.8535C21.6737 27.8535 24.3872 27.8535 27.1491 27.8535C27.2218 25.8952 27.3026 23.9528 27.3833 21.9865ZM35.9276 21.9785C36.1134 23.9687 36.291 25.9111 36.4687 27.8535C39.2306 27.8535 41.9441 27.8535 44.6899 27.8535C44.2458 25.8713 43.8016 23.9289 43.3655 21.9785C40.8862 21.9785 38.4392 21.9785 35.9276 21.9785ZM35.3785 21.9865C32.8911 21.9865 30.436 21.9865 27.9325 21.9865C27.8517 23.9607 27.771 25.9031 27.6902 27.8456C30.4683 27.8456 33.1737 27.8456 35.9115 27.8456C35.7338 25.8713 35.5561 23.9368 35.3785 21.9865ZM20.0424 21.3576C20.1474 21.3815 20.1877 21.4053 20.2281 21.4053C22.5297 21.4053 24.8314 21.4053 27.133 21.4133C27.3672 21.4133 27.4237 21.3178 27.4318 21.1028C27.4802 19.7256 27.5368 18.3484 27.5933 16.9712C27.6014 16.8438 27.5933 16.7165 27.5933 16.5732C25.3401 16.5732 23.1354 16.5732 20.8823 16.5732C20.6077 18.1574 20.325 19.7415 20.0424 21.3576ZM27.9648 21.3815C30.4441 21.3815 32.8588 21.3815 35.3219 21.3815C35.1766 19.7654 35.0312 18.1733 34.8858 16.5732C32.6327 16.5732 30.4118 16.5732 28.1586 16.5732C28.094 18.1812 28.0294 19.7654 27.9648 21.3815Z" fill="#B8423E"/>
</svg>
