<svg width="20" height="24" viewBox="0 0 20 24" fill="none" xmlns="http://www.w3.org/2000/svg">
<path d="M8.97451 22.9875C8.89579 22.83 8.73834 22.5938 8.73834 22.4364C8.73834 17.7917 8.73834 13.1469 8.73834 8.50222C8.73834 8.1086 8.89579 7.95115 9.21069 8.02987C12.5958 8.02987 16.0597 8.02987 19.4448 8.02987C19.6023 8.02987 19.8385 8.18732 19.9959 8.26605C19.9959 13.1469 19.9959 18.1066 19.9959 23.0662C16.3746 22.9875 12.6746 22.9875 8.97451 22.9875ZM19.2874 8.73839C15.981 8.73839 12.7533 8.73839 9.52558 8.73839C9.52558 13.2257 9.52558 17.713 9.52558 22.2002C12.832 22.2002 16.0597 22.2002 19.2874 22.2002C19.2874 17.713 19.2874 13.2257 19.2874 8.73839Z" fill="white"/>
<path d="M0 15.1938C0.236173 14.4852 0.393621 13.7767 0.629793 13.1469C1.02341 12.1235 1.73193 11.415 2.75535 11.0214C3.77876 10.6278 4.80218 10.1554 5.82559 9.68307C5.11707 8.65966 4.64473 7.71497 4.40855 6.61283C4.17238 4.64473 4.40855 2.9128 5.66814 1.33831C6.14049 0.629794 6.849 0.236173 7.63625 0C8.02987 0 8.42349 0 8.81711 0C10.7852 0.708518 11.6512 2.36173 11.9661 4.25111C12.1235 5.11707 11.9661 5.98304 11.8874 6.92773C11.8874 7.24263 11.8086 7.55752 11.3363 7.40007C10.9427 7.32135 11.1001 7.00645 11.1001 6.69156C11.3363 5.43197 11.3363 4.17238 10.8639 2.99152C10.7065 2.51917 10.4703 2.12555 10.1554 1.73193C9.05328 0.157448 7.1639 0.236173 6.06176 1.81066C5.1958 3.07024 4.95962 4.48728 5.11707 5.90431C5.1958 6.69156 5.43197 7.4788 5.74687 8.26604C6.06176 9.05328 6.77028 9.68307 7.63625 9.91925C7.87242 9.99797 8.18731 10.0767 8.02987 10.3916C7.95114 10.549 7.63625 10.549 7.4788 10.549C7.40007 10.549 7.32135 10.549 7.32135 10.4703C6.69156 9.99797 6.14049 10.2341 5.51069 10.549C4.80218 10.8639 4.17238 11.2576 3.38514 11.4937C1.88938 11.9661 1.18086 13.1469 0.865966 14.564C0.629794 15.6661 0.708518 15.5087 1.57448 15.7448C3.38514 16.2959 5.1958 16.3746 7.00645 16.3746C7.1639 16.3746 7.40007 16.3746 7.55752 16.3746C7.71497 16.4534 7.79369 16.6108 7.95114 16.7683C7.79369 16.847 7.63625 17.0831 7.55752 17.0831C6.92773 17.0831 6.21921 17.0831 5.58942 17.0044C3.93621 16.9257 2.283 16.7683 0.708518 16.2172C0.472345 16.1385 0.236173 15.9023 0 15.7448C0 15.5087 0 15.3512 0 15.1938Z" fill="white"/>
<path d="M14.4065 19.3661C15.5874 19.3661 16.7683 19.3661 17.9491 19.3661C18.1853 19.3661 18.4215 19.3661 18.5002 19.681C18.5002 19.9959 18.264 20.0747 18.0278 20.0747C15.6661 20.0747 13.2257 20.0747 10.8639 20.0747C10.6278 20.0747 10.3129 20.0747 10.3916 19.681C10.3916 19.3661 10.6278 19.3661 10.9427 19.3661C12.0448 19.3661 13.2257 19.3661 14.4065 19.3661Z" fill="white"/>
<path d="M14.4065 12.9895C15.5874 12.9895 16.7682 12.9895 17.9491 12.9895C18.264 12.9895 18.5002 13.0682 18.5002 13.3831C18.5002 13.698 18.1853 13.698 17.9491 13.698C15.5874 13.698 13.1469 13.698 10.7852 13.698C10.549 13.698 10.2341 13.7767 10.2341 13.3831C10.2341 12.9895 10.549 12.9895 10.7852 12.9895C12.0448 12.9895 13.2256 12.9895 14.4065 12.9895Z" fill="white"/>
<path d="M14.3278 11.5725C13.1469 11.5725 11.9661 11.5725 10.7852 11.5725C10.549 11.5725 10.3129 11.5725 10.3129 11.2576C10.3129 10.9427 10.549 10.9427 10.7852 10.9427C13.1469 10.9427 15.5874 10.9427 17.9491 10.9427C18.1066 10.9427 18.4215 11.1001 18.4215 11.2576C18.5002 11.5725 18.1853 11.6512 17.9491 11.6512C16.7682 11.5725 15.5874 11.5725 14.3278 11.5725Z" fill="white"/>
<path d="M14.3278 15.8236C13.1469 15.8236 11.9661 15.8236 10.7852 15.8236C10.549 15.8236 10.2341 15.8236 10.2341 15.5087C10.2341 15.115 10.4703 15.115 10.7852 15.115C13.1469 15.115 15.5087 15.115 17.8704 15.115C18.1853 15.115 18.4214 15.115 18.4214 15.5087C18.4214 15.8236 18.1853 15.9023 17.8704 15.9023C16.7682 15.8236 15.5874 15.8236 14.3278 15.8236Z" fill="white"/>
<path d="M14.3278 17.9491C13.1469 17.9491 11.9661 17.9491 10.7852 17.9491C10.549 17.9491 10.2341 17.9491 10.3129 17.6342C10.3129 17.4768 10.6278 17.3193 10.7852 17.3193C13.1469 17.3193 15.5874 17.3193 17.9491 17.3193C18.1853 17.3193 18.5002 17.3193 18.5002 17.6342C18.5002 17.9491 18.264 17.9491 17.9491 17.9491C16.7682 17.9491 15.5874 17.9491 14.3278 17.9491Z" fill="white"/>
</svg>
