<svg width="27" height="23" viewBox="0 0 27 23" fill="none" xmlns="http://www.w3.org/2000/svg">
<path d="M10.0545 17.0258C9.43092 17.4254 8.78886 17.7903 8.13416 18.1563C8.16182 18.0674 8.18932 17.9787 8.21673 17.8903C8.43152 17.1977 8.64127 16.5214 8.88182 15.8599L8.88184 15.8599L8.88337 15.8555C8.97695 15.5906 9.0192 15.3301 8.98898 15.06C8.95909 14.7929 8.86235 14.5529 8.73279 14.3234L8.73285 14.3234L8.72877 14.3164C6.54232 10.5863 8.26258 5.93862 12.1546 4.7409C15.1598 3.81606 18.487 5.64368 19.4534 8.80385L19.4535 8.80414C20.4946 12.201 18.8889 15.649 15.8494 16.8108C14.4578 17.3355 13.0959 17.3551 11.7281 16.8353C11.4301 16.7209 11.1387 16.6762 10.8432 16.7167C10.5519 16.7566 10.2948 16.8742 10.0575 17.024L10.0574 17.0239L10.0545 17.0258Z" stroke="white"/>
<path d="M14.2583 0C17.7489 0.17076 21.0599 2.27242 23.1389 6.41005C23.2672 6.65962 23.4854 6.90919 23.7292 7.02741C25.3718 7.86808 26.2958 9.22102 26.283 11.0994C26.2702 12.9383 25.3847 14.2913 23.7549 15.1188C23.511 15.237 23.2672 15.4866 23.1517 15.7362C21.4577 19.2039 18.8013 21.3318 15.0668 22.028C14.8101 22.0805 14.5406 22.2776 14.361 22.4877C13.8477 23.0657 12.9878 23.1839 12.4103 22.6716C11.8457 22.1725 11.8328 21.2399 12.3847 20.6882C12.9365 20.1496 13.8477 20.1628 14.2968 20.8327C14.6305 21.3318 14.9898 21.2924 15.439 21.1873C22.7025 19.4929 25.7825 10.8498 21.2909 4.78127C17.4281 -0.394061 9.76671 -0.630497 5.66009 4.32153C3.20896 7.27698 2.6058 10.6396 3.67095 14.3307C3.74795 14.5934 3.65812 14.8955 3.63245 15.1845C3.35012 15.1582 3.04213 15.1976 2.7983 15.0925C1.14282 14.3175 0.282994 12.9383 0.270161 11.0994C0.257328 9.27356 1.11715 7.94689 2.70846 7.09309C3.00363 6.93547 3.28596 6.64649 3.42712 6.34437C5.33926 2.39063 8.99672 0.0131354 14.2583 0Z" fill="white"/>
</svg>
