<svg width="11" height="7" viewBox="0 0 11 7" fill="none" xmlns="http://www.w3.org/2000/svg">
<path d="M5.70879 0.9553L10.4088 5.79741C10.4088 5.79741 10.5088 5.90267 10.5088 6.00793C10.5088 6.11319 10.5088 6.21846 10.4088 6.21846L9.90879 6.74477C9.80879 6.85004 9.70879 6.85004 9.70879 6.85004C9.60879 6.85004 9.50879 6.85004 9.40879 6.74477L5.50879 2.63951L1.60879 6.74477C1.50879 6.85004 1.40879 6.85004 1.30879 6.85004C1.20879 6.85004 1.10879 6.85004 1.10879 6.74477L0.608789 6.21846C0.508789 6.11319 0.508789 6.11319 0.508789 6.00793C0.508789 5.90267 0.508789 5.79741 0.608789 5.79741L5.30879 0.9553C5.30879 0.850037 5.40879 0.850037 5.50879 0.850037C5.60879 0.850037 5.70879 0.850037 5.70879 0.9553Z" fill="white"/>
</svg>
