<svg width="20" height="22" viewBox="0 0 20 22" fill="none" xmlns="http://www.w3.org/2000/svg">
<path d="M13.5325 20.9384C13.4079 20.9384 13.3456 21 13.2833 21C10.1687 21 7.1164 21 4.00179 20.9384C3.19199 20.9384 2.38219 20.8151 1.63468 20.4452C0.94947 20.0753 0.575717 19.5205 0.388841 18.7808C0.07738 17.3014 0.388841 15.8836 1.19864 14.6507C2.00844 13.4178 3.1297 12.5548 4.62471 12.1849C4.87388 12.1233 5.12305 12.0616 5.43451 12C5.4968 12 5.62138 12.0616 5.62138 12.1233C5.80826 12.863 6.36889 13.2329 6.99181 13.4795C7.73932 13.7877 8.54912 13.9726 9.42121 13.911C10.3556 13.8493 11.29 13.6644 12.0998 13.1096C12.4735 12.863 12.7227 12.5548 12.8473 12.1233C12.8473 12.0616 12.9719 12 13.0342 12C14.5292 12.1849 15.8373 12.863 16.834 14.0342C16.9586 14.2192 17.0831 14.3425 17.27 14.589C15.5258 14.5274 14.1554 15.1438 13.3456 16.5616C12.4112 18.0411 12.5358 19.5205 13.5325 20.9384Z" stroke="white" stroke-width="0.5" stroke-miterlimit="10" stroke-linecap="round" stroke-linejoin="round"/>
<path d="M13.2626 5.32853C13.2028 6.72896 12.9041 8.384 12.0079 9.78443C11.5299 10.6119 10.8727 11.3122 10.0363 11.6941C8.78167 12.267 7.64651 12.0124 6.63084 11.1212C5.73466 10.421 5.19696 9.40249 4.83848 8.32035C4.42027 7.11089 4.18129 5.83778 4.30078 4.56466C4.42027 2.90962 5.19696 1.50919 6.63084 0.618013C7.52702 0.0451127 8.48294 -0.0821986 9.43886 0.0451127C10.6935 0.23608 11.6494 0.936292 12.3664 2.01844C13.0236 2.90962 13.3223 3.92811 13.2626 5.32853ZM5.37619 6.21971C5.31645 6.15605 5.19696 6.0924 5.07747 6.02874C4.89823 5.96509 4.83848 6.02874 4.89823 6.21971C5.01772 6.91992 5.13721 7.62013 5.43594 8.32035C5.85415 9.33884 6.39186 10.23 7.28804 10.8029C8.00498 11.2485 8.78167 11.3758 9.55835 11.1849C10.335 10.9302 10.9325 10.4846 11.4105 9.78443C12.0676 8.89325 12.4261 7.93841 12.6054 6.85627C12.6651 6.60164 12.6651 6.28337 12.7248 5.96509C12.4859 6.02874 12.3066 6.0924 12.1871 6.15605C12.1871 5.5195 12.1871 4.9466 12.1871 4.3737C12.1871 3.92811 12.0676 3.54617 11.8287 3.22789C11.7689 3.16424 11.5897 3.10058 11.4702 3.10058C11.1117 3.2279 10.7533 3.41886 10.3948 3.48252C9.79733 3.60983 9.25963 3.73714 8.66218 3.73714C7.88549 3.73714 7.1088 3.48252 6.33211 3.16424C5.9139 3.03693 5.79441 3.10058 5.61517 3.48252C5.37619 3.99176 5.37619 4.50101 5.37619 5.01025C5.43594 5.39219 5.37619 5.77412 5.37619 6.21971Z" fill="white"/>
<path d="M19.2679 18.5C19.3267 19.8372 18.1512 21 16.7994 21C15.3888 21 14.272 19.8372 14.272 18.5581C14.2133 17.1628 15.4475 16 16.7406 16C18.0924 16 19.2679 17.1047 19.2679 18.5Z" stroke="white" stroke-width="0.7358" stroke-miterlimit="10"/>
</svg>
