<svg width="17" height="20" viewBox="0 0 17 20" fill="none" xmlns="http://www.w3.org/2000/svg">
<path d="M4.81261 10.0157C3.08068 10.5667 2.21471 9.54331 1.27002 8.28372C2.45088 8.28372 3.55302 8.28372 4.73388 8.28372C4.73388 6.86669 4.81261 5.52837 4.73388 4.19006C4.73388 3.56027 3.86792 3.08793 3.1594 3.16665C3.00195 3.16665 2.8445 3.24537 2.60833 3.3241C2.52961 3.16665 2.37216 2.93048 2.29343 2.77303C1.74236 1.59217 1.89981 1.27727 3.08068 0.804924C4.81261 0.17513 6.22964 1.11982 6.54454 3.08793C6.70199 4.19007 6.62326 5.2922 6.70199 6.47306C6.70199 7.02413 6.70199 7.5752 6.70199 8.28372C8.19775 7.96882 8.59137 9.30713 9.37861 10.0944C8.51264 10.0944 7.64668 10.0944 6.70199 10.0944C6.70199 10.6454 6.70199 11.1965 6.70199 11.6689C6.70199 12.771 6.70199 13.9519 6.70199 15.054C6.70199 16.3923 7.25306 16.9434 8.51264 17.0221C8.82754 17.0221 9.22116 17.0221 9.53606 16.8647C11.3467 16.0774 12.5276 14.8178 13.0786 12.8497C13.1574 12.6923 13.0786 12.5348 13.1574 12.3774C12.685 12.2987 12.2914 12.2987 11.8191 12.2199C10.7956 11.9838 10.1659 11.1178 10.2446 9.70075C10.2446 8.59861 10.8744 7.73265 11.8978 7.49648C13.7872 7.02413 15.5191 8.205 15.9914 10.2518C16.3063 11.6689 16.2276 13.0859 15.5191 14.4242C14.1808 16.9434 12.2914 18.754 9.29989 19.0689C7.41051 19.3051 5.52113 17.7306 4.97006 16.471C4.89133 16.2349 4.89133 15.92 4.89133 15.6838C4.89133 14.0306 4.89133 12.3774 4.89133 10.7242C4.81261 10.6454 4.81261 10.4093 4.81261 10.0157Z" stroke="white" stroke-miterlimit="10"/>
</svg>
