<svg width="15" height="15" viewBox="0 0 15 15" fill="none" xmlns="http://www.w3.org/2000/svg">
<path d="M11.0171 13.9212C10.9364 13.7636 10.8558 13.8424 10.7752 13.8424C9.64651 13.5273 8.92093 12.5818 9.00155 11.4C9.00155 10.6121 8.75969 10.1394 8.19535 9.58787C7.14729 8.56363 6.09922 7.53939 5.05116 6.51515C4.64806 6.12121 4.16434 5.96363 3.6 5.96363C2.22946 5.96363 1.02015 4.93938 1.02015 3.59999C1.02015 3.44241 0.939535 3.20605 1.10078 3.20605C1.26202 3.12726 1.50388 3.12727 1.74574 3.28484C1.9876 3.52121 2.22946 3.75757 2.55194 3.99393C2.87442 4.15151 3.11628 4.07271 3.27752 3.91514C3.51938 3.75756 3.68062 3.52121 3.92248 3.36364C4.16434 3.04848 4.16434 2.65453 3.84186 2.33938C3.68062 2.10302 3.43876 1.94545 3.1969 1.70909C3.03566 1.55151 2.87442 1.47272 2.95504 1.23635C3.03566 0.99999 3.27752 1 3.51938 1C4.64806 1 5.77674 1.78788 6.01861 2.9697C6.09923 3.20606 6.09923 3.44242 6.09923 3.75758C6.01861 4.2303 6.17985 4.70301 6.50233 5.01816C7.71163 6.19998 8.92093 7.3818 10.1302 8.56362C10.5333 8.95756 11.0977 9.11514 11.7426 9.11514C12.307 9.03635 13.1938 9.50908 13.5969 10.2182C13.7581 10.5333 13.8388 10.7697 14 11.0848C14 11.3212 14 11.4788 14 11.7151C13.6775 12.0303 13.4357 11.8727 13.1938 11.5576C12.2264 10.6121 12.1457 10.6121 11.2589 11.5576C10.8558 11.9515 10.8558 12.3455 11.2589 12.7394C11.4202 12.9758 11.662 13.1333 11.8233 13.2909C12.1457 13.606 12.1457 13.6848 11.7426 14C11.5008 13.9212 11.2589 13.9212 11.0171 13.9212Z" stroke="white" stroke-width="0.75" stroke-miterlimit="10"/>
</svg>
