<svg width="27" height="23" viewBox="0 0 27 23" fill="none" xmlns="http://www.w3.org/2000/svg">
<path d="M2.12273 19.8897L2.12273 19.8897L2.11979 19.889C1.71316 19.7913 1.32827 19.6511 0.916755 19.5011C0.811318 19.4627 0.704133 19.4236 0.594385 19.3845C0.616539 19.2478 0.63736 19.1138 0.657826 18.9821C0.733796 18.4932 0.804882 18.0358 0.921133 17.5863L0.921319 17.5856C1.0926 16.9193 1.38695 16.3204 1.79031 15.7346C2.24615 15.1072 2.84759 14.6437 3.55831 14.3222C4.46702 13.9149 5.37648 13.5311 6.29121 13.1466C7.00951 14.0304 7.94769 14.6961 9.15735 14.8771C10.1969 15.0652 11.1915 14.7742 12.0101 14.1939C12.2791 14.007 12.5244 13.7786 12.7483 13.5532C12.1436 14.6636 11.8476 15.7869 11.8676 16.9252C11.8888 18.1354 12.2663 19.3257 12.9549 20.4996C12.7073 20.5082 12.4639 20.5176 12.223 20.5269C11.4833 20.5555 10.7665 20.5832 10.0219 20.5832C8.60408 20.5832 7.18387 20.5293 5.75968 20.448C4.54617 20.368 3.30709 20.1817 2.12273 19.8897Z" stroke="white"/>
<path d="M6.70873 8.61273C6.70225 8.60528 6.69873 8.601 6.69725 8.59918L6.6789 8.57142L6.65302 8.54294C6.13261 7.97029 5.82771 7.28455 5.75558 6.52566C5.72914 6.08994 5.76318 5.86179 5.93419 5.71312C6.04608 5.63247 6.10062 5.52856 6.12468 5.47328C6.15656 5.40003 6.16998 5.33132 6.17654 5.28828C6.18917 5.20545 6.18905 5.1254 6.18901 5.0976C6.18901 5.09618 6.18901 5.09489 6.18901 5.09374V5.09135V5.08895V5.08656V5.08417V5.08177V5.07938V5.07699V5.07459V5.0722V5.06981V5.06741V5.06502V5.06262V5.06023V5.05784V5.05544V5.05305V5.05066V5.04826V5.04587V5.04348V5.04108V5.03869V5.0363V5.0339V5.03151V5.02911V5.02672V5.02433V5.02193V5.01954V5.01715V5.01475V5.01236V5.00997V5.00757V5.00518V5.00279V5.00039V4.998V4.9956V4.99321V4.99082V4.98842V4.98603V4.98364V4.98124V4.97885V4.97646V4.97406V4.97167V4.96927V4.96688V4.96449V4.96209V4.9597V4.95731V4.95491V4.95252V4.95013V4.94773V4.94534V4.94295V4.94055V4.93816V4.93577V4.93337V4.93098V4.92858V4.92619V4.9238V4.9214V4.91901V4.91662V4.91422V4.91183V4.90944V4.90704V4.90465V4.90226V4.89986V4.89747V4.89507V4.89268V4.89029V4.88789V4.8855V4.88311V4.88071V4.87832V4.87593V4.87353V4.87114V4.86874V4.86635V4.86396V4.86156V4.85917V4.85678V4.85438V4.85199V4.8496V4.8472V4.84481V4.84242V4.84002V4.83763V4.83523V4.83284V4.83045V4.82805V4.82566V4.82327V4.82087V4.81848V4.81609V4.81369V4.8113V4.80891V4.80651V4.80412V4.80172V4.79933V4.79694V4.79454V4.79215V4.78976V4.78736V4.78497V4.78258V4.78018V4.77779V4.77539V4.773V4.77061V4.76821V4.76582V4.76343V4.76103V4.75864V4.75625V4.75385V4.75146V4.74907V4.74667V4.74428V4.74188V4.73949V4.7371V4.7347V4.73231V4.72992V4.72752V4.72513V4.72274V4.72034V4.71795V4.71556V4.71316V4.71077V4.70837V4.70598V4.70359V4.70119V4.6988V4.69641V4.69401V4.69162V4.68923V4.68683V4.68444V4.68205V4.67965V4.67726V4.67486V4.67247V4.67008V4.66768V4.66529V4.6629V4.6605V4.65811V4.65572V4.65332V4.65093V4.64854V4.64614V4.64375V4.64135V4.63896V4.63657V4.63417V4.63178V4.62939V4.62699V4.6246V4.62221V4.61981V4.61742V4.61503V4.61263V4.61024V4.60784V4.60545V4.60306V4.60066V4.59827V4.59588V4.59348V4.59109V4.5887V4.5863V4.58391V4.58151V4.57912V4.57673V4.57433V4.57194V4.56955V4.56715V4.56476V4.56237V4.55997V4.55758V4.55519V4.55279V4.5504V4.548V4.54561V4.54322V4.54082V4.53843V4.53604V4.53364V4.53125V4.52886V4.52646V4.52407V4.52168V4.51928V4.51689V4.51449V4.5121V4.50971V4.50731V4.50492V4.50253V4.50013V4.49774V4.49535V4.49295V4.49056V4.48817V4.48577V4.48338V4.48098V4.47859V4.4762V4.4738V4.47141V4.46902V4.46662V4.46423V4.46184V4.45944V4.45705V4.45466V4.45226V4.44987V4.44747V4.44508V4.44269V4.44029V4.4379V4.43551V4.43311V4.43072V4.42833V4.42593V4.42354V4.42114V4.41875V4.41636V4.41396V4.41157V4.40918V4.40678V4.40439V4.402V4.3996V4.39721V4.39482V4.39242V4.39003V4.38763V4.38524V4.38285V4.38045V4.37806V4.37567V4.37327V4.37088V4.36849V4.36609V4.3637V4.36131V4.35891V4.35652V4.35412V4.35173V4.34934V4.34694V4.34455V4.34216V4.33976V4.33737V4.33498V4.33258V4.33019V4.3278V4.3254V4.32301V4.32061V4.31822V4.31583V4.31343V4.31104V4.30865V4.30625V4.30386V4.30147V4.29907V4.29668V4.29429V4.29189V4.2895V4.2871V4.28471V4.28232V4.27992V4.27753V4.27514V4.27274V4.27035V4.26796V4.26556V4.26317V4.26078V4.25838V4.25599V4.25359V4.2512V4.24881V4.24641V4.24402V4.24163V4.23923V4.23684V4.23445V4.23205V4.22966V4.22726V4.22487V4.22248V4.22008V4.21769V4.2153V4.2129V4.21051V4.20812V4.20572V4.20333V4.20094V4.19854V4.19615V4.19375V4.19136V4.18897V4.18657V4.18418V4.18179V4.17939V4.177V4.17461V4.17221V4.16982V4.16743V4.16503V4.16264V4.16024V4.15785V4.15546V4.15306V4.15067V4.14828V4.14588V4.14349V4.1411V4.1387V4.13631V4.13391V4.13152V4.12913V4.12673V4.12434V4.12195V4.11955V4.11716V4.11477V4.11237V4.10998V4.10759V4.10519V4.1028V4.10041V4.09801V4.09562V4.09322V4.09083V4.08844V4.08604V4.08365V4.08126V4.07886V4.07647V4.07408V4.07168V4.06929V4.0669V4.0645V4.06211V4.05971V4.05732V4.05493V4.05253V4.05014V4.04775V4.04535V4.04296V4.04057V4.03817V4.03578V4.03338V4.03099V4.0286V4.0262V4.02381V4.02142V4.01902V4.01663V4.01424V4.01184V4.00945V4.00706V4.00466V4.00227V3.99987V3.99748V3.99509V3.99269V3.9903V3.98791V3.98551V3.98312V3.98073V3.97833V3.97594V3.97355V3.97115V3.96876V3.96636V3.96397V3.96158V3.95918V3.95679V3.9544V3.952V3.94961V3.94722V3.94482V3.94243V3.94004V3.93764V3.93525V3.93285V3.93046V3.92807V3.92567V3.92328V3.92089V3.91849V3.9161V3.91371V3.91131V3.90892V3.90652V3.90413V3.90174V3.89934V3.89695V3.89456V3.89216V3.88977V3.88738V3.88498V3.88259V3.8802V3.8778V3.87541V3.87508C6.21454 2.96543 6.47991 2.16651 7.0814 1.51232C7.4593 1.1094 7.9615 0.847226 8.55206 0.672842C9.19071 0.500092 9.84812 0.452314 10.502 0.55003C11.1977 0.65399 11.8046 0.827914 12.302 1.19167C12.5088 1.3493 12.6533 1.59166 12.7728 1.92486C12.8491 2.18305 12.987 2.41803 13.1018 2.59161L13.1125 2.60783L13.1244 2.62317C13.3488 2.91119 13.4613 3.25096 13.5082 3.65382C13.5321 3.85818 13.5387 4.07476 13.542 4.31435C13.5427 4.36 13.5432 4.40679 13.5437 4.45446C13.5458 4.64594 13.5481 4.85174 13.559 5.05596C13.5636 5.28267 13.661 5.52913 13.8226 5.70135C13.9 5.79512 13.9418 5.93151 13.9662 6.17696C14.0342 6.88734 13.833 7.52801 13.4146 8.09067L13.4103 8.09644L13.4062 8.10233C13.0663 8.58804 12.7818 9.07576 12.5263 9.61985L12.5262 9.61979L12.5213 9.63078C12.1388 10.4991 11.5318 11.1052 10.6676 11.435L10.6599 11.438L10.6522 11.4412C10.5326 11.4915 10.4058 11.5246 10.2735 11.5525C10.2441 11.5587 10.2087 11.5656 10.1705 11.5731C10.1034 11.5862 10.0276 11.6011 9.95949 11.6168C8.89641 11.5532 8.184 11.098 7.60155 10.3229C7.31972 9.94363 7.10085 9.48337 6.95226 9.01205C6.90769 8.85149 6.8159 8.73772 6.77068 8.68383C6.75447 8.66449 6.73054 8.63743 6.71732 8.62247C6.71329 8.61792 6.71026 8.61448 6.70873 8.61273Z" stroke="white"/>
<path d="M20.1739 11.1816C20.3629 11.2089 20.5519 11.2361 20.7409 11.2633C21.1459 11.345 21.1999 11.4267 21.1999 11.8625C21.1999 11.9169 21.1729 11.9986 21.1999 12.0531C21.2269 12.271 21.2809 12.4344 21.5239 12.5161C21.7939 12.5978 22.0639 12.734 22.3339 12.8429C22.4959 12.9246 22.6039 12.8974 22.7389 12.7884C22.8469 12.6795 22.9819 12.5706 23.0899 12.4344C23.2519 12.271 23.4409 12.271 23.6029 12.3799C23.9809 12.625 24.2779 12.9246 24.5208 13.3059C24.6558 13.5237 24.6558 13.7144 24.4669 13.8778C24.0889 14.1773 23.9269 14.5041 24.2509 14.9399C24.3319 15.0488 24.3589 15.185 24.3859 15.3212C24.4938 15.648 24.6558 15.7569 25.0338 15.7297C25.1688 15.7297 25.3038 15.7297 25.4118 15.7569C25.4928 15.7841 25.6008 15.8658 25.6278 15.9475C25.7898 16.4377 25.7898 16.9552 25.6278 17.4454C25.5738 17.5815 25.4928 17.6905 25.3038 17.6905C25.1418 17.6905 24.9798 17.6905 24.8178 17.6905C24.6288 17.6905 24.5208 17.7722 24.4669 17.9628C24.3589 18.2624 24.1969 18.562 24.0889 18.8615C24.0619 18.9705 24.0619 19.1066 24.1159 19.1883C24.2239 19.3245 24.3589 19.4607 24.4669 19.5696C24.6018 19.7058 24.6288 19.8964 24.5208 20.0598C24.2509 20.4411 23.9539 20.7951 23.5219 21.0402C23.3329 21.1491 23.1709 21.1491 23.0359 20.9857C22.7119 20.5228 22.3339 20.4683 21.8749 20.7951C21.7939 20.8496 21.6859 20.8768 21.6049 20.904C21.1999 21.0402 21.1459 21.0947 21.1729 21.5032C21.1729 22.1023 21.1459 22.1568 20.5519 22.184C20.2279 22.2113 19.9039 22.184 19.5529 22.1568C19.3369 22.1296 19.2019 21.9934 19.2019 21.7755C19.2019 21.7483 19.2019 21.7483 19.2019 21.7211C19.2559 21.013 19.1749 21.0402 18.5809 20.8223C18.4459 20.7679 18.3109 20.7134 18.176 20.6589C17.933 20.5228 17.744 20.55 17.582 20.7406C17.123 21.2581 17.042 21.2581 16.448 20.7679C16.205 20.55 16.043 20.3049 15.827 20.0326C15.719 19.8964 15.746 19.733 15.881 19.5968C16.016 19.4607 16.151 19.3517 16.232 19.2156C16.286 19.1066 16.313 18.9705 16.286 18.8343C16.205 18.562 16.07 18.3168 15.989 18.0717C15.881 17.7449 15.8 17.6905 15.449 17.6905C15.341 17.6905 15.26 17.6905 15.152 17.6905C14.882 17.6905 14.747 17.5815 14.72 17.3092C14.693 16.9007 14.72 16.4922 14.72 16.0837C14.72 15.8386 14.882 15.7297 15.098 15.7024C15.125 15.7024 15.152 15.7024 15.179 15.7024C15.692 15.7841 15.962 15.539 16.07 15.0488C16.097 14.8854 16.178 14.7492 16.259 14.6131C16.367 14.4497 16.313 14.3135 16.178 14.1773C16.043 14.0412 15.935 13.905 15.827 13.7961C15.719 13.6599 15.719 13.5237 15.8 13.3876C16.043 12.9518 16.394 12.625 16.799 12.3799C16.961 12.271 17.123 12.2982 17.285 12.4344C17.798 12.9246 17.798 12.9246 18.4459 12.625C18.5809 12.5706 18.7429 12.5161 18.9049 12.4616C19.0669 12.4072 19.1479 12.271 19.1479 12.1076C19.1479 12.0803 19.1479 12.0531 19.1479 11.9986C19.1479 11.3178 19.0939 11.2906 19.9309 11.1816C20.0659 11.2089 20.1199 11.2089 20.1739 11.1816ZM23.1439 16.7373C23.1979 15.185 21.8209 13.7688 20.1739 13.7961C18.6349 13.8233 17.231 15.1033 17.285 16.8462C17.339 18.3985 18.6079 19.733 20.3089 19.7058C21.8209 19.6785 23.1709 18.3441 23.1439 16.7373Z" stroke="white"/>
</svg>
