<svg width="22" height="21" viewBox="0 0 22 21" fill="none" xmlns="http://www.w3.org/2000/svg">
<path d="M5.10426 19.3927C4.88863 19.713 4.56518 19.8198 4.18783 19.8732C3.70266 19.8732 3.16359 19.9266 2.67842 19.9266C1.97762 19.98 1.54636 19.5528 1.49245 18.8587C1.43854 17.6841 1.38464 16.5095 1.27682 15.3348C1.22291 14.6941 1.49245 14.267 1.97762 14.1068C2.08543 14.0534 2.19325 14.0534 2.35497 14.0534C2.94796 14 3.48703 14 4.08001 14C4.40346 14 4.61909 14.1068 4.83472 14.3204C4.88863 14.4271 4.99644 14.4271 5.10426 14.3737C6.50585 13.8932 7.90745 13.9466 9.30904 14.4271C10.1177 14.7475 10.9263 14.9077 11.7888 15.0145C12.6513 15.1212 13.5138 15.1746 14.3224 15.2814C14.7537 15.3348 15.0772 15.6552 15.0772 16.0823C15.0772 16.5095 14.7537 16.8298 14.2685 16.8298C13.1904 16.8298 12.1122 16.8832 11.0341 16.8832C10.9802 16.8832 10.9802 16.8832 10.9263 16.8832C10.7645 16.8832 10.7106 16.9366 10.7106 17.0968C10.7106 17.257 10.8185 17.3103 10.9802 17.3103C11.3036 17.3103 11.6271 17.3103 11.9505 17.3103C12.7052 17.3103 13.4599 17.3103 14.2146 17.3103C14.6998 17.3103 15.1311 17.2036 15.5084 16.9366C16.9639 16.0823 18.4194 15.228 19.821 14.3737C20.1445 14.1602 20.5218 14.1602 20.8453 14.3737C21.3843 14.7475 21.4382 15.495 20.8453 15.8687C19.3358 16.9366 17.8264 17.9511 16.317 19.0189C15.2389 19.7664 14.0529 20.0868 12.7591 19.98C11.1958 19.8732 9.6864 19.7664 8.12308 19.6596C7.26056 19.6062 6.45195 19.5528 5.58942 19.4994C5.37379 19.4994 5.26598 19.4461 5.10426 19.3927Z" stroke="white"/>
<path d="M17.0866 3.2817C17.0336 3.44089 16.9805 3.60008 16.8744 3.7062C16.7683 3.91846 16.503 4.07764 16.503 4.28989C16.503 4.50215 16.6621 4.7144 16.7152 4.92665C16.7683 5.29809 17.0336 5.45728 17.352 5.45728C17.4581 5.45728 17.5111 5.51034 17.6173 5.51034C17.9887 5.5634 18.201 5.82872 18.201 6.20016C18.201 6.41241 18.201 6.62466 18.201 6.88997C18.201 7.20835 17.9887 7.47366 17.6703 7.52673C17.4581 7.57979 17.1928 7.57979 16.9805 7.63285C16.9275 7.63285 16.8744 7.68592 16.8213 7.73898C16.7152 8.00429 16.6091 8.26961 16.503 8.53492C16.503 8.58798 16.503 8.69411 16.503 8.74717C16.6091 8.95942 16.7683 9.11861 16.8744 9.2778C17.0866 9.54311 17.0336 9.86149 16.8213 10.1268C16.6621 10.286 16.5029 10.4452 16.3438 10.6044C16.1315 10.8166 15.8131 10.8166 15.5478 10.6574C15.3356 10.5513 15.1764 10.3921 14.9641 10.2329C14.9111 10.1799 14.8049 10.1799 14.7519 10.2329C14.4866 10.3391 14.2212 10.4452 13.9559 10.5513C13.9029 10.6044 13.7967 10.6574 13.7967 10.7636C13.7437 10.9758 13.7437 11.1881 13.6906 11.3472C13.6376 11.7718 13.4253 11.9309 13.0008 11.9309C12.7886 11.9309 12.5763 11.9309 12.364 11.9309C12.0457 11.9309 11.7804 11.7187 11.7273 11.4003C11.6742 11.1881 11.6742 10.9227 11.6212 10.7105C11.6212 10.6574 11.5681 10.6044 11.515 10.5513C11.2497 10.4452 10.9844 10.3391 10.7191 10.2329C10.666 10.2329 10.5599 10.2329 10.5069 10.2329C10.2946 10.3391 10.1354 10.4982 9.97622 10.6044C9.65785 10.8166 9.39253 10.7636 9.12722 10.5513C8.96803 10.3921 8.80884 10.2329 8.64965 10.0737C8.4374 9.80843 8.38434 9.54311 8.59659 9.2778C8.70272 9.06555 8.8619 8.90636 8.96803 8.74717C9.02109 8.69411 9.02109 8.58798 8.96803 8.48186C8.8619 8.21654 8.75578 7.95123 8.64965 7.73898C8.59659 7.63285 8.54353 7.57979 8.4374 7.57979C8.22515 7.57979 8.0129 7.52673 7.85371 7.47366C7.48227 7.4206 7.27002 7.20835 7.27002 6.78385C7.27002 6.5716 7.27002 6.35934 7.27002 6.14709C7.27002 5.77565 7.48227 5.5634 7.80065 5.51034C8.0129 5.45728 8.22515 5.45728 8.4374 5.40421C8.49046 5.40421 8.59659 5.35115 8.59659 5.29809C8.70272 5.03277 8.80884 4.76746 8.91497 4.50215C8.91497 4.44908 8.91497 4.34296 8.91497 4.28989C8.80884 4.07764 8.64965 3.91846 8.54353 3.75927C8.33128 3.44089 8.38434 3.17558 8.59659 2.91026C8.75578 2.75107 8.91497 2.59188 9.07416 2.4327C9.33947 2.22044 9.60478 2.16738 9.92316 2.37963C10.0823 2.4327 10.2415 2.59188 10.4538 2.69801C10.5069 2.75107 10.613 2.75107 10.666 2.69801C10.9314 2.59188 11.1967 2.48576 11.4089 2.37963C11.515 2.32657 11.5681 2.32657 11.5681 2.16738C11.5681 1.95513 11.6212 1.74288 11.6742 1.53063C11.7804 1.21225 11.9926 1 12.4171 1C12.6294 1 12.8416 1 13.0539 1C13.4253 1 13.6376 1.21225 13.7437 1.58369C13.7967 1.79594 13.7967 2.00819 13.8498 2.22044C13.8498 2.27351 13.9559 2.37963 14.009 2.37963C14.2743 2.48576 14.5396 2.59188 14.8049 2.69801C14.858 2.69801 14.9641 2.69801 15.0172 2.69801C15.2294 2.59188 15.3886 2.4327 15.5478 2.32657C15.8662 2.11432 16.1315 2.16738 16.4499 2.37963C16.6091 2.53882 16.7683 2.64495 16.8744 2.80414C16.9275 2.96332 16.9805 3.12251 17.0866 3.2817ZM12.7355 4.60827C11.6212 4.60827 10.8252 5.45728 10.8252 6.51853C10.8252 7.57979 11.6742 8.37573 12.7355 8.37573C13.7967 8.37573 14.6458 7.52673 14.6458 6.41241C14.5927 5.45728 13.7437 4.60827 12.7355 4.60827Z" stroke="white"/>
</svg>
