<svg width="21" height="16" viewBox="0 0 21 16" fill="none" xmlns="http://www.w3.org/2000/svg">
<path d="M9.80865 0.776562C12.4853 0.776562 15.0832 0.776562 17.7598 0.776562C17.996 0.776562 18.2321 0.776562 18.547 0.776562C18.7832 0.776562 18.8619 0.776557 18.8619 1.09145C18.8619 1.72125 18.8619 2.35104 18.8619 2.98083C18.8619 3.05955 18.8619 3.21699 19.0194 3.21699C19.0981 3.21699 19.1768 3.29573 19.2556 3.37445C19.5705 3.68935 19.8066 3.92552 20.1215 4.24042C20.3577 4.47659 20.3577 4.63403 20.1215 4.8702C19.8066 5.26383 19.413 5.57872 19.0194 5.97234C18.9407 6.05106 18.8619 6.20851 18.8619 6.36596C18.8619 9.4362 18.8619 12.5065 18.8619 15.5767C18.8619 15.8916 18.8619 15.8916 18.547 15.8916C16.1066 15.8916 13.6661 15.8916 11.2257 15.8916C10.9108 15.8916 10.9108 15.8916 10.9108 15.5767C10.9108 15.4193 10.9108 15.2618 10.9108 15.1831C10.9108 15.1044 10.9895 14.9469 11.0682 14.9469C11.2257 14.9469 11.2257 15.0256 11.2257 15.1831C11.2257 15.5767 11.2257 15.5767 11.6193 15.5767C13.8236 15.5767 16.0279 15.5767 18.2321 15.5767C18.3896 15.5767 18.4683 15.5767 18.4683 15.3405C18.4683 13.3724 18.4683 11.483 18.4683 9.51493C18.4683 9.35748 18.3896 9.27876 18.2321 9.27876C17.4449 9.27876 16.7364 9.27876 15.9491 9.27876C15.7917 9.27876 15.713 9.3575 15.5555 9.43622C14.0598 10.932 12.564 12.4277 11.0682 13.9235C10.7533 14.2384 10.3597 14.3958 9.9661 14.5533C9.57248 14.7895 9.10013 14.9469 8.70651 15.1831C8.54907 15.2618 8.54907 15.3405 8.54907 15.4192C8.54907 15.498 8.54907 15.498 8.54907 15.5767C8.54907 15.8129 8.54907 15.8916 8.23417 15.8916C6.26606 15.8916 4.21924 15.8916 2.25113 15.8916C1.85751 15.8916 1.46389 15.8916 1.07027 15.8916C0.755371 15.8916 0.755371 15.8916 0.755371 15.5767C0.755371 15.1831 0.755371 14.8682 0.755371 14.4746C0.755371 10.066 0.755371 5.65744 0.755371 1.24889C0.755371 0.933991 0.755371 0.933996 1.07027 0.933996C3.98306 0.776547 6.89586 0.776562 9.80865 0.776562ZM12.7214 9.20004C12.7214 9.20004 12.7214 9.12131 12.7214 9.20004C12.6427 9.12131 12.564 9.12131 12.4853 9.12131C10.8321 9.12131 9.25758 9.12131 7.60438 9.12131C7.28948 9.12131 7.05331 9.12131 6.73841 9.12131C6.65969 9.12131 6.50224 9.12132 6.50224 8.96387C6.50224 8.7277 6.50224 8.49151 6.50224 8.33406C6.50224 8.25534 6.58096 8.17663 6.65969 8.17663C6.73841 8.17663 6.81713 8.25534 6.81713 8.33406C6.81713 8.41279 6.81713 8.49153 6.81713 8.57025C6.81713 8.7277 6.89586 8.80641 7.05331 8.80641C7.84055 8.80641 8.54907 8.80641 9.33631 8.80641C9.49376 8.80641 9.57248 8.7277 9.57248 8.57025C9.57248 7.86173 9.57248 7.15321 9.57248 6.44469C9.57248 6.05107 9.57248 6.05106 9.17886 5.97234C9.10014 5.97234 8.94269 5.89363 8.94269 5.81491C8.94269 5.73618 9.02141 5.65745 9.17886 5.65745C9.33631 5.65745 9.49376 5.65745 9.6512 5.65745C9.9661 5.65745 9.9661 5.65744 9.9661 5.97234C9.9661 6.8383 9.9661 7.70429 9.9661 8.64898C9.9661 8.80643 9.9661 8.88514 10.2023 8.88514C11.147 8.88514 12.0917 8.88514 13.1151 8.88514C13.1938 8.88514 13.3512 8.88514 13.43 8.80641C15.1619 7.07448 16.8938 5.34255 18.547 3.61061C18.6258 3.53189 18.6258 3.45317 18.6258 3.37445C18.6258 2.74466 18.6258 2.03614 18.6258 1.40635C18.6258 1.2489 18.6258 1.24889 18.4683 1.24889C18.1534 1.17016 17.8385 1.24889 17.5236 1.24889C15.0832 1.24889 12.6427 1.24889 10.2023 1.24889C10.0448 1.24889 9.9661 1.2489 9.9661 1.48507C9.9661 2.11487 9.9661 2.74466 9.9661 3.37445C9.9661 3.5319 9.9661 3.61061 9.80865 3.61061C9.57248 3.61061 9.41503 3.61061 9.17886 3.61061C9.10014 3.61061 9.02141 3.5319 9.02141 3.45318C9.02141 3.37446 9.10014 3.29572 9.17886 3.29572C9.25758 3.29572 9.33631 3.29572 9.41503 3.29572C9.57248 3.29572 9.57248 3.29574 9.57248 3.13829C9.57248 2.58722 9.57248 2.03614 9.57248 1.48507C9.57248 1.32763 9.49376 1.24889 9.33631 1.24889C6.65968 1.24889 3.98306 1.24889 1.38516 1.24889C1.22772 1.24889 1.14899 1.2489 1.14899 1.48507C1.14899 3.92552 1.14899 6.36596 1.14899 8.80641C1.14899 8.96386 1.14899 9.0426 1.30644 8.96387C2.01496 8.96387 2.72348 8.96387 3.43199 8.96387C3.58944 8.96387 3.74689 9.0426 3.82561 8.96387C3.90434 8.88515 3.82561 8.7277 3.82561 8.57025C3.82561 8.49153 3.90434 8.33406 3.98306 8.33406C4.14051 8.33406 4.14051 8.4128 4.14051 8.57025C4.14051 8.7277 4.14051 8.88515 4.14051 8.96387C4.14051 9.27877 4.14051 9.27876 3.82561 9.27876C2.95965 9.27876 2.09368 9.27876 1.22772 9.27876C1.07027 9.27876 1.07027 9.27877 1.07027 9.43622C1.07027 11.4043 1.07027 13.3724 1.07027 15.4192C1.07027 15.5767 1.14899 15.5767 1.22772 15.5767C3.43199 15.5767 5.715 15.5767 7.91927 15.5767C8.07672 15.5767 8.15544 15.5767 8.07672 15.4192C8.07672 15.2618 8.07672 15.1044 8.15544 14.9469C8.39162 14.4746 8.70651 14.0022 8.86396 13.4511C9.10013 12.9001 9.41503 12.4277 9.88738 12.0341C10.5172 11.4043 11.147 10.7745 11.7768 10.1447C12.1704 9.67239 12.4853 9.43621 12.7214 9.20004ZM10.8321 13.5299C10.9108 13.4511 10.9108 13.4512 10.9895 13.3724C11.5406 12.8214 12.1704 12.1916 12.7214 11.6405C14.6108 9.75111 16.4215 7.86172 18.3109 5.97234C18.3896 5.89361 18.4683 5.8149 18.3109 5.65745C18.0747 5.42127 17.8385 5.18511 17.6023 4.94893C17.5236 4.79149 17.4449 4.87021 17.2875 4.94893C16.3428 5.89362 15.3193 6.91705 14.3747 7.86174C12.8789 9.3575 11.3831 10.8532 9.9661 12.349C9.88738 12.4277 9.80865 12.5065 9.9661 12.5852C10.2023 12.8214 10.5172 13.0575 10.7533 13.3724C10.7533 13.4512 10.8321 13.5299 10.8321 13.5299ZM16.1066 8.72769C16.1853 8.72769 16.1853 8.72769 16.264 8.72769C16.9726 8.72769 17.6811 8.72769 18.3896 8.72769C18.547 8.72769 18.547 8.64898 18.547 8.57025C18.547 7.86173 18.547 7.15321 18.547 6.44469V6.36596C17.6811 7.1532 16.8938 7.94044 16.1066 8.72769ZM19.8853 4.47658C19.8853 4.39786 19.8066 4.39787 19.8066 4.31915C19.6492 4.1617 19.4917 4.00425 19.3343 3.8468C19.1768 3.68935 19.0981 3.45318 18.9407 3.45318C18.7832 3.45318 18.6258 3.68935 18.4683 3.8468C18.3896 3.92552 18.3896 4.00424 18.4683 4.08296C18.6258 4.24041 18.7832 4.47659 19.0194 4.63404C19.1768 4.71277 19.2556 4.94893 19.413 4.94893C19.5705 4.94893 19.6492 4.71277 19.8066 4.63404C19.7279 4.55532 19.8066 4.55531 19.8853 4.47658ZM10.5172 13.7661C10.2023 13.4512 9.88738 13.1362 9.57248 12.8214C9.49376 13.0575 9.33631 13.2937 9.25758 13.4511C9.10013 13.8448 9.10013 13.8448 9.33631 14.0809C9.33631 14.0809 9.33631 14.0809 9.41503 14.1597C9.49376 14.2384 9.49376 14.2384 9.57248 14.1597C9.9661 14.0809 10.2023 13.9235 10.5172 13.7661ZM18.7045 5.65745C18.7832 5.57872 18.8619 5.42128 18.9407 5.34256C19.0194 5.26383 19.0194 5.18512 18.9407 5.10639C18.7045 4.94894 18.547 4.71276 18.3109 4.47658C17.996 4.16169 17.996 4.16169 17.6811 4.47658C17.6023 4.55531 17.6023 4.63405 17.6811 4.71277C17.9172 4.94894 18.2321 5.26384 18.4683 5.50001C18.6258 5.57874 18.6258 5.57872 18.7045 5.65745ZM8.70651 14.632C8.86396 14.5533 8.94269 14.4746 9.10013 14.4746C9.17886 14.4746 9.17886 14.3958 9.10013 14.3171C8.94269 14.1597 8.94269 14.1597 8.86396 14.3171C8.86396 14.4746 8.78524 14.5533 8.70651 14.632Z" fill="white"/>
<path d="M2.25116 15.9703H1.0703C0.676674 15.9703 0.519226 15.8916 0.519226 15.4192V14.3171V1.09145C0.519226 0.697833 0.59795 0.540375 1.0703 0.540375H17.9173C18.1534 0.540375 18.3109 0.540375 18.5471 0.540375C18.7045 0.540375 18.862 0.54038 18.9407 0.619104C19.0194 0.697828 19.0194 0.855276 19.0194 1.01272C19.0194 1.64252 19.0194 2.27231 19.0194 2.9021C19.1769 2.9021 19.2556 2.98083 19.3343 3.05956L20.2003 3.92553C20.5152 4.24043 20.5152 4.5553 20.2003 4.79148C19.8067 5.1851 19.4918 5.50001 19.0981 5.89363C19.0194 5.97236 19.0194 6.05107 19.0194 6.1298C19.0194 8.64897 19.0194 11.1681 19.0194 13.6873V15.3405C19.0194 15.8129 18.9407 15.8916 18.4683 15.8916H11.147C10.7534 15.8916 10.6746 15.7342 10.5959 15.3405V14.9469C10.5959 14.632 10.7534 14.5533 10.9895 14.5533C11.0683 14.5533 11.3832 14.5533 11.3832 14.9469C11.3832 15.0256 11.3832 15.1831 11.3832 15.1831C11.3832 15.1831 11.4619 15.1831 11.6193 15.1831H13.0364C14.7683 15.1831 16.5002 15.1831 18.2322 15.1831C18.2322 15.1831 18.2322 15.1831 18.3109 15.1831C18.3109 13.215 18.3109 11.3256 18.3109 9.35749C18.3109 9.35749 18.3109 9.35749 18.3109 9.27876C18.3109 9.27876 18.3109 9.27876 18.2322 9.27876C17.4449 9.27876 16.6577 9.27876 15.9492 9.27876C15.8704 9.27876 15.7917 9.27877 15.713 9.35749C15.0045 10.1447 14.2172 10.8532 13.5087 11.6405C12.8002 12.4277 12.013 13.1362 11.3044 13.9235C11.0683 14.1597 10.7534 14.3171 10.4385 14.4746C10.3597 14.5533 10.2023 14.5533 10.1236 14.632C9.72996 14.8682 9.33634 15.0256 8.94271 15.2618H8.86399H8.78527C8.78527 15.3405 8.78527 15.4192 8.78527 15.4192C8.78527 15.8129 8.62782 15.9703 8.31292 15.9703H2.25116ZM4.21926 15.1831C5.47885 15.1831 6.73844 15.1831 7.99802 15.1831C7.99802 14.9469 7.99802 14.7894 8.15547 14.632L8.31292 14.3958C8.54909 14.0022 8.70654 13.6086 8.94271 13.1362C9.17889 12.5852 9.49378 12.1128 9.96613 11.6405C10.3597 11.2469 10.7534 10.8532 11.147 10.4596C11.3832 10.2235 11.6193 9.98729 11.7768 9.82984C11.9342 9.67239 12.0917 9.51494 12.3279 9.35749H7.36823C7.13206 9.35749 6.97461 9.35749 6.73844 9.35749C6.42354 9.35749 6.34482 9.20005 6.34482 9.0426C6.34482 8.80643 6.34482 8.57024 6.34482 8.33406C6.34482 8.17662 6.50226 8.01917 6.73844 8.01917C6.97461 8.01917 7.05333 8.17662 7.13206 8.33406C7.13206 8.41279 7.13206 8.49153 7.13206 8.64898C7.9193 8.64898 8.62782 8.64898 9.41506 8.64898C9.41506 8.09791 9.41506 7.54684 9.41506 7.0745V6.52342C9.41506 6.44469 9.41506 6.28725 9.41506 6.28725C9.41506 6.28725 9.33634 6.28725 9.17889 6.28725C8.86399 6.28725 8.78527 6.05108 8.78527 5.89363C8.78527 5.73619 8.94271 5.57872 9.17889 5.57872H9.65123C10.0449 5.57872 10.1236 5.65745 10.1236 6.05107V6.68088C10.1236 7.38939 10.1236 8.01917 10.1236 8.72768C11.0683 8.72768 12.013 8.72768 13.0364 8.72768C13.1151 8.72768 13.1151 8.7277 13.1938 8.64898C14.9258 6.91705 16.6577 5.18511 18.3109 3.45318C18.3896 3.37445 18.3896 3.37445 18.3896 3.37445C18.3896 2.74466 18.3896 2.11486 18.3896 1.40635C18.1534 1.40635 17.996 1.40635 17.8385 1.40635C17.7598 1.40635 17.6024 1.40635 17.5237 1.40635H14.6896C13.1938 1.40635 11.6981 1.40635 10.2023 1.40635C10.2023 1.79997 10.2023 2.27232 10.2023 2.66594V3.29572C10.2023 3.68934 9.96613 3.76807 9.80868 3.76807C9.57251 3.76807 9.41506 3.76807 9.17889 3.76807C8.94271 3.76807 8.78527 3.61062 8.78527 3.37445C8.78527 3.13828 8.94271 3.05955 9.10016 2.98083C9.17889 2.98083 9.25761 2.98083 9.41506 2.98083C9.41506 2.42976 9.41506 1.87869 9.41506 1.32762C6.73844 1.32762 4.06181 1.32762 1.46392 1.32762C1.46392 3.76807 1.46392 6.20853 1.46392 8.57025C1.93626 8.57025 2.32988 8.57025 2.7235 8.57025H3.58947C3.66819 8.57025 3.66819 8.57025 3.74692 8.57025C3.82564 8.57025 3.82564 8.57025 3.90437 8.57025C3.90437 8.57025 3.90437 8.57025 3.90437 8.49152C3.90437 8.4128 3.90437 8.33406 3.90437 8.33406C3.98309 7.94044 4.21926 7.94044 4.29799 7.94044C4.45544 7.94044 4.61288 8.09789 4.61288 8.33406V8.64898V8.80641C4.61288 9.20004 4.53416 9.35749 4.06181 9.35749H3.3533C2.64478 9.35749 2.01499 9.35749 1.30647 9.35749C1.30647 11.3256 1.30647 13.2937 1.30647 15.2618C2.32988 15.1831 3.27457 15.1831 4.21926 15.1831ZM9.65123 13.215L9.41506 13.6086C9.33634 13.6873 9.33634 13.8448 9.33634 13.8448C9.33634 13.8448 9.41506 13.9235 9.49378 14.0022C9.72996 13.9235 9.8874 13.766 10.1236 13.6873L9.65123 13.215ZM10.1236 12.5852C10.281 12.7426 10.5172 12.9788 10.6746 13.1362L10.8321 13.3724L13.5874 10.6171C15.0832 9.12132 16.6577 7.54683 18.1534 6.05107C17.9173 5.8149 17.6811 5.57873 17.4449 5.34255C16.579 6.20852 15.7917 7.0745 14.9258 7.86174L14.5321 8.25536C13.0364 9.59367 11.6193 11.0894 10.1236 12.5852ZM12.8789 8.96387L12.9576 9.12131C13.0364 9.04258 13.1151 8.96387 13.1938 8.88514C13.0364 8.96387 12.9576 8.96387 12.8789 8.96387ZM17.2875 8.57025C17.6024 8.57025 17.996 8.57025 18.3109 8.57025C18.3109 8.17663 18.3109 7.78301 18.3109 7.38939V6.83831L16.579 8.57025H16.8939C16.9726 8.57025 17.13 8.57025 17.2875 8.57025ZM18.4683 6.20853H18.5471C18.5471 6.20853 18.6258 6.20853 18.6258 6.28725C18.6258 6.28725 18.6258 6.28725 18.6258 6.20853C18.6258 6.1298 18.6258 5.97236 18.7045 5.89363L18.6258 5.8149V5.89363C18.6258 6.05108 18.5471 6.1298 18.4683 6.20853ZM17.996 4.63404C18.1534 4.79149 18.3109 4.94892 18.5471 5.1851L18.7832 5.42128C18.7832 5.34256 18.862 5.34255 18.9407 5.26383C18.7832 5.10638 18.7045 5.02765 18.5471 4.8702L18.3896 4.71277C18.3109 4.63405 18.2322 4.55531 18.2322 4.55531C18.0747 4.55531 17.996 4.63404 17.996 4.63404ZM18.6258 4.00423C18.7045 4.08296 18.7832 4.1617 18.862 4.24042L19.0981 4.47658C19.0981 4.47658 19.1769 4.55532 19.1769 4.63404C19.1769 4.63404 19.2556 4.71275 19.2556 4.79148C19.2556 4.79148 19.3343 4.71277 19.3343 4.63404C19.413 4.55532 19.413 4.55531 19.4918 4.47658L19.413 4.39785C19.2556 4.24041 19.1769 4.16168 19.0194 4.00423C18.9407 3.92551 18.9407 3.92552 18.862 3.8468C18.7832 3.76808 18.7832 3.68934 18.7045 3.68934C18.7045 3.68934 18.6258 3.76808 18.5471 3.8468C18.7045 3.92552 18.7045 4.00423 18.6258 4.00423Z" fill="white"/>
</svg>
