<svg width="16" height="19" viewBox="0 0 16 19" fill="none" xmlns="http://www.w3.org/2000/svg">
<path d="M15.2406 9.52912C15.2406 11.9696 15.2406 14.4888 15.2406 16.9292C15.2406 18.0313 14.4534 18.8186 13.3512 18.8186C9.80865 18.8186 6.26606 18.8186 2.64475 18.8186C1.54261 18.8186 0.755371 18.0313 0.755371 16.9292C0.755371 13.6228 0.755371 10.2376 0.755371 6.93123C0.755371 5.27803 0.755371 3.62482 0.755371 1.97161C0.755371 0.948194 1.54261 0.16095 2.56603 0.16095C5.63627 0.16095 8.70651 0.16095 11.7768 0.16095C12.3278 0.16095 12.8002 0.16095 13.3512 0.16095C14.4534 0.16095 15.1619 0.948187 15.1619 2.05033C15.2406 4.49077 15.2406 7.00995 15.2406 9.52912ZM14.3747 9.52912C14.3747 7.08867 14.3747 4.5695 14.3747 2.12905C14.3747 1.42054 13.981 1.10564 13.2725 1.10564C9.72993 1.10564 6.18734 1.10564 2.64475 1.10564C1.93623 1.10564 1.62134 1.49927 1.62134 2.20778C1.62134 4.25461 1.62134 6.38016 1.62134 8.42699C1.62134 11.2611 1.62134 14.1738 1.62134 17.0079C1.62134 17.6377 2.01496 18.0313 2.64475 18.0313C3.35327 18.0313 4.14051 18.0313 4.84903 18.0313C7.6831 18.0313 10.5172 18.0313 13.2725 18.0313C13.9023 18.0313 14.2959 17.6377 14.2959 17.0079C14.3747 14.41 14.3747 11.9696 14.3747 9.52912Z" fill="white"/>
<path d="M6.89584 4.25461C6.65967 3.54609 6.73839 3.07374 7.21074 2.68012C7.68308 2.36523 8.23415 2.28651 8.70649 2.60141C9.17884 2.9163 9.33629 3.46736 9.10012 4.25461C9.17884 4.25461 9.25756 4.33334 9.33629 4.33334C10.281 4.72696 10.9108 5.27802 11.3044 6.22271C11.3044 6.30144 11.3831 6.38016 11.4618 6.38016C11.698 6.38016 11.9342 6.53761 11.9342 6.77378C11.9342 7.00995 11.7767 7.1674 11.4618 7.1674C10.3597 7.1674 9.25756 7.1674 8.23415 7.1674C7.05329 7.1674 5.7937 7.1674 4.61284 7.1674C4.53411 7.1674 4.45539 7.1674 4.45539 7.1674C4.21922 7.1674 4.06177 7.00995 4.06177 6.77378C4.06177 6.53761 4.21922 6.38016 4.45539 6.38016C4.53411 6.38016 4.61284 6.38016 4.69156 6.22271C5.08518 5.27802 5.7937 4.64823 6.73839 4.25461C6.73839 4.25461 6.81711 4.25461 6.89584 4.25461ZM10.5172 6.38016C10.281 5.67164 9.25756 4.8844 7.99798 4.8844C6.89584 4.8844 5.71498 5.67164 5.55753 6.38016C7.21073 6.38016 8.86394 6.38016 10.5172 6.38016ZM7.99798 4.09716C8.23415 4.09716 8.47032 3.93971 8.47032 3.70354C8.47032 3.46737 8.23415 3.23119 7.99798 3.23119C7.7618 3.23119 7.60436 3.46737 7.60436 3.70354C7.60436 3.86099 7.7618 4.09716 7.99798 4.09716Z" fill="white"/>
<path d="M7.99797 12.2058C6.42349 12.2058 4.849 12.2058 3.27452 12.2058H3.19579C2.8809 12.2058 2.72345 12.0483 2.72345 11.8121C2.72345 11.576 2.8809 11.4185 3.19579 11.4185C4.53411 11.4185 5.95114 11.4185 7.28945 11.4185C9.02138 11.4185 10.832 11.4185 12.564 11.4185C12.6427 11.4185 12.7214 11.4185 12.8001 11.4185C13.0363 11.4185 13.1938 11.576 13.1938 11.8121C13.1938 12.0483 13.0363 12.2058 12.8001 12.2058C12.564 12.2058 12.2491 12.2058 12.0129 12.2058C10.6746 12.2058 9.33628 12.2058 7.99797 12.2058Z" fill="white"/>
<path d="M7.99798 10.0015C6.4235 10.0015 4.84901 10.0015 3.27453 10.0015C3.19581 10.0015 3.11708 10.0015 3.03836 10.0015C2.88091 9.92274 2.80219 9.7653 2.80219 9.60785C2.80219 9.4504 2.88091 9.29295 3.11708 9.21423C3.19581 9.21423 3.35325 9.21423 3.43198 9.21423C6.50222 9.21423 9.49374 9.21423 12.564 9.21423C12.6427 9.21423 12.8002 9.21423 12.8789 9.21423C13.1151 9.21423 13.3512 9.37167 13.3512 9.60785C13.3512 9.84402 13.1938 10.0015 12.8789 10.0015C11.4618 10.0015 9.96609 10.0015 8.54905 10.0015C8.31288 10.0015 8.15543 10.0015 7.99798 10.0015Z" fill="white"/>
<path d="M7.99797 13.5441C9.57245 13.5441 11.1469 13.5441 12.7214 13.5441C12.8001 13.5441 12.9576 13.5441 13.0363 13.6228C13.1938 13.7015 13.2725 13.9377 13.1938 14.0951C13.115 14.2526 13.0363 14.41 12.8001 14.41C12.3278 14.41 11.9342 14.41 11.4618 14.41C8.78521 14.41 6.02987 14.41 3.35324 14.41C3.27452 14.41 3.19579 14.41 3.11707 14.41C2.8809 14.41 2.72345 14.2526 2.72345 14.0164C2.72345 13.7802 2.8809 13.6228 3.11707 13.6228C3.58942 13.6228 4.06176 13.6228 4.45538 13.6228C5.71497 13.5441 6.89583 13.5441 7.99797 13.5441Z" fill="white"/>
<path d="M7.998 16.6143C6.42351 16.6143 4.84903 16.6143 3.27455 16.6143C3.1171 16.6143 2.95965 16.6143 2.88093 16.4568C2.8022 16.2994 2.72348 16.142 2.8022 15.9845C2.88093 15.8271 3.03837 15.7483 3.19582 15.7483C4.14051 15.7483 5.0852 15.7483 6.02989 15.7483C8.23417 15.7483 10.5172 15.7483 12.7214 15.7483C12.8002 15.7483 12.8789 15.7483 13.0363 15.8271C13.1938 15.9058 13.2725 16.0632 13.1938 16.2994C13.1151 16.5356 13.0363 16.6143 12.8002 16.6143C12.0917 16.6143 11.3831 16.6143 10.6746 16.6143C9.80865 16.6143 8.86396 16.6143 7.998 16.6143Z" fill="white"/>
</svg>
