<svg width="7" height="11" viewBox="0 0 7 11" fill="none" xmlns="http://www.w3.org/2000/svg">
<path d="M6.40353 5.64214L1.56142 10.3421C1.56142 10.3421 1.45616 10.4421 1.35089 10.4421C1.24563 10.4421 1.14037 10.4421 1.14037 10.3421L0.614052 9.84214C0.508789 9.74214 0.508789 9.64214 0.508789 9.64214C0.508789 9.54214 0.508789 9.44214 0.614052 9.34214L4.71932 5.44214L0.614052 1.54214C0.508789 1.44214 0.508789 1.34214 0.508789 1.24214C0.508789 1.14214 0.508789 1.04214 0.614052 1.04214L1.14037 0.542139C1.24563 0.442139 1.24563 0.442139 1.35089 0.442139C1.45616 0.442139 1.56142 0.442139 1.56142 0.542139L6.40353 5.24214C6.50879 5.24214 6.50879 5.34214 6.50879 5.44214C6.50879 5.54214 6.50879 5.64214 6.40353 5.64214Z" fill="white"/>
</svg>
