<svg width="19" height="19" viewBox="0 0 19 19" fill="none" xmlns="http://www.w3.org/2000/svg">
<path d="M6.57819 17.9933C4.91731 17.9933 3.25643 17.9866 1.6022 18C1.33645 18 1.27002 17.9261 1.27002 17.664C1.28331 16.5889 1.28331 15.5138 1.27002 14.4387C1.27002 14.1901 1.33645 14.1162 1.58226 14.1162C4.91067 14.1229 8.24571 14.1229 11.5741 14.1162C11.8399 14.1162 11.9063 14.1901 11.9063 14.4522C11.893 15.5273 11.893 16.6024 11.9063 17.6775C11.9063 17.9261 11.8465 18 11.594 18C9.91988 17.9866 8.25236 17.9933 6.57819 17.9933Z" stroke="white" stroke-miterlimit="10"/>
<path d="M6.61814 4.8502C4.95061 4.8502 3.27644 4.84348 1.60892 4.85692C1.34982 4.85692 1.2701 4.79644 1.27675 4.52767C1.29003 3.45257 1.29003 2.37747 1.27675 1.30237C1.27675 1.06719 1.34318 1 1.5757 1C4.93068 1.00672 8.27901 1.00672 11.634 1C11.8532 1 11.913 1.06047 11.913 1.28221C11.8997 2.37075 11.8997 3.45257 11.913 4.54111C11.913 4.78972 11.8532 4.85692 11.6008 4.85692C9.93325 4.84348 8.27902 4.8502 6.61814 4.8502Z" stroke="white" stroke-miterlimit="10"/>
<path d="M12.9628 7.57818C14.6237 7.57818 16.2846 7.5849 17.9388 7.57146C18.2046 7.57146 18.2776 7.64537 18.271 7.90743C18.2577 8.98253 18.2577 10.0576 18.271 11.1327C18.271 11.3746 18.1979 11.4284 17.972 11.4284C14.6303 11.4217 11.2887 11.4217 7.94697 11.4284C7.69451 11.4284 7.62808 11.3612 7.63472 11.1126C7.64801 10.0375 7.64801 8.96237 7.63472 7.88727C7.63472 7.63865 7.70116 7.56474 7.94697 7.57146C9.62113 7.57818 11.2887 7.57818 12.9628 7.57818Z" stroke="white" stroke-miterlimit="10"/>
<path d="M14.4905 16.0313C14.4905 15.4736 14.4972 14.9159 14.4839 14.3515C14.4839 14.1768 14.5304 14.123 14.7098 14.123C15.8126 14.1298 16.9221 14.1298 18.0249 14.123C18.2175 14.123 18.2707 14.1835 18.264 14.3717C18.2574 15.5005 18.2574 16.6294 18.264 17.7582C18.264 17.9329 18.2109 17.9867 18.0382 17.9867C16.9353 17.98 15.8259 17.98 14.7231 17.9867C14.5304 17.9867 14.4839 17.9195 14.4839 17.7381C14.4972 17.1736 14.4905 16.6025 14.4905 16.0313Z" stroke="white" stroke-miterlimit="10"/>
<path d="M5.05702 9.52687C5.05702 10.0779 5.05037 10.6221 5.05702 11.1731C5.05702 11.3411 5.04373 11.4352 4.83114 11.4352C3.72831 11.4217 2.61885 11.4285 1.51602 11.4352C1.32336 11.4352 1.27686 11.3747 1.27686 11.1866C1.2835 10.0577 1.2835 8.92885 1.27686 7.79999C1.27686 7.61857 1.33665 7.57153 1.50938 7.57153C2.6122 7.57825 3.72167 7.57825 4.8245 7.57153C5.01716 7.57153 5.06366 7.63873 5.06366 7.82015C5.05037 8.38458 5.05702 8.95572 5.05702 9.52687Z" stroke="white" stroke-miterlimit="10"/>
<path d="M18.264 2.9419C18.264 3.49961 18.2574 4.06403 18.2707 4.62174C18.2707 4.79644 18.2242 4.8502 18.0448 4.8502C16.9287 4.84348 15.8059 4.84348 14.6898 4.8502C14.5304 4.8502 14.4839 4.79644 14.4839 4.6419C14.4905 3.49961 14.4905 2.35731 14.4839 1.21502C14.4839 1.06047 14.5171 1 14.6832 1C15.7993 1.00672 16.9221 1.00672 18.0382 1C18.2109 1 18.264 1.05375 18.264 1.22846C18.2574 1.79961 18.264 2.37075 18.264 2.9419Z" stroke="white" stroke-miterlimit="10"/>
</svg>
