<svg width="21" height="23" viewBox="0 0 21 23" fill="none" xmlns="http://www.w3.org/2000/svg">
<path d="M10.7533 22C7.36819 21.9213 4.77029 20.7404 2.80219 18.2212C0.912808 15.7808 0.283015 13.0254 0.912808 10.0339C1.30643 8.14454 2.1724 6.57005 3.51071 5.15301C4.21922 4.44449 5.24264 4.44451 5.95116 5.07431C6.65967 5.7041 6.7384 6.80622 6.02988 7.51474C4.92774 8.61688 4.29795 9.95517 4.1405 11.5297C3.8256 14.8361 6.18733 17.9851 9.49374 18.4574C12.1704 18.851 14.7683 17.6702 16.1066 15.3085C17.5236 12.868 17.13 9.71901 15.1619 7.7509C14.5321 7.12111 14.3746 6.41261 14.6895 5.70409C15.1619 4.60195 16.6576 4.28705 17.4449 5.15301C19.0981 6.80622 20.1215 8.85306 20.279 11.2148C20.5151 13.6552 19.9641 15.8595 18.547 17.8276C16.9725 20.0319 14.847 21.3702 12.1704 21.8425C11.698 21.9213 11.147 21.9213 10.7533 22Z" stroke="white" stroke-miterlimit="10"/>
<path d="M8.78522 7.75089C8.78522 6.17641 8.78522 4.52322 8.78522 2.94873C8.78522 2.24022 9.25756 1.61042 9.88736 1.37425C10.5959 1.13808 11.2257 1.2168 11.7767 1.76787C12.0916 2.08277 12.2491 2.47639 12.2491 2.94873C12.2491 6.17643 12.2491 9.3254 12.2491 12.5531C12.2491 13.4978 11.4618 14.2063 10.5171 14.2063C9.57246 14.2063 8.78522 13.419 8.78522 12.4743C8.78522 10.8999 8.78522 9.32537 8.78522 7.75089Z" stroke="white" stroke-miterlimit="10"/>
</svg>
