<svg width="7" height="11" viewBox="0 0 7 11" fill="none" xmlns="http://www.w3.org/2000/svg">
<path d="M0.951943 5.24214L5.79405 0.542139C5.79405 0.542139 5.89931 0.442139 6.00458 0.442139C6.10984 0.442139 6.2151 0.442139 6.2151 0.542139L6.74142 1.04214C6.84668 1.14214 6.84668 1.24214 6.84668 1.24214C6.84668 1.34214 6.84668 1.44214 6.74142 1.54214L2.63615 5.44214L6.74142 9.34214C6.84668 9.44214 6.84668 9.54214 6.84668 9.64214C6.84668 9.74214 6.84668 9.84214 6.74142 9.84214L6.2151 10.3421C6.10984 10.4421 6.10984 10.4421 6.00457 10.4421C5.89931 10.4421 5.79405 10.4421 5.79405 10.3421L0.951943 5.64214C0.84668 5.64214 0.84668 5.54214 0.84668 5.44214C0.84668 5.34214 0.84668 5.24214 0.951943 5.24214Z" fill="white"/>
</svg>
