<svg width="27" height="21" viewBox="0 0 27 21" fill="none" xmlns="http://www.w3.org/2000/svg">
<path d="M19.1705 9.95158H19.3378L19.2492 9.80545L19.072 9.5132C16.8176 5.70414 16.7881 5.67491 16.7585 5.64569C16.6601 5.53853 16.6601 5.53853 14.5435 5.52878C13.3818 5.51904 11.7968 5.51904 10.1822 5.51904H9.82782C8.21328 5.51904 6.82517 5.51904 5.81116 5.52878C3.72407 5.53853 3.72407 5.53853 3.61578 5.61646C3.55671 5.65543 3.51733 5.6944 1.24319 9.52294L1.06598 9.8152L0.99707 9.95158H1.16443H19.1705ZM3.98003 6.12304C4.62978 6.1133 7.48476 6.10355 10.0838 6.10355C12.7517 6.10355 15.6854 6.1133 16.3746 6.12304C16.6404 6.57116 17.5559 8.10063 18.3042 9.36707H2.03077C2.78882 8.08115 3.71422 6.55168 3.98003 6.12304Z" fill="white"/>
<path d="M19.2697 10.7406V10.6432H19.1712H1.13564H1.02734L1.03719 10.7504L1.06672 10.9647C1.1947 12.0558 2.06104 12.65 2.54344 12.8254C2.64188 12.8644 2.67142 12.9033 2.65173 13.2053C2.65173 13.254 2.64188 13.3027 2.64188 13.3417V20.9014V20.9988H2.74033H17.5665H17.665V20.9014V13.4002V13.3417C17.665 13.0592 17.6847 12.9326 17.8028 12.8644C19.2008 12.2214 19.25 10.9842 19.2598 10.9355L19.2697 10.7406ZM14.0913 11.218C13.924 11.7051 13.5006 12.4065 12.4177 12.4065C11.3348 12.4065 10.9213 11.7148 10.754 11.218H14.0913ZM12.4276 12.991C14.0323 12.991 14.554 11.7635 14.7017 11.2472C15.0463 12.4942 15.8634 12.8838 16.2769 13.0007V19.4791H8.38138V12.9618C9.56275 12.7767 10.0156 11.8804 10.183 11.3349C10.3602 11.8902 10.9115 12.991 12.4276 12.991ZM9.61197 11.218C9.44461 11.7051 9.02128 12.4065 7.93836 12.4065C6.85544 12.4065 6.44196 11.7148 6.2746 11.218H9.61197ZM5.63469 11.218H5.67407C5.81189 11.7343 6.24506 12.7572 7.50519 12.952V19.4693L4.09891 19.4011V12.9131C5.28028 12.5916 5.51655 11.6759 5.63469 11.218ZM17.5567 12.3383L17.5468 12.348C17.0841 12.5916 17.094 13.0592 17.094 13.3417V20.4045H3.24241V13.332C3.24241 13.3027 3.24241 13.2735 3.24241 13.2443V13.2345C3.25226 13.0007 3.29164 12.4649 2.75018 12.2701C2.47452 12.1727 1.93306 11.822 1.72632 11.2082H5.01447C4.88649 11.6271 4.65021 12.1727 3.77403 12.3578L3.59682 12.3675L3.50822 12.3773V12.4649V19.8687V19.9662H3.60667L16.779 20.0441H16.8774V19.9467V12.5916V12.5039L16.7888 12.4942L16.6116 12.4747C16.6017 12.4747 15.696 12.3091 15.3121 11.218H18.6101C18.5116 11.5395 18.2458 12.0266 17.5567 12.3383Z" fill="white"/>
<path d="M14.0321 17.6184H14.1305V17.521V15.407V15.3096H14.0321H13.3036L12.7719 14.3159C12.8999 14.0821 12.9196 13.7606 12.8212 13.5268C12.7326 13.3125 12.5455 13.1761 12.3289 13.1761C12.0041 13.1761 11.7678 13.4586 11.7678 13.8483C11.7678 13.9749 11.7973 14.0919 11.8269 14.1795C11.8367 14.199 11.8367 14.2282 11.8465 14.2477C11.8367 14.4036 11.6201 14.8517 11.3346 15.3193H10.6258H10.5273V15.4167V17.5307V17.6281H10.6258H14.0321V17.6184ZM12.3191 14.7056L12.644 15.3096H12.0237C12.1222 15.1245 12.2305 14.9102 12.3191 14.7056ZM11.118 15.8941H13.5398V17.0339H11.118V15.8941V15.8941Z" fill="white"/>
<path d="M21.0315 9.2599C20.8445 9.39629 20.687 9.46448 20.4802 9.49371C20.3424 9.51319 20.2538 9.63009 20.2636 9.76648C20.2833 9.88338 20.3818 9.9808 20.5098 9.9808C20.5196 9.9808 20.5294 9.9808 20.5393 9.9808C20.8248 9.94183 21.0611 9.84442 21.317 9.64958C21.701 9.36707 21.9471 8.95791 22.0062 8.50004C22.0751 8.03243 21.9569 7.57457 21.6714 7.19463C21.4056 6.83418 20.9823 6.59064 20.5098 6.52245C20.0471 6.45425 19.5745 6.56141 19.2201 6.82444C19.1709 6.86341 19.1315 6.92186 19.1216 6.98031C19.1118 7.03876 19.1315 7.10696 19.1709 7.16541C19.2103 7.21412 19.2693 7.25308 19.3284 7.26283C19.3973 7.27257 19.4564 7.25308 19.5154 7.21412C20.0471 6.82444 20.874 6.95109 21.2776 7.49663C21.4844 7.7694 21.5631 8.10063 21.5139 8.43185C21.4844 8.76307 21.3072 9.05533 21.0315 9.2599Z" fill="white"/>
<path d="M26.7516 6.2594H25.9246L25.3832 4.82735L25.9443 4.21362C26.0329 4.1162 26.0231 3.96033 25.9246 3.87265L24.0345 2.16783C23.936 2.08015 23.7982 2.08015 23.6997 2.16783L23.1386 2.68415L21.7997 2.07041V1.35926C21.7997 1.23261 21.7012 1.12545 21.5634 1.11571L18.9644 0.99881C18.8955 0.99881 18.8364 1.01829 18.7872 1.067C18.738 1.11571 18.7084 1.17416 18.7084 1.24236V2.18731L17.3105 2.79131L16.7493 2.17757C16.7001 2.12886 16.641 2.09964 16.5721 2.09964C16.5032 2.09964 16.4441 2.12886 16.3949 2.16783L14.9576 3.59014C14.9084 3.63885 14.8887 3.6973 14.8887 3.76549C14.8887 3.83369 14.9182 3.89214 14.9576 3.94085C15.0462 4.02852 15.2135 4.02852 15.3022 3.94085L16.5524 2.70363L17.0644 3.25892C17.1333 3.33685 17.2514 3.35634 17.3499 3.31737L19.053 2.57699C19.1416 2.53802 19.2007 2.45034 19.2007 2.35293V1.49564L21.2976 1.58332V2.22628C21.2976 2.3237 21.3567 2.41138 21.4453 2.45034L23.0795 3.19072C23.1681 3.22969 23.2764 3.21021 23.3453 3.15176L23.8572 2.67441L25.393 4.06749L24.9008 4.60329C24.8417 4.67148 24.822 4.7689 24.8516 4.85658L25.5112 6.59063C25.5505 6.68805 25.6391 6.7465 25.7376 6.7465H26.4956V8.70461H25.7671C25.6687 8.70461 25.5801 8.76306 25.5407 8.85073L24.8023 10.5945C24.763 10.6822 24.7827 10.7894 24.8516 10.8576L25.4029 11.4226L24.0049 12.8449L23.365 12.2799C23.2862 12.2117 23.178 12.2019 23.0894 12.2506C22.479 12.5624 21.7308 12.9228 21.5733 12.9423C21.4551 12.9618 21.3665 13.0592 21.3665 13.1859V13.8678H19.4271C19.2893 13.8678 19.181 13.9749 19.181 14.1113C19.181 14.2477 19.2893 14.3549 19.4271 14.3549H21.6126C21.7505 14.3549 21.8588 14.2477 21.8588 14.1113V13.3709C22.2329 13.2346 22.8728 12.9131 23.1681 12.767L23.8572 13.3709C23.9557 13.4586 24.1034 13.4489 24.2018 13.3612L25.9246 11.6077C26.0132 11.5103 26.0231 11.3641 25.9246 11.2667L25.3241 10.6432L25.9345 9.1917H26.7516C26.8894 9.1917 26.9977 9.08454 26.9977 8.94815V6.50295C26.9977 6.37631 26.8894 6.2594 26.7516 6.2594Z" fill="white"/>
</svg>
