<svg width="27" height="23" viewBox="0 0 27 23" fill="none" xmlns="http://www.w3.org/2000/svg">
<path d="M2.39275 19.8899L2.39275 19.8899L2.38981 19.8892C1.98318 19.7916 1.59829 19.6513 1.18677 19.5014C1.08134 19.4629 0.974151 19.4239 0.864405 19.3847C0.886558 19.248 0.907379 19.114 0.927846 18.9823C1.00382 18.4935 1.0749 18.0361 1.19115 17.5866L1.19134 17.5859C1.36261 16.9195 1.65697 16.3206 2.06033 15.7348C2.51617 15.1074 3.1176 14.644 3.8283 14.3225C4.73702 13.9151 5.64649 13.5314 6.56123 13.1468C7.27953 14.0307 8.21771 14.6963 9.42736 14.8774C10.467 15.0654 11.4615 14.7744 12.2801 14.1941C12.5491 14.0072 12.7944 13.7789 13.0183 13.5534C12.4136 14.6639 12.1176 15.7871 12.1376 16.9255C12.1588 18.1357 12.5364 19.3259 13.2249 20.4999C12.9774 20.5084 12.734 20.5178 12.493 20.5272C11.7533 20.5557 11.0365 20.5835 10.2919 20.5835C8.87409 20.5835 7.45386 20.5295 6.02964 20.4482C4.81615 20.3683 3.57709 20.1819 2.39275 19.8899Z" stroke="white"/>
<path d="M6.97875 8.61273C6.97227 8.60528 6.96875 8.601 6.96728 8.59918L6.94892 8.57142L6.92304 8.54294C6.40263 7.97029 6.09773 7.28455 6.0256 6.52566C5.99916 6.08994 6.03319 5.86179 6.20421 5.71312C6.3161 5.63247 6.37064 5.52856 6.3947 5.47328C6.42658 5.40003 6.44 5.33132 6.44656 5.28828C6.45919 5.20545 6.45907 5.1254 6.45903 5.0976C6.45903 5.09618 6.45903 5.09489 6.45903 5.09374V5.09135V5.08895V5.08656V5.08417V5.08177V5.07938V5.07699V5.07459V5.0722V5.06981V5.06741V5.06502V5.06262V5.06023V5.05784V5.05544V5.05305V5.05066V5.04826V5.04587V5.04348V5.04108V5.03869V5.0363V5.0339V5.03151V5.02911V5.02672V5.02433V5.02193V5.01954V5.01715V5.01475V5.01236V5.00997V5.00757V5.00518V5.00279V5.00039V4.998V4.9956V4.99321V4.99082V4.98842V4.98603V4.98364V4.98124V4.97885V4.97646V4.97406V4.97167V4.96927V4.96688V4.96449V4.96209V4.9597V4.95731V4.95491V4.95252V4.95013V4.94773V4.94534V4.94295V4.94055V4.93816V4.93577V4.93337V4.93098V4.92858V4.92619V4.9238V4.9214V4.91901V4.91662V4.91422V4.91183V4.90944V4.90704V4.90465V4.90226V4.89986V4.89747V4.89507V4.89268V4.89029V4.88789V4.8855V4.88311V4.88071V4.87832V4.87593V4.87353V4.87114V4.86874V4.86635V4.86396V4.86156V4.85917V4.85678V4.85438V4.85199V4.8496V4.8472V4.84481V4.84242V4.84002V4.83763V4.83523V4.83284V4.83045V4.82805V4.82566V4.82327V4.82087V4.81848V4.81609V4.81369V4.8113V4.80891V4.80651V4.80412V4.80172V4.79933V4.79694V4.79454V4.79215V4.78976V4.78736V4.78497V4.78258V4.78018V4.77779V4.77539V4.773V4.77061V4.76821V4.76582V4.76343V4.76103V4.75864V4.75625V4.75385V4.75146V4.74907V4.74667V4.74428V4.74189V4.73949V4.7371V4.7347V4.73231V4.72992V4.72752V4.72513V4.72274V4.72034V4.71795V4.71556V4.71316V4.71077V4.70837V4.70598V4.70359V4.70119V4.6988V4.69641V4.69401V4.69162V4.68923V4.68683V4.68444V4.68205V4.67965V4.67726V4.67486V4.67247V4.67008V4.66768V4.66529V4.6629V4.6605V4.65811V4.65572V4.65332V4.65093V4.64854V4.64614V4.64375V4.64135V4.63896V4.63657V4.63417V4.63178V4.62939V4.62699V4.6246V4.62221V4.61981V4.61742V4.61503V4.61263V4.61024V4.60784V4.60545V4.60306V4.60066V4.59827V4.59588V4.59348V4.59109V4.5887V4.5863V4.58391V4.58151V4.57912V4.57673V4.57433V4.57194V4.56955V4.56715V4.56476V4.56237V4.55997V4.55758V4.55519V4.55279V4.5504V4.54801V4.54561V4.54322V4.54082V4.53843V4.53604V4.53364V4.53125V4.52886V4.52646V4.52407V4.52168V4.51928V4.51689V4.51449V4.5121V4.50971V4.50731V4.50492V4.50253V4.50013V4.49774V4.49535V4.49295V4.49056V4.48817V4.48577V4.48338V4.48098V4.47859V4.4762V4.4738V4.47141V4.46902V4.46662V4.46423V4.46184V4.45944V4.45705V4.45466V4.45226V4.44987V4.44747V4.44508V4.44269V4.44029V4.4379V4.43551V4.43311V4.43072V4.42833V4.42593V4.42354V4.42114V4.41875V4.41636V4.41396V4.41157V4.40918V4.40678V4.40439V4.402V4.3996V4.39721V4.39482V4.39242V4.39003V4.38763V4.38524V4.38285V4.38045V4.37806V4.37567V4.37327V4.37088V4.36849V4.36609V4.3637V4.36131V4.35891V4.35652V4.35412V4.35173V4.34934V4.34694V4.34455V4.34216V4.33976V4.33737V4.33498V4.33258V4.33019V4.3278V4.3254V4.32301V4.32061V4.31822V4.31583V4.31343V4.31104V4.30865V4.30625V4.30386V4.30147V4.29907V4.29668V4.29429V4.29189V4.2895V4.2871V4.28471V4.28232V4.27992V4.27753V4.27514V4.27274V4.27035V4.26796V4.26556V4.26317V4.26078V4.25838V4.25599V4.25359V4.2512V4.24881V4.24641V4.24402V4.24163V4.23923V4.23684V4.23445V4.23205V4.22966V4.22726V4.22487V4.22248V4.22008V4.21769V4.2153V4.2129V4.21051V4.20812V4.20572V4.20333V4.20094V4.19854V4.19615V4.19375V4.19136V4.18897V4.18657V4.18418V4.18179V4.17939V4.177V4.17461V4.17221V4.16982V4.16743V4.16503V4.16264V4.16024V4.15785V4.15546V4.15306V4.15067V4.14828V4.14588V4.14349V4.1411V4.1387V4.13631V4.13392V4.13152V4.12913V4.12673V4.12434V4.12195V4.11955V4.11716V4.11477V4.11237V4.10998V4.10759V4.10519V4.1028V4.10041V4.09801V4.09562V4.09322V4.09083V4.08844V4.08604V4.08365V4.08126V4.07886V4.07647V4.07408V4.07168V4.06929V4.0669V4.0645V4.06211V4.05971V4.05732V4.05493V4.05253V4.05014V4.04775V4.04535V4.04296V4.04057V4.03817V4.03578V4.03338V4.03099V4.0286V4.0262V4.02381V4.02142V4.01902V4.01663V4.01424V4.01184V4.00945V4.00706V4.00466V4.00227V3.99987V3.99748V3.99509V3.99269V3.9903V3.98791V3.98551V3.98312V3.98073V3.97833V3.97594V3.97355V3.97115V3.96876V3.96636V3.96397V3.96158V3.95918V3.95679V3.9544V3.952V3.94961V3.94722V3.94482V3.94243V3.94004V3.93764V3.93525V3.93285V3.93046V3.92807V3.92567V3.92328V3.92089V3.91849V3.9161V3.91371V3.91131V3.90892V3.90653V3.90413V3.90174V3.89934V3.89695V3.89456V3.89216V3.88977V3.88738V3.88498V3.88259V3.8802V3.8778V3.87541V3.87508C6.48456 2.96543 6.74993 2.16651 7.35141 1.51232C7.72932 1.1094 8.23152 0.847226 8.82207 0.672843C9.46073 0.500092 10.1181 0.452314 10.7721 0.55003C11.4678 0.65399 12.0746 0.827913 12.572 1.19167C12.7788 1.3493 12.9234 1.59166 13.0429 1.92486C13.1191 2.18305 13.257 2.41802 13.3718 2.5916L13.3825 2.60783L13.3944 2.62317C13.6188 2.91119 13.7313 3.25096 13.7783 3.65382C13.8021 3.85819 13.8087 4.07476 13.8121 4.31435C13.8127 4.36 13.8132 4.40678 13.8137 4.45445C13.8159 4.64592 13.8181 4.85172 13.8291 5.05594C13.8336 5.28265 13.931 5.52912 14.0927 5.70135C14.1701 5.79515 14.2118 5.9316 14.2362 6.17722C14.3042 6.88749 14.103 7.52808 13.6847 8.09067L13.6804 8.09644L13.6762 8.10233C13.3363 8.58804 13.0518 9.07576 12.7963 9.61985L12.7962 9.61979L12.7914 9.63078C12.4088 10.4991 11.8018 11.1052 10.9377 11.435L10.9299 11.438L10.9222 11.4412C10.8026 11.4915 10.6758 11.5246 10.5435 11.5525C10.5141 11.5587 10.4788 11.5656 10.4405 11.5731C10.3735 11.5862 10.2976 11.6011 10.2295 11.6168C9.1664 11.5532 8.45398 11.098 7.87152 10.3229C7.58972 9.94358 7.37086 9.48335 7.22228 9.01204C7.1777 8.85149 7.08592 8.73772 7.0407 8.68383C7.02448 8.66448 7.00053 8.6374 6.98731 8.62244C6.9833 8.6179 6.98027 8.61448 6.97875 8.61273Z" stroke="white"/>
<path d="M20.4444 11.1816C20.6334 11.2089 20.8224 11.2361 21.0114 11.2633C21.4164 11.345 21.4704 11.4267 21.4704 11.8625C21.4704 11.9169 21.4434 11.9986 21.4704 12.0531C21.4974 12.271 21.5514 12.4344 21.7944 12.5161C22.0644 12.5978 22.3344 12.734 22.6044 12.8429C22.7664 12.9246 22.8744 12.8974 23.0094 12.7884C23.1174 12.6795 23.2524 12.5706 23.3604 12.4344C23.5224 12.271 23.7114 12.271 23.8734 12.3799C24.2514 12.625 24.5484 12.9246 24.7914 13.3059C24.9264 13.5237 24.9264 13.7144 24.7374 13.8778C24.3594 14.1773 24.1974 14.5041 24.5214 14.9399C24.6024 15.0488 24.6294 15.185 24.6564 15.3212C24.7644 15.648 24.9264 15.7569 25.3043 15.7297C25.4393 15.7297 25.5743 15.7297 25.6823 15.7569C25.7633 15.7841 25.8713 15.8658 25.8983 15.9475C26.0603 16.4377 26.0603 16.9552 25.8983 17.4454C25.8443 17.5815 25.7633 17.6905 25.5743 17.6905C25.4123 17.6905 25.2504 17.6905 25.0884 17.6905C24.8994 17.6905 24.7914 17.7722 24.7374 17.9628C24.6294 18.2624 24.4674 18.562 24.3594 18.8615C24.3324 18.9705 24.3324 19.1066 24.3864 19.1883C24.4944 19.3245 24.6294 19.4607 24.7374 19.5696C24.8724 19.7058 24.8994 19.8964 24.7914 20.0598C24.5214 20.4411 24.2244 20.7951 23.7924 21.0402C23.6034 21.1491 23.4414 21.1491 23.3064 20.9857C22.9824 20.5228 22.6044 20.4683 22.1454 20.7951C22.0644 20.8496 21.9564 20.8768 21.8754 20.904C21.4704 21.0402 21.4164 21.0947 21.4434 21.5032C21.4434 22.1023 21.4164 22.1568 20.8224 22.184C20.4984 22.2113 20.1744 22.184 19.8234 22.1568C19.6074 22.1296 19.4724 21.9934 19.4724 21.7755C19.4724 21.7483 19.4724 21.7483 19.4724 21.7211C19.5264 21.013 19.4454 21.0402 18.8515 20.8223C18.7165 20.7679 18.5815 20.7134 18.4465 20.6589C18.2035 20.5228 18.0145 20.55 17.8525 20.7406C17.3935 21.2581 17.3125 21.2581 16.7185 20.7679C16.4755 20.55 16.3135 20.3049 16.0975 20.0326C15.9895 19.8964 16.0165 19.733 16.1515 19.5968C16.2865 19.4607 16.4215 19.3517 16.5025 19.2156C16.5565 19.1066 16.5835 18.9705 16.5565 18.8343C16.4755 18.562 16.3405 18.3168 16.2595 18.0717C16.1515 17.7449 16.0705 17.6905 15.7195 17.6905C15.6115 17.6905 15.5305 17.6905 15.4225 17.6905C15.1525 17.6905 15.0175 17.5815 14.9905 17.3092C14.9635 16.9007 14.9905 16.4922 14.9905 16.0837C14.9905 15.8386 15.1525 15.7297 15.3685 15.7024C15.3955 15.7024 15.4225 15.7024 15.4495 15.7024C15.9625 15.7841 16.2325 15.539 16.3405 15.0488C16.3675 14.8854 16.4485 14.7492 16.5295 14.6131C16.6375 14.4497 16.5835 14.3135 16.4485 14.1773C16.3135 14.0412 16.2055 13.905 16.0975 13.7961C15.9895 13.6599 15.9895 13.5237 16.0705 13.3876C16.3135 12.9518 16.6645 12.625 17.0695 12.3799C17.2315 12.271 17.3935 12.2982 17.5555 12.4344C18.0685 12.9246 18.0685 12.9246 18.7165 12.625C18.8515 12.5706 19.0135 12.5161 19.1754 12.4616C19.3374 12.4072 19.4184 12.271 19.4184 12.1076C19.4184 12.0803 19.4184 12.0531 19.4184 11.9986C19.4184 11.3178 19.3644 11.2906 20.2014 11.1816C20.3364 11.2089 20.3904 11.2089 20.4444 11.1816ZM20.4444 11.1816C20.4444 11.2089 20.4444 11.1816 20.4444 11.1816ZM23.4144 16.7373C23.4684 15.185 22.0914 13.7688 20.4444 13.7961C18.9055 13.8233 17.5015 15.1033 17.5555 16.8462C17.6095 18.3985 18.8785 19.733 20.5794 19.7058C22.0914 19.6785 23.4414 18.3441 23.4144 16.7373Z" stroke="white"/>
</svg>
