<svg width="21" height="25" viewBox="0 0 21 25" fill="none" xmlns="http://www.w3.org/2000/svg">
<path fill-rule="evenodd" clip-rule="evenodd" d="M0.663495 13.1652C0.751077 13.1239 0.854603 13.137 0.92924 13.1986L1.97161 14.0597C4.60558 15.8012 7.06334 17.7154 9.5122 19.6227C9.73976 19.7714 9.95319 19.837 10.156 19.837C10.3598 19.837 10.5743 19.7708 10.8031 19.6205C12.1148 18.6669 13.4269 17.6697 14.7416 16.6706L14.7426 16.6698C16.0573 15.6706 17.3745 14.6696 18.6921 13.7117C18.6925 13.7114 18.6928 13.7112 18.6932 13.7109L19.3928 13.1907C19.4686 13.1343 19.5698 13.1255 19.6542 13.168C19.7387 13.2104 19.792 13.2969 19.792 13.3914V23.4783C19.792 23.6164 19.68 23.7283 19.542 23.7283H9.71739C6.73372 23.7283 3.75855 23.7284 0.784573 23.9018C0.715859 23.9058 0.648533 23.8813 0.598465 23.8341C0.548398 23.7868 0.52002 23.7211 0.52002 23.6522V13.3914C0.52002 13.2945 0.575913 13.2064 0.663495 13.1652ZM19.292 13.8888L18.9894 14.1137L18.9872 14.1153C17.6739 15.07 16.3603 16.0684 15.0441 17.0687L15.043 17.0695C13.7279 18.0689 12.4104 19.0703 11.0925 20.0284L11.0834 20.0349C10.7876 20.2304 10.4772 20.337 10.156 20.337C9.83479 20.337 9.52448 20.2302 9.22867 20.0347C9.22327 20.0311 9.218 20.0274 9.21289 20.0234C6.75554 18.1094 4.30696 16.2024 1.68481 14.4695C1.67741 14.4646 1.67027 14.4593 1.66343 14.4537L1.02002 13.9222V23.3877C3.9215 23.2283 6.82165 23.2283 9.71382 23.2283H19.292V13.8888Z" fill="white"/>
<path fill-rule="evenodd" clip-rule="evenodd" d="M0.556971 12.939C0.732135 12.8565 0.939186 12.8826 1.08846 13.0059L2.12059 13.8585C4.75671 15.6023 7.21587 17.5173 9.65733 19.4189C9.84859 19.5421 10.0126 19.587 10.156 19.587C10.301 19.587 10.467 19.5411 10.6611 19.4147C11.9686 18.464 13.277 17.4697 14.5903 16.4715L14.5913 16.4708L14.5922 16.4701C15.9062 15.4714 17.2253 14.469 18.5451 13.5095L18.5462 13.5087L19.2436 12.9901C19.3953 12.8773 19.5976 12.8597 19.7665 12.9446C19.9354 13.0295 20.042 13.2024 20.042 13.3914V23.4783C20.042 23.7545 19.8181 23.9783 19.542 23.9783H9.71739C6.73252 23.9783 3.76462 23.9785 0.799126 24.1514C0.661698 24.1594 0.527046 24.1104 0.426912 24.0159C0.326779 23.9215 0.27002 23.7899 0.27002 23.6522V13.3914C0.27002 13.1977 0.381806 13.0215 0.556971 12.939ZM19.5419 13.3914L19.1445 13.6869C19.2201 13.6316 19.3204 13.6233 19.4042 13.6654C19.4887 13.7078 19.542 13.7943 19.542 13.8888L19.5419 13.3914ZM1.17924 13.7294L0.77002 13.3914V13.9222C0.77002 13.8253 0.825913 13.7372 0.913495 13.696C1.00108 13.6547 1.1046 13.6678 1.17924 13.7294ZM0.77002 23.3877V23.6522C0.857923 23.6471 0.945826 23.6421 1.03373 23.6373C0.965149 23.6411 0.898039 23.6165 0.848158 23.5692C0.798278 23.522 0.77002 23.4564 0.77002 23.3877ZM19.542 23.4783V23.2283C19.542 23.3664 19.43 23.4783 19.292 23.4783H19.542ZM19.042 14.3847C17.7619 15.3172 16.481 16.2906 15.1954 17.2677L15.1943 17.2685L15.1932 17.2694C13.8789 18.2682 12.5596 19.2709 11.2395 20.2306L11.2214 20.2437C10.8929 20.4608 10.5351 20.587 10.156 20.587C9.77672 20.587 9.41926 20.4603 9.09084 20.2433C9.08002 20.2361 9.0695 20.2286 9.05928 20.2206C6.60072 18.3057 4.15968 16.4047 1.54698 14.6781C1.53217 14.6683 1.51789 14.6577 1.50421 14.6464L1.27002 14.4529V23.124C4.0903 22.9783 6.90788 22.9783 9.71046 22.9783H19.042V14.3847ZM1.81239 14.2525L1.82265 14.2609C1.82265 14.2609 1.82265 14.2609 1.82265 14.2609C1.82634 14.2634 1.83004 14.2658 1.83373 14.2683C1.82634 14.2634 1.81922 14.2581 1.81239 14.2525ZM9.35858 19.82C9.36123 19.822 9.36387 19.8241 9.36651 19.8261C9.36949 19.8281 9.37247 19.8301 9.37545 19.832C9.36967 19.8282 9.36404 19.8242 9.35858 19.82ZM14.8917 16.8705L14.8927 16.8697C14.7285 16.9945 14.5642 17.1194 14.4 17.2441C14.5639 17.1196 14.7278 16.995 14.8917 16.8705Z" fill="white"/>
<path d="M12.3487 9.91311C12.1732 9.91311 11.8224 9.91311 11.6469 9.39137C10.9452 8.17398 10.2434 6.95659 9.36621 5.56528C9.19078 5.21746 9.19078 5.04354 9.54165 4.69572L10.4188 3.82615C10.7697 3.30441 11.296 2.95659 11.6469 2.43485C11.8224 2.26093 11.8224 2.26093 11.8224 2.26093C11.6469 2.08702 11.6469 1.73919 11.8224 1.39137C11.9978 1.04354 12.3487 0.869629 12.6995 0.869629C13.2259 0.869629 13.4013 1.21746 13.5767 1.39137L15.8574 5.21745C16.3838 6.08702 16.9101 6.95659 17.4364 7.82615C17.6118 8.17398 17.6118 8.34789 17.6118 8.69572C17.6118 8.86963 17.261 9.21746 17.0855 9.21746C16.3838 9.56528 16.0329 9.56528 15.682 9.04354C15.3311 9.21745 14.8048 9.39137 14.2785 9.56528C13.7522 9.56528 13.2259 9.73919 12.6995 9.91311C12.6995 9.91311 12.5241 9.91311 12.3487 9.91311ZM10.2434 5.21745C10.9452 6.43485 11.6469 7.82615 12.5241 9.04354C13.0504 8.86963 13.5767 8.86963 14.1031 8.69572C14.6294 8.5218 15.1557 8.5218 15.5066 8.34789C16.0329 8.17398 16.2083 8.34789 16.5592 8.69572C16.7346 8.69572 16.7346 8.69572 16.7346 8.5218C16.7346 8.5218 16.7346 8.5218 16.7346 8.34789C16.0329 7.47833 15.5066 6.78267 15.1557 5.91311L12.875 2.08702C12.6995 1.91311 12.6995 1.73919 12.6995 1.73919C12.5241 1.73919 12.5241 1.91311 12.5241 1.91311C12.875 2.43485 12.5241 2.95659 12.3487 3.1305C11.8224 3.47832 11.4715 4.00006 11.1206 4.34789L10.2434 5.21745Z" fill="white"/>
<path d="M6.7347 13.0434C6.38382 13.0434 6.03295 12.8695 5.85751 12.6956C5.33119 12.8695 4.62944 12.6956 4.10312 12C3.57681 11.6521 3.40137 11.1304 3.40137 10.6087C3.40137 10.2608 3.57681 9.7391 3.75224 9.39127V9.21736C3.57681 8.69562 3.75224 8.17388 4.27856 7.82606C4.80488 7.65214 5.15575 7.30432 5.50663 7.1304L6.55926 6.43475C6.91014 6.26084 7.26102 6.08692 7.61189 5.7391C7.78733 5.7391 7.96277 5.56519 8.13821 5.56519C8.48909 5.56519 8.48909 5.91301 8.66453 5.91301C9.54172 7.30432 10.2435 8.69562 10.9452 9.91301C10.9452 9.91301 11.1207 10.2608 11.1207 10.4348C10.9452 10.7826 10.7698 10.7826 10.7698 10.7826C9.71716 11.4782 8.48909 12.1739 7.43645 12.6956C7.08558 12.8695 6.91014 13.0434 6.7347 13.0434ZM5.85751 11.8261C6.03295 11.8261 6.20838 11.8261 6.38382 12C6.55926 12.1739 6.7347 12.1739 7.08558 12C8.13821 11.4782 9.19084 10.7826 10.2435 10.2608C9.54172 9.04345 8.83996 7.99997 8.13821 6.78258C7.78733 6.95649 7.43646 7.1304 7.08558 7.30432L6.03295 7.82606C5.68207 8.17388 5.15575 8.34779 4.80488 8.52171C4.62944 8.69562 4.62944 8.86953 4.62944 9.04345C4.80488 9.39127 4.62944 9.56519 4.454 9.91301C4.27856 10.0869 4.27856 10.2608 4.27856 10.4348C4.27856 10.7826 4.454 11.1304 4.80488 11.4782C5.15575 11.8261 5.50663 12 5.68207 11.8261C5.68207 11.8261 5.68207 11.8261 5.85751 11.8261Z" fill="white"/>
<path d="M10.0681 16.5217C9.89266 16.5217 9.71723 16.5217 9.54179 16.3477C9.01547 15.6521 8.31372 14.7825 7.61196 14.0869C7.61196 14.0869 7.43652 13.913 7.43652 13.5651C7.43652 13.3912 7.61196 13.2173 7.7874 13.2173C8.13828 13.0434 8.48916 12.8695 8.84003 12.5217L9.54179 12.1738C9.71723 12.1738 9.89266 12.1738 10.0681 12.5217C10.2435 12.8695 10.419 13.2173 10.419 13.739C10.419 13.913 10.419 14.0869 10.5944 14.2608C10.7699 14.4347 10.9453 14.6086 11.1207 14.7825C11.2962 14.9564 11.2962 14.9564 11.4716 15.1304C11.6471 15.3043 11.6471 15.4782 11.6471 15.6521C11.6471 15.826 11.4716 15.9999 11.2962 15.9999C11.1207 16.1738 10.7699 16.3477 10.419 16.5217C10.419 16.5217 10.2435 16.5217 10.0681 16.5217ZM8.48915 13.739C9.01547 14.4347 9.71723 14.9564 10.2435 15.6521C10.419 15.6521 10.419 15.4782 10.5944 15.4782C10.419 15.1303 10.2435 15.1304 10.0681 14.9564C9.71723 14.6086 9.54179 14.0869 9.54179 13.739C9.54179 13.5651 9.54179 13.3912 9.36635 13.2173V13.2173C9.01547 13.3912 8.84003 13.5651 8.48915 13.739Z" fill="white"/>
<path d="M18.1386 4.69556C18.6649 4.69556 19.3667 4.86947 19.893 4.86947C20.2439 4.86947 20.4193 5.04338 20.4193 5.2173C20.4193 5.39121 20.2439 5.56512 19.893 5.56512C19.1913 5.56512 18.6649 5.39121 17.9632 5.39121C17.6123 5.39121 17.6123 5.2173 17.6123 5.04338C17.6123 4.69556 17.7877 4.69556 18.1386 4.69556Z" fill="white"/>
<path d="M17.6121 3.65223C17.4367 3.65223 17.2612 3.47832 17.2612 3.30441C17.2612 3.13049 17.2612 2.95658 17.4367 2.78267C17.6121 2.60875 17.963 2.43484 18.1384 2.43484C18.4893 2.26093 18.8402 2.08701 19.1911 1.9131C19.3665 1.73919 19.5419 1.9131 19.7174 2.08701C19.8928 2.26093 19.7174 2.43484 19.5419 2.60875C19.0156 2.95658 18.3139 3.30441 17.6121 3.65223Z" fill="white"/>
<path d="M16.9103 0C17.2612 0 17.4366 0.173913 17.2612 0.521739C17.0858 1.04348 16.9103 1.73913 16.7349 2.26087C16.7349 2.43478 16.5594 2.6087 16.2086 2.6087C16.0331 2.6087 15.8577 2.43478 16.0331 2.08696C16.0331 1.56522 16.2086 1.04348 16.384 0.521739C16.384 0.347826 16.384 0.347826 16.5594 0.173913C16.5594 0 16.7349 0 16.9103 0Z" fill="white"/>
<path d="M17.0859 4.34776C17.0859 4.52168 17.0859 4.69559 16.9105 4.8695C16.9105 5.04341 16.735 5.04341 16.735 4.8695C16.3841 4.52168 16.0333 3.99994 15.8578 3.4782C15.6824 3.30428 15.8578 3.30428 16.0333 3.13037C16.5596 3.13037 17.0859 3.82602 17.0859 4.34776Z" fill="white"/>
</svg>
