<svg width="28" height="21" viewBox="0 0 28 21" fill="none" xmlns="http://www.w3.org/2000/svg">
<path d="M27.1489 7.15877C27.0907 5.36475 26.3332 3.69413 25.0126 2.44116C23.7017 1.1882 21.9732 0.504761 20.1379 0.504761C20.0699 0.504761 19.9922 0.504761 19.9242 0.504761C17.8461 0.561714 15.9137 1.52042 14.6222 3.11511C14.5737 3.17206 14.5542 3.248 14.564 3.32393C14.5737 3.39987 14.6125 3.46632 14.6708 3.51378C14.7193 3.55175 14.7873 3.57073 14.8553 3.57073C14.9427 3.57073 15.0301 3.53276 15.0883 3.46632C16.2633 2.00452 18.0404 1.13124 19.9436 1.07429C20.0116 1.07429 20.0796 1.07429 20.1379 1.07429C23.5754 1.07429 26.4595 3.80803 26.5663 7.16826C26.6731 10.6329 23.8764 13.5375 20.3321 13.6419C20.2641 13.6419 20.1961 13.6419 20.1379 13.6419C19.9922 13.6419 19.8465 13.6324 19.7009 13.6324C19.6912 13.6324 19.6912 13.6324 19.6815 13.6324C19.5261 13.6324 19.3998 13.7463 19.3901 13.8982C19.3804 14.0596 19.497 14.1925 19.662 14.202C19.8174 14.2115 19.9825 14.2209 20.1379 14.2209C20.2058 14.2209 20.2835 14.2209 20.3515 14.2209C22.2256 14.164 23.9638 13.3951 25.2456 12.0662C26.5275 10.7278 27.2072 8.98127 27.1489 7.15877Z" fill="white"/>
<path d="M20.2936 5.77292C20.1286 5.77292 20.0023 5.89632 20.0023 6.05768V7.22522H18.8079C18.6428 7.22522 18.5166 7.34862 18.5166 7.50999C18.5166 7.67135 18.6428 7.79475 18.8079 7.79475H20.0023V8.9528C20.0023 9.11417 20.1286 9.23756 20.2936 9.23756C20.4587 9.23756 20.585 9.11417 20.585 8.9528V7.79475H21.7794C21.9445 7.79475 22.0707 7.67135 22.0707 7.50999C22.0707 7.34862 21.9445 7.22522 21.7794 7.22522H20.585V6.05768C20.585 5.90581 20.449 5.77292 20.2936 5.77292Z" fill="white"/>
<path d="M18.6812 9.3135C16.4575 5.60206 16.4283 5.57358 16.3992 5.54511C16.3021 5.44069 16.3021 5.44069 14.2143 5.4312C13.0684 5.42171 11.505 5.42171 9.9125 5.42171H9.56291C7.97037 5.42171 6.60117 5.42171 5.60098 5.4312C3.54233 5.44069 3.54233 5.44069 3.43551 5.51663C3.37725 5.5546 3.3384 5.59257 1.09525 9.32299L0.920458 9.60776L0.842773 9.74065H1.00785H18.7686H18.9337L18.8463 9.59826L18.6812 9.3135ZM1.86239 9.17112C2.61011 7.91815 3.52291 6.42788 3.78509 6.01022C4.42599 6.00073 7.24207 5.99124 9.80568 5.99124C12.4373 5.99124 15.331 6.00073 16.0108 6.01022C16.273 6.44686 17.176 7.93713 17.914 9.17112H1.86239Z" fill="white"/>
<path d="M0.978887 10.4051H0.87207L0.881781 10.5095L0.910913 10.7183C1.03715 11.7815 1.89169 12.3605 2.36751 12.5313C2.46461 12.5693 2.49374 12.6073 2.47432 12.9015C2.47432 12.949 2.46461 12.9965 2.46461 13.0344V20.4003V20.4953H2.56172H17.1859H17.283V20.4003V13.0914V13.0344C17.283 12.7592 17.3024 12.6358 17.419 12.5693C18.7979 11.9428 18.8464 10.7373 18.8561 10.6899L18.8659 10.4905V10.3956H18.7687H0.978887V10.4051ZM13.7581 10.9746C13.593 11.4492 13.1754 12.1327 12.1073 12.1327C11.0391 12.1327 10.6312 11.4587 10.4662 10.9746H13.7581ZM12.117 12.7022C13.6998 12.7022 14.2145 11.5062 14.3601 11.0031C14.7 12.2181 15.506 12.5978 15.9138 12.7117V19.0145H8.12591V12.6642C9.29118 12.4839 9.73787 11.6106 9.90295 11.079C10.0777 11.6296 10.6215 12.7022 12.117 12.7022ZM9.33973 10.9746C9.17465 11.4492 8.7571 12.1327 7.68893 12.1327C6.62076 12.1327 6.21291 11.4587 6.04783 10.9746H9.33973ZM5.41664 10.9746H5.45548C5.59143 11.4777 6.0187 12.4744 7.26166 12.6642V19.0145L3.90178 18.948V12.6263C5.06706 12.313 5.30011 11.4208 5.41664 10.9746ZM17.1762 12.0662L17.1665 12.0757C16.7101 12.313 16.7198 12.7686 16.7198 13.0439V19.9257H3.05696V13.0344C3.05696 13.0059 3.05696 12.9775 3.05696 12.949V12.9395C3.06667 12.7117 3.10551 12.1896 2.57143 11.9998C2.29953 11.9049 1.76545 11.5631 1.56152 10.9651H4.80487C4.67863 11.3733 4.44558 11.9049 3.58133 12.0852L3.40654 12.0947L3.31915 12.1042V12.1896V19.4037V19.4986H3.41625L16.4091 19.5745H16.5062V19.4796V12.3035V12.2181L16.4188 12.2086L16.244 12.1896C16.2343 12.1896 15.3409 12.0283 14.9622 10.9651H18.2152C18.1181 11.2879 17.8559 11.7625 17.1762 12.0662Z" fill="white"/>
<path d="M13.6992 17.211H13.7963V17.1161V15.0563V14.9613H13.6992H12.9806L12.4562 13.9931C12.5824 13.7653 12.6019 13.4521 12.5048 13.2243C12.4174 13.0154 12.2329 12.8826 12.0192 12.8826C11.6988 12.8826 11.4657 13.1578 11.4657 13.5375C11.4657 13.6609 11.4949 13.7748 11.524 13.8602C11.5337 13.8792 11.5337 13.9077 11.5434 13.9267C11.5337 14.0786 11.3201 14.5152 11.0385 14.9708H10.3393H10.2422V15.0658V17.1161V17.211H10.3393H13.6992ZM12.0095 14.3728L12.33 14.9613H11.7182C11.8153 14.781 11.9221 14.5722 12.0095 14.3728ZM10.8248 15.5309H13.2136V16.6415H10.8248V15.5309V15.5309Z" fill="white"/>
</svg>
