<svg width="21" height="24" viewBox="0 0 21 24" fill="none" xmlns="http://www.w3.org/2000/svg">
<path d="M9.24447 22.9875C9.16575 22.8301 9.0083 22.5939 9.0083 22.4365C9.0083 17.7917 9.0083 13.147 9.0083 8.50228C9.0083 8.10866 9.16575 7.95121 9.48065 8.02993C12.8658 8.02993 16.3296 8.02993 19.7148 8.02993C19.8722 8.02993 20.1084 8.18738 20.2659 8.26611C20.2659 13.147 20.2659 18.1066 20.2659 23.0663C16.6445 22.9875 12.9445 22.9875 9.24447 22.9875ZM19.5573 8.73845C16.2509 8.73845 13.0232 8.73845 9.79554 8.73845C9.79554 13.2257 9.79554 17.713 9.79554 22.2003C13.102 22.2003 16.3297 22.2003 19.5573 22.2003C19.5573 17.713 19.5573 13.2257 19.5573 8.73845Z" fill="white"/>
<path d="M0.27002 15.1938C0.506192 14.4852 0.66364 13.7767 0.899813 13.1469C1.29343 12.1235 2.00195 11.415 3.02537 11.0214C4.04878 10.6278 5.0722 10.1554 6.09561 9.68308C5.38709 8.65966 4.91475 7.71497 4.67857 6.61283C4.4424 4.64473 4.67857 2.91279 5.93816 1.33831C6.41051 0.629794 7.11902 0.236173 7.90627 0C8.29989 0 8.69351 0 9.08713 0C11.0552 0.708518 11.9212 2.36173 12.2361 4.25111C12.3935 5.11707 12.2361 5.98304 12.1574 6.92773C12.1574 7.24263 12.0786 7.55752 11.6063 7.40007C11.2127 7.32135 11.3701 7.00645 11.3701 6.69156C11.6063 5.43197 11.6063 4.17238 11.134 2.99152C10.9765 2.51917 10.7403 2.12555 10.4254 1.73193C9.3233 0.157448 7.43392 0.236173 6.33178 1.81066C5.46582 3.07024 5.22964 4.48728 5.38709 5.90431C5.46582 6.69156 5.70199 7.4788 6.01689 8.26604C6.33178 9.05328 7.0403 9.68308 7.90627 9.91925C8.14244 9.99797 8.45733 10.0767 8.29989 10.3916C8.22116 10.549 7.90627 10.549 7.74882 10.549C7.67009 10.549 7.59137 10.549 7.59137 10.4703C6.96157 9.99797 6.41051 10.2341 5.78071 10.549C5.07219 10.8639 4.4424 11.2576 3.65516 11.4937C2.1594 11.9661 1.45088 13.1469 1.13599 14.564C0.899813 15.6661 0.978537 15.5087 1.8445 15.7448C3.65516 16.2959 5.46582 16.3746 7.27647 16.3746C7.43392 16.3746 7.67009 16.3746 7.82754 16.3746C7.98499 16.4534 8.06371 16.6108 8.22116 16.7683C8.06371 16.847 7.90627 17.0831 7.82754 17.0831C7.19775 17.0831 6.48923 17.0831 5.85944 17.0044C4.20623 16.9257 2.55302 16.7683 0.978537 16.2172C0.742365 16.1385 0.506192 15.9023 0.27002 15.7448C0.27002 15.5087 0.27002 15.3512 0.27002 15.1938Z" fill="white"/>
<path d="M14.6767 19.3662C15.8575 19.3662 17.0384 19.3662 18.2193 19.3662C18.4554 19.3662 18.6916 19.3662 18.7703 19.6811C18.7703 19.996 18.5342 20.0747 18.298 20.0747C15.9363 20.0747 13.4958 20.0747 11.1341 20.0747C10.8979 20.0747 10.583 20.0747 10.6617 19.6811C10.6617 19.3662 10.8979 19.3662 11.2128 19.3662C12.315 19.3662 13.4958 19.3662 14.6767 19.3662Z" fill="white"/>
<path d="M14.6768 12.9895C15.8576 12.9895 17.0385 12.9895 18.2194 12.9895C18.5343 12.9895 18.7704 13.0682 18.7704 13.3831C18.7704 13.698 18.4555 13.698 18.2194 13.698C15.8576 13.698 13.4172 13.698 11.0555 13.698C10.8193 13.698 10.5044 13.7767 10.5044 13.3831C10.5044 12.9895 10.8193 12.9895 11.0555 12.9895C12.3151 12.9895 13.4959 12.9895 14.6768 12.9895Z" fill="white"/>
<path d="M14.5979 11.5724C13.4171 11.5724 12.2362 11.5724 11.0554 11.5724C10.8192 11.5724 10.583 11.5724 10.583 11.2575C10.583 10.9426 10.8192 10.9426 11.0554 10.9426C13.4171 10.9426 15.8575 10.9426 18.2193 10.9426C18.3767 10.9426 18.6916 11.1001 18.6916 11.2575C18.7703 11.5724 18.4554 11.6511 18.2193 11.6511C17.0384 11.5724 15.8575 11.5724 14.5979 11.5724Z" fill="white"/>
<path d="M14.5981 15.8235C13.4172 15.8235 12.2363 15.8235 11.0555 15.8235C10.8193 15.8235 10.5044 15.8235 10.5044 15.5086C10.5044 15.115 10.7406 15.115 11.0555 15.115C13.4172 15.115 15.7789 15.115 18.1406 15.115C18.4555 15.115 18.6917 15.115 18.6917 15.5086C18.6917 15.8235 18.4555 15.9022 18.1406 15.9022C17.0385 15.8235 15.8576 15.8235 14.5981 15.8235Z" fill="white"/>
<path d="M14.5981 17.9491C13.4172 17.9491 12.2363 17.9491 11.0555 17.9491C10.8193 17.9491 10.5044 17.9491 10.5831 17.6342C10.5831 17.4768 10.898 17.3193 11.0555 17.3193C13.4172 17.3193 15.8577 17.3193 18.2194 17.3193C18.4555 17.3193 18.7704 17.3193 18.7704 17.6342C18.7704 17.9491 18.5343 17.9491 18.2194 17.9491C17.0385 17.9491 15.8577 17.9491 14.5981 17.9491Z" fill="white"/>
</svg>
