<svg width="11" height="7" viewBox="0 0 11 7" fill="none" xmlns="http://www.w3.org/2000/svg">
<path d="M5.64668 6.74477L0.94668 1.90267C0.94668 1.90267 0.84668 1.7974 0.84668 1.69214C0.84668 1.58688 0.84668 1.48162 0.94668 1.48162L1.44668 0.955299C1.54668 0.850036 1.64668 0.850036 1.64668 0.850036C1.74668 0.850036 1.84668 0.850036 1.94668 0.955299L5.84668 5.06056L9.74668 0.9553C9.84668 0.850037 9.94668 0.850037 10.0467 0.850037C10.1467 0.850037 10.2467 0.850037 10.2467 0.9553L10.7467 1.48162C10.8467 1.58688 10.8467 1.58688 10.8467 1.69214C10.8467 1.79741 10.8467 1.90267 10.7467 1.90267L6.04668 6.74477C6.04668 6.85004 5.94668 6.85004 5.84668 6.85004C5.74668 6.85004 5.64668 6.85004 5.64668 6.74477Z" fill="white"/>
</svg>
