<svg width="26" height="24" viewBox="0 0 26 24" fill="none" xmlns="http://www.w3.org/2000/svg">
<path d="M7.73592 3.59277C6.11078 3.59277 4.79004 4.9353 4.79004 6.58726C4.79004 8.23922 6.11078 9.58174 7.73592 9.58174C9.36106 9.58174 10.6818 8.23922 10.6818 6.58726C10.6818 4.9353 9.36106 3.59277 7.73592 3.59277ZM7.73592 7.58542C7.19584 7.58542 6.75396 7.13625 6.75396 6.58726C6.75396 6.03827 7.19584 5.5891 7.73592 5.5891C8.276 5.5891 8.71788 6.03827 8.71788 6.58726C8.71788 7.13625 8.276 7.58542 7.73592 7.58542Z" fill="#AFAFAF"/>
<path d="M25.018 18.017H22.3177V15.2721C22.3177 14.7231 21.8758 14.2739 21.3357 14.2739C20.7956 14.2739 20.3537 14.7231 20.3537 15.2721V18.017H17.6533C17.1133 18.017 16.6714 18.4662 16.6714 19.0152C16.6714 19.5642 17.1133 20.0134 17.6533 20.0134H20.3537V22.7583C20.3537 23.3073 20.7956 23.7565 21.3357 23.7565C21.8758 23.7565 22.3177 23.3073 22.3177 22.7583V20.0134H25.018C25.5581 20.0134 26 19.5642 26 19.0152C26 18.4662 25.5581 18.017 25.018 18.017Z" fill="#AFAFAF"/>
<path d="M22.0722 0H4.78966C2.62444 0 0.861816 1.7917 0.861816 3.99265V17.9669C0.861816 20.1679 2.62444 21.9596 4.78966 21.9596H14.1183C14.4914 21.9596 14.8351 21.745 15.002 21.4006C15.169 21.0612 15.1248 20.652 14.8989 20.3525L12.3311 16.9787L19.4503 7.77568L24.0361 13.3404V15.0223C24.0361 15.5713 24.478 16.0205 25.018 16.0205C25.5581 16.0205 26 15.5713 26 15.0223V3.99265C26 1.7917 24.2374 0 22.0722 0ZM24.0361 10.2312L20.1721 5.54479C19.9806 5.31521 19.7007 5.18046 19.4061 5.19044C19.1115 5.19543 18.8317 5.33517 18.65 5.56974L11.0889 15.3467L8.5162 11.963C8.32962 11.7184 8.04486 11.5737 7.74045 11.5737C7.43604 11.5737 7.15127 11.7184 6.9647 11.963L4.80439 14.8177C4.47543 15.2569 4.55399 15.8808 4.98605 16.2151C5.41811 16.5495 6.03184 16.4697 6.36079 16.0305L7.74536 14.1989L12.1151 19.9632H4.78966C3.70459 19.9632 2.82574 19.0699 2.82574 17.9669V3.99265C2.82574 2.88968 3.70459 1.99632 4.78966 1.99632H22.0722C23.1572 1.99632 24.0361 2.88968 24.0361 3.99265V10.2312Z" fill="#AFAFAF"/>
</svg>
