<svg width="24" height="25" viewBox="0 0 24 25" fill="none" xmlns="http://www.w3.org/2000/svg">
<path d="M19.3456 4.51314L20.1931 5.33227V4.15362V0.894546C20.1931 0.676935 20.37 0.5 20.5902 0.5C20.812 0.5 20.989 0.674041 20.9925 0.897639V6.25136C20.9925 6.41889 20.8831 6.57122 20.723 6.62367L20.7211 6.6243L15.3493 8.40816L15.3476 8.40874C15.1453 8.47674 14.9176 8.36504 14.8474 8.15759C14.7793 7.95591 14.8875 7.7322 15.098 7.66223L19.0639 6.34395L19.7956 6.10073L19.2751 5.53192C17.3177 3.393 14.5502 2.17841 11.6459 2.17841C5.93144 2.17841 1.29411 6.79486 1.29411 12.4975C1.29411 12.717 1.1206 12.892 0.897066 12.892C0.675436 12.892 0.500017 12.7137 0.500018 12.4975L0.500017 12.4966C0.494999 9.6142 1.61908 6.84114 3.62713 4.76852C7.8996 0.367981 14.9383 0.25325 19.3456 4.51314Z" stroke="#C4C4C4"/>
<path d="M4.21696 18.6561L3.48527 18.8993L4.00582 19.4681C5.96325 21.607 8.73073 22.8216 11.635 22.8216C17.3495 22.8216 21.9868 18.2052 21.9868 12.5026C21.9868 12.285 22.1636 12.108 22.3838 12.108C22.6021 12.108 22.7756 12.2831 22.7756 12.4973L22.7756 12.4991C22.7857 15.3862 21.6618 18.1588 19.6488 20.2313L19.6485 20.2316C15.3816 24.6318 8.34276 24.7471 3.92983 20.4867L3.08255 19.6687V20.8464V24.1055C3.08255 24.325 2.90904 24.5 2.6855 24.5C2.46387 24.5 2.28845 24.3217 2.28845 24.1055V18.7487C2.28845 18.5812 2.39782 18.4288 2.55791 18.3764L2.55791 18.3764L2.5598 18.3757L7.9316 16.5919L7.93333 16.5913C8.13879 16.5222 8.36341 16.6329 8.43292 16.8409L8.43346 16.8425C8.50163 17.0441 8.39338 17.2678 8.18286 17.3378L4.21696 18.6561Z" stroke="#C4C4C4"/>
</svg>
