<svg width="193" height="193" viewBox="0 0 193 193" fill="none" xmlns="http://www.w3.org/2000/svg">
<path d="M96.8555 192.855C149.875 192.855 192.855 149.875 192.855 96.8555C192.855 43.8361 149.875 0.855469 96.8555 0.855469C43.8361 0.855469 0.855469 43.8361 0.855469 96.8555C0.855469 149.875 43.8361 192.855 96.8555 192.855Z" fill="#F16553"/>
<path fill-rule="evenodd" clip-rule="evenodd" d="M96.847 18.0625C53.3303 18.0625 18.0531 53.3397 18.0531 96.8564C18.0531 140.373 53.3303 175.65 96.847 175.65C140.364 175.65 175.641 140.373 175.641 96.8564C175.641 53.3397 140.364 18.0625 96.847 18.0625ZM12.9912 96.8564C12.9912 50.5441 50.5347 13.0006 96.847 13.0006C143.159 13.0006 180.703 50.5441 180.703 96.8564C180.703 143.169 143.159 180.712 96.847 180.712C50.5347 180.712 12.9912 143.169 12.9912 96.8564Z" fill="white"/>
<path d="M115.505 62.3075C115.199 67.1992 119.174 71.4795 124.065 71.4795C128.957 71.7852 133.237 67.8107 133.237 62.919C133.543 58.0273 129.569 53.747 124.677 53.747C119.785 53.4413 115.505 57.4158 115.505 62.3075Z" fill="white"/>
<path d="M53.4287 58.9434C53.4287 64.7523 58.0147 69.9497 63.8236 69.9497C69.6325 69.9497 74.83 65.3637 74.83 59.2491C75.1357 53.4402 70.5497 48.5484 64.4351 48.2427C58.3204 47.937 53.7344 52.8287 53.4287 58.9434Z" fill="white"/>
<path d="M120.085 84.0139C114.276 80.0394 108.162 76.0649 102.353 72.0904C99.9069 70.5617 98.0725 71.1732 96.5439 73.3133C91.9579 80.6509 87.0662 87.9885 82.1744 95.0203C81.2572 96.2432 80.6458 97.7719 79.4229 98.9948C80.0343 100.218 80.6458 101.441 81.2572 102.358C86.7604 93.7974 92.5693 85.2369 98.0725 76.6764C104.493 80.9566 110.913 85.2369 117.334 89.2114C117.334 89.5171 117.028 89.5171 117.028 89.8229C112.748 96.2432 108.773 102.358 104.493 109.084C103.881 110.001 103.576 111.53 102.964 112.753C103.881 113.364 104.493 113.67 105.716 113.976C106.022 113.67 106.022 113.364 106.327 113.059C111.219 105.415 116.111 97.7719 121.308 90.1286C122.531 87.9885 122.225 85.2369 120.085 84.0139Z" fill="white"/>
<path d="M126.507 117.033C122.838 113.059 116.723 112.753 112.749 116.422C108.774 120.091 108.468 126.205 112.137 130.18L123.449 142.409C127.118 146.384 133.233 146.689 137.207 143.02C141.182 139.352 141.488 133.237 137.819 129.263L126.507 117.033Z" fill="white"/>
<path d="M73.9287 76.9822C73.9287 80.0395 75.7631 82.1796 78.8204 82.1796C81.8778 82.1796 84.0179 79.7338 84.0179 77.2879C84.0179 74.2306 82.1835 72.0905 79.1262 72.0905C76.3746 72.0905 73.9287 73.9249 73.9287 76.9822Z" fill="white"/>
<path d="M93.4932 90.1292C89.213 96.5496 85.2384 102.97 80.9582 109.39C80.9582 109.696 80.6524 110.002 80.6524 110.002C80.6524 108.473 80.6524 106.639 80.6524 105.11C80.6524 104.193 80.6524 103.581 80.3467 102.359C80.041 101.136 79.1238 100.83 77.5951 100.524C76.6779 100.524 75.7607 100.83 75.1493 101.747C74.8435 102.359 74.5378 103.276 74.5378 104.499C74.2321 109.696 73.9263 115.199 73.3149 120.397L54.0537 144.855H79.1238L85.8499 132.932C86.7671 133.543 87.6843 133.543 89.213 133.543C91.6588 133.238 93.4932 132.015 95.0219 130.18C98.3849 126.206 101.442 122.537 104.5 118.562C105.417 117.339 105.111 115.199 103.888 114.282C102.971 113.671 101.442 113.365 100.219 113.671C100.525 113.059 101.137 112.448 101.442 111.836C102.359 110.308 101.748 108.779 100.525 107.862C99.6079 107.25 98.0792 107.25 97.162 107.862C97.7735 106.333 98.3849 104.804 97.162 103.581C95.9391 102.359 94.4104 102.359 92.8817 102.97C93.1875 102.359 93.4932 102.359 93.4932 102.053C95.3276 98.9955 97.162 96.5496 98.9964 93.4923C99.6079 92.2694 99.6079 90.7407 98.9964 89.8235C98.3849 88.9063 97.4677 88.6006 96.5505 88.6006C95.6333 88.6006 94.1047 88.9063 93.4932 90.1292Z" fill="white"/>
</svg>
