<svg width="24" height="21" viewBox="0 0 24 21" fill="none" xmlns="http://www.w3.org/2000/svg">
<path d="M12.0158 21C9.01937 21 6.0229 21 3.02643 21C0.868976 21 0.0299647 20.0813 0.0299647 17.6753C-0.00998823 14.1756 -0.00998823 10.6759 0.0299647 7.17614C0.0699176 5.03257 0.908929 3.89517 2.74676 4.02641C4.94417 4.15764 6.54229 3.72018 6.98177 1.00791C7.10163 0.307964 7.66097 0.00173898 8.34017 0.00173898C10.7373 0.0454854 13.1345 0.0454854 15.5317 0.00173898C16.6903 -0.0420074 17.0499 0.745427 17.2097 1.70785C17.5293 3.58894 18.5282 4.07015 20.2062 3.98266C23.2826 3.85142 23.9618 4.6826 23.9618 8.00733C23.9618 11.0696 23.9618 14.1318 23.9618 17.1941C23.9618 20.1688 23.2426 20.9563 20.5658 21C17.7291 21 14.8525 21 12.0158 21ZM12.0957 5.2513C8.57989 5.20756 6.0229 7.96358 6.0229 11.7258C5.98295 15.5754 8.46003 18.3752 11.896 18.419C15.4118 18.4627 17.9688 15.7067 17.9688 11.9445C18.0088 8.09482 15.5317 5.2513 12.0957 5.2513ZM20.7256 6.60744C20.406 6.65119 20.0464 6.78243 20.0064 7.30738C19.9665 7.78859 20.0863 8.18231 20.6057 8.2698C21.1251 8.3573 21.5246 8.13857 21.5646 7.48237C21.5646 7.00116 21.3249 6.69493 20.7256 6.60744Z" fill="#9D2C28"/>
<path d="M12.0164 15.7504C10.1386 15.7504 8.46054 13.9568 8.42059 11.9008C8.38064 9.75719 10.1386 7.83235 12.0563 7.8761C13.9341 7.91984 15.4923 9.71345 15.5722 11.857C15.6121 13.8694 13.8941 15.7504 12.0164 15.7504Z" fill="#9D2C28"/>
</svg>
