<svg width="21" height="21" viewBox="0 0 21 21" fill="none" xmlns="http://www.w3.org/2000/svg">
<path d="M20.121 7.72836H18.7639C18.6305 7.32792 18.4747 6.92747 18.2745 6.54927L19.2311 5.59266C19.3201 5.50367 19.3424 5.41468 19.3424 5.30345C19.3424 5.19221 19.2979 5.08098 19.2311 5.01424L15.9608 1.74394C15.8051 1.58821 15.5381 1.58821 15.3824 1.74394L14.4258 2.70055C14.0476 2.52258 13.6471 2.3446 13.2467 2.21112V0.876305C13.2467 0.653836 13.0687 0.453613 12.824 0.453613H8.2189C7.99643 0.453613 7.7962 0.631589 7.7962 0.876305V2.23337C7.39576 2.36685 6.99531 2.52258 6.61712 2.7228L5.6605 1.76618C5.50477 1.61045 5.23781 1.61045 5.08208 1.76618L1.83402 5.01424C1.74504 5.10322 1.72279 5.19221 1.72279 5.30345C1.72279 5.41468 1.76728 5.52592 1.83402 5.59266L2.79064 6.54927C2.61267 6.92747 2.43469 7.32792 2.30121 7.72836H0.966393C0.743924 7.72836 0.543701 7.90634 0.543701 8.15105V12.7784C0.543701 13.0009 0.721677 13.2011 0.966393 13.2011H2.32346C2.45694 13.6016 2.61267 14.002 2.81289 14.3802L1.85627 15.3368C1.76728 15.4258 1.74504 15.5148 1.74504 15.626C1.74504 15.7373 1.78953 15.8485 1.85627 15.9152L5.10432 19.141C5.26005 19.2968 5.54926 19.2968 5.68274 19.141L6.63936 18.1844C7.01756 18.3624 7.39576 18.5404 7.81845 18.6739V20.0309C7.81845 20.2534 7.99643 20.4536 8.24114 20.4536H12.8685C13.091 20.4536 13.2912 20.2756 13.2912 20.0309V18.6739C13.6916 18.5404 14.0921 18.3846 14.4703 18.1844L15.4269 19.141C15.5826 19.2968 15.8496 19.2968 16.0053 19.141L19.2311 15.8707C19.3201 15.7818 19.3424 15.6928 19.3424 15.5815C19.3424 15.4703 19.2979 15.3591 19.2311 15.2923L18.2745 14.3357C18.4525 13.9575 18.6305 13.5571 18.7639 13.1566H20.121C20.3435 13.1566 20.5437 12.9786 20.5437 12.7339V8.12881C20.5437 7.90634 20.3435 7.72836 20.121 7.72836ZM18.0743 12.6449C17.9186 13.2011 17.6961 13.735 17.4291 14.2245C17.3401 14.3802 17.3624 14.5804 17.4959 14.7139L18.3635 15.5815L15.6716 18.2734L14.804 17.4058C14.6705 17.2723 14.4703 17.2501 14.3146 17.339C13.8251 17.606 13.2912 17.8285 12.735 17.9842C12.557 18.0287 12.4458 18.2067 12.4458 18.3846V19.6305H8.64159V18.3846C8.64159 18.2067 8.50811 18.0287 8.35238 17.9842C7.7962 17.8285 7.26228 17.606 6.77284 17.339C6.61712 17.2501 6.41689 17.2723 6.28341 17.4058L5.41578 18.2734L2.7239 15.5815L3.59153 14.7139C3.72501 14.5804 3.74726 14.3802 3.65827 14.2245C3.39131 13.735 3.16884 13.2011 3.01311 12.6449C2.96862 12.467 2.79064 12.3557 2.61267 12.3557H1.36684V8.5515H2.61267C2.79064 8.5515 2.96862 8.41802 3.01311 8.26229C3.16884 7.70612 3.39131 7.17219 3.65827 6.68276C3.74726 6.52703 3.72501 6.32681 3.59153 6.19332L2.7239 5.32569L5.39353 2.63381L6.26117 3.50144C6.39465 3.63493 6.59487 3.65717 6.7506 3.56818C7.24003 3.30122 7.77396 3.07875 8.33013 2.92302C8.50811 2.87853 8.61934 2.70055 8.61934 2.52258V1.27675H12.4236V2.52258C12.4236 2.70055 12.557 2.87853 12.7128 2.92302C13.269 3.07875 13.8029 3.30122 14.2923 3.56818C14.448 3.65717 14.6483 3.63493 14.7817 3.50144L15.6716 2.63381L18.3635 5.32569L17.4959 6.19332C17.3624 6.32681 17.3401 6.52703 17.4291 6.68276C17.6961 7.17219 17.9186 7.70612 18.0743 8.26229C18.1188 8.44026 18.2968 8.5515 18.4747 8.5515H19.7206V12.3557H18.4747C18.2745 12.3557 18.1188 12.467 18.0743 12.6449Z" fill="#A1A1A1"/>
<path d="M10.574 6.89697C9.54394 6.89697 8.70434 7.73657 8.70434 8.7666V9.64082H8.27156C7.99458 9.64082 7.76953 9.86587 7.76953 10.1428V12.9386C7.76953 13.2156 7.99458 13.4407 8.27156 13.4407H12.8158C13.0928 13.4407 13.3178 13.2156 13.3178 12.9386V10.1428C13.3178 9.86587 13.0928 9.64082 12.8158 9.64082H12.4436V8.75794C12.4436 7.72792 11.604 6.89697 10.574 6.89697ZM9.31024 8.75794C9.31024 8.06549 9.87286 7.49421 10.574 7.49421C11.2751 7.49421 11.8377 8.05683 11.8377 8.75794V9.63216H9.31024V8.75794ZM12.7206 12.8348H8.37543V10.2381H12.7206V12.8348Z" fill="#A1A1A1"/>
<path fill-rule="evenodd" clip-rule="evenodd" d="M10.5437 15.3873C13.2473 15.3873 15.4389 13.1956 15.4389 10.4921C15.4389 7.78854 13.2473 5.59688 10.5437 5.59688C7.84017 5.59688 5.64851 7.78854 5.64851 10.4921C5.64851 13.1956 7.84017 15.3873 10.5437 15.3873ZM10.5437 16.1873C13.6891 16.1873 16.2389 13.6375 16.2389 10.4921C16.2389 7.34671 13.6891 4.79688 10.5437 4.79688C7.39834 4.79688 4.84851 7.34671 4.84851 10.4921C4.84851 13.6375 7.39834 16.1873 10.5437 16.1873Z" fill="#A1A1A1"/>
</svg>
