<svg width="20" height="20" viewBox="0 0 20 20" fill="none" xmlns="http://www.w3.org/2000/svg">
<path d="M19.5773 7.27499H18.2202C18.0868 6.87455 17.931 6.4741 17.7308 6.09591L18.6874 5.13929C18.7764 5.0503 18.7987 4.96131 18.7987 4.85008C18.7987 4.73884 18.7542 4.62761 18.6874 4.56087L15.4171 1.29057C15.2614 1.13484 14.9944 1.13484 14.8387 1.29057L13.8821 2.24719C13.5039 2.06921 13.1034 1.89123 12.703 1.75775V0.422936C12.703 0.200467 12.525 0.000244141 12.2803 0.000244141H7.67519C7.45272 0.000244141 7.2525 0.17822 7.2525 0.422936V1.78C6.85206 1.91348 6.45161 2.06921 6.07341 2.26943L5.1168 1.31281C4.96107 1.15709 4.6941 1.15709 4.53838 1.31281L1.29032 4.56087C1.20133 4.64985 1.17909 4.73884 1.17909 4.85008C1.17909 4.96131 1.22358 5.07255 1.29032 5.13929L2.24694 6.09591C2.06897 6.4741 1.89099 6.87455 1.75751 7.27499H0.422692C0.200222 7.27499 0 7.45297 0 7.69769V12.325C0 12.5475 0.177976 12.7477 0.422692 12.7477H1.77976C1.91324 13.1482 2.06897 13.5486 2.26919 13.9268L1.31257 14.8834C1.22358 14.9724 1.20133 15.0614 1.20133 15.1727C1.20133 15.2839 1.24583 15.3951 1.31257 15.4619L4.56062 18.6877C4.71635 18.8434 5.00556 18.8434 5.13904 18.6877L6.09566 17.7311C6.47386 17.909 6.85206 18.087 7.27475 18.2205V19.5776C7.27475 19.8 7.45272 20.0002 7.69744 20.0002H12.3248C12.5473 20.0002 12.7475 19.8223 12.7475 19.5776V18.2205C13.1479 18.087 13.5484 17.9313 13.9266 17.7311L14.8832 18.6877C15.0389 18.8434 15.3059 18.8434 15.4616 18.6877L18.6874 15.4174C18.7764 15.3284 18.7987 15.2394 18.7987 15.1282C18.7987 15.0169 18.7542 14.9057 18.6874 14.839L17.7308 13.8823C17.9088 13.5041 18.0868 13.1037 18.2202 12.7032H19.5773C19.7998 12.7032 20 12.5253 20 12.2806V7.67544C20 7.45297 19.7998 7.27499 19.5773 7.27499ZM17.5306 12.1916C17.3749 12.7477 17.1524 13.2817 16.8854 13.7711C16.7964 13.9268 16.8187 14.1271 16.9522 14.2605L17.8198 15.1282L15.1279 17.82L14.2603 16.9524C14.1268 16.8189 13.9266 16.7967 13.7709 16.8857C13.2814 17.1526 12.7475 17.3751 12.1913 17.5308C12.0133 17.5753 11.9021 17.7533 11.9021 17.9313V19.1771H8.09789V17.9313C8.09789 17.7533 7.9644 17.5753 7.80868 17.5308C7.2525 17.3751 6.71858 17.1526 6.22914 16.8857C6.07341 16.7967 5.87319 16.8189 5.73971 16.9524L4.87208 17.82L2.1802 15.1282L3.04783 14.2605C3.18131 14.1271 3.20356 13.9268 3.11457 13.7711C2.84761 13.2817 2.62514 12.7477 2.46941 12.1916C2.42492 12.0136 2.24694 11.9024 2.06897 11.9024H0.823137V8.09813H2.06897C2.24694 8.09813 2.42492 7.96465 2.46941 7.80892C2.62514 7.25275 2.84761 6.71882 3.11457 6.22939C3.20356 6.07366 3.18131 5.87344 3.04783 5.73995L2.1802 4.87232L4.84983 2.18044L5.71746 3.04807C5.85095 3.18156 6.05117 3.2038 6.2069 3.11482C6.69633 2.84785 7.23026 2.62538 7.78643 2.46965C7.9644 2.42516 8.07564 2.24719 8.07564 2.06921V0.823381H11.8799V2.06921C11.8799 2.24719 12.0133 2.42516 12.1691 2.46965C12.7253 2.62538 13.2592 2.84785 13.7486 3.11482C13.9043 3.2038 14.1046 3.18156 14.238 3.04807L15.1279 2.18044L17.8198 4.87232L16.9522 5.73995C16.8187 5.87344 16.7964 6.07366 16.8854 6.22939C17.1524 6.71882 17.3749 7.25275 17.5306 7.80892C17.5751 7.9869 17.7531 8.09813 17.931 8.09813H19.1769V11.9024H17.931C17.7308 11.9024 17.5751 12.0136 17.5306 12.1916Z" fill="#A1A1A1"/>
<path d="M9.98916 4.2937C6.85234 4.2937 4.29395 6.8521 4.29395 9.98892C4.29395 11.257 4.71664 12.4583 5.49528 13.4594C5.49528 13.4594 5.49528 13.4817 5.51753 13.4817L5.53977 13.5039C5.67326 13.6597 5.80674 13.8154 5.94022 13.9489L5.96247 13.9711C6.09595 14.1269 6.25168 14.2603 6.4074 14.3938C6.42965 14.4161 6.47415 14.4383 6.49639 14.4606L6.56313 14.5051C6.67437 14.594 6.76336 14.6608 6.87459 14.7275C6.94133 14.772 7.00807 14.7943 7.05257 14.8388L7.09706 14.861C7.18605 14.9055 7.27504 14.9722 7.36402 15.0167C7.45301 15.0612 7.542 15.1057 7.63099 15.1502C7.71997 15.1947 7.80896 15.2392 7.9202 15.2615C8.00918 15.3059 8.09817 15.3282 8.18716 15.3727C8.2984 15.4172 8.38738 15.4394 8.49862 15.4617L8.56536 15.4839C8.6321 15.5062 8.69884 15.5284 8.76558 15.5284C8.89906 15.5507 9.0103 15.5729 9.14378 15.5952L9.21052 15.6174C9.25501 15.6174 9.29951 15.6397 9.344 15.6397C9.56647 15.6619 9.76669 15.6841 9.96692 15.6841C10.1671 15.6841 10.3674 15.6619 10.5898 15.6397C10.6343 15.6397 10.6788 15.6174 10.7233 15.6174L10.7901 15.5952C10.9235 15.5729 11.057 15.5507 11.1683 15.5284C11.235 15.5062 11.3017 15.5062 11.3685 15.4839L11.4352 15.4617C11.5464 15.4394 11.6577 15.3949 11.7467 15.3727C11.8357 15.3504 11.9246 15.3059 12.0136 15.2837C12.1026 15.2392 12.2139 15.217 12.3028 15.1725C12.3918 15.128 12.4808 15.0835 12.5698 15.039C12.6588 14.9945 12.7478 14.9277 12.8368 14.8833L12.8813 14.861C12.948 14.8165 13.0147 14.7943 13.0815 14.7498C13.1927 14.683 13.2817 14.6163 13.3929 14.5273L13.4597 14.4828C13.4819 14.4606 13.5264 14.4383 13.5487 14.4161C13.7044 14.2826 13.8601 14.1491 14.0159 13.9934L14.0381 13.9711C14.1716 13.8376 14.3051 13.6819 14.4386 13.5039L14.4608 13.4817C15.2394 12.4806 15.6621 11.257 15.6621 9.98892C15.6844 6.8521 13.1482 4.2937 9.98916 4.2937ZM10.6121 9.7887C10.5898 9.7887 10.5898 9.81095 10.5676 9.81095C10.5008 9.83319 10.4119 9.87769 10.3229 9.87769C10.3006 9.87769 10.2784 9.87769 10.2561 9.89993C10.1671 9.92218 10.0782 9.92218 10.0114 9.92218H9.96692C9.87793 9.92218 9.81119 9.92218 9.7222 9.89993H9.69995C9.67771 9.89993 9.67771 9.89993 9.65546 9.89993C9.56647 9.87769 9.49973 9.85544 9.41074 9.83319L9.344 9.76645C8.78783 9.52174 8.40963 8.94332 8.40963 8.34265C8.40963 7.47502 9.12153 6.76311 9.96692 6.76311C10.8123 6.76311 11.5242 7.47502 11.5242 8.34265C11.5687 8.94332 11.1905 9.52174 10.6121 9.7887ZM9.03254 10.5228C9.09929 10.5451 9.16603 10.5673 9.21052 10.5896H9.23277C9.7222 10.7453 10.2339 10.7453 10.7456 10.5896H10.7678C10.8345 10.5673 10.9013 10.5451 10.9458 10.5228C12.2361 10.8566 13.2817 11.8577 13.6822 13.148C13.5932 13.2592 13.4819 13.3705 13.3707 13.4817C13.3485 13.5039 13.3262 13.5262 13.304 13.5262L13.2817 13.5707C13.1927 13.6597 13.0815 13.7487 13.0147 13.8154C12.9703 13.8599 12.9258 13.8821 12.859 13.9266C12.7923 13.9934 12.7033 14.0379 12.6143 14.0824C12.5476 14.1269 12.4808 14.1714 12.4141 14.2158C12.3473 14.2603 12.2584 14.3048 12.1916 14.3271C12.1249 14.3716 12.0359 14.3938 11.9691 14.4383C11.9024 14.4828 11.8134 14.5051 11.7467 14.5273H11.7244C11.6577 14.5495 11.5909 14.5718 11.502 14.594C11.4352 14.6163 11.3462 14.6385 11.2795 14.6608L11.1683 14.683C11.1238 14.7053 11.057 14.7053 11.0125 14.7275C10.9235 14.7498 10.8123 14.772 10.7233 14.772L10.6121 14.7943C10.5676 14.7943 10.5453 14.8165 10.5008 14.8165C10.1449 14.861 9.81119 14.861 9.45524 14.8165C9.41074 14.8165 9.3885 14.8165 9.344 14.7943L9.27726 14.772C9.16603 14.7498 9.05479 14.7498 8.9658 14.7275C8.89906 14.7053 8.85457 14.7053 8.78783 14.683L8.72109 14.6608C8.6321 14.6385 8.56536 14.6163 8.47637 14.594C8.40963 14.5718 8.34289 14.5495 8.27615 14.5273L8.23165 14.5051C8.14267 14.4828 8.07593 14.4383 8.00919 14.4161C7.94244 14.3938 7.85346 14.3493 7.78672 14.3048C7.71997 14.2603 7.63099 14.2158 7.56425 14.1936C7.49751 14.1491 7.43076 14.1046 7.36402 14.0601C7.27504 14.0156 7.2083 13.9489 7.11931 13.8821C7.07481 13.8376 7.03032 13.8154 6.96358 13.7709C6.87459 13.7042 6.7856 13.6152 6.69662 13.5262L6.67437 13.5484C6.65212 13.5262 6.62987 13.5039 6.60763 13.5039C6.49639 13.3927 6.38516 13.2815 6.29617 13.1702C6.67437 11.8577 7.71997 10.8566 9.03254 10.5228ZM12.3918 8.34265C12.3918 7.03008 11.324 5.93998 9.98916 5.93998C8.65435 5.93998 7.58649 7.00783 7.58649 8.34265C7.58649 8.94332 7.80896 9.49949 8.18716 9.94443C7.09706 10.3894 6.20718 11.257 5.6955 12.3249C5.33955 11.613 5.11708 10.8121 5.11708 9.98892C5.11708 7.31929 7.29728 5.11684 9.98916 5.11684C12.681 5.11684 14.8612 7.29704 14.8612 9.98892C14.8612 10.7898 14.661 11.5907 14.2606 12.3249C13.7711 11.257 12.859 10.3894 11.7689 9.94443C12.1694 9.49949 12.3918 8.94332 12.3918 8.34265Z" fill="#A1A1A1"/>
<path d="M10.0776 12.436C10.3725 12.436 10.6116 12.197 10.6116 11.9021C10.6116 11.6072 10.3725 11.3682 10.0776 11.3682C9.78275 11.3682 9.5437 11.6072 9.5437 11.9021C9.5437 12.197 9.78275 12.436 10.0776 12.436Z" fill="#A1A1A1"/>
<path d="M10.0776 14.2158C10.3668 14.2158 10.6116 13.9711 10.6116 13.6819C10.6116 13.3927 10.3668 13.1479 10.0776 13.1479C9.78842 13.1479 9.5437 13.3927 9.5437 13.6819C9.5437 13.9711 9.78842 14.2158 10.0776 14.2158Z" fill="#A1A1A1"/>
</svg>
