<svg width="21" height="22" viewBox="0 0 21 22" fill="none" xmlns="http://www.w3.org/2000/svg">
<path d="M10.7118 21.0001C7.44917 20.9242 4.94533 19.786 3.04848 17.3581C1.2275 15.006 0.620508 12.3504 1.2275 9.46721C1.60687 7.64623 2.44148 6.12874 3.73134 4.76301C4.41421 4.08014 5.40057 4.08016 6.08344 4.68715C6.7663 5.29415 6.84218 6.35636 6.15931 7.03923C5.09707 8.10147 4.49008 9.39131 4.33833 10.9088C4.03484 14.0955 6.31106 17.1305 9.49777 17.5857C12.0775 17.9651 14.5813 16.827 15.8712 14.5508C17.2369 12.1987 16.8575 9.16369 14.9607 7.26684C14.3537 6.65985 14.202 5.977 14.5055 5.29414C14.9607 4.2319 16.4023 3.9284 17.161 4.76301C18.7544 6.35636 19.7408 8.3291 19.8925 10.6053C20.1201 12.9574 19.589 15.0819 18.2233 16.9787C16.7058 19.1032 14.6572 20.3931 12.0775 20.8483C11.6222 20.9242 11.0911 20.9242 10.7118 21.0001Z" stroke="#A1A1A1" stroke-miterlimit="10"/>
<path d="M8.81506 7.26676C8.81506 5.74928 8.81506 4.15595 8.81506 2.63847C8.81506 1.9556 9.27031 1.34861 9.8773 1.12099C10.5602 0.893365 11.1672 0.969239 11.6983 1.50036C12.0018 1.80385 12.1535 2.18322 12.1535 2.63847C12.1535 5.7493 12.1535 8.78427 12.1535 11.8951C12.1535 12.8056 11.3948 13.4884 10.4843 13.4884C9.5738 13.4884 8.81506 12.7297 8.81506 11.8192C8.81506 10.3017 8.81506 8.78424 8.81506 7.26676Z" stroke="#A1A1A1" stroke-miterlimit="10"/>
</svg>
