<svg width="25" height="25" viewBox="0 0 25 25" fill="none" xmlns="http://www.w3.org/2000/svg">
<circle cx="12.5" cy="12.5" r="12" stroke="#B23D3A"/>
<path d="M11.8232 15.1973C11.8324 14.6549 11.8939 14.2266 12.0078 13.9121C12.1217 13.5977 12.3542 13.249 12.7051 12.8662L13.6006 11.9434C13.9834 11.5104 14.1748 11.0456 14.1748 10.5488C14.1748 10.0703 14.0495 9.69661 13.7988 9.42773C13.5482 9.1543 13.1836 9.01758 12.7051 9.01758C12.2402 9.01758 11.8665 9.14062 11.584 9.38672C11.3014 9.63281 11.1602 9.96322 11.1602 10.3779H9.89551C9.90462 9.63965 10.1667 9.04492 10.6816 8.59375C11.2012 8.13802 11.8757 7.91016 12.7051 7.91016C13.5664 7.91016 14.2363 8.14258 14.7148 8.60742C15.1979 9.06771 15.4395 9.70117 15.4395 10.5078C15.4395 11.3053 15.0703 12.0915 14.332 12.8662L13.5869 13.6045C13.2542 13.9736 13.0879 14.5046 13.0879 15.1973H11.8232ZM11.7686 17.3643C11.7686 17.1592 11.8301 16.9883 11.9531 16.8516C12.0807 16.7103 12.2676 16.6396 12.5137 16.6396C12.7598 16.6396 12.9466 16.7103 13.0742 16.8516C13.2018 16.9883 13.2656 17.1592 13.2656 17.3643C13.2656 17.5693 13.2018 17.7402 13.0742 17.877C12.9466 18.0091 12.7598 18.0752 12.5137 18.0752C12.2676 18.0752 12.0807 18.0091 11.9531 17.877C11.8301 17.7402 11.7686 17.5693 11.7686 17.3643Z" fill="#A1302C"/>
</svg>
