<svg width="41" height="45" viewBox="0 0 41 45" fill="none" xmlns="http://www.w3.org/2000/svg">
<path d="M40.974 16.9885C40.974 14.5029 40.974 12.0173 41 9.5058C41 9.03975 40.7923 8.75494 40.3511 8.54781C38.2225 7.58982 36.1199 6.63183 34.0173 5.67384C33.9914 5.64795 33.9654 5.64795 33.9395 5.62206C33.8616 5.51849 33.7578 5.44082 33.628 5.38903L20.2857 0.0553673C20.078 -0.0223074 19.8184 -0.0223069 19.6108 0.0812595L9.90253 4.68996H9.87657C7.02121 5.98454 4.13989 7.27912 1.28453 8.5737C0.869205 8.78083 0.6875 9.09153 0.6875 9.5058C0.6875 11.9914 0.713458 14.477 0.713458 16.9885C0.713458 20.2508 0.713458 23.4872 0.713458 26.7496C0.713458 27.2674 0.869205 27.5781 1.3624 27.8111C7.151 30.4262 12.9136 33.0412 18.7022 35.6563C19.3252 35.9411 19.9482 36.2518 20.5452 36.5625C20.7529 36.5625 20.9346 36.5625 21.1423 36.5625C21.2721 36.4848 21.4278 36.4071 21.5576 36.3295C22.7257 35.7857 23.9198 35.2679 25.0879 34.7242C30.1756 32.4198 35.2633 30.0896 40.3511 27.7852C40.8183 27.5781 40.974 27.2674 40.974 26.7755C40.974 23.5131 40.974 20.2508 40.974 16.9885ZM19.9482 31.1512C19.9482 32.1091 19.9482 33.0671 19.9482 33.9992C19.9482 34.0769 19.9222 34.1546 19.9222 34.284C19.429 34.051 18.9358 33.8439 18.4686 33.6367C13.4847 31.3842 8.5008 29.0798 3.49094 26.879C2.66029 26.5166 2.42667 26.1023 2.42667 25.222C2.47859 20.5874 2.45263 15.9528 2.45263 11.3182C2.45263 11.1629 2.45263 11.0075 2.45263 10.8004C3.36116 11.2146 4.19181 11.5771 5.04841 11.9655C9.53912 14.0109 14.0298 16.0305 18.4946 18.0759C18.858 18.2313 19.2214 18.4384 19.5848 18.5678C19.8703 18.6714 19.9482 18.8268 19.9482 19.1375C19.9482 23.1507 19.9482 27.138 19.9482 31.1512ZM21.1423 17.0661C20.9865 17.1438 20.7269 17.1438 20.5452 17.0661C15.0941 14.6064 9.64295 12.1208 4.16585 9.63525C4.03606 9.58347 3.90627 9.5058 3.72457 9.40223C3.98414 9.27277 4.16585 9.1951 4.34755 9.11742C5.82715 8.44424 7.30674 7.77106 8.76038 7.09788C8.86421 7.09788 8.94209 7.07199 9.01996 7.0202L19.9742 1.7901L31.1879 6.32113C33.2646 7.25323 35.3412 8.21122 37.4178 9.14331C37.5476 9.1951 37.7034 9.27277 37.8851 9.37634C37.7293 9.45401 37.6514 9.50579 37.5736 9.55758C32.1224 12.095 26.6194 14.5805 21.1423 17.0661ZM38.8974 26.5425C33.3165 29.0539 27.7356 31.5913 22.1546 34.1287C22.0508 34.1805 21.921 34.2323 21.7653 34.284C21.7653 34.1287 21.7393 33.9992 21.7393 33.8698C21.7393 28.9504 21.7393 24.0569 21.7393 19.1375C21.7393 18.8268 21.8431 18.6973 22.1027 18.5937C27.1385 16.3153 32.1484 14.0368 37.1582 11.7584C37.8331 11.4477 38.508 11.1629 39.2349 10.8263C39.2349 12.6905 39.2349 14.4511 39.2349 16.2376C39.2349 19.4999 39.2349 22.7623 39.2349 26.0505C39.2349 26.2835 39.157 26.413 38.8974 26.5425Z" fill="#B4B4B4"/>
<path d="M20.8438 45C27.8336 45 33.5 39.3336 33.5 32.3438C33.5 25.3539 27.8336 19.6875 20.8438 19.6875C13.8539 19.6875 8.1875 25.3539 8.1875 32.3438C8.1875 39.3336 13.8539 45 20.8438 45Z" fill="#B4B4B4"/>
<path d="M16.701 27.8397C16.701 27.8397 18.2213 27.3098 18.2213 28.6345C18.2213 29.9592 18.2213 31.019 18.2213 31.019H15.6875L16.701 32.3438H17.9679C17.9679 32.3438 17.9679 35.788 17.9679 36.3179C17.9679 36.8478 18.728 38.4375 20.5017 38.4375C22.2753 38.4375 25.0625 36.3179 25.0625 33.6685C25.0625 31.5489 24.049 30.4891 22.7821 30.4891C21.5152 30.4891 21.2618 31.5489 21.2618 32.3438C21.2618 33.1386 21.7686 33.9334 23.0355 33.9334C23.0355 33.9334 22.7821 36.3179 20.5017 37.1128C19.4882 37.3777 18.9814 36.5829 18.9814 36.053C18.9814 35.5231 18.9814 32.6087 18.9814 32.6087H20.7551L19.7416 31.284H19.2348C19.2348 31.284 19.2348 29.4293 19.2348 28.6345C19.2348 27.8397 18.728 26.25 17.7145 26.25C16.701 26.25 15.6875 26.5149 16.701 27.8397Z" fill="white"/>
</svg>
