<svg width="47" height="45" viewBox="0 0 47 45" fill="none" xmlns="http://www.w3.org/2000/svg">
<path d="M5.3787 38.9002C1.98095 33.3087 -1.0155 27.5566 0.723511 20.6273C1.98095 15.6778 5.32519 12.3068 9.52556 9.8187C12.0672 8.32048 14.8496 7.17006 17.6053 6.01964C18.5416 5.61833 18.8359 5.19027 18.5684 4.22712C18.2206 2.94293 17.9531 1.65874 17.5517 0C23.4644 1.84602 29.1095 3.61178 35.0756 5.48456C30.5007 9.65817 26.1665 13.6445 21.5916 17.8449C21.1903 16.0791 20.8157 14.5541 20.4144 12.8419C19.478 13.1629 18.6487 13.4305 17.846 13.7783C13.2444 15.7313 9.04399 18.1659 6.68964 22.8479C5.48571 25.229 5.16467 27.7171 5.43221 30.3657C5.7265 33.1749 5.78001 36.0108 5.91378 38.82C5.75325 38.8467 5.56597 38.8735 5.3787 38.9002Z" fill="#B4B4B4"/>
<path d="M25.3371 27.3695C30.5006 27.3695 35.6641 27.3695 40.8544 27.3695C42.4864 27.3695 42.7004 27.6103 42.7004 29.2423C42.7004 33.8707 42.7004 38.4992 42.7004 43.1544C42.7004 44.6793 42.3793 45.0004 40.8009 45.0004C30.4738 45.0004 20.1201 45.0004 9.79304 45.0004C8.10755 45.0004 7.7865 44.6526 7.7865 42.9403C7.7865 38.3386 7.7865 33.7637 7.7865 29.162C7.7865 27.6638 8.10755 27.3428 9.57901 27.3428C14.8228 27.3428 20.0666 27.3695 25.3371 27.3695ZM40.4263 38.8737C40.4263 37.1615 40.4798 35.5562 40.3996 33.951C40.3728 33.63 39.918 33.1484 39.5969 33.0681C38.2592 32.6668 37.2693 31.8909 36.9215 30.5265C36.7343 29.7239 36.3062 29.5901 35.6106 29.5901C28.6546 29.6169 21.6985 29.6169 14.7425 29.6169C14.0469 29.6169 13.6991 29.7774 13.4048 30.5265C13.0838 31.3291 12.4417 32.426 11.7193 32.6133C9.90006 33.0681 9.95357 34.2453 10.0338 35.6097C10.0873 36.4124 9.95357 37.215 10.0873 38.0176C10.1408 38.4189 10.5154 38.954 10.89 39.0878C12.2277 39.6228 13.1105 40.479 13.5386 41.8702C13.6456 42.2447 14.2074 42.6995 14.5552 42.7263C21.645 42.7798 28.7348 42.7798 35.8246 42.7531C36.1457 42.7531 36.7075 42.3785 36.761 42.111C37.1356 40.1044 38.4198 39.1948 40.4263 38.8737Z" fill="#B4B4B4"/>
<path d="M44.4393 35.3685C44.4393 33.2282 44.466 31.1949 44.4393 29.1616C44.4125 27.9042 44.9208 26.3792 43.0748 25.8441C42.9946 25.8174 42.8608 25.6033 42.8875 25.5231C43.0748 23.8643 41.9244 23.7841 40.7472 23.3828C39.9714 23.1152 39.2758 22.3126 38.7942 21.5635C38.4196 21.0017 38.1789 20.6806 37.4832 20.7876C30.5807 21.7775 23.6515 22.7674 16.7489 23.7573C16.0533 23.8643 15.4648 24.0249 15.4648 24.9345C15.4648 25.7639 14.9564 26.0582 14.1271 26.0047C13.1639 25.9511 12.174 25.9511 11.1841 26.0047C10.221 26.0849 9.87318 25.7371 9.79292 24.7472C9.63239 22.5802 9.57888 22.5266 11.746 22.2056C20.334 20.9749 28.922 19.771 37.51 18.5671C39.142 18.3263 40.774 18.139 42.406 17.8447C43.6099 17.6307 44.145 18.139 44.3055 19.2894C44.9744 24.0516 45.6967 28.7871 46.3923 33.5493C46.5528 34.8602 45.8305 35.2615 44.4393 35.3685Z" fill="#B4B4B4"/>
<path d="M31.972 26.0046C30.9553 25.7905 29.9387 25.5765 28.8952 25.3892C28.601 25.3357 28.3067 25.416 28.0124 25.4695C27.2098 25.63 26.4339 25.7905 25.4172 26.0046C26.8887 23.7572 30.0724 23.677 32.0522 25.5497C32.0255 25.6835 31.9987 25.844 31.972 26.0046Z" fill="#B4B4B4"/>
<path d="M25.3523 41.4382C28.1408 41.4382 30.4014 39.1776 30.4014 36.389C30.4014 33.6004 28.1408 31.3398 25.3523 31.3398C22.5637 31.3398 20.3031 33.6004 20.3031 36.389C20.3031 39.1776 22.5637 41.4382 25.3523 41.4382Z" fill="#B4B4B4"/>
<path d="M23.6332 34.67C23.6332 34.67 24.2778 34.4551 24.2778 34.9923C24.2778 35.5294 24.2778 35.9591 24.2778 35.9591H23.2035L23.6332 36.4963H24.1704C24.1704 36.4963 24.1704 37.8928 24.1704 38.1077C24.1704 38.3225 24.4926 38.9671 25.2446 38.9671C25.9966 38.9671 27.1784 38.1077 27.1784 37.0334C27.1784 36.174 26.7486 35.7443 26.2115 35.7443C25.6744 35.7443 25.5669 36.174 25.5669 36.4963C25.5669 36.8185 25.7818 37.1408 26.3189 37.1408C26.3189 37.1408 26.2115 38.1077 25.2446 38.43C24.8149 38.5374 24.6001 38.2151 24.6001 38.0003C24.6001 37.7854 24.6001 36.6037 24.6001 36.6037H25.3521L24.9224 36.0665H24.7075C24.7075 36.0665 24.7075 35.3145 24.7075 34.9923C24.7075 34.67 24.4926 34.0254 24.0629 34.0254C23.6332 34.0254 23.2035 34.1328 23.6332 34.67Z" fill="white"/>
</svg>
