<svg width="74" height="45" viewBox="0 0 74 45" fill="none" xmlns="http://www.w3.org/2000/svg">
<path d="M5.98941 38.9002C2.59166 33.3086 -0.404777 27.5565 1.33423 20.6273C2.59166 15.6778 5.9359 12.3068 10.1363 9.81869C12.6779 8.32047 15.4603 7.17005 18.2159 6.01963C19.1523 5.61832 19.4466 5.19026 19.1791 4.22712C18.8313 2.94293 18.5638 1.65874 18.1624 0C24.0751 1.84602 29.7201 3.61178 35.6863 5.48455C31.1113 9.65816 26.7772 13.6445 22.2023 17.8449C21.801 16.0791 21.4264 14.5541 21.0251 12.8419C20.0887 13.1629 19.2594 13.4305 18.4567 13.7783C13.8551 15.7313 9.6547 18.1659 7.30035 22.8478C6.09643 25.2289 5.77538 27.7171 6.04292 30.3657C6.33721 33.1749 6.39072 36.0108 6.52449 38.8199C6.36396 38.8467 6.17669 38.8734 5.98941 38.9002Z" fill="#B4B4B4"/>
<path d="M25.9478 27.3686C31.1113 27.3686 36.2748 27.3686 41.4651 27.3686C43.097 27.3686 43.3111 27.6093 43.3111 29.2413C43.3111 33.8698 43.3111 38.4982 43.3111 43.1534C43.3111 44.6783 42.99 44.9994 41.4115 44.9994C31.0845 44.9994 20.7308 44.9994 10.4038 44.9994C8.71826 44.9994 8.39722 44.6516 8.39722 42.9393C8.39722 38.3377 8.39722 33.7627 8.39722 29.1611C8.39722 27.6628 8.71826 27.3418 10.1897 27.3418C15.4335 27.3418 20.6773 27.3686 25.9478 27.3686ZM41.037 38.8727C41.037 37.1605 41.0905 35.5553 41.0102 33.95C40.9835 33.629 40.5287 33.1474 40.2076 33.0671C38.8699 32.6658 37.88 31.89 37.5322 30.5255C37.345 29.7229 36.9169 29.5891 36.2213 29.5891C29.2653 29.6159 22.3093 29.6159 15.3532 29.6159C14.6576 29.6159 14.3098 29.7764 14.0155 30.5255C13.6945 31.3281 13.0524 32.425 12.33 32.6123C10.5108 33.0671 10.5643 34.2443 10.6445 35.6088C10.6981 36.4114 10.5643 37.214 10.6981 38.0166C10.7516 38.4179 11.1261 38.953 11.5007 39.0868C12.8384 39.6218 13.7212 40.478 14.1493 41.8692C14.2563 42.2437 14.8182 42.6985 15.166 42.7253C22.2557 42.7788 29.3455 42.7788 36.4353 42.7521C36.7564 42.7521 37.3182 42.3775 37.3717 42.11C37.7463 40.1034 39.0305 39.1938 41.037 38.8727Z" fill="#B4B4B4"/>
<path d="M45.05 35.3685C45.05 33.2282 45.0767 31.1949 45.05 29.1616C45.0232 27.9042 45.5315 26.3792 43.6855 25.8441C43.6052 25.8174 43.4715 25.6033 43.4982 25.5231C43.6855 23.8643 42.5351 23.7841 41.3579 23.3828C40.5821 23.1152 39.8865 22.3126 39.4049 21.5635C39.0303 21.0017 38.7895 20.6806 38.0939 20.7876C31.1914 21.7775 24.2622 22.7674 17.3597 23.7573C16.6641 23.8643 16.0755 24.0249 16.0755 24.9345C16.0755 25.7639 15.5671 26.0582 14.7378 26.0046C13.7746 25.9511 12.7847 25.9511 11.7948 26.0046C10.8317 26.0849 10.4839 25.7371 10.4036 24.7472C10.2431 22.5801 10.1896 22.5266 12.3567 22.2056C20.9447 20.9749 29.5327 19.771 38.1207 18.5671C39.7527 18.3263 41.3847 18.139 43.0167 17.8447C44.2206 17.6307 44.7557 18.139 44.9162 19.2894C45.585 24.0516 46.3074 28.7871 47.003 33.5493C47.1635 34.8602 46.4412 35.2615 45.05 35.3685Z" fill="#B4B4B4"/>
<path d="M32.5828 26.0046C31.5661 25.7905 30.5495 25.5765 29.5061 25.3892C29.2118 25.3357 28.9175 25.416 28.6232 25.4695C27.8206 25.63 27.0447 25.7905 26.0281 26.0046C27.4995 23.7572 30.6833 23.677 32.663 25.5497C32.6363 25.6835 32.6095 25.844 32.5828 26.0046Z" fill="#B4B4B4"/>
<path d="M25.9629 41.4382C28.7514 41.4382 31.012 39.1776 31.012 36.389C31.012 33.6004 28.7514 31.3398 25.9629 31.3398C23.1743 31.3398 20.9137 33.6004 20.9137 36.389C20.9137 39.1776 23.1743 41.4382 25.9629 41.4382Z" fill="#B4B4B4"/>
<path d="M24.2438 34.67C24.2438 34.67 24.8884 34.4551 24.8884 34.9922C24.8884 35.5294 24.8884 35.9591 24.8884 35.9591H23.8141L24.2438 36.4963H24.7809C24.7809 36.4963 24.7809 37.8928 24.7809 38.1077C24.7809 38.3225 25.1032 38.9671 25.8552 38.9671C26.6072 38.9671 27.789 38.1077 27.789 37.0334C27.789 36.174 27.3592 35.7443 26.8221 35.7443C26.285 35.7443 26.1775 36.174 26.1775 36.4963C26.1775 36.8185 26.3924 37.1408 26.9295 37.1408C26.9295 37.1408 26.8221 38.1077 25.8552 38.43C25.4255 38.5374 25.2107 38.2151 25.2107 38.0003C25.2107 37.7854 25.2107 36.6037 25.2107 36.6037H25.9627L25.5329 36.0665H25.3181C25.3181 36.0665 25.3181 35.3145 25.3181 34.9922C25.3181 34.67 25.1032 34.0254 24.6735 34.0254C24.2438 34.0254 23.8141 34.1328 24.2438 34.67Z" fill="white"/>
<rect x="51" y="3" width="23" height="3" rx="1" fill="#B4B4B4"/>
<rect x="51" y="11" width="23" height="3" rx="1" fill="#B4B4B4"/>
<rect x="51" y="19" width="23" height="3" rx="1" fill="#B4B4B4"/>
<rect x="51" y="26" width="23" height="3" rx="1" fill="#B4B4B4"/>
<rect x="51" y="34" width="23" height="3" rx="1" fill="#B4B4B4"/>
<rect x="51" y="42" width="23" height="3" rx="1" fill="#B4B4B4"/>
</svg>
