<svg width="74" height="78" viewBox="0 0 74 78" fill="none" xmlns="http://www.w3.org/2000/svg">
<path d="M5.7002 1L32.5002 27.7L59.2002 1H5.7002Z" stroke="#C56A5D"/>
<path d="M1 5.30005C1 5.30005 1 40.6001 1 41.9001C1 43.2001 1.3 46.4001 5.7 46.4001C10.1 46.4001 43.1 46.4001 43.1 46.4001C43.1 46.4001 43.1 36.8 43.1 33.3C43.1 29.7 44.7 26.5 51.4 26.5C58.1 26.5 59.6 29.3 59.6 33C59.6 36.7 59.6 37.2001 59.6 37.2001L65.2 39.8V4.80005C65.2 4.80005 37 32.5001 35.6 33.9001C34.2 35.3001 32.4 36.2 29.3 33.1C26.2 30 1 5.30005 1 5.30005Z" stroke="#C56A5D"/>
<path d="M48.5998 33.1H52.5998V44.3C52.5998 44.3 57.5998 42.9 59.1998 45C60.4998 46.3 59.8998 46.3 62.4998 46.3C65.0998 46.3 65.7998 45.8 66.5998 47.5C67.2998 49 67.8998 48.5 69.6998 49.2C71.5998 49.9 74.3998 51.2 72.7998 60.5C71.2998 69.8 68.3998 70.2 68.0998 75.2C68.0998 77.1 66.1998 77.1 64.4998 77.1C62.6998 77.1 53.0998 77.1 53.0998 77.1C53.0998 77.1 51.5998 77.3 50.5998 75.3C49.5998 73.3 40.3998 57.3 39.8998 55.6C39.3998 53.9 39.2998 53 39.2998 53C39.2998 53 41.4998 52.6 43.2998 54.4C45.0998 56.2 47.6998 57.9 48.6998 58.3L48.5998 33.1Z" stroke="#C56A5D"/>
</svg>
