<svg width="92" height="94" viewBox="0 0 92 94" fill="none" xmlns="http://www.w3.org/2000/svg">
<g clip-path="url(#clip0)">
<path d="M82.0282 58.1499C84.4944 56.2294 84.7088 55.4825 83.9582 52.7084C83.851 52.1749 83.851 51.3213 84.1727 51.0012C84.4944 50.6812 85.3522 50.6812 85.8883 50.8945C89.3195 51.7481 91.7857 54.5222 92.0002 57.7231C92.2146 61.0308 90.499 63.4848 87.0678 64.8718C86.6389 65.0852 86.1027 65.1919 85.8883 65.2986C86.21 68.6062 86.8533 71.8072 86.6389 75.0081C86.4244 78.1023 85.4594 81.1965 84.816 84.184C86.5316 84.6108 88.6762 85.1443 90.8207 85.571V86.4246C88.6762 86.8514 86.4244 87.4916 84.2799 87.5983C73.879 88.2385 63.3708 88.6653 52.8627 89.1987C51.7904 89.1987 50.7181 89.3054 49.6459 89.1987C47.9303 89.092 46.6435 89.4121 45.3568 90.7992C42.9979 93.2532 38.6016 92.7197 36.3498 90.159C35.1704 88.772 33.1331 88.9854 31.8463 90.2657C30.6669 91.4394 29.2729 92.7197 27.7718 93.3599C25.0911 94.4269 22.4104 93.0398 21.6599 90.3724C21.231 88.772 20.3732 88.5586 18.9792 88.4519C14.2613 88.0251 9.54332 87.4916 4.93259 86.9581C4.18201 86.8514 3.53866 86.5313 2.78807 86.3179L2.68085 85.6777C4.61092 85.3577 6.54099 84.8242 8.57828 84.2907C7.29157 80.0228 8.79273 76.1817 10.2939 72.3406C10.5084 71.8072 10.7228 70.9536 10.4011 70.5268C6.11208 64.6584 6.32653 58.2566 8.47106 51.8548C10.83 45.0262 13.5107 38.1976 15.8697 31.369C17.2636 27.3145 18.3359 23.0466 17.6925 18.6721C17.5853 17.9252 17.2636 17.1783 17.0491 16.1113C15.548 17.285 14.2613 18.4587 12.9746 19.4189C9.54332 21.9797 5.25427 21.7663 2.14472 19.0989C-0.42871 16.7515 -0.643162 13.4439 1.71581 10.9899C2.57362 10.1363 3.53866 9.38943 4.50369 8.74925C8.04215 6.29522 11.7951 3.94789 15.4408 1.60056C19.5153 -0.960169 22.9466 -0.533381 25.52 3.5211C27.7718 7.1488 29.4874 11.0966 30.8813 15.0444C31.8463 17.9252 33.2403 19.5256 36.3498 19.6323C41.175 19.9524 45.3568 21.873 49.217 24.6471C50.6109 25.6074 51.6832 25.5007 53.0771 24.8605C55.4361 23.6868 57.9023 22.6199 60.3685 21.873C65.3009 20.3792 68.6249 22.4065 69.9116 27.3145C71.0911 31.9025 70.7694 36.4905 69.161 40.9717C68.4104 42.999 67.3382 44.7061 64.872 44.9195C62.2986 45.1329 60.5829 43.6392 59.6179 41.6119C58.6529 39.3713 58.224 36.9172 57.4734 34.4632C55.2216 34.7833 55.0072 35.2101 55.4361 37.4507C56.0794 40.865 56.7228 44.2793 57.4734 47.907C67.6599 46.6267 76.2379 49.1874 82.0282 58.1499ZM59.6179 30.5154C59.9396 32.5427 60.154 34.2498 60.4757 35.7436C60.9046 37.4507 61.1191 39.3713 62.0841 40.865C63.5853 43.4258 65.7298 43.1057 66.8021 40.4382C68.5177 36.1704 68.6249 31.7958 67.3382 27.3145C66.5876 24.6471 64.5503 23.3667 61.8697 24.1136C59.189 24.8605 56.4011 25.8208 54.0421 27.2078C51.7904 28.5949 50.182 28.2748 48.0375 26.8877C45.2496 25.0739 42.1401 24.0069 39.0305 22.6199C38.6016 22.4065 37.6366 22.8332 37.4221 23.26C36.3498 25.394 34.9559 27.5279 34.4198 29.8752C33.6692 33.0762 33.562 36.4905 33.2403 39.7981C32.7042 44.386 31.0958 48.5472 27.6645 51.8548C22.6249 56.6562 14.4757 55.1624 12.6529 49.1874C12.6529 49.0807 12.4384 49.0807 12.1167 48.974C11.4734 50.8945 10.7228 52.8151 10.2939 54.8423C8.14938 63.5915 11.0445 70.3134 18.872 73.9411C27.2356 77.8889 36.0282 78.3157 44.8207 75.1148C50.8254 72.9808 54.6855 68.8196 55.4361 62.4178C55.865 58.7901 55.7578 55.1624 55.3289 51.5347C54.6855 46.4133 53.506 41.3985 52.6482 36.3838C52.541 35.6369 52.541 34.3565 52.9699 34.0364C55.0072 32.7561 57.1517 31.7958 59.6179 30.5154ZM57.7951 83.4371C65.1937 83.4371 72.5923 83.4371 79.8836 83.4371C81.5993 83.4371 82.5643 82.2634 83.1004 80.7697C84.816 76.1817 84.4944 71.4871 83.1004 66.8991C80.7414 59.3236 76.7741 53.1352 68.4104 50.8945C64.872 49.9343 61.3335 50.041 58.1167 50.4678C58.1167 53.8821 58.224 56.9763 58.1167 60.1772C57.7951 67.9661 54.1494 73.621 46.9652 76.9286C45.5713 77.5688 44.1773 77.9956 43.4268 78.3157C43.9629 79.1692 44.9279 79.9161 45.2496 80.9831C46.2146 83.8639 48.5736 83.7572 50.9326 83.6505C51.7904 83.6505 52.7554 83.5438 53.6132 83.6505C54.6855 83.7572 55.1144 83.4371 55.3289 82.2634C56.0794 78.9558 58.0095 76.9286 61.4408 76.5018C61.8697 76.3951 62.4058 76.3951 62.9419 76.2884C62.2986 75.0081 61.6552 73.8344 61.1191 72.6607C58.5456 66.3656 60.7974 60.4973 66.8021 58.2566C67.6599 57.9365 69.4827 58.0432 69.5899 58.3633C70.1261 59.8571 68.6249 60.0705 67.6599 60.4973C64.2286 61.8843 62.1913 64.7651 62.513 68.0728C62.8347 71.4871 64.3359 74.4746 66.9093 76.7152C67.5526 77.2487 68.196 77.7822 69.0538 78.6357C66.3731 78.7424 64.1214 78.8491 61.8697 78.9558C59.2962 79.1692 58.0095 80.5563 57.7951 83.4371ZM30.0235 19.6323C29.2729 17.3917 28.5223 14.831 27.4501 12.4836C26.2706 9.81622 24.9839 7.1488 23.2683 4.69477C21.5526 2.24074 19.4081 2.02735 16.8347 3.6278C12.8673 6.08183 9.00719 8.64256 5.03982 11.2033C4.39646 11.6301 3.86033 12.0569 3.3242 12.697C2.03749 14.1908 2.14472 15.5779 3.53866 17.0716C5.57595 19.0989 8.79273 19.4189 11.2589 17.4984C13.2962 16.0046 15.1191 14.2975 17.0491 12.697C20.6948 15.8979 20.2659 20.1658 20.1587 24.1136C23.4827 22.5132 26.6995 21.1261 30.0235 19.6323ZM12.6529 72.9808C12.224 74.0478 11.7951 74.7947 11.5806 75.6482C11.1517 77.0353 10.7228 78.5291 10.5084 80.0228C9.97222 83.0103 11.0445 84.2907 14.154 84.184C18.0142 84.0773 21.8743 83.7572 25.6272 83.8639C30.5596 83.9706 35.2776 84.7175 38.4944 89.1987C39.5666 90.6925 41.2822 90.2657 42.8906 89.6255C44.499 88.9854 44.8207 87.5983 44.7135 86.1045C44.499 81.6233 40.3172 79.4893 36.0282 79.596C27.6645 79.7027 19.7298 78.4224 12.6529 72.9808ZM26.3778 40.4382C26.3778 38.7311 25.4128 37.5574 24.0188 37.5574C22.4104 37.5574 20.6948 39.9048 20.8021 42.0387C20.9093 43.4258 21.3382 44.7061 23.0538 44.8128C24.8766 44.8128 26.3778 42.6789 26.3778 40.4382ZM87.4967 54.4155C86.6389 56.016 86.1027 57.8298 84.9233 58.7901C83.2076 60.2839 83.4221 61.4575 84.6016 63.058C86.8533 62.4178 88.8906 61.4575 89.4268 58.8968C89.8557 56.9763 88.8906 55.3758 87.4967 54.4155ZM31.4174 86.8514C28.9512 86.638 27.0212 86.4246 25.0911 86.4246C24.6622 86.4246 24.0188 86.7447 23.9116 86.9581C23.5899 88.3452 23.2683 89.9456 24.6622 90.9059C26.0561 91.9729 27.4501 91.5461 28.6296 90.4791C29.4874 89.5188 30.238 88.3452 31.4174 86.8514Z" fill="#48B83E"/>
<path d="M32.3827 71.0603C29.9165 70.9536 26.2708 69.2465 23.1613 66.579C22.1962 65.6188 21.5529 63.8049 21.6601 62.4178C21.7673 60.8174 23.5902 60.4973 24.9841 60.1772C30.4526 58.7902 35.8139 59.537 40.9608 61.2442C42.462 61.7777 43.8559 62.9513 45.1426 64.0183C46.3221 65.192 46.1076 66.4723 44.8209 67.5393C41.6041 70.1 37.9585 71.0603 32.3827 71.0603Z" fill="#48B83E"/>
<path d="M47.1795 42.5723C47.1795 44.4928 46.1072 45.9866 44.8205 46.0933C43.4266 46.2 42.3543 44.7062 42.2471 42.7856C42.2471 40.8651 43.2121 39.3713 44.606 39.2646C46 39.2646 47.1795 40.6517 47.1795 42.5723Z" fill="#48B83E"/>
</g>
<defs>
<clipPath id="clip0">
<rect width="92" height="94" fill="white"/>
</clipPath>
</defs>
</svg>
