<svg width="87" height="66" viewBox="0 0 87 66" fill="none" xmlns="http://www.w3.org/2000/svg">
<path d="M69.5211 36.8418C64.7346 29.7459 57.5549 27.8029 49.1343 28.8166C48.6024 25.9445 48.0706 23.2413 47.4501 20.538C47.0956 18.7641 47.2729 18.4262 49.1343 18.1727C49.6661 20.1157 50.0206 22.0586 50.907 23.8326C51.7048 25.4376 53.123 26.6203 55.2503 26.4513C57.289 26.2824 58.1754 24.9308 58.7958 23.3257C60.214 19.7778 60.3913 16.1453 59.4163 12.5129C58.3526 8.62701 55.6049 7.02198 51.5275 8.20464C49.4888 8.79596 47.4501 9.64072 45.5001 10.5699C44.2592 11.1613 43.4614 11.2458 42.3091 10.401C39.1181 8.20464 35.6612 6.51513 31.6725 6.43065C25.0247 6.2617 26.1769 7.78226 25.0246 4.31877C23.961 1.1087 23.5178 0.179469 20.5927 0.0105179C16.604 -0.242908 14.3881 4.14981 10.8425 6.00827C8.44929 7.27541 6.58789 3.55849 3.57419 5.41695C2.77644 5.9238 1.9787 6.51513 1.35823 7.19093C-0.591811 9.13387 -0.414535 11.8371 1.71278 13.6111C4.19466 15.7229 7.74019 15.8919 10.6653 13.8645C11.8175 13.1042 12.7039 12.0905 14.0335 11.2458C14.0335 11.2458 15.2744 10.5699 15.8949 11.1613C16.8699 12.0905 16.0722 12.4284 14.9199 15.6385C12.9698 21.0449 10.7539 26.4513 8.80385 31.8578C7.03108 36.9263 6.8538 41.9948 10.3993 46.641C10.6652 46.9789 10.488 47.6547 10.3107 48.077C9.06976 51.1182 7.82883 54.2437 8.89248 57.5383C7.20836 57.9607 5.61287 58.383 4.01738 58.8054L4.10602 59.3123C4.63785 59.4812 5.25832 59.7347 5.87878 59.8191C9.77887 60.2415 13.5903 60.6639 17.4904 61.0018C18.6427 61.0863 19.3518 61.2552 19.7064 62.5223C20.3268 64.6342 22.6314 65.7324 24.7587 64.8877C25.9997 64.3808 27.152 63.3671 28.127 62.4379C29.1906 61.4242 30.8748 61.2552 31.8498 62.3534C33.7112 64.3808 37.3454 64.8032 39.2954 62.8602C40.3591 61.7621 41.5114 61.5931 42.8409 61.5931C43.7273 61.6776 44.6137 61.5931 45.5001 61.5931C54.1866 61.1707 62.7845 60.8328 71.4711 60.326C73.3325 60.2415 75.1053 59.7347 76.878 59.3968V58.7209C75.1053 58.2986 73.3325 57.9607 71.9143 57.6228C72.4461 55.173 73.2439 52.8077 73.4212 50.3579C73.5984 47.8236 73.0666 45.2894 72.8007 42.6706L69.5211 36.8418ZM9.24704 12.3439C7.20836 13.78 4.54921 13.6111 2.86508 12.006C1.71278 10.9079 1.62415 9.72519 2.68781 8.54254C3.131 8.12016 3.57419 7.69778 4.10602 7.35988C7.297 5.33247 8.0061 10.1476 12.0835 7.52883C12.0835 7.52883 14.4767 5.9238 14.0335 6.34618C13.5017 6.76855 15.8063 5.07904 15.8063 5.07904L17.4018 3.64296C17.4018 3.64296 19.7064 1.27765 21.6564 2.54478C23.6064 3.81191 24.6701 6.9375 21.3018 7.19093C16.7813 7.52883 16.5154 9.30282 16.5154 9.30282C12.8812 8.54254 10.9312 11.1613 9.24704 12.3439ZM23.5178 22.8189C23.5178 24.6773 22.2769 26.2824 20.77 26.2824C19.3518 26.1979 18.9972 25.1842 18.9086 24.086C18.82 22.3965 20.2382 20.538 21.5678 20.538C22.6314 20.538 23.4292 21.4673 23.5178 22.8189ZM10.1334 34.3075C10.488 32.7025 11.1084 31.182 11.6403 29.6614C11.9062 29.7459 12.0835 29.7459 12.0835 29.8303C13.679 34.6454 20.4155 35.7436 24.4928 31.9422C27.3292 29.3235 28.6588 26.1134 29.102 22.3965C29.3679 19.7778 29.4566 17.159 30.077 14.5403C30.5202 12.6818 31.5839 10.9923 32.5589 9.30282C32.7362 8.96491 33.5339 8.71149 33.8885 8.79596C36.3703 9.80967 39.0295 10.7389 41.3341 12.175C43.1069 13.2732 44.4364 13.5266 46.2978 12.4284C48.2479 11.3302 50.5525 10.5699 52.7684 9.97862C54.9844 9.38729 56.6685 10.401 57.289 12.5129C58.3526 15.9764 58.1754 19.5243 56.8458 22.9034C55.9594 25.0997 54.1866 25.2687 52.9457 23.2413C52.2366 22.0586 51.9707 20.5381 51.6161 19.1864C51.3502 17.9193 51.1729 16.6522 50.907 15.0471C48.8683 16.0609 47.0956 16.8211 45.4115 17.8348C45.0569 18.0883 45.0569 19.102 45.1455 19.6933C45.8546 23.6636 46.8297 27.7185 47.3615 31.6888C47.716 34.561 47.8047 37.4331 47.4501 40.3053C46.8297 45.3738 43.5501 48.6684 38.6749 50.3579C31.4066 52.8077 24.2269 52.4698 17.2245 49.4286C10.7539 46.5565 8.36065 41.2345 10.1334 34.3075ZM25.2906 62.5223C24.4042 63.3671 23.1632 63.6205 22.0109 62.8602C20.8587 62.0155 21.1246 60.8328 21.3905 59.7346C21.4791 59.4812 22.0109 59.2278 22.3655 59.3123C23.961 59.3968 25.5565 59.5657 27.5952 59.6502C26.6201 60.8328 26.0883 61.7621 25.2906 62.5223ZM37.1681 61.8465C35.9272 62.3534 34.4203 62.6913 33.5339 61.5086C30.8748 57.9607 26.9747 57.3693 22.8973 57.2849C19.7064 57.2004 16.5154 57.4538 13.413 57.5383C10.8425 57.6228 9.95614 56.6091 10.3993 54.2437C10.5766 53.0611 10.9312 51.9629 11.2857 50.7803C11.463 50.1045 11.8175 49.5131 12.1721 48.6684C18.0222 52.8921 24.4928 53.9903 31.4952 53.8214C35.0408 53.7369 38.4977 55.4264 38.6749 58.9744C38.6749 60.2415 38.4977 61.3397 37.1681 61.8465ZM70.4074 54.8351C69.9643 56.0177 69.1665 56.947 67.7483 56.947C61.7209 56.947 55.6935 56.947 49.4888 56.947C49.6661 54.6661 50.7298 53.5679 52.8571 53.399C54.7185 53.23 56.5799 53.23 58.7958 53.1456C58.0867 52.4698 57.5549 52.0474 57.0231 51.625C54.8071 49.7666 53.6548 47.4857 53.3889 44.7825C53.123 42.1638 54.7185 39.9674 57.6435 38.7847C58.4413 38.4468 59.6822 38.2779 59.239 37.0952C59.1504 36.8418 57.6435 36.7573 56.9344 37.0108C51.9707 38.7003 50.0206 43.3464 52.2366 48.4149C52.6798 49.3442 53.2116 50.2734 53.7435 51.2871C53.3003 51.3716 52.9457 51.4561 52.5025 51.4561C49.6661 51.8784 47.982 53.4835 47.4501 56.0177C47.2729 56.8625 46.9183 57.2004 46.0319 57.1159C45.3228 57.0314 44.6137 57.1159 43.816 57.1159C41.8659 57.2004 40.0045 57.3693 39.1181 55.004C38.8522 54.1593 38.0545 53.5679 37.6113 52.8921C38.3204 52.6387 39.4727 52.3008 40.5364 51.794C46.4751 49.2597 49.4888 44.698 49.7547 38.5313C49.8434 36.0815 49.7547 33.5473 49.7547 30.8441C52.4139 30.4217 55.3389 30.4217 58.264 31.182C65.1778 32.8715 68.4574 37.8555 70.4074 43.8533C71.5597 47.4857 71.8257 51.1182 70.4074 54.8351Z" fill="#B8423E"/>
<path d="M37.9852 28.2407C39.6576 28.1411 41.0163 26.3481 40.9118 24.057C40.9118 21.766 39.553 19.9729 37.7762 20.0726C36.1039 20.0726 34.8496 21.8656 34.8496 24.2563C34.8496 26.5473 36.3129 28.2407 37.9852 28.2407Z" fill="#B8423E"/>
<path d="M20.7404 46.6689C23.0398 46.6689 25.3393 46.6689 27.7433 46.6689C30.2518 46.6689 32.8648 46.6689 35.3733 46.6689C36.8366 46.6689 37.4637 46.0713 36.9411 44.5771C35.4778 39.8953 30.2518 36.907 25.3393 38.3015C22.2037 39.198 19.9042 41.0907 18.7545 44.1786C18.1274 45.9717 18.65 46.6689 20.7404 46.6689Z" fill="#B8423E"/>
<path d="M74.8807 41.0906C74.8807 41.0906 74.5672 41.3895 76.2395 44.577C78.0164 47.7646 77.8073 46.6689 77.8073 46.6689C80.8384 46.7685 81.361 47.167 82.5107 49.6573C82.7198 50.1553 83.2424 50.753 83.6605 50.8526C84.0786 50.8526 84.7057 50.3545 85.1238 49.9561C87.3187 47.4658 87.5277 43.9794 85.8554 41.4891C84.0786 38.8992 81.361 38.0027 77.8073 38.8992C77.2847 38.9988 75.7169 39.198 75.4033 39.2976C75.4033 39.0984 76.4486 38.4011 74.8807 41.0906ZM76.9712 41.3895C79.0616 40.5926 81.2565 40.1941 83.1379 41.7879C84.6012 43.0829 84.7057 44.8759 84.2876 46.3701C82.6153 45.6728 81.2565 44.577 79.6887 44.4774C77.4938 44.2782 76.9712 43.3817 76.9712 41.3895Z" fill="#B8423E"/>
</svg>
