<svg width="31" height="21" viewBox="0 0 31 21" fill="none" xmlns="http://www.w3.org/2000/svg">
<path d="M5.87568 20.2725C5.62347 20.0203 5.62347 19.6 5.87568 19.3478L24.0343 1.18915C24.2865 0.936949 24.7068 0.936949 24.959 1.18915C25.2112 1.44136 25.2112 1.86169 24.959 2.1139L6.80042 20.2725C6.54822 20.5247 6.12788 20.5247 5.87568 20.2725Z" stroke="#959595" stroke-width="0.75" stroke-miterlimit="10"/>
<path d="M20.251 10.5207C20.251 13.0427 18.1493 15.1444 15.6273 15.1444C15.0388 15.1444 14.5344 15.0603 13.9459 14.8081L11.3398 17.4142C12.6849 17.8346 14.1141 18.0868 15.6273 18.0868C23.7819 18.0868 30.3391 10.6047 30.3391 10.6047C30.3391 10.6047 27.5649 7.49423 23.4456 5.30847L19.9147 8.92338C20.0829 9.42779 20.251 10.0163 20.251 10.5207Z" stroke="#959595" stroke-width="0.75" stroke-miterlimit="10"/>
<path d="M11.0041 10.5206C11.0041 7.99857 13.1057 5.89687 15.6278 5.89687C16.1322 5.89687 16.7207 5.98094 17.141 6.14908L19.663 3.62705C18.402 3.29078 17.0569 3.03857 15.7118 3.03857C7.55728 3.03857 1 10.5206 1 10.5206C1 10.5206 3.6061 13.463 7.55728 15.7328L11.2563 12.0338C11.0881 11.6135 11.0041 11.1091 11.0041 10.5206Z" stroke="#959595" stroke-width="0.75" stroke-miterlimit="10"/>
</svg>
