<svg width="320" height="105" viewBox="0 0 320 105" fill="none" xmlns="http://www.w3.org/2000/svg">
<g opacity="0.34">
<path opacity="0.34" d="M5 71.3013V86.2013H0V48.2013H14.1C18.3 48.2013 21.5 49.3013 23.9 51.4013C26.3 53.5013 27.4 56.3013 27.4 59.9013C27.4 63.6013 26.2 66.4013 23.9 68.4013C21.6 70.4013 18.3 71.4013 14 71.4013H5V71.3013ZM5 67.2013H14C16.7 67.2013 18.7 66.6013 20.2 65.3013C21.6 64.0013 22.3 62.2013 22.3 59.8013C22.3 57.5013 21.6 55.7013 20.2 54.3013C18.8 52.9013 16.8 52.2013 14.3 52.2013H5V67.2013Z" fill="#5D5D5D"/>
<path opacity="0.34" d="M52.3998 70.9013H43.3998V86.3013H38.2998V48.2013H50.9998C55.2998 48.2013 58.5998 49.2013 60.8998 51.1013C63.1998 53.1013 64.3998 55.9013 64.3998 59.6013C64.3998 62.0013 63.7998 64.0013 62.4998 65.8013C61.1998 67.6013 59.3998 68.9013 57.0998 69.8013L66.0998 86.0013V86.3013H60.6998L52.3998 70.9013ZM43.3998 66.7013H51.0998C53.5998 66.7013 55.5998 66.1013 57.0998 64.8013C58.5998 63.5013 59.2998 61.8013 59.2998 59.6013C59.2998 57.2013 58.5998 55.4013 57.1998 54.2013C55.7998 52.9013 53.7998 52.3013 51.0998 52.3013H43.3998V66.7013Z" fill="#5D5D5D"/>
<path opacity="0.34" d="M97.5 68.7013H81V82.2013H100.2V86.3013H76V48.2013H100V52.3013H81V64.6013H97.5V68.7013Z" fill="#5D5D5D"/>
<path opacity="0.34" d="M132 69.4013H116V86.2013H111V48.2013H134.6V52.3013H116V65.4013H132V69.4013Z" fill="#5D5D5D"/>
<path opacity="0.34" d="M166.7 68.7013H150.2V82.2013H169.4V86.3013H145.2V48.2013H169.2V52.3013H150.3V64.6013H166.8V68.7013H166.7Z" fill="#5D5D5D"/>
<path opacity="0.34" d="M201.8 68.7013H185.3V82.2013H204.5V86.3013H180.3V48.2013H204.3V52.3013H185.4V64.6013H201.9V68.7013H201.8Z" fill="#5D5D5D"/>
<path opacity="0.34" d="M274.4 13.4013C274.4 19.0013 279 23.6013 284.6 23.6013C290.3 23.6013 294.8 19.0013 294.8 13.3013C294.8 7.60132 290.3 3.10132 284.6 3.10132C278.9 3.20132 274.3 7.70132 274.4 13.4013Z" fill="#5D5D5D"/>
<path opacity="0.34" d="M225.9 33.2012C225.9 37.8012 229.7 41.5012 234.2 41.5012C238.8 41.5012 242.5 37.8012 242.5 33.2012C242.5 28.6012 238.8 24.9012 234.2 24.9012C229.6 24.9012 225.9 28.6012 225.9 33.2012Z" fill="#5D5D5D"/>
<path opacity="0.34" d="M198.4 12.9013C198.4 20.1013 204.3 25.9013 211.4 25.9013C218.6 25.9013 224.3 20.1013 224.3 12.9013C224.3 5.70127 218.5 0.00127394 211.3 0.00127394C204.2 -0.0987261 198.4 5.70127 198.4 12.9013Z" fill="#5D5D5D"/>
<path opacity="0.34" d="M284.7 35.6012C278 31.7012 271.3 27.6012 264.7 23.6012C262.1 22.1012 259.8 22.6012 258.3 25.2012C253.5 33.2012 248.7 41.2012 243.9 49.1012C243 50.6012 242.1 52.1012 241.3 53.4012C242.2 54.7012 242.9 55.9012 243.7 57.0012C249.4 47.5012 255.2 38.0012 261 28.3012C268.2 32.6012 275.3 36.9012 282.4 41.2012C282.3 41.5012 282.1 41.7012 282 42.0012C277.8 49.0012 273.5 56.1012 269.3 63.2012C268.6 64.4012 268.2 65.8012 267.7 67.1012C268.8 67.6012 269.7 68.0012 270.6 68.5012C270.8 68.2012 271 67.9012 271.2 67.6012C276.3 59.2012 281.3 50.7012 286.5 42.3012C287.9 39.8012 287.1 37.0012 284.7 35.6012Z" fill="#5D5D5D"/>
<path opacity="0.34" d="M299.9 68.4012C294.9 63.8012 287 64.1012 282.3 69.1012C277.7 74.1012 278 82.0012 283 86.7012L298.5 101.001C303.5 105.601 311.4 105.301 316.1 100.301C320.7 95.3012 320.4 87.3012 315.4 82.7012L299.9 68.4012Z" fill="#5D5D5D"/>
<path opacity="0.34" d="M256.2 43.3012C251.9 50.4012 247.6 57.5012 243.3 64.6012C243.1 64.9012 243 65.2012 242.8 65.4012C242.7 65.4012 242.7 65.4012 242.6 65.3012C242.6 63.5012 242.6 61.7012 242.6 59.9012C242.6 59.0012 242.4 58.1012 242.1 57.2012C241.6 55.8012 240.5 55.3012 239.2 55.2012C238 55.2012 237.1 55.8012 236.6 56.9012C236.2 57.8012 236 58.7012 235.9 59.6012C235.7 65.4012 235.6 71.2012 235.3 77.0012L222 102.301H242.4L249.5 90.4012C250.6 91.1012 251.8 91.1012 253 90.9012C255.6 90.4012 257.7 89.0012 259.3 87.0012C262.6 82.7012 265.9 78.4012 269.1 74.0012C270.2 72.5012 269.8 70.5012 268.1 69.5012C266.9 68.7012 265.6 68.6012 264.2 69.1012C264.6 68.2012 265.1 67.5012 265.5 66.7012C266.3 65.0012 265.8 63.4012 264.2 62.5012C263 61.8012 261.8 61.8012 260.4 62.6012C261 60.9012 261.8 59.3012 260.3 57.8012C259 56.4012 257.4 56.4012 255.6 57.3012C255.9 56.7012 256.1 56.4012 256.3 56.1012C258.2 52.9012 260.1 49.8012 262 46.6012C262.8 45.2012 262.8 43.8012 261.8 42.7012C261 41.8012 260.1 41.4012 259.1 41.4012C258 41.5012 256.9 42.1012 256.2 43.3012Z" fill="#5D5D5D"/>
</g>
</svg>
