<svg width="11" height="7" viewBox="0 0 11 7" fill="none" xmlns="http://www.w3.org/2000/svg">
<path d="M4.83904 5.9206L0.102959 1.05725C5.59198e-07 0.951524 1.14986e-06 0.95152 1.15449e-06 0.845795C1.15911e-06 0.74007 5.73062e-07 0.634348 0.102959 0.634348L0.61775 0.105723C0.720709 -2.02885e-06 0.720708 -4.14041e-07 0.823667 -4.09541e-07C0.926625 -4.0504e-07 1.02958 -2.01535e-06 1.02958 0.105723L5.04496 4.229L9.06033 0.105723C9.16329 -1.65982e-06 9.26625 -4.0504e-08 9.26625 -4.0504e-08C9.3692 -3.60036e-08 9.47216 -1.64631e-06 9.47216 0.105723L10.0899 0.634348C10.1929 0.740073 10.1929 0.74007 10.1929 0.845795C10.1929 0.95152 10.1929 1.05725 10.0899 1.05725L5.35383 5.9206C5.25087 6.02632 5.25087 6.02632 5.14791 6.02632C4.942 6.02632 4.942 6.02632 4.83904 5.9206Z" fill="#7E1310"/>
</svg>
