<svg width="7" height="12" viewBox="0 0 7 12" fill="none" xmlns="http://www.w3.org/2000/svg">
<path d="M6.00388 6.27033L1.14053 11.0064C1.03481 11.1094 1.0348 11.1094 0.929078 11.1094C0.823353 11.1094 0.717631 11.1094 0.717631 11.0064L0.189006 10.4916C0.0832809 10.3887 0.0832825 10.3887 0.0832825 10.2857C0.0832825 10.1827 0.0832809 10.0798 0.189006 10.0798L4.31228 6.06442L0.189006 2.04905C0.0832809 1.94609 0.0832825 1.84313 0.0832825 1.84313C0.0832825 1.74017 0.0832809 1.63721 0.189006 1.63721L0.717631 1.01946C0.823356 0.916504 0.823353 0.916504 0.929078 0.916504C1.0348 0.916504 1.14053 0.916504 1.14053 1.01946L6.00388 5.75554C6.10961 5.8585 6.1096 5.8585 6.1096 5.96146C6.1096 6.16738 6.10961 6.16738 6.00388 6.27033Z" fill="#7E1310"/>
</svg>
