<svg width="34" height="25" viewBox="0 0 34 25" fill="none" xmlns="http://www.w3.org/2000/svg">
<path d="M6.25646 12.7182C6.13422 6.49772 11.4433 1.2112 17.678 1.26406C23.7556 1.29931 28.9774 6.46248 28.9424 12.7887C28.9075 18.9915 23.7381 24.2428 17.4685 24.1723C11.4608 24.1195 6.13422 18.9915 6.25646 12.7182ZM17.6082 4.40074C13.1199 4.31263 9.43494 8.1013 9.33016 12.4715C9.20791 17.1589 13.0151 21.0357 17.5732 21.0533C22.0965 21.0709 25.7989 17.2294 25.8687 12.8239C25.9211 8.33039 22.1838 4.33025 17.6082 4.40074Z" stroke="#A7A9AC"/>
<path d="M5.05169 1.19384C5.15647 1.44054 5.29619 1.68725 5.38351 1.93395C6.01222 3.57277 6.3615 5.28208 6.37897 7.04426C6.37897 7.85486 6.08207 8.48924 5.47083 9.00027C5.36604 9.08838 5.26126 9.17649 5.15647 9.2646C4.68494 9.65228 4.47537 10.1281 4.47537 10.7801C4.49283 15.1679 4.49283 19.5557 4.49283 23.9435C4.49283 24.0492 4.5103 24.1726 4.47537 24.2783C4.45791 24.3488 4.37059 24.4369 4.31819 24.4369C3.86412 24.4545 3.39259 24.4369 2.92106 24.4369C2.92106 24.3136 2.90359 24.2431 2.90359 24.155C2.90359 19.6967 2.88613 15.2384 2.92106 10.7624C2.92106 10.1104 2.69402 9.65228 2.22249 9.2646C1.99546 9.07076 1.76842 8.8593 1.55885 8.63021C1.15718 8.20729 1 7.67864 1 7.0795C1.01746 5.81074 1.15718 4.54197 1.54139 3.32607C1.76842 2.6212 2.01292 1.91633 2.25742 1.22908C2.29235 1.22908 2.32728 1.2467 2.36221 1.2467C2.37967 1.35243 2.39713 1.45817 2.39713 1.5639C2.39713 2.97364 2.39713 4.38337 2.39713 5.77549C2.39713 6.32177 2.37967 6.23366 2.86867 6.23366C2.90359 6.23366 2.93852 6.23366 2.97345 6.23366C3.14809 6.25128 3.21795 6.16317 3.21795 5.98695C3.21795 5.66976 3.21795 5.35257 3.21795 5.03538C3.21795 3.80186 3.21795 2.58596 3.21795 1.35243C3.21795 1.08811 3.28781 1 3.56723 1C4.14355 1.03524 4.14355 1.01762 4.14355 1.59914C4.14355 3.0265 4.14355 4.47148 4.14355 5.89884C4.14355 6.16317 4.19594 6.2689 4.47537 6.25128C5.06915 6.23366 4.98183 6.30414 4.98183 5.74025C4.98183 4.22478 4.98183 2.72693 4.98183 1.21146C4.9993 1.21146 5.03422 1.21146 5.05169 1.19384Z" stroke="#A7A9AC"/>
<path d="M31.1609 13.1942C31.0387 13.1942 30.9863 13.1766 30.9164 13.1766C30.7418 13.1942 30.6719 13.1061 30.6719 12.9299C30.5846 11.5906 30.4624 10.2338 30.375 8.8945C30.3226 7.78433 30.2528 6.69178 30.3052 5.58161C30.3576 4.38333 30.5846 3.20267 31.2832 2.18061C31.6848 1.5991 32.1913 1.15855 32.9597 1.01758C32.9597 1.12331 32.9772 1.22904 32.9772 1.31715C32.9772 5.15869 32.9772 9.00023 32.9772 12.8418C32.9772 12.9827 33.0296 13.159 32.7851 13.1766C32.7502 13.1766 32.7327 13.2999 32.7152 13.3704C32.7152 13.5643 32.7152 13.7581 32.7152 13.9519C32.7152 17.3177 32.7152 20.7011 32.7152 24.0668C32.7152 24.3488 32.6279 24.4193 32.366 24.4016C32.0341 24.384 31.7198 24.384 31.388 24.4016C31.2133 24.4016 31.1435 24.3488 31.1435 24.1549C31.1435 23.4148 31.1435 22.6747 31.1435 21.9346C31.1435 19.1151 31.1435 16.3133 31.1435 13.4938C31.1609 13.4409 31.1609 13.3176 31.1609 13.1942Z" stroke="#A7A9AC"/>
<path d="M10.1686 12.7182C10.0988 8.62999 13.5392 5.36997 17.2591 5.22899C21.5378 5.05278 24.9433 8.57713 25.0307 12.5244C25.1354 16.8065 21.6601 20.1722 17.7132 20.2427C13.6615 20.3132 10.0988 16.9298 10.1686 12.7182Z" stroke="#A7A9AC"/>
</svg>
