<svg width="57" height="45" viewBox="0 0 57 45" fill="none" xmlns="http://www.w3.org/2000/svg">
<path d="M23.1457 9.97382C23.1457 9.97382 24.4984 9.42981 24.4984 10.7898C24.4984 12.1499 24.4984 13.2379 24.4984 13.2379H22.2439L23.1457 14.5979H24.2729C24.2729 14.5979 24.2729 18.134 24.2729 18.678C24.2729 19.222 24.9492 20.854 26.5274 20.854C28.1055 20.854 30.5854 18.678 30.5854 15.9579C30.5854 13.7819 29.6836 12.6939 28.5564 12.6939C27.4291 12.6939 27.2037 13.7819 27.2037 14.5979C27.2037 15.4139 27.6546 16.2299 28.7818 16.2299C28.7818 16.2299 28.5564 18.678 26.5274 19.494C25.6256 19.766 25.1747 18.95 25.1747 18.406C25.1747 17.8619 25.1747 14.8699 25.1747 14.8699H26.7528L25.851 13.5099H25.4001C25.4001 13.5099 25.4001 11.6058 25.4001 10.7898C25.4001 9.97382 24.9492 8.3418 24.0475 8.3418C23.1457 8.3418 22.2439 8.6138 23.1457 9.97382Z" fill="#A1A1A1"/>
<path d="M0.0106367 0C17.2102 0 34.3033 0 51.439 0C51.439 6.38727 51.439 12.7434 51.439 19.1618C50.8966 19.1618 50.386 19.1826 49.8754 19.141C49.7691 19.1306 49.6202 18.8502 49.6202 18.6944C49.5989 17.5208 49.5989 16.3369 49.5989 15.1633C49.5989 10.9051 49.5882 6.64691 49.6095 2.38873C49.6095 1.86944 49.4393 1.76559 48.9394 1.76559C38.8026 1.77597 28.6659 1.77597 18.5185 1.77597C13.2214 1.77597 7.9137 1.77597 2.61663 1.76559C1.85078 1.76559 1.85078 1.76559 1.85078 2.53414C1.85078 9.40953 1.85078 16.2745 1.86142 23.1499C1.86142 24.3755 1.87206 25.6114 1.85078 26.8369C1.84015 27.2316 1.95715 27.377 2.39325 27.377C7.63714 27.3666 12.8917 27.3666 18.1356 27.3666C21.8371 27.3666 25.5493 27.3666 29.2509 27.377C29.3892 27.377 29.5274 27.3874 29.7083 27.3977C29.7083 27.9793 29.7083 28.5402 29.7083 29.1529C29.5274 29.1633 29.3573 29.1841 29.1871 29.1841C20.8692 29.1841 12.5619 29.1841 4.24404 29.1737C2.99955 29.1737 1.76569 29.1633 0.521198 29.1945C0.12764 29.2049 0 29.0906 0 28.696C0.0106367 20.6677 0.0106367 12.6395 0.0106367 4.60091C0.0106367 3.33384 0.0106367 2.07716 0 0.810092C0 0.560833 0.0106367 0.301188 0.0106367 0Z" fill="#A1A1A1"/>
<path d="M56.998 31.2097C57.127 38.1042 51.1393 44.3125 44.2271 44.484C36.6915 44.6663 30.6286 38.3616 30.5856 31.317C30.5426 24.3582 36.498 18.1928 43.5607 18.0749C51.0425 17.9569 57.0302 24.3045 56.998 31.2097ZM55.1167 31.2741C55.0415 24.7871 50.0751 19.844 43.6682 19.9405C37.014 20.0478 32.2518 25.3446 32.4668 31.6708C32.6603 37.6324 37.358 42.6719 44.0444 42.5969C50.2363 42.5325 55.192 37.4609 55.1167 31.2741Z" fill="#A1A1A1"/>
<path d="M5.56097 20.2439C5.56097 16.2276 5.56097 12.2868 5.56097 8.27057C5.81162 8.28133 6.05224 8.28133 6.29286 8.31363C8.41833 8.62589 10.0425 7.2692 10.2731 4.96499C10.2932 4.80348 10.2631 4.62043 10.3333 4.49123C10.4034 4.35125 10.5638 4.17897 10.6942 4.17897C14.4539 4.16821 18.2135 4.16821 21.9732 4.17897C22.0033 4.17897 22.0334 4.20051 22.1637 4.23281C22.0133 4.39432 21.913 4.5343 21.7827 4.64197C20.5997 5.75101 19.4166 6.84928 18.6045 8.33517C16.1582 12.7821 16.5492 19.8239 20.7801 23.571C21.2513 23.9801 21.6925 24.4324 22.2439 24.96C21.9532 24.9923 21.8128 25.0138 21.6724 25.0138C17.9328 25.0138 14.1832 25.003 10.4435 25.0246C9.95227 25.0246 9.76178 24.9169 9.79186 24.3462C9.82194 23.8401 9.77181 23.3018 9.6515 22.8065C9.3006 21.3314 8.00727 20.2869 6.53348 20.2439C6.2327 20.2331 5.93193 20.2439 5.56097 20.2439ZM17.8727 6.06326C17.7323 6.05249 17.602 6.04172 17.4816 6.04172C15.7973 6.04172 14.113 6.05249 12.4186 6.03096C12.0276 6.03096 11.8471 6.1494 11.6968 6.55856C11.025 8.34594 9.81191 9.53035 8.08748 10.0795C7.83683 10.1549 7.57616 10.2087 7.34557 10.2625C7.32551 10.3379 7.30546 10.381 7.30546 10.4133C7.30546 12.9759 7.30546 15.5385 7.28541 18.1012C7.28541 18.4457 7.45585 18.5103 7.69647 18.5965C9.58132 19.2533 10.8145 20.6099 11.386 22.6342C11.4862 23.0003 11.6266 23.151 11.9975 23.1403C13.8122 23.1187 15.6369 23.1403 17.4616 23.1403C17.602 23.1403 17.7323 23.1187 17.8626 23.0972C14.4839 17.3797 14.4839 11.7377 17.8727 6.06326Z" fill="#A1A1A1"/>
<path d="M33.8728 6.06792C35.9901 9.02727 36.8651 12.2251 36.6383 15.7156C36.5195 17.4934 36.0981 19.1953 35.3203 20.8538C34.737 20.637 34.1968 20.4202 33.5811 20.1817C34.845 17.3525 35.1367 14.4473 34.4237 11.4446C33.6891 8.3877 31.7662 6.17632 29.1951 4.25762C29.5084 4.21426 29.638 4.18174 29.7677 4.18174C33.8728 4.18174 37.9778 4.18174 42.0829 4.1709C42.4934 4.1709 42.6015 4.30098 42.6015 4.70206C42.6015 5.24407 42.6231 5.79691 42.7527 6.3064C43.1848 7.93242 44.4379 8.86467 46.2204 8.95139C46.5553 8.97307 46.8902 8.95139 47.2683 8.95139C47.2683 11.9216 47.2683 14.8159 47.2683 17.7536C46.6525 17.7536 46.0692 17.7536 45.4102 17.7536C45.4102 17.5476 45.4102 17.3525 45.4102 17.1573C45.4102 15.1844 45.3994 13.2224 45.4102 11.2495C45.4102 10.9026 45.313 10.7508 44.9673 10.6424C42.8607 10.0029 41.5104 8.58282 40.8514 6.47984C40.7974 6.31724 40.6029 6.07876 40.4733 6.07876C38.3235 6.05708 36.1738 6.06792 33.8728 6.06792Z" fill="#A1A1A1"/>
<path d="M48.6585 36.1737C48.1903 36.6471 47.7554 37.0628 47.2871 37.5362C47.1422 37.4092 46.9749 37.2706 46.83 37.109C45.2133 35.4347 43.6077 33.7604 42.0022 32.0746C41.8572 31.9244 41.7123 31.6935 41.7123 31.4972C41.7011 28.9569 41.7123 26.4166 41.7123 23.8878C41.7123 23.8185 41.7346 23.7377 41.7569 23.6338C42.3701 23.6338 42.9722 23.6338 43.63 23.6338C43.6412 23.8532 43.6635 24.061 43.6635 24.2689C43.6635 26.2896 43.6635 28.3103 43.63 30.3194C43.6189 30.7698 43.7638 31.07 44.0649 31.3817C45.4697 32.8136 46.8523 34.2569 48.246 35.7003C48.3686 35.8388 48.4801 35.9774 48.6585 36.1737Z" fill="#A1A1A1"/>
</svg>
