<svg width="60" height="45" viewBox="0 0 60 45" fill="none" xmlns="http://www.w3.org/2000/svg">
<path d="M32.1856 37.6112C32.6365 36.4207 33.0873 35.2303 33.5493 34.0172C38.3955 35.9446 43.0839 35.7859 47.5694 33.1896C51.1984 31.0922 53.5764 27.9517 54.7485 23.9042C57.0926 15.8547 52.517 7.28356 44.4701 4.68729C36.6148 2.15904 28.906 6.39924 26.0209 12.4421C26.7872 12.8276 27.5536 13.213 28.4214 13.6439C25.9194 15.4125 23.4738 17.1358 20.8817 18.9724C20.6676 15.7866 20.476 12.7709 20.2618 9.6304C21.0169 9.9932 21.6931 10.3106 22.4144 10.6508C25.8631 4.5399 30.9572 0.866572 37.9221 0.118302C43.0726 -0.437232 47.7835 0.968609 51.8295 4.23379C59.9891 10.8322 61.6796 22.0902 55.7402 30.8201C50.0601 39.1644 39.669 41.0464 32.1856 37.6112Z" fill="#A1A1A1"/>
<path d="M29.4472 35.7278C28.9175 36.9409 28.4216 38.052 27.937 39.1744C27.3509 40.5009 26.7649 41.8273 26.1788 43.1538C25.8858 43.8114 25.4914 44.3669 24.849 44.7071C24.139 45.0812 23.4289 45.0925 22.6851 44.7637C18.6729 42.9724 14.6495 41.2038 10.6373 39.4238C7.6282 38.0973 4.64161 36.7255 1.62122 35.4444C0.0546698 34.7981 -0.294704 33.1769 0.223722 31.9865C1.3282 29.4469 2.45521 26.9186 3.57095 24.379C3.59349 24.3337 3.63857 24.2883 3.69492 24.209C12.2602 28.041 20.8255 31.8731 29.4472 35.7278ZM24.0713 41.7593C24.1615 41.6913 24.3418 41.6233 24.3982 41.4872C24.7137 40.8297 25.018 40.1607 25.2772 39.4692C25.3336 39.3331 25.1983 38.993 25.0631 38.925C23.9361 38.3808 22.7865 37.8706 21.6257 37.3944C21.4905 37.3377 21.1524 37.4624 21.0847 37.5985C20.7466 38.2447 20.4423 38.9136 20.1944 39.6052C20.1381 39.7526 20.2958 40.1041 20.4536 40.1834C21.5468 40.7049 22.6738 41.1811 23.7783 41.68C23.8459 41.714 23.9248 41.7253 24.0713 41.7593Z" fill="#A1A1A1"/>
<path d="M4.86707 21.3641C5.3066 20.4458 5.65598 19.5501 6.12932 18.7338C6.80553 17.5774 8.07905 17.2259 9.3075 17.7701C16.3401 20.9106 23.3614 24.0511 30.3827 27.2029C31.6336 27.7584 32.1971 28.9828 31.7576 30.3433C31.4759 31.1936 31.0814 32.0099 30.6982 32.9283" fill="#A1A1A1"/>
<path d="M38.8465 10.4236C39.5227 10.4236 40.12 10.401 40.7061 10.4463C40.8075 10.4576 40.954 10.6957 40.9653 10.8318C40.9991 11.3193 40.9765 11.8068 40.9765 12.2263C41.9007 12.453 42.7572 12.6684 43.6137 12.8725C43.9969 12.9632 44.1209 13.156 43.9857 13.5641C43.7828 14.1877 43.6363 14.8339 43.4898 15.3894C42.498 15.1854 41.5513 14.9586 40.6046 14.8112C40.2327 14.7545 39.8157 14.8226 39.4325 14.9019C38.9592 15.004 38.6098 15.2874 38.5196 15.7862C38.4182 16.3078 38.6774 16.6932 39.0944 16.92C39.9059 17.3395 40.7624 17.6796 41.5851 18.0991C42.2162 18.4165 42.8925 18.7113 43.4221 19.1648C45.1465 20.6273 45.1014 23.3823 43.3207 24.8222C42.7234 25.2983 41.957 25.5818 41.2245 25.8652C40.8864 26.0013 40.7511 26.126 40.7737 26.4888C40.8075 27.033 40.7849 27.5772 40.7849 28.1554C40.0749 28.1554 39.41 28.1554 38.6662 28.1554C38.6662 27.6339 38.6436 27.135 38.6774 26.6248C38.7 26.2393 38.5647 26.1033 38.1815 26.0693C37.0883 25.9672 36.0402 25.7065 35.0146 25.151C35.2175 24.3347 35.4204 23.5184 35.6458 22.6567C36.1642 22.8608 36.6375 23.1216 37.1334 23.2123C38.0463 23.371 38.9817 23.5184 39.9059 23.507C40.7399 23.4957 41.2132 23.0195 41.3146 22.43C41.4161 21.8291 41.123 21.3076 40.3567 20.9221C39.7706 20.6273 39.1508 20.4119 38.5535 20.1398C38.0238 19.9017 37.4828 19.675 36.9869 19.3689C35.8036 18.6546 35.1161 17.6229 35.1837 16.2057C35.2513 14.7092 36.0402 13.6661 37.3363 12.9859C37.573 12.8612 37.8096 12.7138 38.0688 12.6911C38.8352 12.6231 38.9479 12.1696 38.869 11.5234C38.8127 11.2059 38.8465 10.8431 38.8465 10.4236Z" fill="#A1A1A1"/>
</svg>
