<svg width="58" height="45" viewBox="0 0 58 45" fill="none" xmlns="http://www.w3.org/2000/svg">
<path d="M57.8217 20.823C57.8217 17.7432 57.8356 14.6633 57.8356 11.5974C57.8356 11.0235 57.5713 10.6595 57.0427 10.4215C54.5112 9.28754 51.9936 8.12559 49.4621 6.96364C49.3508 6.83765 49.2117 6.72565 49.0448 6.66966L47.2366 5.95569C46.9862 5.84369 46.7219 5.7317 46.4576 5.6057C46.3464 5.5637 46.249 5.5357 46.1377 5.52171L32.4369 0.0759404C32.1587 -0.0360548 31.8666 -0.0220554 31.6023 0.103939L17.4842 6.68365C17.4425 6.69765 17.4147 6.72565 17.3729 6.73965C14.6606 7.9716 11.9482 9.21755 9.22198 10.4495C8.72124 10.6735 8.5126 11.0655 8.5126 11.5834C8.5126 14.5093 8.52651 17.4352 8.52651 20.3611C3.61646 21.705 0 26.2268 0 31.5746C0 37.9863 5.18823 43.1941 11.5588 43.1941C15.0361 43.1941 18.1519 41.6401 20.28 39.1902C23.7017 40.7582 27.1235 42.3261 30.5452 43.894C31.3102 44.244 32.0613 44.636 32.8124 45C33.0628 45 33.2993 45 33.5496 45C33.7166 44.902 33.8835 44.79 34.0643 44.706C35.497 44.048 36.9436 43.3901 38.3762 42.7181C44.6077 39.8622 50.8391 37.0063 57.0706 34.1645C57.6269 33.9125 57.8217 33.5205 57.8217 32.9185C57.8217 28.8867 57.8217 24.8549 57.8217 20.823ZM32.0892 38.3223C32.0892 39.4982 32.0892 40.6742 32.0892 41.8501C32.0892 41.9341 32.0752 42.0321 32.0613 42.1861C31.4493 41.9061 30.8651 41.6541 30.2809 41.3882C27.3738 40.0582 24.4668 38.7143 21.5597 37.3843C22.5473 35.6764 23.1175 33.6885 23.1175 31.5746C23.1175 25.1629 17.9293 19.9551 11.5588 19.9551C11.2667 19.9551 10.9746 19.9691 10.6825 19.9971C10.6825 17.9392 10.6686 15.8813 10.6686 13.8233C10.6686 13.6414 10.6686 13.4594 10.6686 13.1794C11.7813 13.6834 12.8106 14.1593 13.8399 14.6213C19.3342 17.1412 24.8145 19.6611 30.3087 22.181C30.7538 22.391 31.185 22.629 31.644 22.797C31.9918 22.923 32.0892 23.1189 32.0892 23.4829C32.0892 28.4247 32.0892 33.3805 32.0892 38.3223ZM33.5357 20.921C33.3271 21.019 33.0211 21.019 32.8124 20.921C26.1359 17.8692 19.4594 14.8173 12.7828 11.7514C12.6298 11.6814 12.4768 11.5974 12.2403 11.4714C12.5603 11.3175 12.7828 11.2055 13.0054 11.1075C15.5508 9.94551 18.0962 8.78356 20.6277 7.60761C20.7112 7.56562 20.7947 7.52362 20.8642 7.46762L32.0752 2.24585L46.3185 7.8876C48.711 8.99355 51.1173 10.0855 53.5097 11.1775C53.6767 11.2615 53.8436 11.3455 54.08 11.4714C53.8853 11.5694 53.7879 11.6394 53.6767 11.6814C46.9862 14.7753 40.2679 17.8552 33.5357 20.921ZM55.2762 32.6245C48.4328 35.7324 41.6032 38.8683 34.7737 41.9901C34.6346 42.0461 34.4955 42.1021 34.2868 42.1861C34.2729 41.9761 34.259 41.8221 34.259 41.6541C34.259 35.5924 34.259 29.5307 34.259 23.4689C34.259 23.1049 34.3842 22.937 34.718 22.783C40.866 19.9691 47.014 17.1552 53.162 14.3273C53.9827 13.9493 54.8033 13.5854 55.6935 13.1794C55.6935 15.4613 55.6935 17.6592 55.6935 19.8571C55.6935 23.8889 55.6935 27.9347 55.6935 31.9666C55.6935 32.3165 55.5962 32.4705 55.2762 32.6245Z" fill="#A1A1A1"/>
<path d="M7.58588 27.3936C7.58588 27.3936 9.3231 26.8347 9.3231 28.232C9.3231 29.6293 9.3231 30.7472 9.3231 30.7472H6.42773L7.58588 32.1445H9.03357C9.03357 32.1445 9.03357 35.7776 9.03357 36.3365C9.03357 36.8954 9.90218 38.5722 11.9289 38.5722C13.9557 38.5722 17.1406 36.3365 17.1406 33.5419C17.1406 31.3061 15.9825 30.1883 14.5348 30.1883C13.0871 30.1883 12.7975 31.3061 12.7975 32.1445C12.7975 32.9829 13.3766 33.8213 14.8243 33.8213C14.8243 33.8213 14.5348 36.3365 11.9289 37.1749C10.7708 37.4544 10.1917 36.616 10.1917 36.057C10.1917 35.4981 10.1917 32.424 10.1917 32.424H12.2185L11.0603 31.0267H10.4813C10.4813 31.0267 10.4813 29.0704 10.4813 28.232C10.4813 27.3936 9.90218 25.7168 8.74403 25.7168C7.58588 25.7168 6.42774 25.9963 7.58588 27.3936Z" fill="white"/>
</svg>
