<svg width="48" height="46" viewBox="0 0 48 46" fill="none" xmlns="http://www.w3.org/2000/svg">
<path d="M22.178 35.7098C22.606 34.5796 23.034 33.4493 23.4727 32.2975C28.0739 34.1275 32.5252 33.9768 36.784 31.5118C40.2295 29.5204 42.4873 26.5387 43.6002 22.6958C45.8258 15.0532 41.4815 6.91535 33.8414 4.45033C26.3832 2.04989 19.0641 6.07574 16.3248 11.8131C17.0525 12.1791 17.7801 12.5451 18.604 12.9541C16.2285 14.6333 13.9065 16.2695 11.4455 18.0133C11.2421 14.9886 11.0602 12.1253 10.8569 9.14356C11.5739 9.48802 12.2159 9.78942 12.9007 10.1123C16.175 4.31039 21.0116 0.822765 27.6245 0.112322C32.5145 -0.415128 36.9873 0.919643 40.8287 4.01976C48.5758 10.2846 50.1809 20.9735 44.5418 29.262C39.1488 37.1845 29.283 38.9714 22.178 35.7098Z" fill="#A1A1A1"/>
<path d="M28.502 9.89698C29.144 9.89698 29.7111 9.87545 30.2675 9.91851C30.3638 9.92928 30.5029 10.1553 30.5136 10.2845C30.5457 10.7474 30.5243 11.2102 30.5243 11.6085C31.4018 11.8238 32.215 12.0283 33.0282 12.2221C33.392 12.3082 33.5097 12.4912 33.3813 12.8787C33.1887 13.4707 33.0496 14.0843 32.9105 14.6117C31.9689 14.418 31.07 14.2027 30.1712 14.0628C29.8181 14.0089 29.4222 14.0735 29.0584 14.1489C28.609 14.2458 28.2772 14.5149 28.1916 14.9885C28.0953 15.4836 28.3415 15.8496 28.7374 16.0649C29.5078 16.4632 30.321 16.7861 31.1021 17.1844C31.7014 17.4858 32.3434 17.7657 32.8463 18.1963C34.4835 19.5848 34.4407 22.2006 32.75 23.5676C32.1829 24.0197 31.4553 24.2888 30.7597 24.5579C30.4387 24.6871 30.3103 24.8055 30.3317 25.15C30.3638 25.6667 30.3424 26.1834 30.3424 26.7323C29.6683 26.7323 29.037 26.7323 28.3308 26.7323C28.3308 26.2372 28.3094 25.7635 28.3415 25.2792C28.3629 24.9132 28.2344 24.784 27.8706 24.7517C26.8327 24.6548 25.8376 24.4072 24.8638 23.8798C25.0564 23.1048 25.249 22.3297 25.463 21.5117C25.9553 21.7054 26.4047 21.953 26.8755 22.0391C27.7422 22.1898 28.6304 22.3297 29.5078 22.319C30.2996 22.3082 30.749 21.8561 30.8453 21.2964C30.9416 20.7259 30.6634 20.2307 29.9358 19.8647C29.3794 19.5848 28.7909 19.3803 28.2237 19.122C27.7208 18.8959 27.2072 18.6806 26.7364 18.39C25.6129 17.7119 24.9601 16.7323 25.0243 15.3868C25.0885 13.9659 25.8376 12.9756 27.0681 12.3297C27.2928 12.2113 27.5175 12.0714 27.7636 12.0498C28.4913 11.9853 28.5983 11.5547 28.5234 10.9411C28.4699 10.6397 28.502 10.2953 28.502 9.89698Z" fill="#A1A1A1"/>
<path d="M7.42478 28.8312C6.64594 27.6367 5.88153 26.4713 5.11711 25.3059C5.06423 25.2233 5.01134 25.1456 4.95846 25.0631C4.77577 24.7571 4.80461 24.5338 5.0498 24.2764C6.06903 23.2178 7.28536 22.8051 8.72285 23.1596C9.21804 23.281 9.71323 23.4266 10.194 23.6063C10.593 23.7568 10.9536 23.7277 11.3382 23.582C11.8286 23.3926 12.319 23.1838 12.8286 23.043C13.8045 22.7614 14.6603 23.0187 15.4007 23.7083C15.7132 23.9996 15.7516 24.2036 15.5449 24.5872C14.8382 25.9128 14.1315 27.2336 13.4295 28.5593C13.3863 28.637 13.3526 28.7147 13.3094 28.7972C13.569 29.0109 13.819 29.21 14.0642 29.4188C15.7132 30.827 17.0882 32.4683 18.1218 34.3864C19.1843 36.353 19.7612 38.4556 19.7612 40.7039C19.7612 43.1124 17.8814 44.9916 15.4968 44.9965C12.0834 45.0013 8.66997 45.0013 5.25653 44.9965C2.80944 44.9916 0.934449 42.9813 1.00176 40.5145C1.0931 37.261 2.28059 34.4495 4.26616 31.9341C5.10749 30.8658 6.06903 29.9189 7.12671 29.0692C7.21806 28.9963 7.31421 28.9186 7.42478 28.8312ZM10.3767 43.8845C10.3767 43.8893 10.3767 43.8942 10.3767 43.8942C12.0594 43.8942 13.742 43.8796 15.4247 43.899C17.2805 43.9233 18.6795 42.452 18.6651 40.6893C18.6507 39.1791 18.3814 37.7126 17.8141 36.3141C16.6988 33.556 14.8622 31.3757 12.5257 29.6033C12.4488 29.545 12.3334 29.5208 12.2372 29.5208C11.0017 29.5159 9.77092 29.5159 8.53535 29.5208C8.42478 29.5208 8.29497 29.5596 8.20843 29.6276C6.18441 31.1572 4.54019 33.0219 3.39597 35.309C2.52098 37.0474 2.05944 38.8926 2.10752 40.8495C2.14598 42.486 3.44885 43.8359 5.06423 43.8748C6.83344 43.9136 8.60747 43.8845 10.3767 43.8845ZM6.10268 24.8008C6.8719 25.9808 7.63151 27.1414 8.39593 28.2922C8.4392 28.3602 8.56901 28.4039 8.65554 28.4039C9.78534 28.4136 10.9151 28.4039 12.0449 28.4136C12.2036 28.4136 12.2901 28.3651 12.3622 28.2242C12.6844 27.6027 13.0161 26.986 13.3478 26.3644C13.7084 25.6895 14.069 25.0145 14.4295 24.3298C13.9199 23.9268 13.3767 23.9705 12.8286 24.1696C12.4151 24.3201 12.0113 24.4901 11.5978 24.6455C11.0209 24.8591 10.4488 24.864 9.86227 24.6503C9.36227 24.4658 8.84304 24.3104 8.32382 24.1987C7.50171 24.0191 6.75652 24.1987 6.10268 24.8008Z" stroke="#A1A1A1"/>
</svg>
