<?xml version="1.0" encoding="utf-8"?>
<!-- Generator: Adobe Illustrator 23.0.1, SVG Export Plug-In . SVG Version: 6.00 Build 0)  -->
<svg version="1.1" id="Layer_1" xmlns="http://www.w3.org/2000/svg" xmlns:xlink="http://www.w3.org/1999/xlink" x="0px" y="0px"
	 viewBox="0 0 45 62.9" style="enable-background:new 0 0 45 62.9;" xml:space="preserve">
<style type="text/css">
	.st0{fill:#D8D7D6;}
</style>
<path class="st0" d="M44.2,11.1H29c-0.3,0-0.5,0.2-0.5,0.5v2.5c0,0.3,0.2,0.5,0.5,0.5h0.3v16.7h-3.9l0,0c0-8.5-2.7-15.9-6.6-19.7
	c0.5-1.1,0.8-2.3,0.8-3.6c0-4.4-3.1-8-6.9-8S5.8,3.6,5.8,8c0,1.3,0.3,2.5,0.8,3.6C2.7,15.4,0,22.8,0,31.3c0,8.6,2.7,16,6.7,19.8
	c-0.5,1.1-0.9,2.4-0.9,3.8c0,4.4,3.1,8,6.9,8s6.9-3.6,6.9-8c0-1.4-0.3-2.7-0.9-3.8c4-3.8,6.7-11.2,6.7-19.7h3.9v16.8H29
	c-0.2,0-0.4,0.2-0.4,0.4v2.7c0,0.2,0.2,0.4,0.4,0.4h15.2c0.4,0,0.8-0.3,0.8-0.8V11.8C44.9,11.4,44.6,11.1,44.2,11.1z M12.7,2.3
	c2.7,0,4.8,2.5,4.8,5.5c0,0.8-0.2,1.6-0.4,2.2c-1.4-0.9-2.9-1.4-4.4-1.4s-3,0.5-4.4,1.4C8,9.3,7.9,8.6,7.9,7.8
	C7.9,4.8,10,2.3,12.7,2.3z M12.7,60.4c-2.7,0-4.8-2.5-4.8-5.5c0-0.9,0.2-1.7,0.5-2.5c1.3,0.8,2.8,1.3,4.3,1.3s3-0.5,4.3-1.3
	c0.3,0.7,0.5,1.6,0.5,2.5C17.5,57.9,15.3,60.4,12.7,60.4z M12.7,52C6.4,52,1.3,42.7,1.3,31.2s5.1-20.8,11.4-20.8
	c3.6,0,7,3.1,9.1,8.4l-0.2,0.1c-2.1-5.2-5.4-8.3-8.9-8.3c-6.2,0-11.2,9.3-11.2,20.6c0,11.4,5,20.6,11.2,20.6s11.2-9.3,11.2-20.6
	c0-4.4-0.7-8.6-2.2-12.2l0.2-0.1c1.4,3.6,2.2,7.8,2.2,12.3C24,42.7,18.9,52,12.7,52z M44.2,49.2c0,0.7-0.6,1.3-1.3,1.3H41h-0.1
	L40,49.6v-0.1v-0.7h-9.9c-0.1,0-0.1,0-0.1-0.1c0-0.1,0-0.1,0.1-0.1s9.6,0,9.6,0l-0.3-0.2h-9.3c-0.1,0-0.2-0.1-0.2-0.3
	s0.1-0.4,0.2-0.4h8L38,31.4h1.9L40,48.1l0.2,0.4l0,0v0.1v0.7l0.7,0.7l-0.1-18.6h0.6L41.5,48H43c0.6,0,1-0.5,1-1l-0.1-15.6h0.3V49.2
	L44.2,49.2z M44.2,31.3h-0.3V15.7c0-0.6-0.5-1-1-1h-1.5v16.6h-0.6V12.7l-0.7,0.7v0.7v0.1l0,0l-0.2,0.4v16.7H38V15.1h-8
	c-0.1,0-0.1-0.1-0.1-0.3s0.1-0.3,0.1-0.3h9.3l0.3-0.2H30c0,0-0.1,0-0.1-0.1s0.1-0.1,0.1-0.1h9.9v-0.7v-0.1l0.9-0.9h0.1h1.9
	c0.7,0,1.3,0.6,1.3,1.3L44.2,31.3L44.2,31.3z"/>
</svg>
