<?xml version="1.0" encoding="utf-8"?>
<!-- Generator: Adobe Illustrator 23.0.1, SVG Export Plug-In . SVG Version: 6.00 Build 0)  -->
<svg version="1.1" id="Layer_1" xmlns="http://www.w3.org/2000/svg" xmlns:xlink="http://www.w3.org/1999/xlink" x="0px" y="0px"
	 viewBox="0 0 25.5 62.9" style="enable-background:new 0 0 25.5 62.9;" xml:space="preserve">
<style type="text/css">
	.st0{fill:#D8D7D6;}
</style>
<path class="st0" d="M25.5,31.3c0-8.5-2.7-15.9-6.6-19.7c0.5-1.1,0.8-2.3,0.8-3.6c0-4.4-3.1-8-6.9-8C9,0,5.9,3.6,5.9,8
	c0,1.3,0.3,2.5,0.8,3.6C2.7,15.5,0,22.9,0,31.3c0,8.6,2.7,16,6.7,19.8c-0.5,1.1-0.9,2.4-0.9,3.8c0,4.4,3.1,8,6.9,8
	c3.8,0,6.9-3.6,6.9-8c0-1.4-0.3-2.7-0.9-3.8C22.8,47.3,25.5,39.9,25.5,31.3z M12.7,2.5c2.7,0,4.8,2.5,4.8,5.5c0,0.8-0.2,1.6-0.4,2.2
	c-1.3-0.8-2.8-1.3-4.4-1.3c-1.5,0-3,0.5-4.4,1.4C8,9.6,7.9,8.9,7.9,8.1C7.9,4.9,10.1,2.5,12.7,2.5z M1.4,31.3
	c0-11.5,5.1-20.8,11.4-20.8c3.6,0,7,3.1,9.1,8.4L21.7,19c-2.1-5.2-5.4-8.3-8.9-8.3C6.6,10.7,1.6,20,1.6,31.3
	c0,11.4,5,20.6,11.2,20.6S24,42.6,24,31.3c0-4.4-0.7-8.6-2.2-12.2L22,19c1.4,3.6,2.2,7.8,2.2,12.3c0,11.5-5.1,20.8-11.4,20.8
	C6.5,52.2,1.4,42.8,1.4,31.3z M17.6,54.9c0,3.1-2.2,5.5-4.8,5.5c-2.7,0-4.8-2.5-4.8-5.5c0-0.9,0.2-1.7,0.5-2.5
	c1.3,0.8,2.8,1.3,4.3,1.3s3-0.5,4.3-1.3C17.4,53.2,17.6,54.1,17.6,54.9z"/>
</svg>
