<svg width="74" height="43" viewBox="0 0 74 43" fill="none" xmlns="http://www.w3.org/2000/svg">
<path d="M67.2 16V7.6H60.3V0.5H48.8999V7.6H43V0.5H31.7V7.6H26.3999V0.5H15.1V7.6H7.19995V16H0.699951V27.1H7.19995V35.5H15V42.2H26.3L26.3999 35.5H31.7V42.6H43V35.5H48.8V42.2H60.2V35.5H67.2V27.1H73.8999V16H67.2ZM50.8 2.6H57.8999V7.2H50.8V2.6ZM33.8999 2.5H41V7.6H33.8999V2.5ZM17.3 2.5H24.4V7.6H17.3V2.5ZM7.39996 25H2.89996V18H7.39996V25ZM24.4 40.1H17.3V35.5H24.4V40.1ZM40.8 40.6H33.7V35.5H40.8V40.6ZM58.2 40.1H51.1V35.5H58.2V40.1ZM63.7 31.9H63.3999V11.1H10.9V32.2H63.5V32.5L10.6 32.6V10.8H63.7V31.9V31.9ZM72 25H67.3999V18H72V25Z" fill="#D7D7D6"/>
</svg>
