<?xml version="1.0" encoding="utf-8"?>
<!-- Generator: Adobe Illustrator 23.0.1, SVG Export Plug-In . SVG Version: 6.00 Build 0)  -->
<svg version="1.1" id="Layer_1" xmlns="http://www.w3.org/2000/svg" xmlns:xlink="http://www.w3.org/1999/xlink" x="0px" y="0px"
	 viewBox="0 0 45.8 57.1" style="enable-background:new 0 0 45.8 57.1;" xml:space="preserve">
<style type="text/css">
	.st0{fill:#D8D7D6;}
</style>
<path id="Table_x5F_11" class="st0" d="M23.3,47.4v6.8h-9.7v-7C13.6,47.4,23.3,47.4,23.3,47.4z M0.1,47.4h10.6v9.7h15.4v-9.7h10.8
	V35.9h8.9V20.7h-8.9V9.2H26.3V0H10.9l-0.1,9l0,0l0,0H0L0.1,47.4z M42.8,23.4V33h-6.1v-9.6H42.8z M32.3,13.1v29.8h-28V14h0.4v28.4
	h27.2V13.6H4.6v-0.4L32.3,13.1L32.3,13.1z M23.3,2.8v6.3h-9.7V2.8H23.3z"/>
</svg>
