<?xml version="1.0" encoding="utf-8"?>
<!-- Generator: Adobe Illustrator 23.0.1, SVG Export Plug-In . SVG Version: 6.00 Build 0)  -->
<svg version="1.1" id="Layer_1" xmlns="http://www.w3.org/2000/svg" xmlns:xlink="http://www.w3.org/1999/xlink" x="0px" y="0px"
	 viewBox="0 0 53.4 54.7" style="enable-background:new 0 0 53.4 54.7;" xml:space="preserve">
<style type="text/css">
	.st0{fill:#D8D7D6;}
</style>
<path class="st0" d="M0.6,16.4h2.5c0.3,0,0.5-0.2,0.5-0.5v-0.3h22.9V19H4.1v16.6h22.6v3.5H9.9v-0.4c0-0.2-0.2-0.4-0.4-0.4H6.8
	c-0.2,0-0.4,0.2-0.4,0.4v15.2c0,0.4,0.3,0.8,0.8,0.8h39.1c0.4,0,0.8-0.3,0.8-0.8V38.8c0-0.3-0.2-0.5-0.5-0.5h-2.5
	c-0.3,0-0.5,0.2-0.5,0.5v0.3H26.9v-3.5h22.6V19.1L26.8,19v-3.4l23.1,0.1V16c0,0.2,0.2,0.4,0.4,0.4H53c0.2,0,0.4-0.2,0.4-0.4V0.8
	c0-0.4-0.3-0.8-0.8-0.8H0.8C0.4,0,0,0.3,0,0.8v15.1C0.1,16.2,0.3,16.4,0.6,16.4z M10,49.7l-0.4,0.2l0,0H9.5H8.8l-0.7,0.7h18.5v0.6
	H10.1v1.5c0,0.6,0.5,0.9,1,0.9h15.6v0.3L8.9,54c-0.7,0-1.3-0.6-1.3-1.3v-1.9v-0.1l0.9-0.9h0.1h0.7v-9.9c0-0.1,0-0.1,0.1-0.1
	s0.1,0.1,0.1,0.1c0,0,0,9.6,0,9.6l0.2-0.3v-9.3c0-0.1,0.1-0.2,0.3-0.2s0.4,0.1,0.4,0.2v7.9h16.2v1.9C26.6,49.7,10,49.7,10,49.7z
	 M43,39.8c0-0.1,0.1-0.1,0.3-0.1s0.3,0.1,0.3,0.1v9.3l0.2,0.3v-9.6c0-0.1,0-0.1,0.1-0.1s0.1,0,0.1,0.1s0,9.9,0,9.9h0.7h0.1l0.9,0.9
	v0.1v1.9c0,0.7-0.6,1.3-1.3,1.3H26.8v-0.3h15.6c0.6,0,1-0.5,1-1v-1.5l-16.6,0.1v-0.6h18.6L44.7,50H44h-0.1l0,0l-0.4-0.3H26.8v-1.9
	H43V39.8z M45.7,31.9L45.7,31.9h-0.3v-9.1H8v9.4h37.5v0.3L7.6,32.6V22.4h38.1C45.7,22.4,45.7,31.9,45.7,31.9z M26.8,5h23.1l0.4-0.2
	l0,0h0.1h0.7l0.7-0.7h-25V3.5h23V2c0-0.6-0.5-1-1-1h-22V0.7H51c0.7,0,1.3,0.6,1.3,1.3v1.9V4l-1,0.9h-0.1h-0.7v10
	c0,0.1-0.1,0.1-0.1,0.1c0,0-0.1,0-0.1-0.1V5.3l-0.2,0.3v9.3c0,0.1-0.1,0.2-0.3,0.2s-0.4-0.1-0.4-0.2V7H26.8V5z M1.3,2
	c0-0.7,0.6-1.3,1.3-1.3h24.1V1h-22c-0.6,0-1,0.5-1,1v1.5h23v0.6h-25l0.7,0.7h0.7h0.1l0,0L3.6,5h23v2H4.1v7.9C4.1,15,4,15,3.8,15
	s-0.3,0-0.3-0.1s0-9.3,0-9.3L3.3,5.3v9.6c0,0.1,0,0.1-0.1,0.1s-0.1,0-0.1-0.1s0-9.9,0-9.9H2.3H2.2L1.3,4V3.9V2z"/>
</svg>
