<svg width="57" height="42" viewBox="0 0 57 42" fill="none" xmlns="http://www.w3.org/2000/svg">
<path d="M50.2 15.7V7.29995H43.3V0.199951H31.8V7.29995H26.1V0.199951H14.8V7.29995H6.90002V15.7H0.400024V26.7999H6.90002V35.2H14.7V41.9H26L26.1 35.2H31.8V41.9H43.2V35.2H50.2V26.7999H57V15.7H50.2ZM33.8 2.29995H40.9V6.89995H33.8V2.29995ZM17 2.19995H24.1V7.29995H17V2.19995ZM7.10002 24.7H2.60002V17.7H7.10002V24.7ZM24.1 39.7999H17V35.2H24.1V39.7999ZM41.2 39.7999H34.1V35.2H41.2V39.7999ZM46.7 31.6H46.4V10.8H10.6V31.9H46.5V32.2L10.3 32.2999V10.5H46.7V31.6V31.6ZM55 24.7H50.4V17.7H55V24.7Z" fill="#D7D7D6"/>
</svg>
