<svg width="56" height="53" viewBox="0 0 56 53" fill="none" xmlns="http://www.w3.org/2000/svg">
<path d="M51.5 17.2V8.7C51.5 9.1 52.1 9.5 52.9 9.5H53.7C54.4 9.5 55.1 9.1 55.1 8.7V0H51.6H3.6H0V8.7C0 9.1 0.6 9.5 1.4 9.5H2.2C2.9 9.5 3.6 9.1 3.6 8.7V17.2H27.5V20.2H10.4V32.5H27.5V35.5H3.5V44C3.5 43.6 2.9 43.2 2.1 43.2H1.4C0.7 43.2 0 43.6 0 44V52.7H3.5H51.5H55V44C55 43.6 54.4 43.2 53.6 43.2H52.8C52.1 43.2 51.4 43.6 51.4 44V35.5H27.6V32.5H44.7V20.2H27.6V17.2H51.5ZM49.5 38.1V50C49.5 50.5 49 50.9 48.3 50.9C47.6 50.9 47.1 50.5 47.1 50V39H8.5V50C8.5 50.6 8 51 7.3 51C6.6 51 6.1 50.6 6.1 50.1V38.1C6.1 37.6 6.6 37.2 7.3 37.2H48.2C48.9 37.2 49.5 37.6 49.5 38.1ZM43.4 21.2C43.6 21.2 43.8 21.4 43.8 21.6V30.9C43.8 31.1 43.6 31.3 43.4 31.3H13C12.8 31.3 12.6 31.1 12.6 30.9C12.6 30.7 12.8 30.5 13 30.5H43V22H12.3V30.9C12.3 31.1 12.1 31.3 11.9 31.3C11.7 31.3 11.5 31.1 11.5 30.9V21.6C11.5 21.4 11.7 21.2 11.9 21.2H27.4H27.5H43.4ZM5.5 14.6V2.7C5.5 2.2 6 1.8 6.7 1.8C7.4 1.8 7.9 2.2 7.9 2.7V13.7H46.4V2.7C46.4 2.2 46.9 1.8 47.6 1.8C48.3 1.8 48.8 2.2 48.8 2.7V14.6C48.8 15.1 48.3 15.5 47.6 15.5H6.7C6.1 15.6 5.5 15.1 5.5 14.6Z" fill="#D8D7D6"/>
</svg>
