<?xml version="1.0" encoding="utf-8"?>
<!-- Generator: Adobe Illustrator 23.0.1, SVG Export Plug-In . SVG Version: 6.00 Build 0)  -->
<svg version="1.1" id="Layer_1" xmlns="http://www.w3.org/2000/svg" xmlns:xlink="http://www.w3.org/1999/xlink" x="0px" y="0px"
	 viewBox="0 0 54.9 55" style="enable-background:new 0 0 54.9 55;" xml:space="preserve">
<style type="text/css">
	.st0{fill:#D8D7D6;}
</style>
<path id="Table_x5F_5" class="st0" d="M36.4,46c0-0.3,0-0.8-0.1-1.1c3.4-1.8,6.3-4.7,8.2-8.2c0.4,0.1,1,0.1,1.4,0.1c5,0,9-4,9-9
	s-4-9-9-9c-0.4,0-1,0-1.4,0.1c-1.8-3.6-4.7-6.4-8.2-8.2c0.1-0.6,0.1-1.1,0.1-1.7c0-5-4-9-9-9s-9,4-9,9c0,0.6,0.1,1.1,0.1,1.7
	c-3.6,1.8-6.4,4.7-8.2,8.2c-0.4-0.1-0.9-0.1-1.3-0.1c-5,0-9,4-9,9s4,9,9,9c0.4,0,0.9,0,1.3-0.1c1.8,3.4,4.7,6.3,8.2,8.2
	c0,0.3-0.1,0.8-0.1,1.1c0,5,4,9,9,9S36.4,50.9,36.4,46z M46,21.5c3.4,0,6.1,2.8,6.1,6.1c0,3.4-2.8,6.1-6.1,6.1c-0.1,0-0.2,0-0.3,0
	c0.7-1.9,1-4,1-6.1s-0.3-4.2-1-6.1C45.8,21.6,45.9,21.5,46,21.5z M21.3,9c0-3.4,2.8-6.1,6.1-6.1c3.4,0,6.1,2.8,6.1,6.1
	c0,0.1,0,0.3,0,0.4c-1.9-0.7-4-1-6.1-1s-4.2,0.3-6.1,1C21.3,9.3,21.3,9.2,21.3,9z M9.1,33.9c-3.4,0-6.1-2.8-6.1-6.1
	c0-3.4,2.8-6.1,6.1-6.1c0.1,0,0.1,0,0.2,0c-0.7,1.9-1,4-1,6.1s0.3,4.2,1,6.1C9.2,33.9,9.1,33.9,9.1,33.9z M11.3,27.7
	c0-8.9,7.2-16.1,16.1-16.1c8.7,0,15.9,7.1,16.1,15.8h-0.3C43.1,18.8,36,12,27.4,12c-8.7,0-15.8,7.1-15.8,15.8s7.1,15.8,15.8,15.8
	c8.6,0,15.6-6.9,15.8-15.4h0.3C43.3,36.9,36.1,44,27.4,44C18.5,43.9,11.3,36.6,11.3,27.7z M21.3,46c1.9,0.7,4,1,6.1,1s4.2-0.3,6.1-1
	c0,3.3-2.8,6.1-6.1,6.1C24,52.1,21.3,49.3,21.3,46z"/>
</svg>
