<svg width="57" height="56" viewBox="0 0 57 56" fill="none" xmlns="http://www.w3.org/2000/svg">
<path d="M54.265 20.3269H47.9269V9.37821H36.3793L36.4227 2.91667V0.0448718H33.6443L24.0503 0H21.2719V2.87179L21.2285 9.37821H9.7243V20.3269H2.77837H0V23.1987V33.1154V35.9872H2.77837H9.7243V46.9359H21.2285V53.1282V56H24.0069H33.6009H36.3793V53.1282V46.9359H47.8835V35.9872H54.2216H57V33.1154V23.1987V20.3269H54.265ZM9.7243 33.1154H2.77837V23.1987H9.7243V33.1154ZM24.0069 2.87179L33.6009 2.91667L33.5575 9.37821H23.9634L24.0069 2.87179ZM33.6009 53.1282H24.0069V46.9359H33.6009V53.1282ZM43.933 42.359H14.1957V13.8654H42.9779V14.3141H14.6299V41.9551H43.4989V14.0897H43.933V42.359ZM54.265 33.1154H47.9269V23.1987H54.265V33.1154Z" fill="#D7D7D6"/>
</svg>
