<svg width="164" height="40" viewBox="0 0 164 40" fill="none" xmlns="http://www.w3.org/2000/svg">
<path d="M56.1782 14.3313C58.0254 14.3313 58.9808 15.5415 58.9808 17.8981V19.1083C58.9808 21.465 58.0254 22.6752 56.1782 22.6752H49.6814V27.3886H48.726V14.3313H56.1782ZM49.6814 21.4013H56.1782C57.3884 21.4013 58.0254 20.637 58.0254 19.0446V17.8345C58.0254 16.2421 57.3884 15.4778 56.1782 15.4778H49.6814V21.4013Z" fill="#F16553"/>
<path d="M50.3821 28.0892H47.9617V13.5669H56.1783C57.5159 13.5669 59.7452 14.1401 59.7452 17.8344V19.0446C59.7452 22.8025 57.5159 23.3121 56.1783 23.3121H50.3821V28.0892V28.0892ZM50.3821 20.7006H56.1783C56.6241 20.7006 57.3248 20.7006 57.3248 19.1083V17.8981C57.3248 16.3057 56.6241 16.3057 56.1783 16.3057H50.3821V20.7006Z" fill="#F16553"/>
<path d="M66.9425 22.6115V27.3249H65.9871V14.3313H73.4394C75.2865 14.3313 76.2419 15.5415 76.2419 17.8981V19.1083C76.2419 21.465 75.2865 22.6752 73.4394 22.6752H71.2737L76.2419 27.3886H74.7132L69.6814 22.6752H66.9425V22.6115ZM66.9425 15.4778V21.4013H73.4394C74.6495 21.4013 75.2865 20.637 75.2865 19.0446V17.8345C75.2865 16.2421 74.6495 15.4778 73.4394 15.4778H66.9425V15.4778Z" fill="#F16553"/>
<path d="M78.0891 28.0892H74.4585L69.4267 23.3758H67.6432V28.0892H65.2229V13.5669H73.4394C74.777 13.5669 77.0063 14.1401 77.0063 17.8344V19.0446C77.0063 22.8025 74.777 23.3121 73.4394 23.3121H73.121L78.0891 28.0892ZM67.6432 20.7006H73.4394C73.8853 20.7006 74.5859 20.7006 74.5859 19.1083V17.8981C74.5859 16.3057 73.8853 16.3057 73.4394 16.3057H67.6432V20.7006Z" fill="#F16553"/>
<path d="M93.5032 14.3313V15.5415H84.2038V20.2548H91.656V21.465H84.2038V26.1147H93.5032V27.3249H83.2484V14.3313H93.5032Z" fill="#F16553"/>
<path d="M94.2674 28.0892H82.5477V13.5669H94.2674V16.242H84.9044V19.4904H92.3566V22.1656H84.9044V25.414H94.2674V28.0892Z" fill="#F16553"/>
<path d="M110.764 14.3313V15.5415H101.465V20.2548H108.917V21.465H101.465V27.3886H100.509V14.3313H110.764Z" fill="#F16553"/>
<path d="M102.229 28.0892H99.8088V13.5669H111.529V16.242H102.229V19.4904H109.618V22.1656H102.229V28.0892Z" fill="#F16553"/>
<path d="M128.025 14.3313V15.5415H118.726V20.2548H126.178V21.465H118.726V26.1147H128.025V27.3249H117.771V14.3313H128.025Z" fill="#F16553"/>
<path d="M128.79 28.0892H117.07V13.5669H128.79V16.242H119.49V19.4904H126.943V22.1656H119.49V25.414H128.79V28.0892Z" fill="#F16553"/>
<path d="M145.286 14.3313V15.5415H135.987V20.2548H143.439V21.465H135.987V26.1147H145.286V27.3249H135.032V14.3313H145.286Z" fill="#F16553"/>
<path d="M146.051 28.0892H134.331V13.5669H146.051V16.242H136.752V19.4904H144.204V22.1656H136.752V25.414H146.051V28.0892Z" fill="#F16553"/>
<path d="M156.815 20.8281L152.356 15.1593V14.3313H152.993L157.452 20.0001L161.911 14.3313H162.547V15.1593L158.089 20.8281L162.547 26.4969V27.3249H161.911L157.452 21.6561L152.993 27.3249H152.356V26.4969L156.815 20.8281Z" fill="#F16553"/>
<path d="M163.312 28.0892H161.529L157.452 22.8662L153.376 28.0892H151.592V26.242L155.86 20.828L151.592 15.414V13.5669H153.376L157.452 18.7898L161.529 13.5669H163.312V15.414L159.045 20.828L163.312 26.242V28.0892Z" fill="#F16553"/>
<path d="M19.9999 40C31.0456 40 39.9999 31.0457 39.9999 20C39.9999 8.9543 31.0456 0 19.9999 0C8.95424 0 -6.10352e-05 8.9543 -6.10352e-05 20C-6.10352e-05 31.0457 8.95424 40 19.9999 40Z" fill="#F16553"/>
<path fill-rule="evenodd" clip-rule="evenodd" d="M19.9999 3.48243C10.8774 3.48243 3.48222 10.8776 3.48222 20.0001C3.48222 29.1225 10.8774 36.5178 19.9999 36.5178C29.1223 36.5178 36.5175 29.1225 36.5175 20.0001C36.5175 10.8776 29.1223 3.48243 19.9999 3.48243ZM2.6322 20.0001C2.6322 10.4082 10.408 2.63242 19.9999 2.63242C29.5918 2.63242 37.3676 10.4082 37.3676 20.0001C37.3676 29.592 29.5918 37.3678 19.9999 37.3678C10.408 37.3678 2.6322 29.592 2.6322 20.0001Z" fill="white"/>
<path d="M23.8851 12.8025C23.8214 13.8216 24.6495 14.7134 25.6686 14.7134C26.6877 14.7771 27.5794 13.949 27.5794 12.9299C27.6431 11.9108 26.8151 11.0191 25.796 11.0191C24.7768 10.9554 23.8851 11.7834 23.8851 12.8025Z" fill="white"/>
<path d="M10.9553 12.1019C10.9553 13.312 11.9107 14.3948 13.1209 14.3948C14.3311 14.3948 15.4139 13.4394 15.4139 12.1655C15.4776 10.9554 14.5221 9.93625 13.2483 9.87255C11.9744 9.80886 11.019 10.828 10.9553 12.1019Z" fill="white"/>
<path d="M24.8407 17.3248C23.6305 16.4967 22.3566 15.6687 21.1464 14.8407C20.6369 14.5222 20.2547 14.6496 19.9362 15.0955C18.9808 16.6241 17.9617 18.1528 16.9426 19.6178C16.7515 19.8725 16.6241 20.191 16.3694 20.4458C16.4967 20.7006 16.6241 20.9553 16.7515 21.1464C17.898 19.363 19.1082 17.5795 20.2547 15.7961C21.5923 16.6878 22.9299 17.5795 24.2674 18.4076C24.2674 18.4713 24.2037 18.4713 24.2037 18.535C23.312 19.8725 22.484 21.1464 21.5923 22.5477C21.4649 22.7388 21.4012 23.0573 21.2738 23.312C21.4649 23.4394 21.5923 23.5031 21.8471 23.5668C21.9108 23.5031 21.9108 23.4394 21.9744 23.3757C22.9936 21.7834 24.0127 20.191 25.0955 18.5987C25.3502 18.1528 25.2866 17.5796 24.8407 17.3248Z" fill="white"/>
<path d="M26.1781 24.2038C25.4138 23.3758 24.1399 23.3121 23.3119 24.0764C22.4838 24.8407 22.4202 26.1146 23.1845 26.9426L25.5412 29.4904C26.3055 30.3184 27.5794 30.3821 28.4074 29.6178C29.2354 28.8535 29.2991 27.5796 28.5348 26.7515L26.1781 24.2038Z" fill="white"/>
<path d="M15.2228 15.8597C15.2228 16.4967 15.605 16.9425 16.2419 16.9425C16.8789 16.9425 17.3247 16.433 17.3247 15.9234C17.3247 15.2865 16.9426 14.8406 16.3056 14.8406C15.7324 14.8406 15.2228 15.2228 15.2228 15.8597Z" fill="white"/>
<path d="M19.2991 18.5987C18.4074 19.9362 17.5794 21.2738 16.6877 22.6114C16.6877 22.6751 16.624 22.7388 16.624 22.7388C16.624 22.4203 16.624 22.0381 16.624 21.7197C16.624 21.5286 16.624 21.4012 16.5603 21.1464C16.4966 20.8916 16.3055 20.828 15.987 20.7643C15.796 20.7643 15.6049 20.828 15.4775 21.019C15.4138 21.1464 15.3501 21.3375 15.3501 21.5923C15.2864 22.6751 15.2227 23.8216 15.0953 24.9044L11.0826 29.9999H16.3055L17.7068 27.5158C17.8979 27.6432 18.0889 27.6432 18.4074 27.6432C18.917 27.5795 19.2991 27.3248 19.6176 26.9426C20.3182 26.1146 20.9552 25.3502 21.5921 24.5222C21.7832 24.2674 21.7195 23.8216 21.4647 23.6305C21.2737 23.5031 20.9552 23.4394 20.7004 23.5031C20.7641 23.3757 20.8915 23.2483 20.9552 23.1209C21.1463 22.8025 21.0189 22.484 20.7641 22.2929C20.573 22.1655 20.2546 22.1655 20.0635 22.2929C20.1909 21.9744 20.3182 21.656 20.0635 21.4012C19.8087 21.1464 19.4902 21.1464 19.1718 21.2738C19.2354 21.1464 19.2991 21.1464 19.2991 21.0827C19.6813 20.4458 20.0635 19.9362 20.4456 19.2993C20.573 19.0445 20.573 18.726 20.4456 18.535C20.3182 18.3439 20.1272 18.2802 19.9361 18.2802C19.745 18.2802 19.4265 18.3439 19.2991 18.5987Z" fill="white"/>
</svg>
