<svg width="37" height="45" viewBox="0 0 37 45" fill="none" xmlns="http://www.w3.org/2000/svg">
<path d="M36.0183 21.664C36.0183 19.428 36.0251 17.1987 36.0318 14.9627C36.0318 14.5451 35.8365 14.2825 35.4526 14.1141C33.5601 13.2655 31.6743 12.4034 29.7818 11.5481C29.0948 11.2383 28.4146 10.9218 27.7276 10.6254C27.3303 10.4571 26.9262 10.612 26.7241 10.9824C26.5423 11.3191 26.6433 11.7165 26.9801 11.9589C27.0811 12.033 27.1889 12.0869 27.3033 12.134C29.1622 12.9826 31.021 13.8245 32.8731 14.6731C33.0011 14.7337 33.1223 14.8011 33.2907 14.8886C33.1493 14.9627 33.0819 15.0099 33.0011 15.0435C28.0981 17.2795 23.1883 19.5155 18.2786 21.7448C18.1304 21.8121 17.9014 21.8121 17.7532 21.7448C12.8704 19.5357 7.99435 17.3132 3.11827 15.0907C3.00377 15.0368 2.89601 14.9762 2.72091 14.8886C2.95663 14.7741 3.11153 14.7 3.27317 14.626C5.13201 13.7774 6.99084 12.9355 8.84294 12.0869C9.32786 11.8647 9.5097 11.4269 9.32112 11.0228C9.11908 10.5985 8.68804 10.4571 8.20986 10.6726C5.65059 11.8242 3.08459 12.9826 0.518589 14.1411C0.154903 14.3027 0 14.5856 0 14.9694C0 17.2054 0.0134698 19.4347 0.0134698 21.6707C0.0202047 24.5869 0.0202047 27.5099 0.0134698 30.4261C0.0134698 30.8841 0.161638 31.1804 0.592673 31.3757C3.85911 32.8574 7.12554 34.3391 10.3852 35.8207C10.2977 36.2787 10.2573 36.7569 10.2573 37.2418C10.2573 41.5252 13.7325 45.0004 18.0159 45.0004C22.2993 45.0004 25.7745 41.5252 25.7745 37.2418C25.7745 36.7569 25.7274 36.2855 25.6466 35.8275C28.9197 34.3391 32.1929 32.8439 35.4728 31.3622C35.8836 31.1804 36.0251 30.8908 36.0251 30.4598C36.0116 27.5233 36.0116 24.5936 36.0183 21.664ZM2.50539 30.5271C1.76455 30.1971 1.54903 29.8334 1.55577 29.0387C1.60291 24.8832 1.57597 20.7345 1.57597 16.5791C1.57597 16.4444 1.57597 16.3097 1.57597 16.1144C2.38416 16.4848 3.13847 16.8215 3.89278 17.165C7.90006 18.9902 11.9141 20.8154 15.9213 22.6472C16.2514 22.7954 16.5679 22.9705 16.9046 23.0918C17.1606 23.186 17.2279 23.3275 17.2279 23.5901C17.2212 25.5635 17.2212 27.5368 17.2212 29.5169C14.3252 29.8132 11.9006 31.699 10.8365 34.2852C8.06843 33.019 5.29364 31.7596 2.50539 30.5271ZM34.1528 30.2308C31.1625 31.5845 28.1789 32.9382 25.1886 34.2919C24.1245 31.699 21.6999 29.8132 18.8039 29.5169C18.8039 27.5368 18.8039 25.5635 18.7972 23.5834C18.7972 23.314 18.8847 23.1995 19.1272 23.085C23.6193 21.0443 28.1048 18.9969 32.597 16.9495C33.1964 16.6734 33.7958 16.4107 34.4491 16.1144C34.4491 17.7712 34.4491 19.3673 34.4491 20.9635C34.4491 23.8932 34.4424 26.8229 34.4558 29.7526C34.4626 30.0018 34.3885 30.123 34.1528 30.2308Z" fill="#B4B4B4"/>
<path d="M12.3518 7.58773C13.8807 6.06564 15.396 4.53681 16.9248 3.01472C17.0057 2.9339 17.0932 2.85982 17.2279 2.73859C17.2279 2.92717 17.2279 3.02819 17.2279 3.12922C17.2279 4.96111 17.2347 6.78627 17.2279 8.61817C17.2279 10.0325 17.2144 11.4468 17.2077 12.8612C17.7465 12.8612 18.2853 12.8612 18.8241 12.8612C18.8174 12.814 18.8106 12.7736 18.8106 12.7265C18.8106 9.49371 18.8106 6.26095 18.8106 3.02819C18.8106 2.95411 18.8241 2.88002 18.8308 2.7588C18.9319 2.84635 18.9992 2.90696 19.0598 2.96084C19.6862 3.58719 20.3125 4.21354 20.9389 4.83988C21.8683 5.7693 22.791 6.69872 23.7271 7.6214C24.0437 7.93121 24.4949 7.93795 24.7912 7.66181C25.128 7.35201 25.1549 6.90077 24.8518 6.55055C24.7508 6.42932 24.6363 6.32157 24.5286 6.20707C22.5687 4.24048 20.6021 2.27388 18.6355 0.300551C18.2382 -0.0968091 17.7937 -0.103544 17.3963 0.300551C15.9348 1.7755 14.4666 3.24371 13.0051 4.71192C12.4125 5.31133 11.813 5.904 11.2271 6.50341C10.9779 6.75934 10.8904 7.06241 11.0453 7.39915C11.2877 7.93121 11.9141 8.0255 12.3518 7.58773Z" fill="#B4B4B4"/>
<path d="M15.9961 34.2524C15.9961 34.2524 16.9699 33.9043 16.9699 34.7746C16.9699 35.6449 16.9699 36.3412 16.9699 36.3412H15.3469L15.9961 37.2115H16.8076C16.8076 37.2115 16.8076 39.4744 16.8076 39.8225C16.8076 40.1707 17.2945 41.2151 18.4307 41.2151C19.5668 41.2151 21.3522 39.8225 21.3522 38.0819C21.3522 36.6893 20.703 35.9931 19.8914 35.9931C19.0799 35.9931 18.9176 36.6893 18.9176 37.2115C18.9176 37.7337 19.2422 38.2559 20.0537 38.2559C20.0537 38.2559 19.8914 39.8225 18.4307 40.3447C17.7815 40.5188 17.4568 39.9966 17.4568 39.6485C17.4568 39.3003 17.4568 37.3856 17.4568 37.3856H18.593L17.9438 36.5153H17.6192C17.6192 36.5153 17.6192 35.2968 17.6192 34.7746C17.6192 34.2524 17.2945 33.208 16.6453 33.208C15.9961 33.208 15.3469 33.3821 15.9961 34.2524Z" fill="white"/>
</svg>
