<svg width="38" height="45" viewBox="0 0 38 45" fill="none" xmlns="http://www.w3.org/2000/svg">
<path d="M24.659 37.3936C23.1279 38.918 21.6103 40.4491 20.0791 41.9735C19.9982 42.0544 19.9105 42.1286 19.7756 42.25C19.7756 42.0612 19.7756 41.96 19.7756 41.8588C19.7756 40.0242 19.7689 38.1963 19.7756 36.3616C19.7756 34.9452 19.7891 33.5288 19.7959 32.1123C19.2563 32.1123 18.7167 32.1123 18.1771 32.1123C18.1838 32.1595 18.1905 32.2 18.1905 32.2472C18.1905 35.4848 18.1905 38.7224 18.1905 41.96C18.1905 42.0342 18.1771 42.1084 18.1703 42.2298C18.0691 42.1421 18.0017 42.0814 17.941 42.0274C17.3137 41.4002 16.6864 40.7729 16.0591 40.1456C15.1283 39.2148 14.2043 38.284 13.2667 37.3599C12.9497 37.0496 12.4978 37.0429 12.201 37.3194C11.8637 37.6297 11.8368 38.0816 12.1403 38.4324C12.2415 38.5538 12.3561 38.6617 12.4641 38.7764C14.4336 40.7526 16.3964 42.7222 18.3659 44.6985C18.7639 45.0964 19.209 45.1032 19.607 44.6985C21.0707 43.2213 22.5411 41.7509 24.0047 40.2805C24.5983 39.6802 25.1986 39.0866 25.7854 38.4863C26.035 38.23 26.1227 37.9265 25.9675 37.5892C25.7314 37.0429 25.1042 36.9485 24.659 37.3936Z" fill="#B4B4B4"/>
<path d="M37.0631 20.0798C37.0631 17.8405 37.0698 15.6079 37.0765 13.3686C37.0765 12.9504 36.8809 12.6873 36.4965 12.5187C34.6011 11.6688 32.7125 10.8055 30.8172 9.94886C30.77 9.92863 30.7295 9.90839 30.6823 9.88816C30.6216 9.8342 30.5474 9.78698 30.4665 9.76L29.8257 9.50369C29.4682 9.34181 29.1175 9.18668 28.76 9.03154C28.6655 8.99107 28.5711 8.97084 28.4767 8.96409L26.7365 8.26261C26.7432 8.10073 26.75 7.93885 26.75 7.77697C26.7567 3.48042 23.2763 0 18.9865 0C14.6967 0 11.2163 3.48041 11.2163 7.77023C11.2163 7.84442 11.2163 7.91862 11.2163 7.99281L7.45255 9.78024C7.35137 9.82745 7.26369 9.8949 7.19624 9.97584C5.30764 10.8257 3.4123 11.6891 1.51021 12.5457C1.14598 12.7076 0.990845 12.9909 0.990845 13.3753C0.990845 15.6147 1.00433 17.8472 1.00433 20.0866C1.00433 23.0072 1.01108 25.9345 1.00433 28.8551C1.00433 29.3137 1.15272 29.6105 1.5844 29.8061C4.81525 31.2698 8.0461 32.7334 11.277 34.2038C11.6277 33.8599 11.8907 33.3742 12.0122 32.8076C9.17926 31.5126 6.34637 30.2243 3.49998 28.9697C2.75803 28.6257 2.54219 28.2615 2.54894 27.4656C2.59615 23.3039 2.56917 19.149 2.56917 14.9874C2.56917 14.8525 2.56917 14.7176 2.56917 14.522C3.37857 14.8929 4.13401 15.2302 4.88945 15.5742C8.90272 17.4021 12.9227 19.23 16.936 21.0646C17.2665 21.213 17.5835 21.3884 17.9208 21.5098C18.1771 21.6042 18.2445 21.7458 18.2445 22.0089C18.2378 23.8368 18.2378 25.6647 18.2378 27.4926C18.6695 27.7556 19.1618 27.8433 19.8296 27.641C19.8296 25.7659 19.8296 23.884 19.8229 22.0089C19.8229 21.7391 19.9105 21.6244 20.1534 21.5098C24.6523 19.466 29.1444 17.4156 33.6433 15.3651C34.2436 15.0885 34.844 14.8255 35.4982 14.5287C35.4982 16.188 35.4982 17.7865 35.4982 19.3851C35.4982 22.3192 35.4915 25.2532 35.505 28.1873C35.505 28.4369 35.4308 28.5583 35.2014 28.6662C32.038 30.0961 28.8746 31.5328 25.7112 32.9695C25.6977 33.4619 25.8529 33.9543 26.3183 34.4264C29.7178 32.8818 33.1172 31.3305 36.5167 29.7926C36.9282 29.6105 37.0698 29.3205 37.0698 28.8888C37.0563 25.948 37.0563 23.0139 37.0631 20.0798ZM34.048 13.4428C29.1377 15.6821 24.2206 17.9214 19.3035 20.154C19.1551 20.2215 18.9258 20.2215 18.7774 20.154C13.8805 17.9417 8.99715 15.7158 4.11378 13.49C3.99911 13.436 3.89119 13.3753 3.71582 13.2876C3.9519 13.173 4.10703 13.0988 4.26891 13.0246C6.13053 12.1747 7.99215 11.3316 9.84702 10.4817C9.98866 10.4143 10.1101 10.3266 10.1978 10.2322L11.4388 9.64534C12.2752 13.0313 15.3307 15.5405 18.9797 15.5405C22.5478 15.5405 25.5494 13.1392 26.4599 9.86118L29.6301 11.1427C31.0533 11.7902 32.4765 12.4378 33.8997 13.0853C34.0278 13.146 34.1492 13.2134 34.3178 13.3011C34.1964 13.3618 34.1222 13.409 34.048 13.4428Z" fill="#B4B4B4"/>
<path d="M16.6771 4.48141C16.6771 4.48141 17.6732 4.1253 17.6732 5.01557C17.6732 5.90584 17.6732 6.61806 17.6732 6.61806H16.013L16.6771 7.50833H17.5072C17.5072 7.50833 17.5072 9.82303 17.5072 10.1791C17.5072 10.5352 18.0053 11.6036 19.1674 11.6036C20.3296 11.6036 22.1559 10.1791 22.1559 8.3986C22.1559 6.97417 21.4918 6.26195 20.6617 6.26195C19.8315 6.26195 19.6655 6.97417 19.6655 7.50833C19.6655 8.04249 19.9976 8.57666 20.8277 8.57666C20.8277 8.57666 20.6617 10.1791 19.1674 10.7133C18.5034 10.8914 18.1713 10.3572 18.1713 10.0011C18.1713 9.64498 18.1713 7.68638 18.1713 7.68638H19.3335L18.6694 6.79611H18.3373C18.3373 6.79611 18.3373 5.54973 18.3373 5.01557C18.3373 4.48141 18.0053 3.41309 17.3412 3.41309C16.6771 3.41309 16.013 3.59114 16.6771 4.48141Z" fill="white"/>
</svg>
