<svg width="38" height="47" viewBox="0 0 38 47" fill="none" xmlns="http://www.w3.org/2000/svg">
<path d="M36.7988 1H1V5.60065H36.7988V1Z" stroke="#B4B4B4" stroke-width="2" stroke-miterlimit="10" stroke-linecap="round" stroke-linejoin="round"/>
<path d="M10.2013 11.6389H2.43768V5.60059H35.361V11.6389H27.5975" stroke="#B4B4B4" stroke-width="2" stroke-miterlimit="10" stroke-linecap="round" stroke-linejoin="round"/>
<path d="M8.04471 8.61914H29.754" stroke="#B4B4B4" stroke-width="2" stroke-miterlimit="10" stroke-linecap="round" stroke-linejoin="round"/>
<path d="M14.0831 28.8907H10.2013V8.61914" stroke="#B4B4B4" stroke-width="2" stroke-miterlimit="10" stroke-linecap="round" stroke-linejoin="round"/>
<path d="M27.4537 8.61914V28.8907H18.1087" stroke="#B4B4B4" stroke-width="2" stroke-miterlimit="10" stroke-linecap="round" stroke-linejoin="round"/>
<path d="M13.508 19.977V8.61914H24.2908V19.977" stroke="#B4B4B4" stroke-width="2" stroke-miterlimit="10" stroke-linecap="round" stroke-linejoin="round"/>
<path d="M24.2907 22.1357V25.73H20.4089" stroke="#B4B4B4" stroke-width="2" stroke-miterlimit="10" stroke-linecap="round" stroke-linejoin="round"/>
<path d="M13.508 21.9893V26.1586" stroke="#B4B4B4" stroke-width="2" stroke-miterlimit="10" stroke-linecap="round" stroke-linejoin="round"/>
<path d="M24.2908 8.76291C24.2908 11.7821 21.8467 14.3699 18.6838 14.3699C14.3706 14.3699 13.508 10.9195 13.508 8.61914" stroke="#B4B4B4" stroke-width="2" stroke-miterlimit="10" stroke-linecap="round" stroke-linejoin="round"/>
<path d="M18.9713 20.6966C19.9241 20.6966 20.6965 19.9242 20.6965 18.9713C20.6965 18.0185 19.9241 17.2461 18.9713 17.2461C18.0184 17.2461 17.246 18.0185 17.246 18.9713C17.246 19.9242 18.0184 20.6966 18.9713 20.6966Z" stroke="#B4B4B4" stroke-width="2" stroke-miterlimit="10" stroke-linecap="round" stroke-linejoin="round"/>
<path d="M4.88181 8.61914H6.46328" stroke="#B4B4B4" stroke-width="2" stroke-miterlimit="10" stroke-linecap="round" stroke-linejoin="round"/>
<path d="M31.3355 8.61914H32.917" stroke="#B4B4B4" stroke-width="2" stroke-miterlimit="10" stroke-linecap="round" stroke-linejoin="round"/>
<path d="M10.2013 19.2588L7.3259 21.9904V31.7668L11.2077 42.6933V46H20.409V34.6422L18.1087 29.0352C18.1087 29.0352 18.1087 26.016 18.1087 25.1534C18.1087 24.2907 17.1023 23.5719 16.2396 23.5719C15.377 23.5719 14.3706 24.0032 14.3706 25.0096C14.3706 26.016 14.3706 32.7732 14.3706 32.7732" stroke="#B4B4B4" stroke-width="2" stroke-miterlimit="10" stroke-linecap="round" stroke-linejoin="round"/>
<path d="M11.2077 42.6943H20.409" stroke="#B4B4B4" stroke-width="2" stroke-miterlimit="10" stroke-linecap="round" stroke-linejoin="round"/>
</svg>
