<svg width="46" height="37" viewBox="0 0 46 37" fill="none" xmlns="http://www.w3.org/2000/svg">
<g opacity="0.6">
<path d="M12.6329 6.55209C12.4086 6.55209 12.2591 6.55209 12.1096 6.55209C10.3904 6.55209 8.6711 6.55209 6.95183 6.55209C3.58804 6.55209 0.598007 9.17292 0.0747508 12.6417C0 13.5667 0 14.6458 0 15.6479C0 20.4271 0 25.2063 0 30.0625C0 33.8396 3.21429 37 6.87708 37C16.9684 37 27.0598 37 37.1512 37C37.7492 37 38.4219 37 39.0199 36.9229C42.3837 36.4604 45 33.3771 45 29.9854C45 24.5125 45 19.0396 45 13.6438C45 9.86667 41.7857 6.62917 38.1229 6.62917C36.3289 6.62917 34.6096 6.62917 32.8156 6.62917C32.6661 6.62917 32.5166 6.62917 32.2924 6.62917C32.1429 5.70417 31.9934 4.77917 31.8439 3.93125C31.4701 1.69584 29.7508 0.0770874 27.5083 0.0770874C24.1445 0.0770874 20.706 0.0770874 17.3422 0.0770874C15.0997 0.0770874 13.3804 1.61875 13.0066 3.93125C12.9319 4.70209 12.7824 5.62709 12.6329 6.55209Z" fill="white"/>
<path d="M12.6329 6.55208C12.7824 5.62708 12.9319 4.70208 13.0814 3.85417C13.4552 1.54167 15.1744 0 17.4169 0C20.7807 0 24.2193 0 27.5831 0C29.8256 0 31.5449 1.54167 31.9186 3.85417C32.0681 4.77917 32.2176 5.62708 32.3671 6.55208C32.5166 6.55208 32.7409 6.55208 32.8904 6.55208C34.6844 6.55208 36.4037 6.55208 38.1977 6.55208C41.8605 6.55208 45.0748 9.78958 45.0748 13.5667C45.0748 19.0396 45.0748 24.5125 45.0748 29.9083C45.0748 33.3771 42.3837 36.4604 39.0947 36.8458C38.4219 37 37.7492 37 37.1512 37C27.0598 37 16.9684 37 6.87708 37C3.21429 37 0.0747508 33.7625 0 30.0625C0 25.2833 0 20.5042 0 15.6479C0 14.6458 0 13.5667 0.0747508 12.6417C0.523256 9.17292 3.51329 6.55208 6.95183 6.55208C8.6711 6.55208 10.3904 6.55208 12.1096 6.55208C12.2591 6.55208 12.4834 6.55208 12.6329 6.55208ZM22.5 33.3771C24.593 33.3771 26.686 33.3771 28.7043 33.3771C31.8439 33.3771 34.9086 33.3771 38.0482 33.3771C38.7209 33.3771 39.3937 33.1458 39.9917 32.7604C41.113 31.9125 41.5615 30.8333 41.5615 29.4458C41.5615 25.0521 41.5615 20.6583 41.5615 16.1875C41.5615 15.4937 41.5615 14.7229 41.5615 14.0292C41.5615 11.7167 40.0664 10.175 37.8239 10.175C36.0299 10.175 34.2359 10.175 32.4419 10.175C30.6478 10.175 29.3023 9.01875 28.9286 7.16875C28.7791 6.24375 28.6296 5.31875 28.4801 4.39375C28.4053 3.85417 28.1063 3.62292 27.5831 3.62292C24.2193 3.62292 20.8555 3.62292 17.4917 3.62292C16.9684 3.62292 16.6694 3.85417 16.5947 4.39375C16.4452 5.24167 16.2957 6.0125 16.2209 6.86042C15.9219 8.94167 14.5764 10.175 12.4834 10.175C10.7641 10.175 9.04485 10.175 7.32558 10.175C5.00831 10.175 3.51329 11.7167 3.51329 14.1062C3.51329 19.2708 3.51329 24.3583 3.51329 29.5229C3.51329 29.9083 3.58804 30.2937 3.66279 30.6792C4.1113 32.375 5.45681 33.3771 7.25083 33.3771C12.3339 33.3771 17.4169 33.3771 22.5 33.3771Z" fill="#B9433F"/>
<path d="M22.5007 31.8354C16.8196 31.9125 11.9608 26.9792 12.1103 20.8125C12.3345 15.1083 16.8196 10.4833 22.5007 10.4833C28.1817 10.4833 32.6668 15.1854 32.8163 20.8125C33.1153 26.9792 28.1817 31.9125 22.5007 31.8354ZM29.3777 21.1979C29.3777 17.2667 26.313 14.0292 22.5007 14.0292C18.7631 14.0292 15.6236 17.2667 15.6236 21.1208C15.6236 24.975 18.7631 28.2125 22.5007 28.2125C26.2382 28.2125 29.3777 25.0521 29.3777 21.1979Z" fill="#B9433F"/>
<path d="M37.3754 15.2625C36.5531 15.2625 35.8804 14.5687 35.8804 13.7208C35.8804 12.8729 36.5531 12.1791 37.3754 12.1791C38.1976 12.1791 38.8704 12.7958 38.8704 13.6437C38.8704 14.5687 38.2724 15.2625 37.3754 15.2625Z" fill="#B9433F"/>
<path d="M29.3767 21.1979C29.3767 25.0521 26.2372 28.2125 22.4996 28.2125C18.6873 28.2125 15.6226 25.0521 15.6226 21.1208C15.6226 17.1896 18.6873 14.0292 22.4996 14.0292C26.3119 14.1063 29.3767 17.2667 29.3767 21.1979Z" fill="white"/>
</g>
</svg>
