<svg width="15" height="9" viewBox="0 0 15 9" fill="none" xmlns="http://www.w3.org/2000/svg">
<path d="M13.9158 2.17354L7.72969 8.05402C7.65516 8.12846 7.5061 8.20289 7.43157 8.20289C7.35704 8.20289 7.20798 8.12846 7.13345 8.05402L0.947388 2.17354C0.872857 2.0991 0.79834 1.95023 0.79834 1.87579C0.79834 1.80135 0.872857 1.65248 0.947388 1.57804L1.61818 0.982553C1.69271 0.908116 1.84177 0.833679 1.9163 0.833679C1.99083 0.833679 2.13989 0.908116 2.21442 0.982553L7.43157 5.89536L12.6487 0.982553C12.7233 0.908116 12.8723 0.833679 12.9468 0.833679C13.0214 0.833679 13.1704 0.908116 13.245 0.982553L13.9158 1.57804C13.9903 1.65248 14.0648 1.80135 14.0648 1.87579C13.9903 1.95023 13.9903 2.0991 13.9158 2.17354Z" fill="white"/>
</svg>
