<svg width="14" height="14" viewBox="0 0 14 14" fill="none" xmlns="http://www.w3.org/2000/svg">
<path d="M0.308105 13.1018C0.308105 9.23516 0.308105 5.43516 0.308105 1.63516C1.98275 1.63516 3.65739 1.63516 5.26504 1.63516C5.26504 2.10183 5.26504 2.63516 5.26504 3.10183C4.12629 3.10183 2.98753 3.10183 1.78179 3.10183C1.78179 5.9685 1.78179 8.7685 1.78179 11.5685C4.59519 11.5685 7.40858 11.5685 10.289 11.5685C10.289 10.4352 10.289 9.23516 10.289 8.10183C10.8249 8.10183 11.2938 8.10183 11.7627 8.10183C11.7627 9.7685 11.7627 11.4352 11.7627 13.1018C7.94447 13.1018 4.12629 13.1018 0.308105 13.1018Z" fill="white"/>
<path d="M7.4756 7.76847C6.87273 7.16847 6.26986 6.56847 5.66699 5.96847C7.60958 4.03514 9.48517 2.16847 11.4278 0.235138C12.0306 0.835138 12.6335 1.43514 13.2364 2.03514C11.2938 3.96847 9.3512 5.9018 7.4756 7.76847Z" fill="white"/>
</svg>
