<svg width="19" height="19" viewBox="0 0 19 19" fill="none" xmlns="http://www.w3.org/2000/svg">
<path d="M0.482422 18.7461C5.39151 18.7461 10.3006 18.7461 15.2958 18.7461C15.2958 16.6032 15.2958 14.4603 15.2958 12.3175C14.6929 12.3175 14.004 12.3175 13.4011 12.3175C13.4011 13.8603 13.4011 15.3175 13.4011 16.7746C9.78386 16.7746 6.08051 16.7746 2.46328 16.7746C2.46328 13.1746 2.46328 9.48892 2.46328 5.88892C3.9274 5.88892 5.39151 5.88892 6.85563 5.88892C6.85563 5.20321 6.85563 4.60321 6.85563 4.00321C4.70252 4.00321 2.54941 4.00321 0.482422 4.00321C0.482422 8.88892 0.482422 13.7746 0.482422 18.7461ZM9.69773 11.8889C12.1953 9.40321 14.6068 7.00321 17.1044 4.51749C16.3293 3.74606 15.4681 2.88892 14.7791 2.20321C12.2815 4.60321 9.86998 7.08892 7.37237 9.57464C8.06137 10.3461 8.83649 11.1175 9.69773 11.8889ZM6.51113 10.6889C6.08051 11.8032 5.73601 12.8318 5.30539 13.9461C6.42501 13.5175 7.54462 13.1746 8.57812 12.7461C7.88912 12.0603 7.20013 11.3746 6.51113 10.6889ZM18.0518 3.66035C18.4824 3.14606 18.6547 2.63178 18.3963 1.94606C18.224 1.34607 17.7073 0.917494 17.1044 0.831779C16.5016 0.746065 16.0709 0.917494 15.6403 1.26035C16.4154 2.03178 17.1906 2.80321 18.0518 3.66035Z" fill="#B8423E"/>
<path d="M0.482422 18.7461C0.482422 13.7746 0.482422 8.88892 0.482422 4.0032C2.63553 4.0032 4.78864 4.0032 6.85563 4.0032C6.85563 4.6032 6.85563 5.28892 6.85563 5.88892C5.39151 5.88892 3.9274 5.88892 2.37716 5.88892C2.37716 9.57463 2.37716 13.1746 2.37716 16.7746C5.99438 16.7746 9.61161 16.7746 13.315 16.7746C13.315 15.3175 13.315 13.7746 13.315 12.3175C14.004 12.3175 14.6068 12.3175 15.2097 12.3175C15.2097 14.4603 15.2097 16.6032 15.2097 18.7461C10.3006 18.7461 5.39151 18.7461 0.482422 18.7461Z" fill="#B8423E"/>
<path d="M9.69792 11.8889C8.9228 11.1175 8.14768 10.3461 7.37256 9.57465C9.87017 7.08893 12.2816 4.68893 14.7793 2.20322C15.5544 2.97465 16.3295 3.74607 17.1046 4.5175C14.607 7.00322 12.1094 9.48893 9.69792 11.8889Z" fill="#B8423E"/>
<path d="M6.51092 10.6889C7.19991 11.3746 7.88891 12.0604 8.5779 12.7461C7.45829 13.1746 6.42479 13.5175 5.30518 13.9461C5.7358 12.8318 6.0803 11.7175 6.51092 10.6889Z" fill="#B8423E"/>
<path d="M18.0516 3.66035C17.2765 2.88892 16.4153 2.03178 15.6401 1.26035C16.0708 0.917494 16.5875 0.746065 17.1043 0.831779C17.7932 1.00321 18.2239 1.34607 18.3961 1.94607C18.6545 2.54606 18.4822 3.14607 18.0516 3.66035Z" fill="#B8423E"/>
</svg>
