<svg width="18" height="15" viewBox="0 0 18 15" fill="none" xmlns="http://www.w3.org/2000/svg">
<path fill-rule="evenodd" clip-rule="evenodd" d="M3.63033 10.1371C4.15204 9.91375 4.59922 9.69044 5.0464 9.46713C5.64265 9.16939 6.31342 8.87164 6.90967 8.5739C7.43138 8.35059 8.10217 8.64833 8.25124 9.16939C8.69842 10.7326 9.22013 12.3702 9.66731 13.9333C9.74184 14.3055 9.66732 14.6777 9.3692 14.8266C9.07107 14.9754 8.62388 14.9754 8.40028 14.6777C8.32575 14.5288 8.1767 14.3799 8.1767 14.2311C7.80405 13.2634 7.35686 12.2213 6.98421 11.2536C6.98421 11.2536 6.9842 11.1792 6.90967 11.1792C6.61155 11.4769 6.31344 11.7002 6.08985 11.998C5.19548 12.8168 4.37565 13.6356 3.48128 14.4544C2.66144 15.1987 1.39441 15.1243 0.723633 14.3055C0.35098 13.8589 0.201914 13.4123 0.276445 12.8168C0.574568 10.8814 0.798164 8.87164 1.09629 6.93629C1.17082 6.56411 1.24535 6.19193 1.46894 5.89418C1.84159 5.522 2.21426 5.37313 2.73597 5.44756C4.52471 5.74531 6.31343 6.04306 8.10217 6.3408C8.1767 6.3408 8.25124 6.3408 8.32577 6.3408C8.77296 6.41524 9.07107 6.71298 8.99654 7.1596C8.92201 7.60622 8.54935 7.90397 8.1767 7.90397C6.90968 7.82953 5.64265 7.68066 4.3011 7.60622C4.15204 7.60622 4.07751 7.60622 4.07751 7.75509C3.92845 8.49946 3.77939 9.24382 3.70486 9.98819C3.70486 9.98819 3.70486 10.0626 3.63033 10.1371Z" fill="white"/>
<path fill-rule="evenodd" clip-rule="evenodd" d="M5.12101 2.91674C5.12101 4.10773 4.15211 5.00097 3.03415 5.00097C1.84165 5.00097 0.947266 4.03329 0.947266 2.84231C0.947266 1.72576 1.91619 0.83252 3.10868 0.83252C4.22665 0.83252 5.12101 1.72576 5.12101 2.91674Z" fill="white"/>
<path fill-rule="evenodd" clip-rule="evenodd" d="M14.2133 5.1499C14.2133 6.11758 14.2133 7.08525 14.2133 8.05293C13.2444 8.05293 12.2755 8.05293 11.3066 8.05293C11.3066 7.08525 11.3066 6.11758 11.3066 5.1499C12.2755 5.1499 13.2444 5.1499 14.2133 5.1499Z" fill="white"/>
<path fill-rule="evenodd" clip-rule="evenodd" d="M13.618 11.7747C13.618 12.7423 13.618 13.71 13.618 14.6777C13.5434 14.6777 13.4689 14.6777 13.3944 14.6777C12.5745 14.6777 11.7547 14.6777 10.8603 14.6777C10.7113 14.6777 10.6367 14.6777 10.6367 14.4544C10.6367 13.6356 10.6367 12.7423 10.6367 11.9235C10.6367 11.8491 10.6367 11.8491 10.6367 11.7747C11.6056 11.7747 12.5745 11.7747 13.618 11.7747Z" fill="white"/>
<path fill-rule="evenodd" clip-rule="evenodd" d="M14.2139 11.7747C15.1828 11.7747 16.1517 11.7747 17.1206 11.7747C17.1206 12.7423 17.1206 13.71 17.1206 14.6777C17.046 14.6777 16.9715 14.6777 16.9715 14.6777C16.1516 14.6777 15.2573 14.6777 14.4374 14.6777C14.3629 14.6777 14.2884 14.6777 14.2884 14.5288C14.2139 13.6356 14.2139 12.7423 14.2139 11.7747C14.2139 11.7747 14.2139 11.8491 14.2139 11.7747Z" fill="white"/>
<path fill-rule="evenodd" clip-rule="evenodd" d="M12.2764 8.42505C12.3509 8.42505 12.4254 8.42505 12.5 8.42505C13.3198 8.42505 14.2142 8.42505 15.034 8.42505C15.1831 8.42505 15.2576 8.49948 15.2576 8.64836C15.2576 9.46716 15.2576 10.3604 15.2576 11.1792C15.2576 11.2536 15.2576 11.4025 15.1085 11.4025C14.2142 11.4025 13.3198 11.4025 12.4254 11.4025H12.3509C12.2764 10.3604 12.2764 9.39272 12.2764 8.42505Z" fill="white"/>
</svg>
