<svg width="20" height="19" viewBox="0 0 20 19" fill="none" xmlns="http://www.w3.org/2000/svg">
<path fill-rule="evenodd" clip-rule="evenodd" d="M6.6709 17.2177C6.6709 17.5155 6.6709 17.8132 6.6709 18.111C6.6709 18.4831 6.4473 18.7065 6.07465 18.7065C5.85106 18.7065 5.55293 18.7065 5.32934 18.7065C4.95669 18.7065 4.7331 18.4831 4.7331 18.111C4.7331 17.7388 4.7331 17.441 4.7331 17.0689C4.7331 16.9944 4.7331 16.92 4.65857 16.8455C4.06232 16.5478 3.7642 16.0267 3.61514 15.4312C3.39155 14.538 3.24248 13.6448 3.46607 12.6771C3.5406 12.3049 3.7642 11.9327 3.91326 11.5605C3.98779 11.4117 4.13685 11.3372 4.28591 11.3372C5.92559 11.3372 7.6398 11.3372 9.27947 11.3372C9.65213 11.3372 10.0248 11.2628 10.3974 11.1139C10.8446 10.9651 11.1427 10.5929 11.2918 10.1463C11.3663 9.99738 11.4409 9.99738 11.5154 9.99738C13.006 9.99738 14.4221 10.0718 15.9127 10.2951C15.9872 10.2951 16.0618 10.2951 16.1363 10.2951C16.1363 10.1463 16.0618 9.99738 16.0618 9.84851C15.8382 9.02971 15.5401 8.28534 15.0929 7.61541C15.0183 7.54098 14.9438 7.46654 14.7948 7.3921C13.8259 7.09436 12.857 7.01992 11.8135 7.01992C11.6645 7.01992 11.5899 7.01992 11.4409 7.01992C11.4409 7.01992 11.4409 7.01992 11.3663 7.01992C11.3663 6.72218 11.3663 6.34999 11.3663 6.05225C11.5154 6.05225 11.6645 6.05225 11.888 6.05225C12.7079 6.12668 13.6023 6.20112 14.4221 6.27556C14.5712 6.27556 14.7202 6.34999 14.8693 6.34999C15.391 6.49887 15.7636 6.79661 15.9872 7.24323C16.4344 8.06203 16.8071 8.95527 17.0307 9.84851C17.0307 9.92295 17.1052 9.99738 17.1052 10.1463C17.2543 9.99738 17.3288 9.84851 17.4033 9.77407C17.5524 9.47633 17.776 9.32745 18.0741 9.32745C18.2977 9.32745 18.5958 9.32745 18.8194 9.32745C19.1175 9.32745 19.2666 9.47633 19.2666 9.77407C19.2666 9.92295 19.2666 10.0718 19.2666 10.1463C19.2666 10.444 19.1175 10.5929 18.8194 10.5929C18.4468 10.5929 17.9996 10.5929 17.6269 10.5929C17.5524 10.5929 17.4779 10.5929 17.4033 10.5929C17.4779 10.6673 17.4779 10.6673 17.4779 10.6673C18.2977 11.4861 18.6704 12.5282 18.6704 13.7192C18.6704 14.3891 18.5958 15.0591 18.3722 15.729C18.2232 16.1756 17.925 16.5478 17.4779 16.7711C17.4033 16.7711 17.3288 16.92 17.3288 16.9944C17.3288 17.3666 17.3288 17.6643 17.3288 18.0365C17.3288 18.4087 17.1052 18.632 16.7325 18.632C16.4344 18.632 16.2108 18.632 15.9127 18.632C15.5401 18.632 15.3165 18.4087 15.3165 18.0365C15.3165 17.7388 15.3165 17.441 15.3165 17.1433C12.4843 17.3666 9.5776 17.3666 6.6709 17.2177ZM11.0682 12.6771C10.3974 12.6771 9.72666 12.6771 9.05588 12.6771C8.75776 12.6771 8.68323 12.826 8.75776 13.0493C8.90682 13.4959 9.05589 14.017 9.20495 14.4636C9.27948 14.6124 9.35401 14.6869 9.50307 14.6869C10.5465 14.6869 11.5899 14.6869 12.6334 14.6869C12.7824 14.6869 12.857 14.6124 12.9315 14.4636C13.0805 14.017 13.2296 13.4959 13.3787 13.0493C13.4532 12.7515 13.3787 12.6771 13.0805 12.6771C12.4098 12.6771 11.739 12.6771 11.0682 12.6771ZM15.9872 14.017C16.3599 14.017 16.7325 14.017 17.1052 14.017C17.3288 14.017 17.4033 13.9425 17.4033 13.7192C17.4033 13.4215 17.4033 13.1982 17.4033 12.9004C17.4033 12.6771 17.3288 12.6027 17.1052 12.6027C16.5835 12.6027 16.0618 12.6027 15.4655 12.6027C15.0183 12.6027 14.8693 12.6771 14.6457 13.1237C14.5712 13.2726 14.5712 13.4959 14.4966 13.6448C14.4966 13.7936 14.5712 13.9425 14.7202 13.9425C15.1674 14.017 15.5401 14.017 15.9872 14.017ZM6.07465 14.017C6.4473 14.017 6.81996 14.017 7.26714 14.017C7.41621 14.017 7.49074 13.9425 7.49074 13.7936C7.49074 13.4959 7.4162 13.1237 7.19261 12.9004C7.11808 12.826 6.96902 12.6771 6.81996 12.6771C6.22371 12.6771 5.55293 12.6771 4.95669 12.6771C4.80762 12.6771 4.7331 12.7515 4.7331 12.9004C4.7331 13.1982 4.7331 13.4215 4.7331 13.7192C4.7331 13.9425 4.80763 14.017 5.03122 14.017C5.32934 14.017 5.70199 14.017 6.07465 14.017Z" fill="white"/>
<path fill-rule="evenodd" clip-rule="evenodd" d="M5.40302 10.6673C4.21053 10.6673 2.94351 10.6673 1.75101 10.6673C0.782114 10.6673 0.111328 9.99741 0.111328 9.02974C0.111328 6.79664 0.111328 4.56354 0.111328 2.25601C0.111328 1.28834 0.782114 0.618408 1.75101 0.618408C4.21053 0.618408 6.59551 0.618408 9.05502 0.618408C10.0985 0.618408 10.7692 1.28834 10.7692 2.33045C10.7692 4.48911 10.7692 6.64777 10.7692 8.88086C10.7692 9.99741 10.0985 10.5929 9.05502 10.5929C7.71347 10.6673 6.59551 10.6673 5.40302 10.6673ZM4.73225 6.7222C5.17943 6.7222 5.62661 6.7222 6.07379 6.7222C6.8191 6.7222 7.34082 6.12671 7.41535 5.45678C7.41535 5.01016 7.41535 4.56354 7.41535 4.04249C7.41535 3.29812 6.8191 2.77707 6.07379 2.70263C5.25395 2.70263 4.43412 2.70263 3.53975 2.70263C3.39069 2.70263 3.31615 2.77707 3.31615 2.92594C3.31615 4.78685 3.31615 6.64777 3.31615 8.50868C3.31615 8.65755 3.39069 8.73199 3.53975 8.73199C3.83787 8.73199 4.13599 8.73199 4.43412 8.73199C4.65771 8.73199 4.65771 8.65755 4.65771 8.50868C4.73224 7.91319 4.73225 7.31769 4.73225 6.7222Z" fill="white"/>
<path fill-rule="evenodd" clip-rule="evenodd" d="M4.73242 4.04248C4.73242 4.4891 4.73242 4.93572 4.73242 5.38234C5.10508 5.38234 5.40319 5.38234 5.70132 5.38234C5.85038 5.38234 5.99945 5.23347 5.99945 5.08459C5.99945 4.86128 5.99945 4.63797 5.99945 4.41466C5.99945 4.26579 5.92491 4.11692 5.70132 4.11692C5.40319 4.04248 5.10508 4.04248 4.73242 4.04248Z" fill="white"/>
<path fill-rule="evenodd" clip-rule="evenodd" d="M4.73242 4.04248C5.10508 4.04248 5.4032 4.04248 5.77585 4.04248C5.92492 4.04248 6.07397 4.19135 6.07397 4.34023C6.07397 4.56354 6.07397 4.78685 6.07397 5.01016C6.07397 5.23347 5.92492 5.3079 5.77585 5.3079C5.47773 5.3079 5.10507 5.3079 4.80695 5.3079C4.73242 4.93572 4.73242 4.4891 4.73242 4.04248Z" fill="white"/>
</svg>
