<svg width="15" height="12" viewBox="0 0 15 12" fill="none" xmlns="http://www.w3.org/2000/svg">
<path fill-rule="evenodd" clip-rule="evenodd" d="M7.2334 2.1103C7.53152 2.1103 7.82964 2.1103 8.2023 2.18473C10.0656 2.48248 11.6307 3.22684 12.8977 4.5667C13.1959 4.86445 13.643 4.93888 13.9412 4.64114C14.2393 4.34339 14.2393 3.89677 13.8666 3.59903C11.7052 1.44037 9.09667 0.472693 6.0409 0.770439C4.84841 0.919312 3.73045 1.21706 2.68702 1.73811C1.79265 2.18473 0.972807 2.78022 0.227499 3.52459C-0.0706246 3.82234 -0.0706246 4.34339 0.227499 4.64114C0.525622 4.86445 0.898276 4.86445 1.27093 4.49227C2.98514 2.85466 4.92294 2.1103 7.2334 2.1103ZM7.15886 3.07797C6.33903 3.07797 5.51919 3.22684 4.77388 3.52459C3.73045 3.89677 2.83608 4.41783 2.09077 5.23663C1.79265 5.53438 1.79265 5.981 2.09077 6.27874C2.38889 6.57649 2.83608 6.50205 3.1342 6.20431C4.55029 4.86445 6.18996 4.34339 8.12776 4.64114C9.39479 4.86445 10.4382 5.3855 11.3326 6.27874C11.4817 6.42762 11.6307 6.57649 11.8543 6.57649C12.1524 6.57649 12.4506 6.42761 12.5996 6.12987C12.7487 5.83212 12.6741 5.53438 12.4506 5.23663C10.8854 3.82234 9.1712 3.15241 7.15886 3.07797ZM6.93527 5.45994C6.71168 5.45994 6.41356 5.53438 6.0409 5.60881C5.14653 5.83212 4.32669 6.2043 3.65592 6.87423C3.28326 7.24642 3.43232 7.91635 3.95404 8.06522C4.25216 8.13966 4.47576 8.06522 4.69935 7.84191C5.66825 6.94867 6.86074 6.65092 8.12776 7.02311C8.72401 7.17198 9.1712 7.54416 9.61838 7.91635C9.84197 8.13966 10.1401 8.21409 10.4382 8.06522C10.7363 7.91635 10.8854 7.6186 10.8109 7.32085C10.8109 7.17198 10.6618 7.02311 10.5873 6.87423C9.69291 5.981 8.50042 5.53438 6.93527 5.45994ZM8.72401 9.8517C8.72401 8.95846 7.9787 8.28853 7.15886 8.28853C6.26449 8.28853 5.59372 8.95846 5.59372 9.8517C5.59372 10.7449 6.33903 11.4893 7.15886 11.4149C7.9787 11.4149 8.72401 10.7449 8.72401 9.8517Z" fill="white"/>
<path fill-rule="evenodd" clip-rule="evenodd" d="M7.23415 2.10978C4.92369 2.18422 3.06042 2.92858 1.42074 4.41731C1.04809 4.71506 0.675436 4.7895 0.377313 4.56619C0.0791899 4.26844 0.00465909 3.82182 0.377313 3.44964C1.12262 2.70527 1.86793 2.18422 2.83683 1.66316C3.88026 1.14211 4.99822 0.769924 6.19072 0.695488C9.24648 0.397741 11.8551 1.36542 14.0165 3.52408C14.3146 3.82182 14.3146 4.26844 14.091 4.56619C13.7929 4.86393 13.3457 4.86393 13.0476 4.49175C11.706 3.15189 10.1408 2.40753 8.35211 2.10978C7.83039 2.10978 7.45774 2.10978 7.23415 2.10978Z" fill="white"/>
<path fill-rule="evenodd" clip-rule="evenodd" d="M7.1595 3.07739C9.17183 3.15183 10.886 3.82176 12.3021 5.31049C12.5257 5.5338 12.6002 5.90598 12.4512 6.20372C12.3021 6.50147 12.0785 6.65034 11.7059 6.65034C11.4823 6.65034 11.3332 6.50147 11.1842 6.3526C10.2898 5.45936 9.24636 4.86387 7.97934 4.71499C6.04154 4.41725 4.40186 4.9383 2.98577 6.27816C2.68765 6.57591 2.24047 6.65034 1.94234 6.3526C1.64422 6.05485 1.64422 5.60823 1.94234 5.31049C2.68765 4.49169 3.65655 3.97063 4.62545 3.59845C5.51982 3.22626 6.33966 3.07739 7.1595 3.07739Z" fill="white"/>
<path fill-rule="evenodd" clip-rule="evenodd" d="M6.93514 5.45947C8.50029 5.45947 9.61825 5.98053 10.5872 6.9482C10.7362 7.09708 10.8107 7.24595 10.8107 7.39482C10.8853 7.767 10.7362 7.99031 10.4381 8.13919C10.14 8.28806 9.84184 8.21362 9.61825 7.99031C9.17106 7.54369 8.72388 7.24595 8.12763 7.09708C6.86061 6.72489 5.66812 7.02264 4.69922 7.91588C4.47562 8.13919 4.25203 8.21362 3.95391 8.13919C3.43219 7.99031 3.2086 7.32038 3.65578 6.9482C4.32656 6.27827 5.1464 5.83166 6.04077 5.68278C6.41342 5.53391 6.78608 5.53391 6.93514 5.45947Z" fill="white"/>
<path fill-rule="evenodd" clip-rule="evenodd" d="M8.72404 9.85125C8.72404 10.7445 7.97874 11.4144 7.1589 11.4144C6.33906 11.4144 5.59375 10.6701 5.59375 9.85125C5.59375 8.95801 6.33906 8.28809 7.1589 8.28809C7.97874 8.28809 8.72404 8.95801 8.72404 9.85125Z" fill="white"/>
</svg>
