<?xml version="1.0" encoding="utf-8"?>
<!-- Generator: Adobe Illustrator 23.0.1, SVG Export Plug-In . SVG Version: 6.00 Build 0)  -->
<svg version="1.1" id="Layer_1" xmlns="http://www.w3.org/2000/svg" xmlns:xlink="http://www.w3.org/1999/xlink" x="0px" y="0px"
	 viewBox="0 0 46.8 46.8" style="enable-background:new 0 0 46.8 46.8;" xml:space="preserve">
<style type="text/css">
	.st0{fill:#138974;}
</style>
<g>
	<path class="st0" d="M36.3,28.3c-0.2,0-0.3-0.1-0.3-0.3v-5.2c0-0.2,0.1-0.3,0.3-0.3c0.2,0,0.3,0.1,0.3,0.3V28
		C36.7,28.2,36.5,28.3,36.3,28.3z"/>
	<path class="st0" d="M33.2,27.1c-0.2,0-0.3-0.1-0.3-0.3v-2.6c0-0.2,0.1-0.3,0.3-0.3s0.3,0.1,0.3,0.3v2.6
		C33.5,26.9,33.3,27.1,33.2,27.1z"/>
	<path class="st0" d="M31.6,26.4c-0.2,0-0.3-0.1-0.3-0.3v-1.4c0-0.2,0.1-0.3,0.3-0.3c0.2,0,0.3,0.1,0.3,0.3v1.4
		C31.9,26.3,31.8,26.4,31.6,26.4z"/>
	<path class="st0" d="M34.6,27.7c-0.2,0-0.3-0.1-0.3-0.3v-3.9c0-0.2,0.1-0.3,0.3-0.3s0.3,0.1,0.3,0.3v3.9
		C35,27.6,34.8,27.7,34.6,27.7z"/>
	<path class="st0" d="M41.9,32.8C41.9,32.8,41.8,32.8,41.9,32.8c-0.2-0.1-0.3-0.2-0.3-0.3v-3.2H38c-0.2,0-0.3-0.1-0.3-0.3v-7.1
		c0-0.2,0.1-0.3,0.3-0.3h3.6v-3.1c0-0.1,0.1-0.3,0.2-0.3c0.1,0,0.3,0,0.4,0.1l4.6,7c0.1,0.1,0.1,0.3,0,0.4l-4.6,7.1
		C42.1,32.8,42,32.8,41.9,32.8z M38.3,28.6h3.6c0.2,0,0.3,0.1,0.3,0.3v2.4l3.8-6l-3.8-5.9v2.3c0,0.2-0.1,0.3-0.3,0.3h-3.6V28.6z"/>
	<path class="st0" d="M15.5,22.2H9.1c-0.2,0-0.3-0.1-0.3-0.3V20c0-0.2,0.1-0.3,0.3-0.3h6.4c0.2,0,0.3,0.1,0.3,0.3v1.9
		C15.9,22.1,15.7,22.2,15.5,22.2z M9.5,21.6h5.7v-1.3H9.5V21.6z"/>
	<path class="st0" d="M24.6,32.8H9c-0.2,0-0.3-0.1-0.3-0.3v-1.8c0-0.2,0.1-0.3,0.3-0.3h15.6c0.2,0,0.3,0.1,0.3,0.3v1.8
		C24.9,32.7,24.8,32.8,24.6,32.8z M9.4,32.1h14.9V31H9.4V32.1z"/>
	<path class="st0" d="M23.1,31H9c-0.2,0-0.3-0.1-0.3-0.3v-1.5c0-0.2,0.1-0.3,0.3-0.3h14.1c0.2,0,0.3,0.1,0.3,0.3v1.5
		C23.5,30.8,23.3,31,23.1,31z M9.4,30.3h13.4v-0.8H9.4V30.3z"/>
	<path class="st0" d="M11.3,29.5c-0.2,0-0.3-0.1-0.3-0.3V22c0-0.2,0.1-0.3,0.3-0.3c0.2,0,0.3,0.1,0.3,0.3v7.1
		C11.6,29.3,11.4,29.5,11.3,29.5z"/>
	<path class="st0" d="M26.5,29.9c-0.2,0-0.3-0.1-0.3-0.3v-3.2c0-2.6-2.8-3.5-3.7-3.7L21.2,27c0,0.1-0.2,0.2-0.3,0.2
		c-0.2,0-0.3-0.1-0.3-0.2l-1.1-4.3c-0.9,0.2-3.8,1.2-3.8,3.4v2.3c0,0.2-0.1,0.3-0.3,0.3c-0.2,0-0.3-0.1-0.3-0.3v-2.3
		c0-3.2,4.4-4.1,4.6-4.1c0.2,0,0.3,0.1,0.4,0.2l0.9,3.5l1-3.4c0-0.2,0.2-0.3,0.4-0.2c0,0,4.5,0.7,4.5,4.4v3.2
		C26.8,29.8,26.6,29.9,26.5,29.9z"/>
	<path class="st0" d="M20.4,25.8C20.4,25.8,20.4,25.8,20.4,25.8l-1.7-0.4c-0.1,0-0.2-0.1-0.2-0.2s-0.1-0.2,0-0.3l0.6-2.6
		c0-0.2,0.2-0.3,0.4-0.2c0.2,0,0.3,0.2,0.2,0.4l-0.6,2.3l1.2,0.3c0.2,0,0.3,0.2,0.2,0.4C20.7,25.7,20.6,25.8,20.4,25.8z"/>
	<path class="st0" d="M21.3,25.9c-0.1,0-0.3-0.1-0.3-0.2c-0.1-0.2,0-0.4,0.2-0.4l1.3-0.5l-0.6-2.4c0-0.2,0.1-0.4,0.2-0.4
		c0.2,0,0.4,0.1,0.4,0.2l0.6,2.7c0,0.2,0,0.3-0.2,0.4l-1.6,0.6C21.4,25.9,21.3,25.9,21.3,25.9z"/>
	<path class="st0" d="M21,21.6c-1.7,0-2.5-2.1-2.7-2.8c-0.3-0.2-0.7-0.5-0.7-1.1c0-0.9,0.7-1.2,1.4-1.3c0.7-0.2,1.2-0.9,1.2-1.1
		c0-0.2,0.1-0.3,0.3-0.3c0.2,0,0.3,0.1,0.4,0.2c0,0.1,0.5,1.2,2.3,1.3c0.2-0.1,0.5,0,0.7,0.2c0.3,0.3,0.4,0.7,0.4,1.2
		c-0.1,0.5-0.4,0.7-0.5,0.8c-0.1,0-0.2,0.1-0.2,0.1C23.2,19.5,22.4,21.6,21,21.6z M20.6,16c-0.3,0.4-0.9,0.9-1.4,1
		c-0.8,0.2-0.9,0.4-0.9,0.7c0,0.3,0.4,0.5,0.4,0.5c0.1,0,0.2,0.1,0.2,0.2c0.1,0.3,0.7,2.4,2.1,2.4c1,0,1.7-1.9,1.9-2.6
		c0-0.1,0.1-0.2,0.2-0.2c0.1,0,0.2,0,0.3,0c0,0,0.1-0.1,0.2-0.3c0-0.2-0.1-0.5-0.2-0.6c-0.1-0.1-0.2-0.1-0.2-0.1
		C21.7,17.1,21,16.5,20.6,16z"/>
	<path class="st0" d="M23.5,17.1c-0.2,0-0.3-0.1-0.3-0.3c0-0.1-0.1-2-2.3-2c-0.7,0-1.2,0.2-1.6,0.5c-0.5,0.5-0.5,1.3-0.5,1.3
		c0,0.2-0.1,0.3-0.3,0.3c-0.2,0-0.3-0.1-0.3-0.3c0,0,0-1.1,0.7-1.8c0.5-0.5,1.2-0.8,2.1-0.8c2.8,0,2.9,2.6,2.9,2.6
		C23.8,17,23.7,17.1,23.5,17.1C23.5,17.1,23.5,17.1,23.5,17.1z"/>
	<path class="st0" d="M20.5,43.9c-0.5,0-1,0-1.5-0.1c-0.2,0-0.3-0.2-0.3-0.4c0-0.2,0.2-0.3,0.4-0.3c0.5,0,0.9,0.1,1.4,0.1l0.3,0
		c0.2,0,0.3,0.1,0.3,0.3c0,0.2-0.1,0.3-0.3,0.3L20.5,43.9z M22.6,43.8c-0.2,0-0.3-0.1-0.3-0.3c0-0.2,0.1-0.3,0.3-0.4
		c0.6-0.1,1.2-0.1,1.7-0.3c0.2,0,0.4,0.1,0.4,0.3c0,0.2-0.1,0.4-0.3,0.4C23.9,43.6,23.3,43.7,22.6,43.8
		C22.6,43.8,22.6,43.8,22.6,43.8z M17.3,43.6C17.3,43.6,17.3,43.6,17.3,43.6c-0.6-0.1-1.2-0.2-1.8-0.4c-0.2,0-0.3-0.2-0.2-0.4
		c0-0.2,0.2-0.3,0.4-0.2c0.6,0.1,1.1,0.3,1.7,0.4c0.2,0,0.3,0.2,0.3,0.4C17.6,43.5,17.5,43.6,17.3,43.6z M26.1,43.1
		c-0.1,0-0.3-0.1-0.3-0.2c-0.1-0.2,0.1-0.4,0.2-0.4c0.6-0.2,1.1-0.3,1.7-0.6c0.2-0.1,0.4,0,0.4,0.2c0.1,0.2,0,0.4-0.2,0.4
		C27.3,42.7,26.8,42.9,26.1,43.1C26.2,43.1,26.1,43.1,26.1,43.1z M13.9,42.8c0,0-0.1,0-0.1,0c-0.6-0.2-1.1-0.4-1.7-0.7
		c-0.2-0.1-0.2-0.3-0.2-0.4c0.1-0.2,0.3-0.2,0.4-0.2c0.5,0.2,1.1,0.5,1.6,0.6c0.2,0.1,0.3,0.3,0.2,0.4C14.1,42.7,14,42.8,13.9,42.8z
		 M29.4,41.8c-0.1,0-0.2-0.1-0.3-0.2c-0.1-0.2,0-0.4,0.2-0.4c0.5-0.3,1-0.5,1.5-0.8c0.2-0.1,0.4,0,0.5,0.1c0.1,0.2,0,0.4-0.1,0.5
		c-0.5,0.3-1,0.6-1.6,0.9C29.5,41.8,29.5,41.8,29.4,41.8z M10.6,41.3c-0.1,0-0.1,0-0.2,0c-0.5-0.3-1-0.6-1.5-1
		c-0.2-0.1-0.2-0.3-0.1-0.5c0.1-0.2,0.3-0.2,0.5-0.1c0.5,0.3,1,0.6,1.5,0.9c0.2,0.1,0.2,0.3,0.1,0.5C10.9,41.3,10.7,41.3,10.6,41.3z
		 M32.5,40c-0.1,0-0.2,0-0.3-0.1c-0.1-0.1-0.1-0.4,0.1-0.5c0.5-0.3,0.9-0.7,1.4-1.1c0.1-0.1,0.3-0.1,0.5,0c0.1,0.1,0.1,0.3,0,0.5
		c-0.4,0.4-0.9,0.8-1.4,1.1C32.6,40,32.5,40,32.5,40z M7.7,39.3c-0.1,0-0.2,0-0.2-0.1C7,38.9,6.6,38.4,6.2,38
		c-0.1-0.1-0.1-0.3,0-0.5c0.1-0.1,0.3-0.1,0.5,0C7,38,7.5,38.3,7.9,38.7c0.1,0.1,0.2,0.3,0,0.5C7.9,39.3,7.8,39.3,7.7,39.3z
		 M5.2,36.8c-0.1,0-0.2,0-0.3-0.1c-0.4-0.5-0.8-0.9-1.1-1.4c-0.1-0.2-0.1-0.4,0.1-0.5c0.2-0.1,0.4-0.1,0.5,0.1
		c0.3,0.5,0.7,0.9,1.1,1.4c0.1,0.1,0.1,0.3,0,0.5C5.3,36.8,5.3,36.8,5.2,36.8z M3.1,33.9c-0.1,0-0.2-0.1-0.3-0.2
		c-0.3-0.5-0.6-1.1-0.8-1.6c-0.1-0.2,0-0.4,0.2-0.4c0.2-0.1,0.4,0,0.4,0.2c0.2,0.5,0.5,1,0.8,1.5c0.1,0.2,0,0.4-0.1,0.5
		C3.2,33.9,3.2,33.9,3.1,33.9z M1.6,30.7c-0.1,0-0.3-0.1-0.3-0.2c-0.2-0.6-0.4-1.1-0.5-1.7c0-0.2,0.1-0.4,0.2-0.4
		c0.2,0,0.4,0.1,0.4,0.2c0.2,0.6,0.3,1.1,0.5,1.7c0.1,0.2,0,0.4-0.2,0.4C1.7,30.7,1.6,30.7,1.6,30.7z M0.7,27.3
		c-0.2,0-0.3-0.1-0.3-0.3c-0.1-0.6-0.2-1.2-0.2-1.8c0-0.2,0.1-0.3,0.3-0.4c0.2,0,0.3,0.1,0.4,0.3c0.1,0.6,0.1,1.2,0.2,1.7
		C1,27.1,0.9,27.3,0.7,27.3C0.7,27.3,0.7,27.3,0.7,27.3z M0.4,23.7c-0.2,0-0.3-0.1-0.3-0.3c0,0,0,0,0,0c0-0.6,0-1.2,0.1-1.8
		c0-0.2,0.2-0.3,0.4-0.3c0.2,0,0.3,0.2,0.3,0.4c0,0.6-0.1,1.2-0.1,1.7C0.7,23.6,0.5,23.7,0.4,23.7z M0.7,20.2
		C0.6,20.2,0.6,20.2,0.7,20.2c-0.2,0-0.4-0.2-0.3-0.4c0.1-0.6,0.2-1.2,0.4-1.8c0-0.2,0.2-0.3,0.4-0.2c0.2,0,0.3,0.2,0.2,0.4
		c-0.2,0.6-0.3,1.1-0.4,1.7C1,20.1,0.8,20.2,0.7,20.2z M1.6,16.8c0,0-0.1,0-0.1,0c-0.2-0.1-0.3-0.3-0.2-0.4c0.2-0.6,0.4-1.1,0.7-1.7
		c0.1-0.2,0.3-0.2,0.4-0.2c0.2,0.1,0.2,0.3,0.2,0.4c-0.2,0.5-0.5,1.1-0.7,1.6C1.8,16.7,1.7,16.8,1.6,16.8z M3.1,13.6
		c-0.1,0-0.1,0-0.2,0c-0.2-0.1-0.2-0.3-0.1-0.5c0.3-0.5,0.6-1,1-1.5c0.1-0.2,0.3-0.2,0.5-0.1c0.2,0.1,0.2,0.3,0.1,0.5
		c-0.3,0.5-0.7,1-0.9,1.5C3.3,13.5,3.2,13.6,3.1,13.6z M5.1,10.7c-0.1,0-0.2,0-0.2-0.1c-0.1-0.1-0.2-0.3,0-0.5
		c0.4-0.5,0.8-0.9,1.2-1.3c0.1-0.1,0.3-0.1,0.5,0c0.1,0.1,0.1,0.3,0,0.5c-0.4,0.4-0.8,0.8-1.2,1.3C5.3,10.6,5.2,10.7,5.1,10.7z
		 M35.1,9.8c-0.1,0-0.2,0-0.2-0.1c-0.4-0.4-0.8-0.8-1.3-1.2c-0.1-0.1-0.2-0.3,0-0.5c0.1-0.1,0.3-0.2,0.5,0c0.4,0.4,0.9,0.8,1.3,1.2
		c0.1,0.1,0.1,0.3,0,0.5C35.2,9.8,35.2,9.8,35.1,9.8z M7.7,8.2c-0.1,0-0.2,0-0.3-0.1c-0.1-0.1-0.1-0.4,0-0.5
		c0.5-0.4,0.9-0.8,1.4-1.1C9,6.4,9.3,6.4,9.4,6.6C9.5,6.8,9.4,7,9.3,7.1C8.8,7.4,8.3,7.7,7.9,8.1C7.8,8.2,7.7,8.2,7.7,8.2z
		 M32.4,7.5c-0.1,0-0.1,0-0.2-0.1c-0.5-0.3-1-0.7-1.5-1c-0.2-0.1-0.2-0.3-0.1-0.5c0.1-0.2,0.3-0.2,0.5-0.1c0.5,0.3,1,0.6,1.5,1
		c0.1,0.1,0.2,0.3,0.1,0.5C32.6,7.4,32.5,7.5,32.4,7.5z M10.6,6.2c-0.1,0-0.2-0.1-0.3-0.2c-0.1-0.2,0-0.4,0.1-0.5
		C10.9,5.3,11.5,5,12,4.7c0.2-0.1,0.4,0,0.4,0.2c0.1,0.2,0,0.4-0.2,0.4c-0.5,0.2-1,0.5-1.6,0.8C10.7,6.2,10.6,6.2,10.6,6.2z
		 M29.4,5.6c0,0-0.1,0-0.1,0c-0.5-0.3-1.1-0.5-1.6-0.7c-0.2-0.1-0.3-0.3-0.2-0.4c0.1-0.2,0.3-0.3,0.4-0.2C28.4,4.5,29,4.7,29.5,5
		c0.2,0.1,0.2,0.3,0.2,0.4C29.6,5.5,29.5,5.6,29.4,5.6z M13.8,4.7c-0.1,0-0.3-0.1-0.3-0.2c-0.1-0.2,0-0.4,0.2-0.4
		c0.6-0.2,1.1-0.4,1.7-0.5c0.2,0,0.4,0.1,0.4,0.2c0,0.2-0.1,0.4-0.2,0.4c-0.6,0.1-1.1,0.3-1.7,0.5C13.9,4.7,13.9,4.7,13.8,4.7z
		 M26.1,4.3C26,4.3,26,4.3,26.1,4.3c-0.6-0.2-1.2-0.3-1.8-0.4c-0.2,0-0.3-0.2-0.3-0.4c0-0.2,0.2-0.3,0.4-0.3
		c0.6,0.1,1.2,0.3,1.8,0.4c0.2,0.1,0.3,0.2,0.2,0.4C26.3,4.3,26.2,4.3,26.1,4.3z M17.3,3.8c-0.2,0-0.3-0.1-0.3-0.3
		c0-0.2,0.1-0.4,0.3-0.4C17.8,3.1,18.4,3,19,3c0.2,0,0.3,0.1,0.4,0.3c0,0.2-0.1,0.3-0.3,0.4C18.5,3.7,17.9,3.7,17.3,3.8
		C17.3,3.8,17.3,3.8,17.3,3.8z M22.6,3.7C22.6,3.7,22.6,3.7,22.6,3.7c-0.6-0.1-1.2-0.1-1.8-0.1c-0.2,0-0.3-0.2-0.3-0.3
		c0-0.2,0.2-0.3,0.3-0.3c0.6,0,1.2,0,1.8,0.1c0.2,0,0.3,0.2,0.3,0.4C22.9,3.5,22.7,3.7,22.6,3.7z"/>
</g>
</svg>
