<?xml version="1.0" encoding="utf-8"?>
<!-- Generator: Adobe Illustrator 23.0.1, SVG Export Plug-In . SVG Version: 6.00 Build 0)  -->
<svg version="1.1" id="Layer_1" xmlns="http://www.w3.org/2000/svg" xmlns:xlink="http://www.w3.org/1999/xlink" x="0px" y="0px"
	 viewBox="0 0 46.8 46.8" style="enable-background:new 0 0 46.8 46.8;" xml:space="preserve">
<style type="text/css">
	.st0{fill-rule:evenodd;clip-rule:evenodd;fill:#BF4D6B;}
	.st1{fill:#BF4D6B;}
</style>
<g>
	<path class="st0" d="M32.9,9c0.2,0.2,0.4,0.4,0.6,0.6c0.1,0.1,0.1,0.3,0,0.5c-0.1,0.1-0.3,0.1-0.5,0c-0.2-0.2-0.4-0.4-0.6-0.6
		c-0.1-0.1-0.1-0.3,0-0.5C32.6,8.9,32.8,8.9,32.9,9z M31.7,8.4c-0.1,0.1-0.3,0.2-0.5,0.1c-0.4-0.3-0.9-0.7-1.4-1
		c-0.1-0.1-0.2-0.3-0.1-0.4c0.1-0.1,0.3-0.2,0.4-0.1c0.5,0.3,0.9,0.6,1.4,1C31.8,8,31.8,8.2,31.7,8.4z M28.9,6.5
		c-0.1,0.2-0.3,0.2-0.4,0.1c-0.5-0.3-1-0.5-1.5-0.7c-0.2-0.1-0.2-0.3-0.2-0.4c0.1-0.2,0.3-0.2,0.4-0.2c0.5,0.2,1,0.5,1.5,0.7
		C28.9,6.1,29,6.3,28.9,6.5z M25.8,5.1c-0.1,0.2-0.2,0.3-0.4,0.2c-0.5-0.2-1.1-0.3-1.6-0.4c-0.2,0-0.3-0.2-0.2-0.4
		c0-0.2,0.2-0.3,0.4-0.2c0.6,0.1,1.1,0.3,1.6,0.5C25.8,4.8,25.9,5,25.8,5.1z M22.6,4.3c0,0.2-0.2,0.3-0.4,0.3
		c-0.5-0.1-1.1-0.1-1.6-0.2c-0.2,0-0.3-0.2-0.3-0.3c0-0.2,0.2-0.3,0.3-0.3c0.6,0,1.1,0.1,1.7,0.2C22.5,4,22.6,4.2,22.6,4.3z
		 M19.2,4.1c0,0.2-0.1,0.3-0.3,0.3c-0.5,0-1.1,0.1-1.6,0.1c-0.2,0-0.3-0.1-0.3-0.3c0-0.2,0.1-0.3,0.3-0.4c0.6-0.1,1.1-0.1,1.7-0.1
		C19,3.8,19.2,3.9,19.2,4.1z M15.9,4.5c0,0.2-0.1,0.3-0.2,0.4C15.1,5,14.5,5.1,14,5.3c-0.2,0.1-0.3,0-0.4-0.2
		c-0.1-0.2,0-0.3,0.2-0.4c0.5-0.2,1.1-0.3,1.7-0.4C15.7,4.2,15.8,4.3,15.9,4.5z M12.6,5.4c0.1,0.2,0,0.3-0.2,0.4
		c-0.5,0.2-1,0.4-1.5,0.7c-0.2,0.1-0.4,0-0.4-0.1c-0.1-0.2,0-0.3,0.1-0.4c0.5-0.3,1-0.5,1.6-0.7C12.4,5.2,12.6,5.2,12.6,5.4z
		 M9.6,6.9C9.7,7,9.7,7.2,9.5,7.3C9,7.6,8.6,7.9,8.1,8.3C8,8.4,7.8,8.3,7.7,8.2C7.6,8.1,7.6,7.9,7.8,7.8c0.5-0.3,0.9-0.7,1.4-1
		C9.3,6.7,9.5,6.7,9.6,6.9z M6.9,8.9C7,9,7,9.2,6.9,9.3C6.7,9.5,6.5,9.7,6.3,9.9c-0.2,0.2-0.4,0.4-0.6,0.6c-0.1,0.1-0.3,0.1-0.5,0
		c-0.1-0.1-0.1-0.3,0-0.4c0.2-0.2,0.4-0.4,0.6-0.6C6,9.2,6.2,9,6.4,8.9C6.6,8.7,6.8,8.7,6.9,8.9z M33.4,36.9c0.1,0.1,0.1,0.3,0,0.5
		c-0.2,0.2-0.4,0.4-0.6,0.6c-0.1,0.1-0.3,0.1-0.5,0c-0.1-0.1-0.1-0.3,0-0.5c0.2-0.2,0.4-0.4,0.6-0.6C33,36.8,33.2,36.8,33.4,36.9z
		 M4.6,11.3c0.1,0.1,0.2,0.3,0.1,0.4c-0.3,0.4-0.7,0.9-1,1.3c-0.1,0.1-0.3,0.2-0.4,0.1c-0.1-0.1-0.2-0.3-0.1-0.4
		c0.3-0.5,0.6-0.9,1-1.4C4.2,11.2,4.4,11.2,4.6,11.3z M31.5,38.6c0.1,0.1,0.1,0.3-0.1,0.4c-0.5,0.3-0.9,0.7-1.4,1
		c-0.2,0.1-0.3,0-0.4-0.1c-0.1-0.1-0.1-0.3,0.1-0.4c0.5-0.3,0.9-0.6,1.4-0.9C31.2,38.4,31.4,38.5,31.5,38.6z M28.7,40.4
		c0.1,0.2,0,0.3-0.1,0.4c-0.5,0.3-1,0.5-1.6,0.7c-0.2,0.1-0.3,0-0.4-0.2c-0.1-0.2,0-0.3,0.2-0.4c0.5-0.2,1-0.4,1.5-0.7
		C28.4,40.2,28.6,40.3,28.7,40.4z M2.7,14.1c0.2,0.1,0.2,0.3,0.1,0.4c-0.3,0.5-0.5,1-0.7,1.5c-0.1,0.2-0.3,0.2-0.4,0.2
		c-0.2-0.1-0.2-0.3-0.2-0.4c0.2-0.5,0.5-1,0.7-1.5C2.3,14.1,2.5,14,2.7,14.1z M1.3,17.2c0.2,0.1,0.3,0.2,0.2,0.4
		c-0.2,0.5-0.3,1.1-0.4,1.6c0,0.2-0.2,0.3-0.4,0.2c-0.2,0-0.3-0.2-0.2-0.4c0.1-0.6,0.3-1.1,0.5-1.6C1,17.2,1.2,17.1,1.3,17.2z
		 M25.6,41.7c0.1,0.2,0,0.3-0.2,0.4c-0.5,0.2-1.1,0.3-1.7,0.4c-0.2,0-0.3-0.1-0.4-0.2c0-0.2,0.1-0.3,0.2-0.4
		c0.5-0.1,1.1-0.3,1.6-0.4C25.3,41.5,25.5,41.6,25.6,41.7z M22.3,42.5c0,0.2-0.1,0.3-0.3,0.4c-0.6,0.1-1.1,0.1-1.7,0.1
		c-0.2,0-0.3-0.1-0.3-0.3c0-0.2,0.1-0.3,0.3-0.3c0.5,0,1.1-0.1,1.6-0.1C22.1,42.2,22.3,42.3,22.3,42.5z M0.5,20.4
		c0.2,0,0.3,0.2,0.3,0.4c-0.1,0.5-0.1,1.1-0.2,1.6c0,0.2-0.2,0.3-0.3,0.3c-0.2,0-0.3-0.2-0.3-0.3c0-0.6,0.1-1.1,0.2-1.7
		C0.2,20.5,0.4,20.4,0.5,20.4z M0.3,23.8c0.2,0,0.3,0.1,0.3,0.3c0,0.6,0.1,1.1,0.1,1.6c0,0.2-0.1,0.3-0.3,0.4
		c-0.2,0-0.3-0.1-0.4-0.3C0.1,25.3,0,24.7,0,24.1C0,23.9,0.1,23.8,0.3,23.8z M18.9,42.7c0,0.2-0.2,0.3-0.3,0.3
		c-0.6,0-1.1-0.1-1.7-0.2c-0.2,0-0.3-0.2-0.3-0.4s0.2-0.3,0.4-0.3c0.5,0.1,1.1,0.1,1.6,0.2C18.8,42.4,18.9,42.5,18.9,42.7z
		 M0.7,27.1c0.2,0,0.3,0.1,0.4,0.2c0.1,0.5,0.2,1.1,0.4,1.6c0.1,0.2,0,0.3-0.2,0.4c-0.2,0.1-0.3,0-0.4-0.2c-0.2-0.5-0.3-1.1-0.4-1.7
		C0.4,27.3,0.5,27.2,0.7,27.1z M15.6,42.3c0,0.2-0.2,0.3-0.4,0.2c-0.6-0.1-1.1-0.3-1.6-0.5c-0.2-0.1-0.3-0.2-0.2-0.4
		c0.1-0.2,0.2-0.3,0.4-0.2c0.5,0.2,1.1,0.3,1.6,0.4C15.5,41.9,15.6,42.1,15.6,42.3z M1.6,30.4c0.2-0.1,0.3,0,0.4,0.2
		c0.2,0.5,0.4,1,0.7,1.5c0.1,0.2,0,0.3-0.1,0.4c-0.2,0.1-0.3,0-0.4-0.1c-0.3-0.5-0.5-1-0.7-1.6C1.4,30.6,1.4,30.4,1.6,30.4z
		 M12.4,41.3c-0.1,0.2-0.3,0.2-0.4,0.2c-0.5-0.2-1-0.5-1.5-0.7c-0.2-0.1-0.2-0.3-0.1-0.4c0.1-0.2,0.3-0.2,0.4-0.1
		c0.5,0.3,1,0.5,1.5,0.7C12.4,41,12.4,41.1,12.4,41.3z M3.1,33.4c0.2-0.1,0.3,0,0.4,0.1c0.3,0.5,0.6,0.9,0.9,1.4
		c0.1,0.1,0.1,0.3-0.1,0.4c-0.1,0.1-0.3,0.1-0.4-0.1c-0.3-0.5-0.7-0.9-1-1.4C2.9,33.7,2.9,33.5,3.1,33.4z M9.4,39.8
		c-0.1,0.1-0.3,0.2-0.4,0.1c-0.5-0.3-0.9-0.6-1.4-1c-0.1-0.1-0.2-0.3-0.1-0.4c0.1-0.1,0.3-0.2,0.5-0.1c0.4,0.3,0.9,0.7,1.4,1
		C9.4,39.4,9.5,39.6,9.4,39.8z M5.1,36.1c0.1-0.1,0.3-0.1,0.5,0c0.2,0.2,0.4,0.4,0.6,0.6c0.2,0.2,0.4,0.4,0.6,0.6
		c0.1,0.1,0.1,0.3,0,0.5c-0.1,0.1-0.3,0.1-0.5,0c-0.2-0.2-0.4-0.4-0.6-0.6C5.4,37,5.2,36.8,5,36.5C4.9,36.4,4.9,36.2,5.1,36.1z"/>
	<path class="st1" d="M27.1,18.4c-0.1,0-0.1,0-0.2-0.1l-8.2-5.8c-0.1-0.1-0.2-0.3-0.1-0.4c0.1-0.1,0.3-0.2,0.4-0.1l8.2,5.8
		c0.1,0.1,0.2,0.3,0.1,0.4C27.3,18.3,27.2,18.4,27.1,18.4z"/>
	<path class="st1" d="M16.1,34.1c-0.1,0-0.1,0-0.2-0.1l-8.2-5.8c-0.1-0.1-0.2-0.3-0.1-0.4c0.1-0.1,0.3-0.2,0.4-0.1l8.2,5.8
		c0.1,0.1,0.2,0.3,0.1,0.4C16.3,34.1,16.2,34.1,16.1,34.1z"/>
	<path class="st1" d="M16.1,31.9c-0.1,0-0.1,0-0.2-0.1l-6.3-4.4c-0.1,0-0.1-0.1-0.1-0.2c0-0.1,0-0.2,0.1-0.2l2.5-3.6
		c0.1-0.2,0.7-1.1,1.6-1.3c0.5-0.1,0.9,0,1.3,0.3c0.3,0.2,0.5,0.3,0.7,0.3c0.3,0,0.6-0.3,0.6-0.4c0,0,0.1-0.1,0.1-0.1
		c0.1-0.1,0.2-0.2,0.2-0.3c0-0.2,0-0.6-0.5-1c-1-0.8-1-1.8-0.2-3c0.5-0.7,2.5-3.7,2.5-3.8c0-0.1,0.1-0.1,0.2-0.1
		c0.1,0,0.2,0,0.2,0.1l6.2,4.6c0.1,0.1,0.2,0.3,0.1,0.4c0,0-2.2,3-2.8,3.9c-0.4,0.5-0.8,0.8-1.3,0.9c-0.5,0.1-0.9-0.1-1.4-0.4
		c-0.6-0.4-1.2-0.2-1.4,0.1c-0.3,0.3-0.4,0.7,0.3,1.4c0.9,0.8,1,1.8,0.4,2.8c-0.4,0.7-2.6,3.7-2.7,3.8
		C16.2,31.8,16.1,31.9,16.1,31.9z M10.2,27.1l5.8,4c0.6-0.7,2.2-2.9,2.5-3.5c0.4-0.7,0.3-1.4-0.3-2c-1.1-1-0.8-1.8-0.4-2.3
		c0.5-0.6,1.5-0.8,2.3-0.2c0.3,0.2,0.6,0.3,0.9,0.3c0.3-0.1,0.6-0.3,0.9-0.6c0.5-0.8,2.1-2.9,2.6-3.7l-5.7-4.3
		c-0.5,0.8-1.9,2.9-2.4,3.5c-0.7,0.9-0.7,1.5,0,2.1c0.5,0.4,0.8,1,0.8,1.5c0,0.3-0.2,0.6-0.4,0.8c-0.2,0.2-0.5,0.6-1.1,0.6
		c-0.3,0-0.7,0-1.2-0.4c-0.2-0.2-0.5-0.2-0.8-0.2c-0.6,0.1-1.1,0.8-1.2,1L10.2,27.1z"/>
	<path class="st1" d="M20.7,22.5c0,0-0.1,0-0.1,0c-0.1,0-0.2-0.2-0.2-0.3c0-0.3-0.1-0.4-0.1-0.4c-0.4-0.3-1.4,0-1.8,0.1
		c-0.1,0-0.3,0-0.3-0.1c-0.1-0.1-0.1-0.2,0-0.4c0.1-0.3,0.2-0.5,0.1-0.8c-0.2-0.6-1-0.9-1-0.9c-0.2-0.1-0.2-0.2-0.2-0.4
		c0.3-0.9,0.8-1.4,1.5-1.6c0.7-0.2,1.6,0.1,2.5,0.9c0.9,0.8,1.7,0.3,1.7,0.3c0.1-0.1,0.3-0.1,0.4,0c0.1,0.1,0.1,0.3,0,0.4l-2.1,3
		C20.9,22.4,20.8,22.5,20.7,22.5z M19.7,21c0.3,0,0.7,0.1,0.9,0.3c0.1,0,0.1,0.1,0.2,0.2l1.2-1.7c-0.4,0-1-0.1-1.6-0.6
		c-0.7-0.6-1.4-0.9-1.9-0.7c-0.4,0.1-0.7,0.4-0.9,0.9c0.3,0.2,0.9,0.6,1.1,1.1c0.1,0.2,0.1,0.4,0.1,0.7C19.1,21,19.4,21,19.7,21z"/>
	<path class="st1" d="M15.6,29.7c-0.1,0-0.1,0-0.2-0.1L11.8,27c-0.1-0.1-0.1-0.2-0.1-0.3c0-0.1,0.1-0.2,0.2-0.2l3.3-0.9
		c0.1,0,0.2,0,0.3,0c0.1,0.1,0.1,0.1,0.1,0.2l0.3,3.5c0,0.1-0.1,0.2-0.2,0.3C15.7,29.7,15.7,29.7,15.6,29.7z M12.8,26.9l2.5,1.8
		l-0.2-2.4L12.8,26.9z"/>
	<path class="st1" d="M33.6,28c-0.2,0-0.3,0-0.5-0.1c-0.8-0.2-1.4-0.7-1.6-1.4c0-0.1,0-0.2,0.1-0.2c0,0,1.4-1.4,2-2.1
		c0.5-0.6,0.5-0.8,0.5-1c0-0.2,0-0.4,0.3-0.8c0.6-0.7,3.1-2.9,3.2-2.9c0,0,0,0,0,0c0.2-0.2,0.5-0.1,0.7,0.1c0.2,0.2,0.5,0.8-0.1,1.5
		c-0.2,0.2-0.4,0.4-0.5,0.5c-0.1,0.1-0.2,0.2-0.3,0.3c0.1,0,0.1,0,0.2,0.1c0,0.1,0,0.2,0,0.2l-0.9,1.4l0.1,0.3l2.6,1.4
		c0.1,0,0.1,0.1,0.1,0.2c0,0.1,0,0.1-0.1,0.2c0,0-1.5,1.1-3,1c0,0,0.1,0.1,0,0.2c0,0.1-0.1,0.2-0.2,0.2c0,0-0.9,0-1.4,0.5
		C34.6,27.8,34.1,28,33.6,28z M32,26.5c0.3,0.7,1,0.9,1.3,1c0.5,0.1,1.1,0,1.3-0.3c0.3-0.3,0.6-0.5,1-0.6c-0.5-0.4-0.7-0.8-0.7-0.9
		c0-0.1,0-0.2,0.1-0.3c0.1-0.1,0.2,0,0.3,0c1.1,1.3,3,0.3,3.8-0.1l-2.4-1.3c0,0-0.1-0.1-0.1-0.1l-0.2-0.4c0-0.1,0-0.1,0-0.2l0.7-1.2
		c0,0,0,0-0.1,0c0,0-0.1-0.1-0.1-0.2c0-0.3,0.1-0.5,0.5-0.8c0.1-0.1,0.3-0.3,0.5-0.5c0.3-0.3,0.3-0.6,0.1-1c0,0,0,0-0.1,0
		c-0.7,0.6-2.6,2.3-3.1,2.9c-0.2,0.2-0.2,0.3-0.2,0.5c0,0.3,0,0.6-0.6,1.3C33.4,25.1,32.3,26.2,32,26.5z"/>
	<path class="st1" d="M38.8,24.5C38.8,24.5,38.7,24.5,38.8,24.5L37,23.7c-0.1,0-0.1-0.1-0.1-0.1c0-0.1,0-0.1,0-0.2l3-5.3
		C39.9,18,40,18,40,18l2.6,0.1c0.1,0,0.1,0,0.2,0.1c0,0.1,0,0.1,0,0.2l-1.2,2.5c0,0.1-0.2,0.2-0.3,0.1c-0.1-0.1-0.2-0.2-0.1-0.3
		l1-2.2l-2.2-0.1l-2.8,5l1.5,0.7c0.1,0,0.2,0.2,0.1,0.3C38.9,24.4,38.9,24.5,38.8,24.5z"/>
	<path class="st1" d="M40.7,22.7C40.6,22.7,40.6,22.7,40.7,22.7c-0.2-0.1-0.2-0.2-0.2-0.3l0.1-0.2c0-0.1,0.2-0.2,0.3-0.1
		c0.1,0,0.2,0.2,0.1,0.3l-0.1,0.2C40.8,22.6,40.7,22.7,40.7,22.7z"/>
	<path class="st1" d="M40,24.1C40,24.1,40,24.1,40,24.1c-0.2-0.1-0.2-0.2-0.2-0.3l0.1-0.1c0-0.1,0.2-0.2,0.3-0.1
		c0.1,0,0.2,0.2,0.1,0.3l-0.1,0.1C40.2,24,40.1,24.1,40,24.1z"/>
	<path class="st1" d="M40,25.3c-0.1,0-0.3,0-0.4,0c-0.6-0.1-0.9-0.5-0.8-0.9c0.1-0.6,0.9-0.6,1.1-0.5c0,0,0,0,0,0
		c0.1,0,0.5,0.1,0.7,0.4c0.1,0.2,0.2,0.3,0.1,0.5c0,0.2-0.1,0.4-0.3,0.5C40.4,25.3,40.2,25.3,40,25.3z M39.7,24.2
		c-0.3,0-0.4,0.1-0.4,0.2c-0.1,0.3,0.3,0.4,0.5,0.4c0.2,0.1,0.5,0,0.6,0c0,0,0.1-0.1,0.1-0.2c0-0.1,0-0.2-0.1-0.2
		c-0.1-0.1-0.3-0.2-0.4-0.2C39.8,24.2,39.7,24.2,39.7,24.2z"/>
	<path class="st1" d="M40.7,23.8c-0.1,0-0.2,0-0.4,0c-0.4-0.1-0.7-0.4-0.6-0.7c0.1-0.3,0.2-0.6,0.7-0.5c0.1,0,0.6,0,0.9,0.3
		c0.1,0.1,0.2,0.3,0.2,0.4c0,0.2-0.1,0.3-0.2,0.4C41.1,23.7,40.9,23.8,40.7,23.8z M40.3,22.9c-0.1,0-0.1,0-0.2,0.2
		c0,0.1,0.2,0.2,0.3,0.2c0.4,0.1,0.5,0,0.5,0c0,0,0,0,0-0.1c0-0.1,0-0.1,0-0.1C40.8,22.9,40.5,22.9,40.3,22.9
		C40.3,22.9,40.3,22.9,40.3,22.9z"/>
	<path class="st1" d="M41.2,22.4C41.2,22.4,41.1,22.4,41.2,22.4c-0.1,0-0.2,0-0.2,0c-0.4-0.1-0.7-0.3-0.7-0.7c0-0.4,0.3-0.6,0.7-0.6
		c0,0,0,0,0,0l0.1,0c0.3,0,0.9,0.1,0.9,0.7c0,0.2-0.1,0.3-0.2,0.4C41.7,22.3,41.4,22.4,41.2,22.4z M41.1,21.5c-0.1,0-0.3,0-0.3,0.3
		c0,0.1,0.2,0.2,0.3,0.2c0.1,0,0.4,0,0.5-0.1c0,0,0,0,0-0.1C41.6,21.6,41.5,21.5,41.1,21.5L41.1,21.5z"/>
	<path class="st1" d="M41.9,21c-0.1,0-0.1,0-0.2-0.1c0-0.1,0-0.1,0-0.2l0.5-0.9c0-0.1,0.1-0.1,0.2-0.1c0.1,0,0.2,0.1,0.3,0.2
		c0.1,0.1,0.1,0.3,0,0.6C42.6,21,41.9,21,41.9,21z"/>
	<path class="st1" d="M37.6,32.4c-5.1,0-9.2-4.1-9.2-9.2c0-5.1,4.1-9.2,9.2-9.2c5.1,0,9.2,4.1,9.2,9.2
		C46.8,28.3,42.7,32.4,37.6,32.4z M37.6,14.4c-4.9,0-8.8,4-8.8,8.8c0,4.9,4,8.8,8.8,8.8c4.9,0,8.8-4,8.8-8.8
		C46.4,18.3,42.4,14.4,37.6,14.4z"/>
</g>
</svg>
