<?xml version="1.0" encoding="utf-8"?>
<!-- Generator: Adobe Illustrator 23.0.1, SVG Export Plug-In . SVG Version: 6.00 Build 0)  -->
<svg version="1.1" id="Layer_1" xmlns="http://www.w3.org/2000/svg" xmlns:xlink="http://www.w3.org/1999/xlink" x="0px" y="0px"
	 viewBox="0 0 46.8 46.8" style="enable-background:new 0 0 46.8 46.8;" xml:space="preserve">
<style type="text/css">
	.st0{fill:#CD6426;}
</style>
<g>
	<path class="st0" d="M31.3,19.4c0.1,0,0.2,0,0.2-0.1c0.1-0.1,0.1-0.3-0.1-0.3l-6.9-4.8c-0.1-0.1-0.3-0.1-0.3,0.1
		c-0.1,0.1-0.1,0.3,0.1,0.3l6.9,4.8C31.2,19.4,31.2,19.4,31.3,19.4z"/>
	<path class="st0" d="M15,27.5c-0.1,0.1-0.1,0.3,0.1,0.3l6.9,4.8c0,0,0.1,0,0.1,0c0.1,0,0.2,0,0.2-0.1c0.1-0.1,0.1-0.3-0.1-0.3
		l-6.9-4.8C15.2,27.3,15,27.4,15,27.5z"/>
	<path class="st0" d="M22.3,22.8c-0.3,0.3-0.7,0.5-1.2,0c-0.3-0.2-0.6-0.3-1-0.3c-0.8,0.1-1.5,1.1-1.5,1.1l-2.2,3
		c0,0.1-0.1,0.1,0,0.2c0,0.1,0,0.1,0.1,0.2l5.3,3.6c0,0,0.1,0,0.1,0c0.1,0,0.1,0,0.2-0.1c0.1-0.1,1.9-2.6,2.2-3.2
		c0.5-0.9,0.4-1.7-0.3-2.3c-0.7-0.6-0.5-0.9-0.2-1.2c0.2-0.3,0.8-0.5,1.2-0.1c0.4,0.3,0.8,0.4,1.2,0.3c0.4-0.1,0.8-0.3,1.1-0.8
		c0.6-0.7,2.3-3.2,2.3-3.3c0.1-0.1,0-0.3-0.1-0.3l-5.4-3.7c-0.1,0-0.1-0.1-0.2,0S24,15.9,24,16c0,0-1.7,2.6-2.1,3.1
		c-0.7,1-0.7,1.8,0.1,2.5c0.4,0.3,0.5,0.7,0.5,0.8C22.5,22.6,22.4,22.7,22.3,22.8C22.4,22.8,22.3,22.8,22.3,22.8z M22.3,21.2
		c-0.6-0.5-0.6-1,0-1.8c0.3-0.5,1.5-2.3,1.9-2.9l5,3.4c-0.4,0.6-1.7,2.5-2.2,3.1c-0.2,0.3-0.5,0.5-0.8,0.6c-0.3,0.1-0.6-0.1-0.8-0.2
		c-0.7-0.5-1.5-0.3-1.9,0.2c-0.5,0.7-0.4,1.3,0.3,1.9c0.5,0.5,0.6,1,0.2,1.7c-0.3,0.5-1.6,2.3-2.1,2.9l-4.9-3.4l2-2.8
		c0.1-0.2,0.6-0.8,1.1-0.9c0.2,0,0.4,0,0.6,0.2c0.4,0.4,1.1,0.7,1.9-0.1c0.2-0.2,0.3-0.4,0.3-0.7C23,22.2,22.9,21.7,22.3,21.2z"/>
	<path class="st0" d="M23.8,21.3c0.1,0.2,0.1,0.4-0.1,0.6c0,0.1,0,0.2,0,0.3c0.1,0.1,0.2,0.1,0.3,0.1c0.3-0.1,1.2-0.3,1.5-0.1
		c0.1,0,0.1,0.1,0.1,0.3c0,0.1,0.1,0.2,0.2,0.2c0,0,0,0,0.1,0c0.1,0,0.2,0,0.2-0.1l1.7-2.4c0.1-0.1,0.1-0.2,0-0.3
		c-0.1-0.1-0.2-0.1-0.3,0c0,0-0.6,0.4-1.5-0.3c-0.8-0.6-1.6-0.9-2.2-0.7c-0.5,0.2-0.9,0.6-1.1,1.3c0,0.1,0,0.3,0.1,0.3
		C22.9,20.6,23.7,20.8,23.8,21.3z M24,19.4c0.6-0.2,1.2,0.2,1.7,0.6c0.5,0.4,1,0.5,1.3,0.5l-1,1.5c-0.1-0.1-0.1-0.1-0.2-0.2
		c-0.2-0.2-0.5-0.2-0.8-0.2c-0.3,0-0.5,0-0.7,0.1c0-0.2,0-0.4-0.1-0.6c-0.2-0.5-0.7-0.8-1-0.9C23.5,19.8,23.7,19.5,24,19.4z"/>
	<path class="st0" d="M21.6,25.5c-0.1,0-0.1-0.1-0.2,0l-2.8,0.7c-0.1,0-0.2,0.1-0.2,0.2c0,0.1,0,0.2,0.1,0.2l3.1,2.2
		c0,0,0.1,0,0.1,0c0,0,0.1,0,0.1,0c0.1,0,0.1-0.1,0.1-0.2l-0.2-2.9C21.7,25.6,21.6,25.5,21.6,25.5z M19.2,26.5l2-0.5l0.2,2.1
		L19.2,26.5z"/>
	<path class="st0" d="M40.6,15c-0.2-0.4-0.4-0.8-0.6-1.2C35.3,4.5,23.9,0.8,14.7,5.6c-4,2.1-7.1,5.5-8.8,9.7C5.1,15.3,0,16.1,0,22.5
		c0,6.7,5.7,7.3,6.1,7.3c0.1,0.3,0.3,0.7,0.4,1C6.6,31,6.8,31,7,30.9c0.2-0.1,0.3-0.3,0.2-0.5c-4.5-8.8-1-19.7,7.9-24.2
		c8.9-4.5,19.8-1,24.3,7.9c2.2,4.3,2.6,9.1,1.1,13.8c-1.5,4.6-4.7,8.4-8.9,10.6c-3.3,1.7-7.1,2.3-10.6,1.8c0,0,0,0,0,0
		c0-1.7-1.4-3.1-3.1-3.1c-1.7,0-3.1,1.4-3.1,3.1s1.4,3.1,3.1,3.1c1.4,0,2.6-1,3-2.3c0.8,0.1,1.7,0.2,2.5,0.2c2.9,0,5.9-0.7,8.5-2
		c3.7-1.9,6.6-5,8.4-8.8c0.1,0,0.1,0.1,0.2,0.1c0,0,0,0,0,0c0.1,0,6.4-0.8,6.4-7.6C46.8,16.6,41.5,15.2,40.6,15z M5.7,29
		c-1.3-0.2-5-1.3-5-6.5c0-5.2,3.6-6.2,4.9-6.4c-0.1,0.2-0.1,0.3-0.2,0.5C4.1,20.7,4.2,25,5.7,29z M17.8,42.6c-1.3,0-2.4-1.1-2.4-2.4
		s1.1-2.4,2.4-2.4c1.3,0,2.4,1.1,2.4,2.4S19.1,42.6,17.8,42.6z M40.6,29.6c0.2-0.5,0.4-1,0.6-1.5c1.3-4.1,1.2-8.4-0.2-12.3
		c1.5,0.4,5.1,1.9,5.1,7C46.1,28.4,41.6,29.5,40.6,29.6z"/>
</g>
</svg>
