<?xml version="1.0" encoding="utf-8"?>
<!-- Generator: Adobe Illustrator 23.0.1, SVG Export Plug-In . SVG Version: 6.00 Build 0)  -->
<svg version="1.1" id="Layer_1" xmlns="http://www.w3.org/2000/svg" xmlns:xlink="http://www.w3.org/1999/xlink" x="0px" y="0px"
	 viewBox="0 0 46.8 46.8" style="enable-background:new 0 0 46.8 46.8;" xml:space="preserve">
<style type="text/css">
	.st0{fill:#449ED0;}
</style>
<g>
	<path class="st0" d="M42.2,20.7c-0.5-0.1-0.8-0.7-0.5-1.1c0.1-0.1,0.2-0.2,0.4-0.3c0,0,0,0,0,0c0,0,0,0,0,0c0,0,0.1,0,0.1-0.1
		c0.1,0,0.2-0.1,0.4-0.2c0.5-0.3,1.1-0.7,1.6-1c0,0,0,0,0,0c0.1-0.1,0.2-0.1,0.3-0.2c0.2-0.1,0.4-0.1,0.6,0c0.5,0.2,0.5,0.9,0.1,1.2
		c-0.3,0.2-0.5,0.4-0.8,0.5c0,0-0.1,0-0.1,0c-0.1,0-0.1,0.1-0.2,0.1c-0.4,0.2-0.8,0.5-1.2,0.7c-0.2,0.1-0.3,0.2-0.4,0.3
		C42.5,20.7,42.4,20.7,42.2,20.7z M44.3,19c0.3-0.2,0.5-0.3,0.8-0.5c0.1-0.1,0.1-0.2,0-0.3c-0.1-0.1-0.2-0.1-0.3-0.1
		c-0.2,0.1-0.4,0.3-0.6,0.4c-0.5,0.3-1,0.6-1.5,1c-0.2,0.1-0.4,0.2-0.6,0.4c-0.1,0.1-0.1,0.2-0.1,0.3c0.1,0.1,0.2,0.2,0.3,0.1
		c0.1-0.1,0.2-0.1,0.3-0.2c0.2-0.2,0.5-0.3,0.7-0.5C43.7,19.4,44,19.2,44.3,19z"/>
	<path class="st0" d="M46.4,25.2c-0.2,0.1-0.4,0.1-0.5,0c-0.5-0.1-1.1-0.2-1.6-0.3c-0.5-0.1-0.9-0.2-1.4-0.3
		c-0.4-0.1-0.6-0.4-0.6-0.8c0,0,0,0,0-0.1c0.1-0.1,0.1-0.2,0.1-0.3c0.2-0.2,0.4-0.3,0.7-0.2c0.4,0.1,0.8,0.2,1.2,0.2
		c0.1,0,0.1,0,0.2,0c0.4,0.1,0.8,0.2,1.2,0.2c0.2,0.1,0.4,0.1,0.6,0.1c0.1,0,0.2,0.1,0.3,0.1C46.9,24.3,46.9,24.9,46.4,25.2z
		 M44.3,24.4c0.6,0.1,1.2,0.3,1.8,0.4c0.1,0,0.2-0.1,0.3-0.2c0-0.1,0-0.3-0.2-0.3c-0.3-0.1-0.5-0.1-0.8-0.2
		c-0.4-0.1-0.7-0.2-1.1-0.2c-0.4-0.1-0.8-0.2-1.2-0.3c-0.2,0-0.3,0-0.3,0.2c0,0.2,0,0.3,0.2,0.3c0.1,0,0.2,0,0.3,0.1
		C43.6,24.2,44,24.3,44.3,24.4z"/>
	<path class="st0" d="M43.2,30c-0.1,0.3-0.6,0.6-1,0.4C42,30.3,42,30.1,41.8,30c0,0,0,0,0-0.1c-0.2-0.3-0.4-0.5-0.5-0.8
		c-0.3-0.4-0.5-0.8-0.8-1.2c-0.1-0.2-0.3-0.4-0.4-0.6c0-0.2,0-0.3,0-0.4c0.1-0.4,0.5-0.5,0.9-0.4c0.2,0,0.3,0.1,0.4,0.3
		c0.3,0.5,0.6,1,1,1.5c0.2,0.4,0.5,0.8,0.7,1.1C43.2,29.5,43.3,29.7,43.2,30z M42.3,28.8c-0.1-0.1-0.1-0.2-0.2-0.3
		c-0.1-0.2-0.3-0.4-0.4-0.6c-0.2-0.4-0.4-0.7-0.7-1c-0.1-0.1-0.3-0.1-0.4,0c-0.2,0.1-0.2,0.2-0.1,0.4c0.2,0.2,0.3,0.5,0.5,0.7
		c0.2,0.3,0.4,0.6,0.5,0.9c0.2,0.4,0.5,0.7,0.7,1c0,0,0,0.1,0.1,0.1c0.1,0.1,0.3,0.2,0.4,0.1c0.2-0.1,0.2-0.3,0.1-0.4
		C42.6,29.3,42.4,29,42.3,28.8z"/>
	<path class="st0" d="M35.9,31.5c-0.3-0.2-0.4-0.4-0.3-0.8c0.1-0.2,0.1-0.5,0.2-0.7c0-0.2,0.1-0.5,0.2-0.7c0-0.1,0-0.2,0.1-0.3
		c0.1-0.3,0.1-0.7,0.2-1c0-0.1,0-0.2,0.1-0.3c0.1-0.4,0.4-0.6,0.7-0.5c0.4,0,0.6,0.3,0.6,0.7c0,0,0,0,0,0.1c0,0.1-0.1,0.2-0.1,0.4
		c-0.1,0.6-0.2,1.1-0.4,1.7c-0.1,0.3-0.2,0.7-0.2,1C36.9,31.5,36.5,31.7,35.9,31.5z M36.9,30c0,0,0-0.1,0-0.1
		c0.1-0.6,0.3-1.3,0.4-1.9c0-0.2,0-0.4-0.2-0.5c-0.2-0.1-0.4,0-0.5,0.2c0,0.1-0.1,0.2-0.1,0.3c0,0,0,0,0,0c-0.1,0.4-0.2,0.8-0.2,1.2
		c-0.1,0.3-0.1,0.6-0.2,0.9c-0.1,0.3-0.1,0.6-0.2,0.9c0,0.2,0.1,0.4,0.3,0.4c0.2,0,0.4,0,0.5-0.3c0-0.2,0.1-0.3,0.1-0.5
		C36.8,30.4,36.9,30.2,36.9,30z"/>
	<path class="st0" d="M32.2,25.8c0.2-0.1,0.4-0.3,0.6-0.4c0.2-0.1,0.3-0.2,0.5-0.3c0.2-0.1,0.4-0.2,0.6-0.2c0.5,0.1,0.7,0.6,0.5,0.9
		c-0.1,0.2-0.3,0.4-0.5,0.5c-0.1,0-0.1,0.1-0.2,0.1c-0.7,0.4-1.3,0.8-2,1.3c-0.1,0.1-0.3,0.2-0.4,0.3c-0.3,0.2-0.5,0.1-0.8,0
		c-0.4-0.4-0.3-0.8,0.1-1.1c0.1-0.1,0.2-0.2,0.4-0.2c0.2-0.1,0.4-0.3,0.6-0.4c0,0,0.1,0,0.1-0.1C31.9,26,32,25.9,32.2,25.8z
		 M31.8,26.3c-0.3,0.2-0.7,0.4-1,0.7c-0.2,0.1-0.2,0.4,0,0.6c0.1,0.2,0.4,0.2,0.6,0.1c0.2-0.1,0.3-0.2,0.5-0.3
		c0.3-0.2,0.7-0.4,1-0.7c0.4-0.3,0.8-0.5,1.2-0.8c0.2-0.1,0.2-0.2,0.2-0.4c0-0.2-0.2-0.4-0.4-0.4c-0.1-0.1-0.2,0-0.3,0
		c-0.3,0.2-0.6,0.4-0.9,0.6C32.4,25.9,32.1,26.1,31.8,26.3z"/>
	<path class="st0" d="M40.1,14.1c0.2,0.2,0.3,0.3,0.3,0.6c0,0.1,0,0.3-0.1,0.4c0,0.1,0,0.2,0,0.2c-0.1,0.3-0.1,0.6-0.2,0.9
		c0,0,0,0.1,0,0.1c-0.1,0.1,0,0.2,0,0.2c-0.1,0.3-0.1,0.5-0.2,0.8c0,0.2-0.1,0.4-0.1,0.6c-0.1,0.4-0.4,0.6-0.8,0.5
		c-0.4-0.1-0.5-0.4-0.5-0.8c0-0.1,0-0.2,0-0.3c0.1-0.4,0.2-0.7,0.2-1c0.1-0.4,0.2-0.7,0.2-1.1c0.1-0.2,0.1-0.5,0.2-0.7
		C39.2,14.1,39.6,13.9,40.1,14.1C40.1,14.1,40.1,14.1,40.1,14.1z M39,17.4c0,0.1-0.1,0.3-0.1,0.4c0,0.1,0.1,0.1,0.1,0.1
		c0.1,0,0.1,0,0.1-0.1c0-0.2,0.1-0.3,0.1-0.4c0,0,0,0,0,0c0.1-0.7,0.3-1.4,0.4-2c0-0.2,0.1-0.4,0.1-0.6c0-0.1,0-0.1-0.1-0.2
		c-0.1,0-0.1,0-0.2,0.1c0,0.2-0.1,0.4-0.1,0.6c0,0,0,0,0,0c-0.1,0.3-0.1,0.7-0.2,1C39.2,16.7,39.1,17.1,39,17.4z"/>
	<path class="st0" d="M29.7,20.4c0.2-0.1,0.5,0,0.7,0.1c0.4,0.1,0.9,0.2,1.3,0.3c0.5,0.1,0.9,0.2,1.4,0.3c0.3,0.1,0.5,0.2,0.6,0.5
		c0,0.1,0,0.2,0,0.2c0,0,0,0,0,0.1c-0.1,0.2-0.1,0.3-0.3,0.4c-0.2,0.1-0.4,0.1-0.6,0.1c-0.3-0.1-0.7-0.1-1-0.2
		c-0.4-0.1-0.8-0.2-1.2-0.3c-0.3-0.1-0.6-0.1-0.9-0.2c-0.1,0-0.2-0.1-0.2-0.2C29.2,21.3,29.2,20.7,29.7,20.4z M33.6,21.6
		c0-0.2-0.1-0.3-0.3-0.4c-0.2,0-0.3-0.1-0.5-0.1c-0.4-0.1-0.7-0.1-1-0.2c-0.6-0.1-1.2-0.3-1.8-0.4c-0.1,0-0.2,0-0.3,0.1
		c-0.2,0.1-0.3,0.3-0.3,0.5c0,0.2,0.1,0.4,0.3,0.5c0.1,0,0.2,0.1,0.3,0.1c0.3,0.1,0.7,0.2,1,0.2c0.3,0,0.5,0.1,0.8,0.2
		c0.4,0.1,0.8,0.2,1.2,0.3C33.3,22.4,33.6,22,33.6,21.6z"/>
	<path class="st0" d="M35.9,18.4c0,0.1,0,0.2,0,0.3c-0.1,0.4-0.4,0.5-0.8,0.5c-0.2,0-0.3-0.1-0.4-0.3c-0.3-0.4-0.5-0.8-0.8-1.2
		c-0.1-0.1-0.1-0.2-0.2-0.3c-0.2-0.4-0.4-0.7-0.7-1c-0.2-0.2-0.3-0.5-0.1-0.7c0-0.1,0.1-0.2,0.2-0.2c0.2-0.2,0.5-0.2,0.7-0.1
		c0.1,0,0.1,0.1,0.2,0.1c0.2,0.3,0.4,0.6,0.6,0.9c0.3,0.4,0.5,0.8,0.8,1.2c0.2,0.2,0.3,0.5,0.5,0.7C35.8,18.2,35.9,18.3,35.9,18.4z
		 M33.9,15.4c-0.2-0.2-0.5-0.2-0.8,0.1c-0.2,0.2-0.3,0.5-0.1,0.7c0.6,0.9,1.2,1.8,1.7,2.7c0.2,0.3,0.5,0.4,0.8,0.2
		c0.3-0.2,0.4-0.5,0.2-0.8c-0.2-0.3-0.4-0.6-0.6-0.9c0,0,0,0,0,0c-0.3-0.5-0.7-1-1-1.5C34.1,15.6,34,15.5,33.9,15.4z"/>
	<path class="st0" d="M12,22.1H6.8c-0.2,0-0.3-0.1-0.3-0.3v-1.6c0-0.2,0.1-0.3,0.3-0.3H12c0.2,0,0.3,0.1,0.3,0.3v1.6
		C12.3,22,12.2,22.1,12,22.1z M7.1,21.5h4.6v-1H7.1V21.5z"/>
	<path class="st0" d="M19.4,30.7H6.8c-0.2,0-0.3-0.1-0.3-0.3V29c0-0.2,0.1-0.3,0.3-0.3h12.7c0.2,0,0.3,0.1,0.3,0.3v1.4
		C19.8,30.6,19.6,30.7,19.4,30.7z M7.1,30.1h12.1v-0.8H7.1V30.1z"/>
	<path class="st0" d="M18.2,29.2H6.8c-0.2,0-0.3-0.1-0.3-0.3v-1.2c0-0.2,0.1-0.3,0.3-0.3h11.5c0.2,0,0.3,0.1,0.3,0.3v1.2
		C18.5,29.1,18.4,29.2,18.2,29.2z M7.1,28.6h10.9V28H7.1V28.6z"/>
	<path class="st0" d="M8.6,28c-0.2,0-0.3-0.1-0.3-0.3v-5.8c0-0.2,0.1-0.3,0.3-0.3c0.2,0,0.3,0.1,0.3,0.3v5.8C8.9,27.9,8.7,28,8.6,28
		z"/>
	<path class="st0" d="M21,28.4c-0.2,0-0.3-0.1-0.3-0.3v-2.6c0-2.1-2.2-2.8-3-3l-1,3.4c0,0.1-0.2,0.2-0.3,0.2c-0.1,0-0.3-0.1-0.3-0.2
		l-0.9-3.5c-0.8,0.2-3,1-3,2.7v1.9c0,0.2-0.1,0.3-0.3,0.3c-0.2,0-0.3-0.1-0.3-0.3v-1.9c0-2.6,3.6-3.4,3.8-3.4c0.2,0,0.3,0.1,0.3,0.2
		l0.7,2.7l0.8-2.6c0-0.1,0.2-0.2,0.3-0.2c0,0,3.7,0.6,3.7,3.6v2.6C21.3,28.3,21.1,28.4,21,28.4z"/>
	<path class="st0" d="M16.1,25C16,25,16,25,16.1,25l-1.4-0.3c-0.1,0-0.1-0.1-0.2-0.1c0-0.1-0.1-0.2,0-0.2l0.5-2.1
		c0-0.2,0.2-0.3,0.4-0.2c0.2,0,0.3,0.2,0.2,0.4l-0.5,1.8l1,0.2c0.2,0,0.3,0.2,0.2,0.4C16.3,24.9,16.2,25,16.1,25z"/>
	<path class="st0" d="M16.7,25.1c-0.1,0-0.2-0.1-0.3-0.2c-0.1-0.2,0-0.3,0.2-0.4l1-0.4l-0.5-1.9c0-0.2,0.1-0.3,0.2-0.4
		c0.2,0,0.3,0.1,0.4,0.2l0.5,2.2c0,0.1,0,0.3-0.2,0.4l-1.3,0.5C16.8,25.1,16.8,25.1,16.7,25.1z"/>
	<path class="st0" d="M16.5,21.6c-1.4,0-2-1.7-2.2-2.3c-0.3-0.2-0.6-0.5-0.6-0.9c0-0.8,0.6-1,1.1-1.1c0.5-0.2,0.9-0.7,1-0.9
		c0-0.1,0.1-0.3,0.2-0.3c0.1,0,0.3,0.1,0.3,0.2c0,0,0.4,1,1.8,1c0.2,0,0.4,0,0.6,0.2c0.2,0.2,0.4,0.6,0.3,1
		c-0.1,0.4-0.3,0.6-0.4,0.7c-0.1,0-0.1,0-0.2,0.1C18.3,19.9,17.7,21.6,16.5,21.6z M16.2,17c-0.3,0.3-0.7,0.7-1.1,0.8
		c-0.7,0.2-0.7,0.3-0.7,0.5c0,0.2,0.3,0.4,0.3,0.4c0.1,0,0.1,0.1,0.2,0.2c0.1,0.2,0.6,2,1.7,2c0.8,0,1.4-1.6,1.5-2.1
		c0-0.1,0.1-0.2,0.2-0.2c0.1,0,0.2,0,0.3,0c0,0,0.1,0,0.1-0.2c0-0.2,0-0.4-0.1-0.4c-0.1-0.1-0.1-0.1-0.1,0
		C17.1,17.9,16.5,17.4,16.2,17z"/>
	<path class="st0" d="M18.5,18c-0.2,0-0.3-0.1-0.3-0.3c0-0.2-0.1-1.6-1.8-1.6c-0.6,0-1,0.1-1.3,0.4c-0.4,0.4-0.4,1.1-0.4,1.1
		c0,0.2-0.1,0.3-0.3,0.3c-0.1,0-0.3-0.1-0.3-0.3c0,0,0-0.9,0.6-1.5c0.4-0.4,1-0.6,1.7-0.6c1.8,0,2.4,1.4,2.4,2.2
		C18.9,17.8,18.7,18,18.5,18C18.6,18,18.5,18,18.5,18z"/>
	<path class="st0" d="M17.9,42C17.9,42,17.9,42,17.9,42c-0.6,0-1.1-0.1-1.6-0.1c-0.2,0-0.3-0.2-0.3-0.3c0-0.2,0.2-0.3,0.3-0.3
		c0.5,0.1,1.1,0.1,1.6,0.1c0.2,0,0.3,0.1,0.3,0.3C18.2,41.9,18.1,42,17.9,42z M19.5,42c-0.2,0-0.3-0.1-0.3-0.3
		c0-0.2,0.1-0.3,0.3-0.3c0.5,0,1.1-0.1,1.6-0.1c0.2,0,0.3,0.1,0.3,0.3c0,0.2-0.1,0.3-0.3,0.3C20.6,41.9,20.1,42,19.5,42
		C19.5,42,19.5,42,19.5,42z M14.7,41.6C14.7,41.6,14.7,41.6,14.7,41.6c-0.6-0.1-1.1-0.3-1.7-0.4c-0.2,0-0.2-0.2-0.2-0.4
		c0-0.2,0.2-0.2,0.4-0.2c0.5,0.2,1,0.3,1.5,0.4c0.2,0,0.3,0.2,0.2,0.4C15,41.5,14.8,41.6,14.7,41.6z M22.7,41.5
		c-0.1,0-0.3-0.1-0.3-0.2c0-0.2,0.1-0.3,0.2-0.4c0.5-0.1,1-0.3,1.5-0.4c0.2-0.1,0.3,0,0.4,0.2c0.1,0.2,0,0.3-0.2,0.4
		C23.8,41.3,23.3,41.4,22.7,41.5C22.7,41.5,22.7,41.5,22.7,41.5z M11.6,40.6c0,0-0.1,0-0.1,0c-0.5-0.2-1-0.4-1.5-0.7
		c-0.1-0.1-0.2-0.3-0.1-0.4c0.1-0.1,0.3-0.2,0.4-0.1c0.5,0.2,1,0.5,1.4,0.7c0.2,0.1,0.2,0.2,0.2,0.4C11.9,40.6,11.7,40.6,11.6,40.6z
		 M25.8,40.5c-0.1,0-0.2-0.1-0.3-0.2c-0.1-0.2,0-0.3,0.2-0.4c0.5-0.2,1-0.4,1.4-0.7c0.1-0.1,0.3,0,0.4,0.1c0.1,0.1,0,0.3-0.1,0.4
		c-0.5,0.3-1,0.5-1.5,0.7C25.8,40.5,25.8,40.5,25.8,40.5z M8.8,39.2c-0.1,0-0.1,0-0.2,0c-0.5-0.3-0.9-0.6-1.3-0.9
		c-0.1-0.1-0.2-0.3-0.1-0.4c0.1-0.1,0.3-0.2,0.4-0.1c0.4,0.3,0.9,0.6,1.3,0.9C9.1,38.7,9.1,38.9,9,39C9,39.1,8.9,39.2,8.8,39.2z
		 M28.6,39c-0.1,0-0.2,0-0.3-0.1c-0.1-0.1-0.1-0.3,0.1-0.4c0.4-0.3,0.9-0.6,1.3-0.9c0.1-0.1,0.3-0.1,0.4,0c0.1,0.1,0.1,0.3,0,0.4
		c-0.4,0.3-0.9,0.7-1.3,1C28.7,39,28.7,39,28.6,39z M6.2,37.2c-0.1,0-0.1,0-0.2-0.1c-0.4-0.4-0.8-0.8-1.2-1.2
		c-0.1-0.1-0.1-0.3,0-0.4c0.1-0.1,0.3-0.1,0.4,0c0.4,0.4,0.7,0.8,1.1,1.1c0.1,0.1,0.1,0.3,0,0.4C6.4,37.2,6.3,37.2,6.2,37.2z
		 M31.1,37c-0.1,0-0.2,0-0.2-0.1c-0.1-0.1-0.1-0.3,0-0.4c0.4-0.4,0.8-0.7,1.1-1.1c0.1-0.1,0.3-0.1,0.4,0c0.1,0.1,0.1,0.3,0,0.4
		c-0.4,0.4-0.7,0.8-1.1,1.2C31.3,37,31.2,37,31.1,37z M4,34.8c-0.1,0-0.2,0-0.2-0.1c-0.3-0.4-0.6-0.9-0.9-1.3
		c-0.1-0.1,0-0.3,0.1-0.4c0.1-0.1,0.3,0,0.4,0.1c0.3,0.4,0.6,0.9,0.9,1.3c0.1,0.1,0.1,0.3-0.1,0.4C4.2,34.8,4.1,34.8,4,34.8z
		 M2.3,32.1c-0.1,0-0.2-0.1-0.3-0.2c-0.2-0.5-0.5-1-0.7-1.5c-0.1-0.2,0-0.3,0.2-0.4c0.2-0.1,0.3,0,0.4,0.2c0.2,0.5,0.4,1,0.7,1.4
		c0.1,0.1,0,0.3-0.1,0.4C2.4,32.1,2.4,32.1,2.3,32.1z M1.1,29.1c-0.1,0-0.2-0.1-0.3-0.2c-0.2-0.5-0.3-1.1-0.4-1.6
		c0-0.2,0.1-0.3,0.2-0.4C0.8,26.9,1,27,1,27.2c0.1,0.5,0.2,1,0.4,1.5C1.4,28.9,1.3,29,1.1,29.1C1.2,29.1,1.1,29.1,1.1,29.1z
		 M0.4,25.9c-0.2,0-0.3-0.1-0.3-0.3C0.1,25.1,0,24.6,0,24c0-0.2,0.1-0.3,0.3-0.3c0.2,0,0.3,0.1,0.3,0.3c0,0.5,0.1,1.1,0.1,1.6
		C0.7,25.8,0.6,25.9,0.4,25.9C0.5,25.9,0.4,25.9,0.4,25.9z M0.3,22.7C0.3,22.7,0.3,22.7,0.3,22.7c-0.2,0-0.3-0.2-0.3-0.3
		c0-0.5,0.1-1.1,0.2-1.6c0-0.2,0.2-0.3,0.3-0.3c0.2,0,0.3,0.2,0.3,0.3c-0.1,0.5-0.1,1.1-0.2,1.6C0.6,22.6,0.5,22.7,0.3,22.7z
		 M0.8,19.5C0.7,19.5,0.7,19.5,0.8,19.5c-0.2,0-0.3-0.2-0.3-0.4c0.1-0.5,0.3-1.1,0.4-1.6c0.1-0.2,0.2-0.2,0.4-0.2
		c0.2,0.1,0.2,0.2,0.2,0.4c-0.2,0.5-0.3,1-0.4,1.5C1,19.4,0.9,19.5,0.8,19.5z M1.8,16.5c0,0-0.1,0-0.1,0c-0.2-0.1-0.2-0.2-0.2-0.4
		c0.2-0.5,0.5-1,0.7-1.5c0.1-0.1,0.3-0.2,0.4-0.1c0.1,0.1,0.2,0.3,0.1,0.4c-0.2,0.5-0.5,0.9-0.7,1.4C2,16.4,1.9,16.5,1.8,16.5z
		 M3.3,13.6c-0.1,0-0.1,0-0.2-0.1C3,13.5,3,13.3,3.1,13.2c0.3-0.5,0.6-0.9,1-1.3c0.1-0.1,0.3-0.2,0.4,0c0.1,0.1,0.2,0.3,0,0.4
		c-0.3,0.4-0.6,0.8-0.9,1.3C3.5,13.6,3.4,13.6,3.3,13.6z M5.3,11.1c-0.1,0-0.1,0-0.2-0.1c-0.1-0.1-0.1-0.3,0-0.4
		c0.4-0.4,0.8-0.8,1.2-1.1c0.1-0.1,0.3-0.1,0.4,0c0.1,0.1,0.1,0.3,0,0.4c-0.4,0.4-0.8,0.7-1.1,1.1C5.5,11.1,5.4,11.1,5.3,11.1z
		 M30.2,9.5c-0.1,0-0.1,0-0.2-0.1c-0.4-0.3-0.8-0.7-1.3-1c-0.1-0.1-0.2-0.3-0.1-0.4C28.7,8,28.9,7.9,29.1,8c0.4,0.3,0.9,0.6,1.3,1
		c0.1,0.1,0.1,0.3,0,0.4C30.4,9.5,30.3,9.5,30.2,9.5z M7.7,9c-0.1,0-0.2,0-0.2-0.1C7.4,8.7,7.4,8.5,7.5,8.4C8,8.1,8.4,7.8,8.9,7.5
		c0.1-0.1,0.3,0,0.4,0.1c0.1,0.1,0,0.3-0.1,0.4C8.8,8.3,8.3,8.6,7.9,8.9C7.8,9,7.8,9,7.7,9z M27.5,7.7c-0.1,0-0.1,0-0.1,0
		C26.9,7.4,26.4,7.2,26,7c-0.2-0.1-0.2-0.2-0.2-0.4c0.1-0.2,0.2-0.2,0.4-0.2c0.5,0.2,1,0.5,1.5,0.7c0.1,0.1,0.2,0.3,0.1,0.4
		C27.7,7.7,27.6,7.7,27.5,7.7z M10.5,7.3c-0.1,0-0.2-0.1-0.3-0.2c-0.1-0.1,0-0.3,0.1-0.4c0.5-0.2,1-0.5,1.5-0.7
		c0.2-0.1,0.3,0,0.4,0.2c0.1,0.2,0,0.3-0.2,0.4c-0.5,0.2-1,0.4-1.5,0.6C10.6,7.3,10.5,7.3,10.5,7.3z M24.6,6.4
		C24.6,6.4,24.5,6.4,24.6,6.4C24,6.2,23.5,6.1,23,5.9c-0.2,0-0.3-0.2-0.2-0.4c0-0.2,0.2-0.3,0.4-0.2c0.5,0.1,1.1,0.3,1.6,0.5
		c0.2,0.1,0.2,0.2,0.2,0.4C24.8,6.3,24.7,6.4,24.6,6.4z M13.5,6.1c-0.1,0-0.3-0.1-0.3-0.2c0-0.2,0-0.3,0.2-0.4
		c0.5-0.2,1.1-0.3,1.6-0.4c0.2,0,0.3,0.1,0.4,0.2c0,0.2-0.1,0.3-0.2,0.4C14.6,5.8,14.1,6,13.5,6.1C13.5,6.1,13.5,6.1,13.5,6.1z
		 M21.5,5.6C21.4,5.6,21.4,5.6,21.5,5.6c-0.6-0.1-1.1-0.1-1.6-0.2c-0.2,0-0.3-0.2-0.3-0.3c0-0.2,0.2-0.3,0.3-0.3
		c0.5,0,1.1,0.1,1.6,0.2c0.2,0,0.3,0.2,0.3,0.3C21.7,5.5,21.6,5.6,21.5,5.6z M16.6,5.5c-0.2,0-0.3-0.1-0.3-0.3
		c0-0.2,0.1-0.3,0.3-0.3c0.5-0.1,1.1-0.1,1.6-0.1c0.2,0,0.3,0.1,0.3,0.3s-0.1,0.3-0.3,0.3C17.7,5.4,17.2,5.5,16.6,5.5
		C16.7,5.5,16.6,5.5,16.6,5.5z"/>
</g>
</svg>
