<?xml version="1.0" encoding="utf-8"?>
<!-- Generator: Adobe Illustrator 23.0.1, SVG Export Plug-In . SVG Version: 6.00 Build 0)  -->
<svg version="1.1" id="Layer_1" xmlns="http://www.w3.org/2000/svg" xmlns:xlink="http://www.w3.org/1999/xlink" x="0px" y="0px"
	 viewBox="0 0 46.8 46.8" style="enable-background:new 0 0 46.8 46.8;" xml:space="preserve">
<style type="text/css">
	.st0{fill:#386FC0;}
</style>
<g>
	<path class="st0" d="M42.5,20.9c-0.4-0.1-0.7-0.6-0.4-1c0.1-0.1,0.2-0.2,0.3-0.2c0,0,0,0,0,0c0,0,0,0,0,0c0,0,0.1,0,0.1-0.1
		c0.1,0,0.2-0.1,0.3-0.2c0.5-0.3,1-0.6,1.4-0.9c0,0,0,0,0,0c0.1-0.1,0.2-0.1,0.3-0.2c0.2-0.1,0.4-0.1,0.6,0c0.4,0.2,0.5,0.8,0.1,1.1
		c-0.3,0.2-0.5,0.3-0.7,0.5c0,0-0.1,0-0.1,0c-0.1,0-0.1,0.1-0.2,0.1c-0.4,0.2-0.7,0.5-1.1,0.7c-0.1,0.1-0.3,0.2-0.4,0.3
		C42.8,20.9,42.7,20.9,42.5,20.9z M44.5,19.3c0.2-0.2,0.5-0.3,0.7-0.5c0.1-0.1,0.1-0.2,0-0.3c-0.1-0.1-0.1-0.1-0.2-0.1
		c-0.2,0.1-0.4,0.2-0.6,0.4c-0.5,0.3-0.9,0.6-1.4,0.9c-0.2,0.1-0.4,0.2-0.5,0.3c-0.1,0.1-0.1,0.2-0.1,0.3c0.1,0.1,0.2,0.1,0.3,0.1
		c0.1-0.1,0.2-0.1,0.3-0.2c0.2-0.1,0.4-0.3,0.6-0.4C43.9,19.7,44.2,19.5,44.5,19.3z"/>
	<path class="st0" d="M46.4,25c-0.2,0.1-0.3,0.1-0.5,0c-0.5-0.1-1-0.2-1.5-0.3c-0.4-0.1-0.8-0.2-1.3-0.3c-0.4-0.1-0.6-0.3-0.5-0.7
		c0,0,0,0,0-0.1c0.1-0.1,0.1-0.2,0.1-0.2c0.2-0.2,0.4-0.3,0.6-0.2c0.4,0.1,0.7,0.2,1.1,0.2c0.1,0,0.1,0,0.2,0
		c0.4,0.1,0.7,0.2,1.1,0.2c0.2,0.1,0.4,0.1,0.5,0.1c0.1,0,0.2,0.1,0.3,0.1C46.9,24.3,46.8,24.8,46.4,25z M44.5,24.3
		c0.5,0.1,1.1,0.2,1.7,0.4c0.1,0,0.2-0.1,0.2-0.2c0-0.1,0-0.2-0.2-0.3c-0.3-0.1-0.5-0.1-0.8-0.2c-0.3-0.1-0.7-0.1-1-0.2
		c-0.4-0.1-0.7-0.2-1.1-0.2c-0.1,0-0.2,0-0.3,0.2c0,0.1,0,0.2,0.2,0.3c0.1,0,0.2,0,0.3,0.1C43.8,24.2,44.1,24.2,44.5,24.3z"/>
	<path class="st0" d="M43.4,29.5c-0.1,0.3-0.5,0.6-0.9,0.4c-0.1-0.1-0.2-0.2-0.3-0.4c0,0,0,0,0-0.1c-0.2-0.3-0.3-0.5-0.5-0.7
		c-0.2-0.4-0.5-0.7-0.7-1.1c-0.1-0.2-0.2-0.4-0.3-0.5c0-0.1,0-0.3,0-0.4c0.1-0.3,0.5-0.5,0.8-0.4c0.1,0,0.2,0.1,0.3,0.2
		c0.3,0.5,0.6,0.9,0.9,1.4c0.2,0.4,0.5,0.7,0.7,1.1C43.5,29.1,43.5,29.2,43.4,29.5z M42.6,28.3c-0.1-0.1-0.1-0.2-0.2-0.2
		c-0.1-0.2-0.2-0.4-0.4-0.5c-0.2-0.3-0.4-0.6-0.6-1c-0.1-0.1-0.2-0.1-0.4,0c-0.1,0.1-0.2,0.2-0.1,0.4c0.1,0.2,0.3,0.4,0.4,0.6
		c0.2,0.3,0.3,0.5,0.5,0.8c0.2,0.3,0.4,0.6,0.6,1c0,0,0,0.1,0.1,0.1c0.1,0.1,0.2,0.2,0.4,0.1c0.2-0.1,0.2-0.3,0.1-0.4
		C42.9,28.9,42.7,28.6,42.6,28.3z"/>
	<path class="st0" d="M36.7,30.9c-0.3-0.2-0.3-0.4-0.3-0.7c0.1-0.2,0.1-0.5,0.1-0.7c0-0.2,0.1-0.4,0.1-0.7c0-0.1,0-0.2,0.1-0.3
		c0.1-0.3,0.1-0.6,0.2-0.9c0-0.1,0-0.2,0.1-0.2c0.1-0.3,0.4-0.5,0.7-0.5c0.3,0,0.6,0.3,0.5,0.6c0,0,0,0,0,0.1c0,0.1-0.1,0.2-0.1,0.3
		c-0.1,0.5-0.2,1.1-0.3,1.6c-0.1,0.3-0.1,0.6-0.2,0.9C37.6,30.9,37.2,31.1,36.7,30.9z M37.6,29.5c0,0,0-0.1,0-0.1
		c0.1-0.6,0.3-1.2,0.4-1.8c0-0.2,0-0.4-0.2-0.4c-0.2-0.1-0.4,0-0.5,0.2c0,0.1-0.1,0.2-0.1,0.3c0,0,0,0,0,0c-0.1,0.4-0.2,0.7-0.2,1.1
		c-0.1,0.3-0.1,0.5-0.2,0.8c-0.1,0.3-0.1,0.5-0.2,0.8c0,0.2,0.1,0.3,0.3,0.4c0.2,0,0.4,0,0.4-0.2c0-0.1,0.1-0.3,0.1-0.4
		C37.6,29.8,37.6,29.6,37.6,29.5z"/>
	<path class="st0" d="M33.2,25.6c0.2-0.1,0.4-0.2,0.6-0.4c0.2-0.1,0.3-0.2,0.5-0.3c0.2-0.1,0.3-0.2,0.5-0.2c0.4,0.1,0.6,0.5,0.5,0.8
		c-0.1,0.2-0.2,0.3-0.4,0.4c-0.1,0-0.1,0.1-0.2,0.1c-0.6,0.4-1.2,0.8-1.8,1.2c-0.1,0.1-0.2,0.2-0.4,0.2c-0.2,0.1-0.5,0.1-0.7,0
		c-0.4-0.4-0.3-0.8,0.1-1c0.1-0.1,0.2-0.1,0.3-0.2c0.2-0.1,0.4-0.2,0.5-0.4c0,0,0.1,0,0.1-0.1C33.1,25.8,33.1,25.7,33.2,25.6z
		 M32.9,26.1c-0.3,0.2-0.6,0.4-0.9,0.6c-0.1,0.1-0.2,0.3,0,0.6c0.1,0.2,0.4,0.2,0.5,0.1c0.2-0.1,0.3-0.2,0.4-0.3
		c0.3-0.2,0.6-0.4,0.9-0.6c0.4-0.2,0.7-0.5,1.1-0.7c0.1-0.1,0.2-0.2,0.2-0.4c0-0.2-0.2-0.4-0.3-0.4c-0.1-0.1-0.2,0-0.3,0
		c-0.3,0.2-0.5,0.4-0.8,0.5C33.4,25.8,33.2,25.9,32.9,26.1z"/>
	<path class="st0" d="M40.6,14.8c0.2,0.1,0.3,0.3,0.3,0.5c0,0.1,0,0.2-0.1,0.4c0,0.1,0,0.1,0,0.2c-0.1,0.3-0.1,0.6-0.2,0.9
		c0,0,0,0.1,0,0.1c-0.1,0.1,0,0.2,0,0.2c-0.1,0.2-0.1,0.5-0.2,0.7c0,0.2-0.1,0.4-0.1,0.5c-0.1,0.4-0.4,0.5-0.8,0.4
		c-0.3-0.1-0.5-0.4-0.4-0.7c0-0.1,0-0.2,0-0.2c0.1-0.3,0.1-0.6,0.2-1c0.1-0.3,0.1-0.6,0.2-1c0.1-0.2,0.1-0.5,0.2-0.7
		C39.7,14.8,40.2,14.6,40.6,14.8C40.6,14.8,40.6,14.8,40.6,14.8z M39.6,17.9c0,0.1-0.1,0.2-0.1,0.4c0,0.1,0.1,0.1,0.1,0.1
		c0.1,0,0.1,0,0.1-0.1c0-0.1,0.1-0.3,0.1-0.4c0,0,0,0,0,0c0.1-0.6,0.3-1.3,0.4-1.9c0-0.2,0.1-0.4,0.1-0.6c0-0.1,0-0.1-0.1-0.1
		c-0.1,0-0.1,0-0.2,0.1c0,0.2-0.1,0.4-0.1,0.6c0,0,0,0,0,0c-0.1,0.3-0.1,0.6-0.2,0.9C39.7,17.2,39.7,17.5,39.6,17.9z"/>
	<path class="st0" d="M31,20.7c0.2-0.1,0.4,0,0.7,0.1c0.4,0.1,0.8,0.2,1.2,0.3c0.4,0.1,0.9,0.2,1.3,0.3c0.3,0.1,0.5,0.2,0.5,0.5
		c0,0.1,0,0.1,0,0.2c0,0,0,0,0,0.1c-0.1,0.2-0.1,0.3-0.3,0.4c-0.2,0.1-0.4,0.1-0.6,0.1c-0.3-0.1-0.6-0.1-0.9-0.2
		c-0.4-0.1-0.8-0.2-1.2-0.3c-0.3-0.1-0.5-0.1-0.8-0.2c-0.1,0-0.1-0.1-0.2-0.1C30.5,21.5,30.5,20.9,31,20.7z M34.5,21.8
		c0-0.2-0.1-0.3-0.3-0.3c-0.1,0-0.3-0.1-0.4-0.1c-0.3-0.1-0.6-0.1-1-0.2c-0.5-0.1-1.1-0.2-1.6-0.4c-0.1,0-0.2,0-0.3,0.1
		c-0.2,0.1-0.3,0.3-0.3,0.5c0,0.2,0.1,0.4,0.3,0.4c0.1,0,0.2,0.1,0.3,0.1c0.3,0.1,0.6,0.1,0.9,0.2c0.2,0,0.5,0.1,0.7,0.1
		c0.4,0.1,0.7,0.2,1.1,0.2C34.3,22.4,34.6,22.1,34.5,21.8z"/>
	<path class="st0" d="M36.7,18.8c0,0.1,0,0.2,0,0.3c-0.1,0.3-0.4,0.5-0.7,0.5c-0.2,0-0.3-0.1-0.4-0.3c-0.3-0.4-0.5-0.8-0.8-1.2
		c-0.1-0.1-0.1-0.2-0.2-0.3c-0.2-0.3-0.4-0.6-0.6-1c-0.1-0.2-0.2-0.4-0.1-0.7c0-0.1,0.1-0.1,0.2-0.2c0.2-0.2,0.4-0.2,0.7-0.1
		c0.1,0,0.1,0.1,0.2,0.1c0.2,0.3,0.4,0.5,0.5,0.8c0.2,0.4,0.5,0.7,0.7,1.1c0.1,0.2,0.3,0.5,0.4,0.7C36.7,18.6,36.7,18.7,36.7,18.8z
		 M34.8,16c-0.2-0.2-0.5-0.1-0.7,0.1c-0.2,0.2-0.2,0.5-0.1,0.7c0.5,0.8,1.1,1.6,1.6,2.5c0.2,0.3,0.5,0.3,0.8,0.2
		c0.3-0.2,0.4-0.5,0.2-0.7c-0.2-0.3-0.4-0.5-0.5-0.8c0,0,0,0,0,0c-0.3-0.5-0.6-1-0.9-1.4C35,16.2,35,16.1,34.8,16z"/>
	<path class="st0" d="M10.5,31.5c-0.2,0-0.5,0-0.8-0.1c-1.2-0.2-2.1-1-2.4-2c0-0.1,0-0.2,0.1-0.3c0,0,2.2-2.1,3.1-3.3
		c0.7-0.9,0.7-1.3,0.8-1.6c0-0.3,0-0.7,0.4-1.2c0.8-1,4-3.8,4.8-4.5c0,0,0,0,0,0c0.3-0.2,0.7-0.2,1,0.1c0.6,0.7,0.5,1.5-0.2,2.3
		c-0.3,0.3-0.6,0.6-0.8,0.8c-0.2,0.2-0.4,0.4-0.4,0.5l0.1,0c0.1,0,0.2,0,0.3,0.1c0.1,0.1,0.1,0.2,0,0.3L15,24.8l0.2,0.4l4.1,2.2
		c0.1,0,0.1,0.1,0.1,0.2c0,0.1,0,0.2-0.1,0.2c0,0-2.5,1.8-4.8,1.6c0,0,0,0,0,0c0.1,0,0.2,0.2,0.2,0.3c0,0.1-0.1,0.3-0.3,0.2
		c0,0-1.4-0.1-2.1,0.8C11.9,31.2,11.2,31.5,10.5,31.5z M7.9,29.3c0.3,0.8,1,1.3,2,1.5c0.8,0.2,1.7,0,2-0.4c0.5-0.5,1.1-0.8,1.6-0.9
		c-0.8-0.6-1.2-1.3-1.2-1.4c-0.1-0.1,0-0.3,0.1-0.3c0.1-0.1,0.3-0.1,0.4,0.1c1.8,2.1,4.8,0.4,5.9-0.2l-3.7-2c0,0-0.1-0.1-0.1-0.1
		l-0.4-0.7c0-0.1,0-0.2,0-0.3l1.2-1.9c-0.1,0-0.1,0-0.1-0.1c-0.1-0.1-0.1-0.1-0.1-0.2c0-0.5,0.2-0.7,0.7-1.2
		c0.2-0.2,0.4-0.4,0.8-0.8c0.5-0.5,0.5-1,0.1-1.5c0,0-0.1,0-0.2,0c-1.2,1-4,3.6-4.8,4.4c-0.3,0.3-0.3,0.5-0.3,0.8c0,0.4,0,0.9-0.9,2
		C10,27.2,8.3,28.9,7.9,29.3z"/>
	<path class="st0" d="M18.4,26.2c0,0-0.1,0-0.1,0l-2.6-1.2c-0.1,0-0.1-0.1-0.2-0.2c0-0.1,0-0.2,0-0.2l4.5-8.1
		c0.1-0.1,0.1-0.2,0.3-0.1l4,0.2c0.1,0,0.2,0.1,0.2,0.1c0,0.1,0.1,0.2,0,0.3l-1.8,3.8c-0.1,0.1-0.2,0.2-0.4,0.1
		c-0.1-0.1-0.2-0.2-0.1-0.4l1.6-3.4l-3.4-0.1l-4.3,7.7l2.4,1.1c0.1,0.1,0.2,0.2,0.1,0.4C18.6,26.1,18.5,26.2,18.4,26.2z"/>
	<path class="st0" d="M21.2,23.4C21.2,23.4,21.2,23.4,21.2,23.4c-0.2-0.1-0.3-0.2-0.3-0.4l0.1-0.3c0-0.1,0.2-0.2,0.4-0.2
		c0.1,0,0.2,0.2,0.2,0.4l-0.1,0.3C21.4,23.3,21.3,23.4,21.2,23.4z"/>
	<path class="st0" d="M20.2,25.5c0,0-0.1,0-0.1,0c-0.1-0.1-0.2-0.2-0.2-0.4l0.1-0.2c0.1-0.1,0.2-0.2,0.4-0.2
		c0.1,0.1,0.2,0.2,0.2,0.4l-0.1,0.2C20.4,25.4,20.3,25.5,20.2,25.5z"/>
	<path class="st0" d="M20.2,27.4c-0.2,0-0.4,0-0.6-0.1c-0.9-0.2-1.4-0.7-1.2-1.3c0.2-0.9,1.3-0.8,1.7-0.8c0,0,0,0,0,0
		c0.3,0,0.8,0.2,1,0.5c0.2,0.2,0.2,0.5,0.2,0.8c0,0.3-0.2,0.5-0.4,0.7C20.8,27.4,20.5,27.4,20.2,27.4z M19.7,25.7
		c-0.4,0-0.6,0.1-0.7,0.4c-0.1,0.4,0.5,0.6,0.8,0.7c0.3,0.1,0.7,0.1,0.9-0.1c0.1,0,0.1-0.1,0.1-0.3c0-0.2,0-0.3-0.1-0.4
		c-0.1-0.2-0.4-0.3-0.7-0.3C19.9,25.7,19.8,25.7,19.7,25.7z"/>
	<path class="st0" d="M21.3,25c-0.2,0-0.4,0-0.6-0.1c-0.6-0.1-1-0.5-0.9-1.1c0.1-0.4,0.3-0.8,1-0.8c0.1,0,0.9,0,1.3,0.4
		c0.2,0.2,0.2,0.4,0.2,0.6c0,0.3-0.2,0.5-0.3,0.6C21.8,25,21.6,25,21.3,25z M20.6,23.7c-0.2,0-0.2,0.1-0.3,0.3
		c0,0.3,0.3,0.4,0.5,0.4c0.6,0.1,0.8,0,0.9,0c0,0,0.1-0.1,0.1-0.2c0-0.1,0-0.2-0.1-0.2c-0.2-0.2-0.6-0.2-0.9-0.3
		C20.7,23.7,20.6,23.7,20.6,23.7z"/>
	<path class="st0" d="M22.1,22.9c-0.1,0-0.1,0-0.2,0l-0.1,0c-0.6-0.1-1.1-0.4-1.1-1c0.1-0.6,0.5-1,1.1-1c0,0,0,0,0,0l0.1,0
		c0.4,0,1.3,0.1,1.3,1c0,0.3-0.1,0.5-0.2,0.6C22.8,22.9,22.4,22.9,22.1,22.9z M21.8,21.5c-0.3,0-0.5,0.2-0.5,0.5
		c0,0.2,0.4,0.3,0.6,0.4l0,0c0.2,0,0.6,0,0.8-0.1c0,0,0.1-0.1,0.1-0.2c0-0.3-0.3-0.4-0.8-0.5L21.8,21.5z"/>
	<path class="st0" d="M23.1,20.8c-0.1,0-0.2-0.1-0.2-0.1c-0.1-0.1-0.1-0.2,0-0.3l0.7-1.5c0.1-0.1,0.2-0.2,0.3-0.2c0,0,0.3,0,0.5,0.3
		c0.1,0.2,0.2,0.5,0,0.8C24.1,20.8,23.1,20.8,23.1,20.8z M23.9,19.6L23.7,20c0.1-0.1,0.1-0.2,0.2-0.3C23.9,19.7,23.9,19.7,23.9,19.6
		z"/>
	<path class="st0" d="M16.6,40.6C16.6,40.6,16.5,40.6,16.6,40.6c-0.5,0-1-0.1-1.5-0.1c-0.2,0-0.3-0.2-0.2-0.3c0-0.2,0.2-0.3,0.3-0.2
		c0.5,0.1,1,0.1,1.5,0.1c0.2,0,0.3,0.1,0.3,0.3C16.8,40.5,16.7,40.6,16.6,40.6z M18,40.6c-0.1,0-0.3-0.1-0.3-0.3
		c0-0.2,0.1-0.3,0.3-0.3c0.5,0,1-0.1,1.5-0.1c0.2,0,0.3,0.1,0.3,0.2c0,0.2-0.1,0.3-0.2,0.3C19.1,40.5,18.6,40.5,18,40.6
		C18.1,40.6,18.1,40.6,18,40.6z M13.6,40.2C13.6,40.2,13.6,40.2,13.6,40.2c-0.5-0.1-1-0.2-1.5-0.4c-0.1,0-0.2-0.2-0.2-0.3
		c0-0.1,0.2-0.2,0.3-0.2c0.5,0.1,0.9,0.3,1.4,0.4c0.2,0,0.2,0.2,0.2,0.3C13.8,40.1,13.7,40.2,13.6,40.2z M21,40.2
		c-0.1,0-0.2-0.1-0.3-0.2c0-0.2,0.1-0.3,0.2-0.3c0.5-0.1,0.9-0.2,1.4-0.4c0.1,0,0.3,0,0.4,0.2c0,0.1,0,0.3-0.2,0.4
		C22,39.9,21.5,40,21,40.2C21,40.2,21,40.2,21,40.2z M10.8,39.3c0,0-0.1,0-0.1,0c-0.5-0.2-0.9-0.4-1.4-0.6c-0.1-0.1-0.2-0.2-0.1-0.4
		c0.1-0.1,0.2-0.2,0.4-0.1c0.4,0.2,0.9,0.4,1.3,0.6c0.1,0.1,0.2,0.2,0.2,0.4C11,39.3,10.9,39.3,10.8,39.3z M23.8,39.2
		c-0.1,0-0.2-0.1-0.3-0.2c-0.1-0.1,0-0.3,0.1-0.4c0.4-0.2,0.9-0.4,1.3-0.6c0.1-0.1,0.3,0,0.4,0.1c0.1,0.1,0,0.3-0.1,0.4
		c-0.4,0.2-0.9,0.5-1.4,0.7C23.9,39.2,23.9,39.2,23.8,39.2z M8.1,37.9c-0.1,0-0.1,0-0.1,0c-0.4-0.3-0.8-0.6-1.2-0.9
		c-0.1-0.1-0.1-0.3-0.1-0.4c0.1-0.1,0.3-0.1,0.4-0.1c0.4,0.3,0.8,0.6,1.2,0.8c0.1,0.1,0.2,0.3,0.1,0.4C8.3,37.9,8.2,37.9,8.1,37.9z
		 M26.4,37.8c-0.1,0-0.2,0-0.2-0.1c-0.1-0.1,0-0.3,0.1-0.4c0.4-0.3,0.8-0.6,1.2-0.9c0.1-0.1,0.3-0.1,0.4,0c0.1,0.1,0.1,0.3,0,0.4
		c-0.4,0.3-0.8,0.6-1.2,0.9C26.6,37.8,26.5,37.8,26.4,37.8z M5.8,36.1c-0.1,0-0.1,0-0.2-0.1c-0.4-0.3-0.7-0.7-1.1-1.1
		c-0.1-0.1-0.1-0.3,0-0.4c0.1-0.1,0.3-0.1,0.4,0c0.3,0.4,0.7,0.7,1,1c0.1,0.1,0.1,0.3,0,0.4C5.9,36.1,5.8,36.1,5.8,36.1z M28.8,36
		c-0.1,0-0.1,0-0.2-0.1c-0.1-0.1-0.1-0.3,0-0.4c0.4-0.3,0.7-0.7,1-1.1c0.1-0.1,0.3-0.1,0.4,0c0.1,0.1,0.1,0.3,0,0.4
		c-0.3,0.4-0.7,0.7-1.1,1.1C28.9,36,28.9,36,28.8,36z M3.8,33.9c-0.1,0-0.2,0-0.2-0.1c-0.3-0.4-0.6-0.8-0.9-1.2
		c-0.1-0.1,0-0.3,0.1-0.4c0.1-0.1,0.3,0,0.4,0.1c0.3,0.4,0.5,0.8,0.8,1.2c0.1,0.1,0.1,0.3-0.1,0.4C3.9,33.9,3.8,33.9,3.8,33.9z
		 M2.2,31.4c-0.1,0-0.2-0.1-0.2-0.2c-0.2-0.4-0.4-0.9-0.6-1.4c-0.1-0.1,0-0.3,0.2-0.4c0.1-0.1,0.3,0,0.4,0.2C2,30.1,2.2,30.6,2.4,31
		c0.1,0.1,0,0.3-0.1,0.4C2.3,31.4,2.2,31.4,2.2,31.4z M1,28.7c-0.1,0-0.2-0.1-0.3-0.2c-0.1-0.5-0.3-1-0.4-1.5c0-0.2,0.1-0.3,0.2-0.3
		c0.2,0,0.3,0.1,0.3,0.2c0.1,0.5,0.2,1,0.4,1.4C1.4,28.4,1.3,28.6,1,28.7C1.1,28.7,1.1,28.7,1,28.7z M0.4,25.8
		c-0.1,0-0.3-0.1-0.3-0.2C0.1,25,0,24.5,0,24c0-0.2,0.1-0.3,0.3-0.3c0.2,0,0.3,0.1,0.3,0.3c0,0.5,0.1,1,0.1,1.5
		C0.7,25.6,0.6,25.7,0.4,25.8C0.4,25.8,0.4,25.8,0.4,25.8z M0.3,22.8C0.3,22.8,0.3,22.8,0.3,22.8c-0.2,0-0.3-0.1-0.3-0.3
		c0-0.5,0.1-1,0.1-1.5c0-0.2,0.2-0.3,0.3-0.2c0.2,0,0.3,0.2,0.2,0.3c-0.1,0.5-0.1,1-0.1,1.5C0.6,22.7,0.5,22.8,0.3,22.8z M0.7,19.8
		C0.7,19.8,0.7,19.8,0.7,19.8c-0.2,0-0.3-0.2-0.3-0.3c0.1-0.5,0.3-1,0.4-1.5c0-0.1,0.2-0.2,0.4-0.2c0.1,0,0.2,0.2,0.2,0.4
		c-0.2,0.5-0.3,0.9-0.4,1.4C1,19.7,0.9,19.8,0.7,19.8z M1.7,17c0,0-0.1,0-0.1,0c-0.1-0.1-0.2-0.2-0.1-0.4c0.2-0.5,0.4-0.9,0.7-1.4
		c0.1-0.1,0.2-0.2,0.4-0.1c0.1,0.1,0.2,0.2,0.1,0.4c-0.2,0.4-0.4,0.9-0.6,1.3C1.9,16.9,1.8,17,1.7,17z M3.1,14.4c-0.1,0-0.1,0-0.2,0
		c-0.1-0.1-0.2-0.3-0.1-0.4c0.3-0.4,0.6-0.8,0.9-1.2c0.1-0.1,0.3-0.1,0.4,0c0.1,0.1,0.1,0.3,0,0.4c-0.3,0.4-0.6,0.8-0.9,1.2
		C3.3,14.3,3.2,14.4,3.1,14.4z M4.9,12.1c-0.1,0-0.1,0-0.2-0.1c-0.1-0.1-0.1-0.3,0-0.4c0.3-0.4,0.7-0.7,1.1-1.1
		c0.1-0.1,0.3-0.1,0.4,0c0.1,0.1,0.1,0.3,0,0.4c-0.4,0.3-0.7,0.7-1.1,1C5.1,12,5,12.1,4.9,12.1z M27.9,10.6c-0.1,0-0.1,0-0.2-0.1
		c-0.4-0.3-0.8-0.6-1.2-0.9c-0.1-0.1-0.2-0.3-0.1-0.4c0.1-0.1,0.3-0.2,0.4-0.1c0.4,0.3,0.8,0.6,1.2,0.9c0.1,0.1,0.1,0.3,0,0.4
		C28.1,10.6,28,10.6,27.9,10.6z M7.2,10.1c-0.1,0-0.2,0-0.2-0.1C6.8,9.8,6.9,9.7,7,9.6C7.4,9.3,7.8,9,8.2,8.7c0.1-0.1,0.3,0,0.4,0.1
		c0.1,0.1,0,0.3-0.1,0.4C8.1,9.5,7.7,9.7,7.3,10C7.3,10.1,7.2,10.1,7.2,10.1z M25.4,8.9c0,0-0.1,0-0.1,0c-0.4-0.2-0.9-0.5-1.3-0.7
		c-0.1-0.1-0.2-0.2-0.1-0.4c0.1-0.1,0.2-0.2,0.4-0.1c0.5,0.2,0.9,0.4,1.4,0.7c0.1,0.1,0.2,0.2,0.1,0.4C25.6,8.9,25.5,8.9,25.4,8.9z
		 M9.7,8.5c-0.1,0-0.2-0.1-0.3-0.2C9.4,8.2,9.4,8.1,9.6,8C10,7.8,10.5,7.6,11,7.4c0.1-0.1,0.3,0,0.4,0.2c0.1,0.1,0,0.3-0.2,0.4
		c-0.5,0.2-0.9,0.4-1.3,0.6C9.8,8.5,9.7,8.5,9.7,8.5z M22.7,7.7C22.7,7.7,22.7,7.7,22.7,7.7c-0.6-0.2-1-0.3-1.5-0.4
		c-0.1,0-0.2-0.2-0.2-0.3c0-0.1,0.2-0.2,0.3-0.2c0.5,0.1,1,0.3,1.5,0.4C23,7.2,23,7.4,23,7.5C23,7.6,22.8,7.7,22.7,7.7z M12.5,7.5
		c-0.1,0-0.2-0.1-0.3-0.2c0-0.1,0-0.3,0.2-0.3c0.5-0.1,1-0.3,1.5-0.4c0.2,0,0.3,0.1,0.3,0.2c0,0.2-0.1,0.3-0.2,0.3
		C13.5,7.2,13,7.3,12.5,7.5C12.5,7.4,12.5,7.5,12.5,7.5z M19.8,7C19.8,7,19.8,7,19.8,7c-0.5-0.1-1-0.1-1.5-0.2
		c-0.2,0-0.3-0.1-0.3-0.3c0-0.2,0.2-0.3,0.3-0.3c0.5,0,1,0.1,1.5,0.2c0.2,0,0.3,0.2,0.2,0.3C20.1,6.9,20,7,19.8,7z M15.4,6.9
		c-0.1,0-0.3-0.1-0.3-0.2c0-0.2,0.1-0.3,0.2-0.3c0.5-0.1,1-0.1,1.5-0.1c0.2,0,0.3,0.1,0.3,0.3c0,0.2-0.1,0.3-0.3,0.3
		C16.4,6.8,15.9,6.8,15.4,6.9C15.4,6.9,15.4,6.9,15.4,6.9z"/>
</g>
</svg>
